$MeshFormat
4.1 0 8
$EndMeshFormat
$PhysicalNames
5
1 2 "bottom"
1 3 "right"
1 4 "top"
1 5 "left"
2 1 "domain"
$EndPhysicalNames
$Entities
4 4 1 0
1 0 0 0 0 
2 2000000 0 0 0 
3 2000000 2000000 0 0 
4 0 2000000 0 0 
1 0 0 0 2000000 0 0 1 2 2 1 -2 
2 2000000 0 0 2000000 2000000 0 1 3 2 2 -3 
3 0 2000000 0 2000000 2000000 0 1 4 2 3 -4 
4 0 0 0 0 2000000 0 1 5 2 4 -1 
1 0 0 0 2000000 2000000 0 1 1 4 1 2 3 4 
$EndEntities
$Nodes
9 676 1 676
0 1 0 1
1
0 0 0
0 2 0 1
2
2000000 0 0
0 3 0 1
3
2000000 2000000 0
0 4 0 1
4
0 2000000 0
1 1 0 24
5
6
7
8
9
10
11
12
13
14
15
16
17
18
19
20
21
22
23
24
25
26
27
28
79999.99999998487 0 0
159999.9999999782 0 0
239999.9999999639 0 0
319999.9999999422 0 0
399999.9999999298 0 0
479999.9999999174 0 0
559999.999999905 0 0
639999.9999998925 0 0
719999.9999998801 0 0
799999.9999998678 0 0
879999.9999998552 0 0
959999.9999998428 0 0
1040000.000000063 0 0
1120000.000000137 0 0
1200000.000000124 0 0
1280000.000000112 0 0
1360000.000000099 0 0
1440000.000000087 0 0
1520000.000000075 0 0
1600000.000000062 0 0
1680000.000000049 0 0
1760000.000000037 0 0
1840000.000000025 0 0
1920000.000000012 0 0
1 2 0 24
29
30
31
32
33
34
35
36
37
38
39
40
41
42
43
44
45
46
47
48
49
50
51
52
2000000 79999.99999998487 0
2000000 159999.9999999782 0
2000000 239999.9999999639 0
2000000 319999.9999999422 0
2000000 399999.9999999298 0
2000000 479999.9999999174 0
2000000 559999.999999905 0
2000000 639999.9999998925 0
2000000 719999.9999998801 0
2000000 799999.9999998678 0
2000000 879999.9999998552 0
2000000 959999.9999998428 0
2000000 1040000.000000063 0
2000000 1120000.000000137 0
2000000 1200000.000000124 0
2000000 1280000.000000112 0
2000000 1360000.000000099 0
2000000 1440000.000000087 0
2000000 1520000.000000075 0
2000000 1600000.000000062 0
2000000 1680000.000000049 0
2000000 1760000.000000037 0
2000000 1840000.000000025 0
2000000 1920000.000000012 0
1 3 0 24
53
54
55
56
57
58
59
60
61
62
63
64
65
66
67
68
69
70
71
72
73
74
75
76
1920000.000000218 2000000 0
1840000.000000437 2000000 0
1760000.000000655 2000000 0
1680000.000000874 2000000 0
1600000.000001092 2000000 0
1520000.000001311 2000000 0
1440000.00000153 2000000 0
1360000.000001748 2000000 0
1280000.000001967 2000000 0
1200000.000002185 2000000 0
1120000.000002404 2000000 0
1040000.000002622 2000000 0
960000.0000026081 2000000 0
880000.0000023611 2000000 0
800000.0000021141 2000000 0
720000.0000018672 2000000 0
640000.0000016202 2000000 0
560000.0000013732 2000000 0
480000.0000011262 2000000 0
400000.0000008792 2000000 0
320000.0000006324 2000000 0
240000.0000004112 2000000 0
160000.0000002804 2000000 0
80000.00000014929 2000000 0
1 4 0 24
77
78
79
80
81
82
83
84
85
86
87
88
89
90
91
92
93
94
95
96
97
98
99
100
0 1920000.000000218 0
0 1840000.000000437 0
0 1760000.000000655 0
0 1680000.000000874 0
0 1600000.000001092 0
0 1520000.000001311 0
0 1440000.00000153 0
0 1360000.000001748 0
0 1280000.000001967 0
0 1200000.000002185 0
0 1120000.000002404 0
0 1040000.000002622 0
0 960000.0000026081 0
0 880000.0000023611 0
0 800000.0000021141 0
0 720000.0000018672 0
0 640000.0000016202 0
0 560000.0000013732 0
0 480000.0000011262 0
0 400000.0000008792 0
0 320000.0000006324 0
0 240000.0000004112 0
0 160000.0000002804 0
0 80000.00000014929 0
2 1 0 576
101
102
103
104
105
106
107
108
109
110
111
112
113
114
115
116
117
118
119
120
121
122
123
124
125
126
127
128
129
130
131
132
133
134
135
136
137
138
139
140
141
142
143
144
145
146
147
148
149
150
151
152
153
154
155
156
157
158
159
160
161
162
163
164
165
166
167
168
169
170
171
172
173
174
175
176
177
178
179
180
181
182
183
184
185
186
187
188
189
190
191
192
193
194
195
196
197
198
199
200
201
202
203
204
205
206
207
208
209
210
211
212
213
214
215
216
217
218
219
220
221
222
223
224
225
226
227
228
229
230
231
232
233
234
235
236
237
238
239
240
241
242
243
244
245
246
247
248
249
250
251
252
253
254
255
256
257
258
259
260
261
262
263
264
265
266
267
268
269
270
271
272
273
274
275
276
277
278
279
280
281
282
283
284
285
286
287
288
289
290
291
292
293
294
295
296
297
298
299
300
301
302
303
304
305
306
307
308
309
310
311
312
313
314
315
316
317
318
319
320
321
322
323
324
325
326
327
328
329
330
331
332
333
334
335
336
337
338
339
340
341
342
343
344
345
346
347
348
349
350
351
352
353
354
355
356
357
358
359
360
361
362
363
364
365
366
367
368
369
370
371
372
373
374
375
376
377
378
379
380
381
382
383
384
385
386
387
388
389
390
391
392
393
394
395
396
397
398
399
400
401
402
403
404
405
406
407
408
409
410
411
412
413
414
415
416
417
418
419
420
421
422
423
424
425
426
427
428
429
430
431
432
433
434
435
436
437
438
439
440
441
442
443
444
445
446
447
448
449
450
451
452
453
454
455
456
457
458
459
460
461
462
463
464
465
466
467
468
469
470
471
472
473
474
475
476
477
478
479
480
481
482
483
484
485
486
487
488
489
490
491
492
493
494
495
496
497
498
499
500
501
502
503
504
505
506
507
508
509
510
511
512
513
514
515
516
517
518
519
520
521
522
523
524
525
526
527
528
529
530
531
532
533
534
535
536
537
538
539
540
541
542
543
544
545
546
547
548
549
550
551
552
553
554
555
556
557
558
559
560
561
562
563
564
565
566
567
568
569
570
571
572
573
574
575
576
577
578
579
580
581
582
583
584
585
586
587
588
589
590
591
592
593
594
595
596
597
598
599
600
601
602
603
604
605
606
607
608
609
610
611
612
613
614
615
616
617
618
619
620
621
622
623
624
625
626
627
628
629
630
631
632
633
634
635
636
637
638
639
640
641
642
643
644
645
646
647
648
649
650
651
652
653
654
655
656
657
658
659
660
661
662
663
664
665
666
667
668
669
670
671
672
673
674
675
676
79999.99999999144 80000.00000014273 0
79999.99999999802 160000.0000002683 0
80000.0000000046 240000.0000003933 0
80000.00000001118 320000.0000006049 0
80000.00000001775 400000.0000008412 0
80000.00000002433 480000.0000010778 0
80000.00000003091 560000.0000013143 0
80000.00000003749 640000.000001551 0
80000.00000004403 720000.0000017877 0
80000.00000005064 800000.0000020243 0
80000.00000005722 880000.0000022609 0
80000.0000000638 960000.0000024976 0
80000.00000007037 1040000.00000252 0
80000.00000007695 1120000.000002313 0
80000.00000008353 1200000.000002103 0
80000.00000009008 1280000.000001892 0
80000.00000009668 1360000.000001682 0
80000.00000010326 1440000.000001472 0
80000.00000010982 1520000.000001262 0
80000.00000011642 1600000.000001051 0
80000.00000012298 1680000.000000841 0
80000.00000012957 1760000.000000631 0
80000.00000013615 1840000.00000042 0
80000.0000001427 1920000.00000021 0
159999.9999999903 80000.00000013615 0
160000.0000000024 160000.0000002562 0
160000.0000000145 240000.0000003754 0
160000.0000000265 320000.0000005772 0
160000.0000000386 400000.0000008033 0
160000.0000000507 480000.0000010295 0
160000.0000000628 560000.0000012557 0
160000.0000000749 640000.000001482 0
160000.000000087 720000.0000017083 0
160000.0000000991 800000.0000019345 0
160000.0000001111 880000.0000021607 0
160000.0000001233 960000.000002387 0
160000.0000001353 1040000.000002418 0
160000.0000001474 1120000.000002222 0
160000.0000001595 1200000.000002021 0
160000.0000001716 1280000.000001818 0
160000.0000001837 1360000.000001616 0
160000.0000001957 1440000.000001414 0
160000.0000002078 1520000.000001212 0
160000.0000002199 1600000.00000101 0
160000.000000232 1680000.000000808 0
160000.0000002441 1760000.000000606 0
160000.0000002562 1840000.000000404 0
160000.0000002683 1920000.000000202 0
239999.9999999819 80000.00000012957 0
239999.9999999997 160000.0000002441 0
240000.0000000176 240000.0000003575 0
240000.0000000355 320000.0000005496 0
240000.0000000534 400000.0000007653 0
240000.0000000712 480000.0000009812 0
240000.0000000892 560000.000001197 0
240000.0000001071 640000.0000014127 0
240000.0000001249 720000.0000016289 0
240000.0000001429 800000.0000018445 0
240000.0000001608 880000.0000020604 0
240000.0000001786 960000.0000022764 0
240000.0000001965 1040000.000002315 0
240000.0000002144 1120000.000002132 0
240000.0000002323 1200000.000001938 0
240000.0000002502 1280000.000001744 0
240000.000000268 1360000.00000155 0
240000.000000286 1440000.000001356 0
240000.0000003038 1520000.000001163 0
240000.0000003218 1600000.000000969 0
240000.0000003396 1680000.000000775 0
240000.0000003576 1760000.000000581 0
240000.0000003754 1840000.000000387 0
240000.0000003933 1920000.000000194 0
319999.9999999698 80000.00000012299 0
319999.9999999973 160000.000000232 0
320000.000000025 240000.0000003396 0
320000.0000000526 320000.000000522 0
320000.0000000802 400000.0000007272 0
320000.0000001079 480000.0000009328 0
320000.0000001353 560000.0000011383 0
320000.0000001631 640000.0000013437 0
320000.0000001906 720000.0000015493 0
320000.0000002183 800000.0000017546 0
320000.0000002459 880000.0000019602 0
320000.0000002734 960000.0000021656 0
320000.0000003012 1040000.000002213 0
320000.0000003287 1120000.000002041 0
320000.0000003563 1200000.000001855 0
320000.0000003839 1280000.00000167 0
320000.0000004115 1360000.000001485 0
320000.0000004391 1440000.000001299 0
320000.0000004667 1520000.000001113 0
320000.0000004944 1600000.000000928 0
320000.000000522 1680000.000000742 0
320000.0000005496 1760000.000000556 0
320000.0000005772 1840000.000000371 0
320000.0000006048 1920000.000000186 0
399999.9999999678 80000.00000011642 0
400000.0000000058 160000.0000002199 0
400000.0000000438 240000.0000003218 0
400000.0000000817 320000.0000004944 0
400000.0000001196 400000.0000006892 0
400000.0000001576 480000.0000008844 0
400000.0000001957 560000.0000010796 0
400000.0000002335 640000.0000012746 0
400000.0000002717 720000.0000014699 0
400000.0000003096 800000.0000016647 0
400000.0000003476 880000.00000186 0
400000.0000003855 960000.0000020552 0
400000.0000004234 1040000.000002111 0
400000.0000004615 1120000.00000195 0
400000.0000004994 1200000.000001773 0
400000.0000005374 1280000.000001596 0
400000.0000005755 1360000.000001418 0
400000.0000006134 1440000.000001241 0
400000.0000006513 1520000.000001064 0
400000.0000006893 1600000.000000886 0
400000.0000007274 1680000.000000709 0
400000.0000007653 1760000.000000532 0
400000.0000008033 1840000.000000354 0
400000.0000008412 1920000.000000177 0
479999.9999999657 80000.00000010984 0
480000.0000000142 160000.0000002079 0
480000.0000000625 240000.0000003039 0
480000.0000001108 320000.0000004668 0
480000.0000001591 400000.0000006513 0
480000.0000002076 480000.0000008362 0
480000.0000002558 560000.0000010207 0
480000.0000003043 640000.0000012055 0
480000.0000003526 720000.0000013905 0
480000.0000004009 800000.0000015748 0
480000.0000004493 880000.0000017596 0
480000.0000004976 960000.0000019446 0
480000.0000005459 1040000.000002008 0
480000.0000005944 1120000.00000186 0
480000.0000006427 1200000.00000169 0
480000.000000691 1280000.000001522 0
480000.0000007394 1360000.000001352 0
480000.0000007877 1440000.000001184 0
480000.000000836 1520000.000001014 0
480000.0000008845 1600000.000000845 0
480000.0000009329 1680000.000000676 0
480000.0000009811 1760000.000000507 0
480000.0000010295 1840000.000000338 0
480000.0000010778 1920000.000000169 0
559999.9999999639 80000.00000010326 0
560000.0000000224 160000.0000001958 0
560000.000000081 240000.000000286 0
560000.0000001399 320000.0000004392 0
560000.0000001986 400000.0000006134 0
560000.0000002575 480000.0000007877 0
560000.0000003162 560000.0000009621 0
560000.0000003749 640000.0000011363 0
560000.0000004336 720000.0000013108 0
560000.0000004922 800000.000001485 0
560000.0000005511 880000.0000016595 0
560000.0000006098 960000.0000018337 0
560000.0000006685 1040000.000001906 0
560000.0000007271 1120000.000001769 0
560000.000000786 1200000.000001608 0
560000.0000008447 1280000.000001447 0
560000.0000009034 1360000.000001287 0
560000.0000009621 1440000.000001126 0
560000.000001021 1520000.000000965 0
560000.0000010796 1600000.000000804 0
560000.0000011383 1680000.000000643 0
560000.000001197 1760000.000000482 0
560000.0000012557 1840000.000000321 0
560000.0000013146 1920000.000000161 0
639999.9999999617 80000.00000009668 0
640000.0000000307 160000.0000001837 0
640000.0000001 240000.0000002681 0
640000.000000169 320000.0000004115 0
640000.0000002381 400000.0000005753 0
640000.0000003072 480000.0000007394 0
640000.0000003764 560000.0000009034 0
640000.0000004454 640000.0000010673 0
640000.0000005144 720000.0000012314 0
640000.0000005836 800000.0000013951 0
640000.0000006529 880000.0000015593 0
640000.0000007219 960000.0000017232 0
640000.0000007909 1040000.000001804 0
640000.00000086 1120000.000001678 0
640000.0000009291 1200000.000001526 0
640000.0000009984 1280000.000001373 0
640000.0000010673 1360000.00000122 0
640000.0000011364 1440000.000001068 0
640000.0000012055 1520000.000000915 0
640000.0000012746 1600000.000000762 0
640000.0000013439 1680000.00000061 0
640000.0000014129 1760000.000000457 0
640000.000001482 1840000.000000305 0
640000.000001551 1920000.000000152 0
719999.9999999597 80000.00000009011 0
720000.0000000391 160000.0000001716 0
720000.0000001184 240000.0000002502 0
720000.0000001979 320000.0000003839 0
720000.0000002774 400000.0000005374 0
720000.000000357 480000.000000691 0
720000.0000004366 560000.0000008446 0
720000.000000516 640000.000000998 0
720000.0000005953 720000.0000011518 0
720000.000000675 800000.0000013054 0
720000.0000007544 880000.0000014589 0
720000.0000008338 960000.0000016126 0
720000.0000009134 1040000.000001701 0
720000.0000009928 1120000.000001588 0
720000.0000010724 1200000.000001443 0
720000.0000011518 1280000.000001299 0
720000.0000012314 1360000.000001155 0
720000.0000013108 1440000.00000101 0
720000.0000013901 1520000.000000866 0
720000.0000014696 1600000.000000722 0
720000.0000015493 1680000.000000577 0
720000.0000016287 1760000.000000433 0
720000.0000017083 1840000.000000288 0
720000.0000017877 1920000.000000144 0
799999.9999999575 80000.00000008353 0
800000.0000000476 160000.0000001595 0
800000.0000001374 240000.0000002323 0
800000.000000227 320000.0000003563 0
800000.0000003171 400000.0000004995 0
800000.0000004069 480000.0000006427 0
800000.0000004966 560000.0000007858 0
800000.0000005865 640000.0000009291 0
800000.0000006764 720000.0000010724 0
800000.0000007662 800000.0000012154 0
800000.0000008561 880000.0000013587 0
800000.000000946 960000.0000015021 0
800000.0000010359 1040000.000001599 0
800000.0000011257 1120000.000001497 0
800000.0000012156 1200000.000001361 0
800000.0000013055 1280000.000001225 0
800000.0000013951 1360000.000001089 0
800000.000001485 1440000.000000953 0
800000.0000015751 1520000.000000816 0
800000.0000016647 1600000.00000068 0
800000.0000017546 1680000.000000544 0
800000.0000018445 1760000.000000408 0
800000.0000019344 1840000.000000272 0
800000.0000020242 1920000.000000136 0
879999.9999999555 80000.00000007695 0
880000.0000000559 160000.0000001475 0
880000.000000156 240000.0000002144 0
880000.0000002563 320000.0000003288 0
880000.0000003566 400000.0000004615 0
880000.0000004567 480000.0000005944 0
880000.0000005568 560000.0000007271 0
880000.000000657 640000.00000086 0
880000.0000007574 720000.000000993 0
880000.0000008574 800000.0000011257 0
880000.0000009577 880000.0000012586 0
880000.0000010579 960000.0000013913 0
880000.0000011582 1040000.000001496 0
880000.0000012587 1120000.000001406 0
880000.0000013587 1200000.000001278 0
880000.000001459 1280000.000001151 0
880000.0000015594 1360000.000001023 0
880000.0000016595 1440000.000000895 0
880000.0000017596 1520000.000000767 0
880000.00000186 1600000.000000639 0
880000.0000019604 1680000.000000511 0
880000.0000020606 1760000.000000383 0
880000.0000021607 1840000.000000256 0
880000.000002261 1920000.000000128 0
959999.9999999534 80000.00000007037 0
960000.0000000641 160000.0000001354 0
960000.0000001745 240000.0000001965 0
960000.0000002855 320000.0000003012 0
960000.0000003958 400000.0000004235 0
960000.0000005064 480000.000000546 0
960000.0000006169 560000.0000006685 0
960000.0000007278 640000.0000007909 0
960000.0000008384 720000.0000009134 0
960000.0000009489 800000.0000010359 0
960000.0000010595 880000.0000011582 0
960000.0000011701 960000.0000012808 0
960000.0000012806 1040000.000001394 0
960000.0000013914 1120000.000001316 0
960000.0000015019 1200000.000001196 0
960000.0000016126 1280000.000001077 0
960000.0000017234 1360000.000000957 0
960000.0000018338 1440000.000000837 0
960000.0000019443 1520000.000000718 0
960000.0000020552 1600000.000000597 0
960000.0000021658 1680000.000000478 0
960000.0000022762 1760000.000000359 0
960000.0000023869 1840000.000000239 0
960000.0000024973 1920000.000000119 0
1040000.000000166 80000.0000000638 0
1040000.000000268 160000.0000001233 0
1040000.00000037 240000.0000001786 0
1040000.000000473 320000.0000002736 0
1040000.000000575 400000.0000003856 0
1040000.000000678 480000.0000004976 0
1040000.00000078 560000.0000006098 0
1040000.000000882 640000.0000007217 0
1040000.000000985 720000.000000834 0
1040000.000001087 800000.000000946 0
1040000.000001189 880000.0000010581 0
1040000.000001292 960000.0000011702 0
1040000.000001394 1040000.000001292 0
1040000.000001496 1120000.000001225 0
1040000.000001599 1200000.000001113 0
1040000.000001701 1280000.000001002 0
1040000.000001804 1360000.000000891 0
1040000.000001906 1440000.00000078 0
1040000.000002008 1520000.000000668 0
1040000.000002111 1600000.000000556 0
1040000.000002213 1680000.000000445 0
1040000.000002316 1760000.000000334 0
1040000.000002418 1840000.000000223 0
1040000.00000252 1920000.000000111 0
1120000.000000227 80000.00000005722 0
1120000.000000318 160000.0000001111 0
1120000.000000409 240000.0000001607 0
1120000.000000499 320000.0000002459 0
1120000.00000059 400000.0000003475 0
1120000.000000681 480000.0000004494 0
1120000.000000772 560000.000000551 0
1120000.000000862 640000.0000006526 0
1120000.000000953 720000.0000007546 0
1120000.000001044 800000.0000008561 0
1120000.000001134 880000.0000009577 0
1120000.000001225 960000.0000010596 0
1120000.000001316 1040000.000001189 0
1120000.000001406 1120000.000001134 0
1120000.000001497 1200000.000001031 0
1120000.000001587 1280000.000000928 0
1120000.000001678 1360000.000000825 0
1120000.000001769 1440000.000000722 0
1120000.00000186 1520000.000000618 0
1120000.00000195 1600000.000000515 0
1120000.000002041 1680000.000000412 0
1120000.000002132 1760000.000000309 0
1120000.000002223 1840000.000000206 0
1120000.000002313 1920000.000000103 0
1200000.000000206 80000.00000005064 0
1200000.000000289 160000.0000000991 0
1200000.000000371 240000.0000001429 0
1200000.000000454 320000.0000002183 0
1200000.000000536 400000.0000003095 0
1200000.000000619 480000.0000004009 0
1200000.000000701 560000.0000004922 0
1200000.000000784 640000.0000005836 0
1200000.000000866 720000.000000675 0
1200000.000000949 800000.0000007662 0
1200000.000001031 880000.0000008574 0
1200000.000001113 960000.0000009489 0
1200000.000001196 1040000.000001087 0
1200000.000001279 1120000.000001044 0
1200000.000001361 1200000.000000949 0
1200000.000001443 1280000.000000854 0
1200000.000001526 1360000.000000759 0
1200000.000001608 1440000.000000664 0
1200000.000001691 1520000.000000569 0
1200000.000001773 1600000.000000474 0
1200000.000001856 1680000.000000379 0
1200000.000001938 1760000.000000284 0
1200000.000002021 1840000.000000189 0
1200000.000002103 1920000.000000095 0
1280000.000000186 80000.00000004406 0
1280000.00000026 160000.000000087 0
1280000.000000334 240000.000000125 0
1280000.000000409 320000.0000001907 0
1280000.000000483 400000.0000002716 0
1280000.000000557 480000.0000003526 0
1280000.000000631 560000.0000004335 0
1280000.000000705 640000.0000005144 0
1280000.00000078 720000.0000005956 0
1280000.000000854 800000.0000006764 0
1280000.000000928 880000.0000007573 0
1280000.000001002 960000.0000008384 0
1280000.000001076 1040000.000000985 0
1280000.000001151 1120000.000000953 0
1280000.000001225 1200000.000000866 0
1280000.000001299 1280000.00000078 0
1280000.000001373 1360000.000000693 0
1280000.000001447 1440000.000000606 0
1280000.000001522 1520000.00000052 0
1280000.000001596 1600000.000000433 0
1280000.00000167 1680000.000000346 0
1280000.000001744 1760000.000000259 0
1280000.000001818 1840000.000000173 0
1280000.000001892 1920000.000000087 0
1360000.000000165 80000.00000003749 0
1360000.000000231 160000.0000000749 0
1360000.000000297 240000.000000107 0
1360000.000000363 320000.0000001631 0
1360000.000000429 400000.0000002335 0
1360000.000000495 480000.0000003043 0
1360000.000000561 560000.0000003749 0
1360000.000000627 640000.0000004454 0
1360000.000000693 720000.000000516 0
1360000.000000759 800000.0000005866 0
1360000.000000825 880000.0000006573 0
1360000.000000891 960000.0000007277 0
1360000.000000957 1040000.000000882 0
1360000.000001023 1120000.000000862 0
1360000.000001089 1200000.000000784 0
1360000.000001155 1280000.000000705 0
1360000.000001221 1360000.000000627 0
1360000.000001287 1440000.000000549 0
1360000.000001353 1520000.00000047 0
1360000.000001418 1600000.000000392 0
1360000.000001485 1680000.000000313 0
1360000.000001551 1760000.000000234 0
1360000.000001616 1840000.000000156 0
1360000.000001682 1920000.000000078 0
1440000.000000144 80000.00000003091 0
1440000.000000203 160000.0000000628 0
1440000.00000026 240000.0000000892 0
1440000.000000318 320000.0000001354 0
1440000.000000376 400000.0000001956 0
1440000.000000433 480000.0000002559 0
1440000.000000491 560000.0000003162 0
1440000.000000549 640000.0000003763 0
1440000.000000606 720000.0000004366 0
1440000.000000664 800000.0000004966 0
1440000.000000722 880000.0000005568 0
1440000.00000078 960000.0000006172 0
1440000.000000837 1040000.00000078 0
1440000.000000895 1120000.000000772 0
1440000.000000953 1200000.000000701 0
1440000.00000101 1280000.000000631 0
1440000.000001068 1360000.000000561 0
1440000.000001126 1440000.000000491 0
1440000.000001183 1520000.000000421 0
1440000.000001241 1600000.00000035 0
1440000.000001299 1680000.00000028 0
1440000.000001356 1760000.00000021 0
1440000.000001414 1840000.00000014 0
1440000.000001472 1920000.00000007 0
1520000.000000124 80000.00000002432 0
1520000.000000173 160000.0000000508 0
1520000.000000223 240000.0000000712 0
1520000.000000272 320000.0000001079 0
1520000.000000322 400000.0000001576 0
1520000.000000371 480000.0000002075 0
1520000.000000421 560000.0000002573 0
1520000.00000047 640000.0000003073 0
1520000.000000519 720000.000000357 0
1520000.000000569 800000.0000004068 0
1520000.000000619 880000.0000004565 0
1520000.000000668 960000.0000005065 0
1520000.000000718 1040000.000000678 0
1520000.000000767 1120000.000000681 0
1520000.000000817 1200000.000000619 0
1520000.000000866 1280000.000000557 0
1520000.000000916 1360000.000000495 0
1520000.000000965 1440000.000000433 0
1520000.000001014 1520000.000000371 0
1520000.000001064 1600000.000000309 0
1520000.000001113 1680000.000000247 0
1520000.000001163 1760000.000000185 0
1520000.000001212 1840000.000000124 0
1520000.000001261 1920000.000000062 0
1600000.000000103 80000.00000001775 0
1600000.000000144 160000.0000000387 0
1600000.000000186 240000.0000000534 0
1600000.000000227 320000.0000000803 0
1600000.000000268 400000.0000001197 0
1600000.00000031 480000.0000001592 0
1600000.000000351 560000.0000001986 0
1600000.000000392 640000.0000002381 0
1600000.000000433 720000.0000002775 0
1600000.000000474 800000.0000003169 0
1600000.000000515 880000.0000003563 0
1600000.000000556 960000.0000003962 0
1600000.000000598 1040000.000000575 0
1600000.000000639 1120000.00000059 0
1600000.00000068 1200000.000000536 0
1600000.000000721 1280000.000000483 0
1600000.000000762 1360000.000000429 0
1600000.000000804 1440000.000000375 0
1600000.000000845 1520000.000000322 0
1600000.000000886 1600000.000000268 0
1600000.000000928 1680000.000000214 0
1600000.000000969 1760000.000000161 0
1600000.00000101 1840000.000000107 0
1600000.000001051 1920000.000000054 0
1680000.000000083 80000.00000001116 0
1680000.000000115 160000.0000000265 0
1680000.000000148 240000.0000000355 0
1680000.000000182 320000.0000000526 0
1680000.000000214 400000.0000000815 0
1680000.000000247 480000.0000001109 0
1680000.00000028 560000.0000001399 0
1680000.000000314 640000.000000169 0
1680000.000000346 720000.0000001981 0
1680000.000000379 800000.000000227 0
1680000.000000412 880000.000000256 0
1680000.000000445 960000.0000002855 0
1680000.000000478 1040000.000000473 0
1680000.000000511 1120000.0000005 0
1680000.000000544 1200000.000000454 0
1680000.000000577 1280000.000000409 0
1680000.00000061 1360000.000000363 0
1680000.000000643 1440000.000000318 0
1680000.000000675 1520000.000000272 0
1680000.000000709 1600000.000000227 0
1680000.000000742 1680000.000000181 0
1680000.000000775 1760000.000000136 0
1680000.000000808 1840000.000000091 0
1680000.000000841 1920000.000000045 0
1760000.000000061 80000.0000000046 0
1760000.000000087 160000.0000000145 0
1760000.000000111 240000.0000000176 0
1760000.000000136 320000.000000025 0
1760000.000000161 400000.0000000437 0
1760000.000000186 480000.0000000626 0
1760000.00000021 560000.000000081 0
1760000.000000235 640000.0000000999 0
1760000.00000026 720000.0000001185 0
1760000.000000285 800000.0000001374 0
1760000.000000309 880000.000000156 0
1760000.000000334 960000.0000001745 0
1760000.000000359 1040000.00000037 0
1760000.000000383 1120000.000000409 0
1760000.000000408 1200000.000000371 0
1760000.000000433 1280000.000000334 0
1760000.000000458 1360000.000000297 0
1760000.000000482 1440000.00000026 0
1760000.000000507 1520000.000000223 0
1760000.000000532 1600000.000000185 0
1760000.000000556 1680000.000000149 0
1760000.000000581 1760000.000000111 0
1760000.000000606 1840000.000000074 0
1760000.000000631 1920000.000000037 0
1840000.000000041 79999.99999999802 0
1840000.000000058 160000.0000000024 0
1840000.000000074 239999.9999999997 0
1840000.000000091 319999.9999999974 0
1840000.000000107 400000.0000000057 0
1840000.000000123 480000.0000000141 0
1840000.00000014 560000.0000000224 0
1840000.000000156 640000.0000000306 0
1840000.000000173 720000.0000000391 0
1840000.00000019 800000.0000000475 0
1840000.000000206 880000.0000000556 0
1840000.000000222 960000.0000000639 0
1840000.000000239 1040000.000000268 0
1840000.000000255 1120000.000000318 0
1840000.000000272 1200000.000000289 0
1840000.000000288 1280000.00000026 0
1840000.000000305 1360000.000000231 0
1840000.000000322 1440000.000000203 0
1840000.000000338 1520000.000000173 0
1840000.000000354 1600000.000000144 0
1840000.000000371 1680000.000000115 0
1840000.000000387 1760000.000000086 0
1840000.000000404 1840000.000000058 0
1840000.00000042 1920000.000000029 0
1920000.000000021 79999.99999999144 0
1920000.000000029 159999.9999999903 0
1920000.000000037 239999.9999999818 0
1920000.000000045 319999.9999999698 0
1920000.000000054 399999.9999999677 0
1920000.000000061 479999.9999999658 0
1920000.00000007 559999.9999999637 0
1920000.000000078 639999.9999999615 0
1920000.000000087 719999.9999999597 0
1920000.000000095 799999.9999999576 0
1920000.000000103 879999.9999999554 0
1920000.000000111 959999.9999999534 0
1920000.00000012 1040000.000000166 0
1920000.000000128 1120000.000000227 0
1920000.000000136 1200000.000000206 0
1920000.000000145 1280000.000000186 0
1920000.000000152 1360000.000000165 0
1920000.000000161 1440000.000000145 0
1920000.000000169 1520000.000000124 0
1920000.000000178 1600000.000000103 0
1920000.000000185 1680000.000000082 0
1920000.000000194 1760000.000000062 0
1920000.000000202 1840000.000000041 0
1920000.00000021 1920000.00000002 0
$EndNodes
$Elements
5 725 1 725
1 1 1 25
1 1 5 
2 5 6 
3 6 7 
4 7 8 
5 8 9 
6 9 10 
7 10 11 
8 11 12 
9 12 13 
10 13 14 
11 14 15 
12 15 16 
13 16 17 
14 17 18 
15 18 19 
16 19 20 
17 20 21 
18 21 22 
19 22 23 
20 23 24 
21 24 25 
22 25 26 
23 26 27 
24 27 28 
25 28 2 
1 2 1 25
26 2 29 
27 29 30 
28 30 31 
29 31 32 
30 32 33 
31 33 34 
32 34 35 
33 35 36 
34 36 37 
35 37 38 
36 38 39 
37 39 40 
38 40 41 
39 41 42 
40 42 43 
41 43 44 
42 44 45 
43 45 46 
44 46 47 
45 47 48 
46 48 49 
47 49 50 
48 50 51 
49 51 52 
50 52 3 
1 3 1 25
51 3 53 
52 53 54 
53 54 55 
54 55 56 
55 56 57 
56 57 58 
57 58 59 
58 59 60 
59 60 61 
60 61 62 
61 62 63 
62 63 64 
63 64 65 
64 65 66 
65 66 67 
66 67 68 
67 68 69 
68 69 70 
69 70 71 
70 71 72 
71 72 73 
72 73 74 
73 74 75 
74 75 76 
75 76 4 
1 4 1 25
76 4 77 
77 77 78 
78 78 79 
79 79 80 
80 80 81 
81 81 82 
82 82 83 
83 83 84 
84 84 85 
85 85 86 
86 86 87 
87 87 88 
88 88 89 
89 89 90 
90 90 91 
91 91 92 
92 92 93 
93 93 94 
94 94 95 
95 95 96 
96 96 97 
97 97 98 
98 98 99 
99 99 100 
100 100 1 
2 1 3 625
101 1 5 101 100 
102 100 101 102 99 
103 99 102 103 98 
104 98 103 104 97 
105 97 104 105 96 
106 96 105 106 95 
107 95 106 107 94 
108 94 107 108 93 
109 93 108 109 92 
110 92 109 110 91 
111 91 110 111 90 
112 90 111 112 89 
113 89 112 113 88 
114 88 113 114 87 
115 87 114 115 86 
116 86 115 116 85 
117 85 116 117 84 
118 84 117 118 83 
119 83 118 119 82 
120 82 119 120 81 
121 81 120 121 80 
122 80 121 122 79 
123 79 122 123 78 
124 78 123 124 77 
125 77 124 76 4 
126 5 6 125 101 
127 101 125 126 102 
128 102 126 127 103 
129 103 127 128 104 
130 104 128 129 105 
131 105 129 130 106 
132 106 130 131 107 
133 107 131 132 108 
134 108 132 133 109 
135 109 133 134 110 
136 110 134 135 111 
137 111 135 136 112 
138 112 136 137 113 
139 113 137 138 114 
140 114 138 139 115 
141 115 139 140 116 
142 116 140 141 117 
143 117 141 142 118 
144 118 142 143 119 
145 119 143 144 120 
146 120 144 145 121 
147 121 145 146 122 
148 122 146 147 123 
149 123 147 148 124 
150 124 148 75 76 
151 6 7 149 125 
152 125 149 150 126 
153 126 150 151 127 
154 127 151 152 128 
155 128 152 153 129 
156 129 153 154 130 
157 130 154 155 131 
158 131 155 156 132 
159 132 156 157 133 
160 133 157 158 134 
161 134 158 159 135 
162 135 159 160 136 
163 136 160 161 137 
164 137 161 162 138 
165 138 162 163 139 
166 139 163 164 140 
167 140 164 165 141 
168 141 165 166 142 
169 142 166 167 143 
170 143 167 168 144 
171 144 168 169 145 
172 145 169 170 146 
173 146 170 171 147 
174 147 171 172 148 
175 148 172 74 75 
176 7 8 173 149 
177 149 173 174 150 
178 150 174 175 151 
179 151 175 176 152 
180 152 176 177 153 
181 153 177 178 154 
182 154 178 179 155 
183 155 179 180 156 
184 156 180 181 157 
185 157 181 182 158 
186 158 182 183 159 
187 159 183 184 160 
188 160 184 185 161 
189 161 185 186 162 
190 162 186 187 163 
191 163 187 188 164 
192 164 188 189 165 
193 165 189 190 166 
194 166 190 191 167 
195 167 191 192 168 
196 168 192 193 169 
197 169 193 194 170 
198 170 194 195 171 
199 171 195 196 172 
200 172 196 73 74 
201 8 9 197 173 
202 173 197 198 174 
203 174 198 199 175 
204 175 199 200 176 
205 176 200 201 177 
206 177 201 202 178 
207 178 202 203 179 
208 179 203 204 180 
209 180 204 205 181 
210 181 205 206 182 
211 182 206 207 183 
212 183 207 208 184 
213 184 208 209 185 
214 185 209 210 186 
215 186 210 211 187 
216 187 211 212 188 
217 188 212 213 189 
218 189 213 214 190 
219 190 214 215 191 
220 191 215 216 192 
221 192 216 217 193 
222 193 217 218 194 
223 194 218 219 195 
224 195 219 220 196 
225 196 220 72 73 
226 9 10 221 197 
227 197 221 222 198 
228 198 222 223 199 
229 199 223 224 200 
230 200 224 225 201 
231 201 225 226 202 
232 202 226 227 203 
233 203 227 228 204 
234 204 228 229 205 
235 205 229 230 206 
236 206 230 231 207 
237 207 231 232 208 
238 208 232 233 209 
239 209 233 234 210 
240 210 234 235 211 
241 211 235 236 212 
242 212 236 237 213 
243 213 237 238 214 
244 214 238 239 215 
245 215 239 240 216 
246 216 240 241 217 
247 217 241 242 218 
248 218 242 243 219 
249 219 243 244 220 
250 220 244 71 72 
251 10 11 245 221 
252 221 245 246 222 
253 222 246 247 223 
254 223 247 248 224 
255 224 248 249 225 
256 225 249 250 226 
257 226 250 251 227 
258 227 251 252 228 
259 228 252 253 229 
260 229 253 254 230 
261 230 254 255 231 
262 231 255 256 232 
263 232 256 257 233 
264 233 257 258 234 
265 234 258 259 235 
266 235 259 260 236 
267 236 260 261 237 
268 237 261 262 238 
269 238 262 263 239 
270 239 263 264 240 
271 240 264 265 241 
272 241 265 266 242 
273 242 266 267 243 
274 243 267 268 244 
275 244 268 70 71 
276 11 12 269 245 
277 245 269 270 246 
278 246 270 271 247 
279 247 271 272 248 
280 248 272 273 249 
281 249 273 274 250 
282 250 274 275 251 
283 251 275 276 252 
284 252 276 277 253 
285 253 277 278 254 
286 254 278 279 255 
287 255 279 280 256 
288 256 280 281 257 
289 257 281 282 258 
290 258 282 283 259 
291 259 283 284 260 
292 260 284 285 261 
293 261 285 286 262 
294 262 286 287 263 
295 263 287 288 264 
296 264 288 289 265 
297 265 289 290 266 
298 266 290 291 267 
299 267 291 292 268 
300 268 292 69 70 
301 12 13 293 269 
302 269 293 294 270 
303 270 294 295 271 
304 271 295 296 272 
305 272 296 297 273 
306 273 297 298 274 
307 274 298 299 275 
308 275 299 300 276 
309 276 300 301 277 
310 277 301 302 278 
311 278 302 303 279 
312 279 303 304 280 
313 280 304 305 281 
314 281 305 306 282 
315 282 306 307 283 
316 283 307 308 284 
317 284 308 309 285 
318 285 309 310 286 
319 286 310 311 287 
320 287 311 312 288 
321 288 312 313 289 
322 289 313 314 290 
323 290 314 315 291 
324 291 315 316 292 
325 292 316 68 69 
326 13 14 317 293 
327 293 317 318 294 
328 294 318 319 295 
329 295 319 320 296 
330 296 320 321 297 
331 297 321 322 298 
332 298 322 323 299 
333 299 323 324 300 
334 300 324 325 301 
335 301 325 326 302 
336 302 326 327 303 
337 303 327 328 304 
338 304 328 329 305 
339 305 329 330 306 
340 306 330 331 307 
341 307 331 332 308 
342 308 332 333 309 
343 309 333 334 310 
344 310 334 335 311 
345 311 335 336 312 
346 312 336 337 313 
347 313 337 338 314 
348 314 338 339 315 
349 315 339 340 316 
350 316 340 67 68 
351 14 15 341 317 
352 317 341 342 318 
353 318 342 343 319 
354 319 343 344 320 
355 320 344 345 321 
356 321 345 346 322 
357 322 346 347 323 
358 323 347 348 324 
359 324 348 349 325 
360 325 349 350 326 
361 326 350 351 327 
362 327 351 352 328 
363 328 352 353 329 
364 329 353 354 330 
365 330 354 355 331 
366 331 355 356 332 
367 332 356 357 333 
368 333 357 358 334 
369 334 358 359 335 
370 335 359 360 336 
371 336 360 361 337 
372 337 361 362 338 
373 338 362 363 339 
374 339 363 364 340 
375 340 364 66 67 
376 15 16 365 341 
377 341 365 366 342 
378 342 366 367 343 
379 343 367 368 344 
380 344 368 369 345 
381 345 369 370 346 
382 346 370 371 347 
383 347 371 372 348 
384 348 372 373 349 
385 349 373 374 350 
386 350 374 375 351 
387 351 375 376 352 
388 352 376 377 353 
389 353 377 378 354 
390 354 378 379 355 
391 355 379 380 356 
392 356 380 381 357 
393 357 381 382 358 
394 358 382 383 359 
395 359 383 384 360 
396 360 384 385 361 
397 361 385 386 362 
398 362 386 387 363 
399 363 387 388 364 
400 364 388 65 66 
401 16 17 389 365 
402 365 389 390 366 
403 366 390 391 367 
404 367 391 392 368 
405 368 392 393 369 
406 369 393 394 370 
407 370 394 395 371 
408 371 395 396 372 
409 372 396 397 373 
410 373 397 398 374 
411 374 398 399 375 
412 375 399 400 376 
413 376 400 401 377 
414 377 401 402 378 
415 378 402 403 379 
416 379 403 404 380 
417 380 404 405 381 
418 381 405 406 382 
419 382 406 407 383 
420 383 407 408 384 
421 384 408 409 385 
422 385 409 410 386 
423 386 410 411 387 
424 387 411 412 388 
425 388 412 64 65 
426 17 18 413 389 
427 389 413 414 390 
428 390 414 415 391 
429 391 415 416 392 
430 392 416 417 393 
431 393 417 418 394 
432 394 418 419 395 
433 395 419 420 396 
434 396 420 421 397 
435 397 421 422 398 
436 398 422 423 399 
437 399 423 424 400 
438 400 424 425 401 
439 401 425 426 402 
440 402 426 427 403 
441 403 427 428 404 
442 404 428 429 405 
443 405 429 430 406 
444 406 430 431 407 
445 407 431 432 408 
446 408 432 433 409 
447 409 433 434 410 
448 410 434 435 411 
449 411 435 436 412 
450 412 436 63 64 
451 18 19 437 413 
452 413 437 438 414 
453 414 438 439 415 
454 415 439 440 416 
455 416 440 441 417 
456 417 441 442 418 
457 418 442 443 419 
458 419 443 444 420 
459 420 444 445 421 
460 421 445 446 422 
461 422 446 447 423 
462 423 447 448 424 
463 424 448 449 425 
464 425 449 450 426 
465 426 450 451 427 
466 427 451 452 428 
467 428 452 453 429 
468 429 453 454 430 
469 430 454 455 431 
470 431 455 456 432 
471 432 456 457 433 
472 433 457 458 434 
473 434 458 459 435 
474 435 459 460 436 
475 436 460 62 63 
476 19 20 461 437 
477 437 461 462 438 
478 438 462 463 439 
479 439 463 464 440 
480 440 464 465 441 
481 441 465 466 442 
482 442 466 467 443 
483 443 467 468 444 
484 444 468 469 445 
485 445 469 470 446 
486 446 470 471 447 
487 447 471 472 448 
488 448 472 473 449 
489 449 473 474 450 
490 450 474 475 451 
491 451 475 476 452 
492 452 476 477 453 
493 453 477 478 454 
494 454 478 479 455 
495 455 479 480 456 
496 456 480 481 457 
497 457 481 482 458 
498 458 482 483 459 
499 459 483 484 460 
500 460 484 61 62 
501 20 21 485 461 
502 461 485 486 462 
503 462 486 487 463 
504 463 487 488 464 
505 464 488 489 465 
506 465 489 490 466 
507 466 490 491 467 
508 467 491 492 468 
509 468 492 493 469 
510 469 493 494 470 
511 470 494 495 471 
512 471 495 496 472 
513 472 496 497 473 
514 473 497 498 474 
515 474 498 499 475 
516 475 499 500 476 
517 476 500 501 477 
518 477 501 502 478 
519 478 502 503 479 
520 479 503 504 480 
521 480 504 505 481 
522 481 505 506 482 
523 482 506 507 483 
524 483 507 508 484 
525 484 508 60 61 
526 21 22 509 485 
527 485 509 510 486 
528 486 510 511 487 
529 487 511 512 488 
530 488 512 513 489 
531 489 513 514 490 
532 490 514 515 491 
533 491 515 516 492 
534 492 516 517 493 
535 493 517 518 494 
536 494 518 519 495 
537 495 519 520 496 
538 496 520 521 497 
539 497 521 522 498 
540 498 522 523 499 
541 499 523 524 500 
542 500 524 525 501 
543 501 525 526 502 
544 502 526 527 503 
545 503 527 528 504 
546 504 528 529 505 
547 505 529 530 506 
548 506 530 531 507 
549 507 531 532 508 
550 508 532 59 60 
551 22 23 533 509 
552 509 533 534 510 
553 510 534 535 511 
554 511 535 536 512 
555 512 536 537 513 
556 513 537 538 514 
557 514 538 539 515 
558 515 539 540 516 
559 516 540 541 517 
560 517 541 542 518 
561 518 542 543 519 
562 519 543 544 520 
563 520 544 545 521 
564 521 545 546 522 
565 522 546 547 523 
566 523 547 548 524 
567 524 548 549 525 
568 525 549 550 526 
569 526 550 551 527 
570 527 551 552 528 
571 528 552 553 529 
572 529 553 554 530 
573 530 554 555 531 
574 531 555 556 532 
575 532 556 58 59 
576 23 24 557 533 
577 533 557 558 534 
578 534 558 559 535 
579 535 559 560 536 
580 536 560 561 537 
581 537 561 562 538 
582 538 562 563 539 
583 539 563 564 540 
584 540 564 565 541 
585 541 565 566 542 
586 542 566 567 543 
587 543 567 568 544 
588 544 568 569 545 
589 545 569 570 546 
590 546 570 571 547 
591 547 571 572 548 
592 548 572 573 549 
593 549 573 574 550 
594 550 574 575 551 
595 551 575 576 552 
596 552 576 577 553 
597 553 577 578 554 
598 554 578 579 555 
599 555 579 580 556 
600 556 580 57 58 
601 24 25 581 557 
602 557 581 582 558 
603 558 582 583 559 
604 559 583 584 560 
605 560 584 585 561 
606 561 585 586 562 
607 562 586 587 563 
608 563 587 588 564 
609 564 588 589 565 
610 565 589 590 566 
611 566 590 591 567 
612 567 591 592 568 
613 568 592 593 569 
614 569 593 594 570 
615 570 594 595 571 
616 571 595 596 572 
617 572 596 597 573 
618 573 597 598 574 
619 574 598 599 575 
620 575 599 600 576 
621 576 600 601 577 
622 577 601 602 578 
623 578 602 603 579 
624 579 603 604 580 
625 580 604 56 57 
626 25 26 605 581 
627 581 605 606 582 
628 582 606 607 583 
629 583 607 608 584 
630 584 608 609 585 
631 585 609 610 586 
632 586 610 611 587 
633 587 611 612 588 
634 588 612 613 589 
635 589 613 614 590 
636 590 614 615 591 
637 591 615 616 592 
638 592 616 617 593 
639 593 617 618 594 
640 594 618 619 595 
641 595 619 620 596 
642 596 620 621 597 
643 597 621 622 598 
644 598 622 623 599 
645 599 623 624 600 
646 600 624 625 601 
647 601 625 626 602 
648 602 626 627 603 
649 603 627 628 604 
650 604 628 55 56 
651 26 27 629 605 
652 605 629 630 606 
653 606 630 631 607 
654 607 631 632 608 
655 608 632 633 609 
656 609 633 634 610 
657 610 634 635 611 
658 611 635 636 612 
659 612 636 637 613 
660 613 637 638 614 
661 614 638 639 615 
662 615 639 640 616 
663 616 640 641 617 
664 617 641 642 618 
665 618 642 643 619 
666 619 643 644 620 
667 620 644 645 621 
668 621 645 646 622 
669 622 646 647 623 
670 623 647 648 624 
671 624 648 649 625 
672 625 649 650 626 
673 626 650 651 627 
674 627 651 652 628 
675 628 652 54 55 
676 27 28 653 629 
677 629 653 654 630 
678 630 654 655 631 
679 631 655 656 632 
680 632 656 657 633 
681 633 657 658 634 
682 634 658 659 635 
683 635 659 660 636 
684 636 660 661 637 
685 637 661 662 638 
686 638 662 663 639 
687 639 663 664 640 
688 640 664 665 641 
689 641 665 666 642 
690 642 666 667 643 
691 643 667 668 644 
692 644 668 669 645 
693 645 669 670 646 
694 646 670 671 647 
695 647 671 672 648 
696 648 672 673 649 
697 649 673 674 650 
698 650 674 675 651 
699 651 675 676 652 
700 652 676 53 54 
701 28 2 29 653 
702 653 29 30 654 
703 654 30 31 655 
704 655 31 32 656 
705 656 32 33 657 
706 657 33 34 658 
707 658 34 35 659 
708 659 35 36 660 
709 660 36 37 661 
710 661 37 38 662 
711 662 38 39 663 
712 663 39 40 664 
713 664 40 41 665 
714 665 41 42 666 
715 666 42 43 667 
716 667 43 44 668 
717 668 44 45 669 
718 669 45 46 670 
719 670 46 47 671 
720 671 47 48 672 
721 672 48 49 673 
722 673 49 50 674 
723 674 50 51 675 
724 675 51 52 676 
725 676 52 3 53 
$EndElements
