<svg xmlns="http://www.w3.org/2000/svg" viewBox="0 0 680 420" width="680" height="420" role="img" aria-labelledby="t d" font-family="-apple-system, Segoe UI, Helvetica, Arial, sans-serif">
<title id="t">h-refinement at order N = 6: time-to-solution incl. infrastructure</title><desc id="d">Wall-clock of the time-to-solution incl. infrastructure versus number of unknowns under uniform mesh refinement at SEM order 6, for the six solvers.</desc>
<rect width="680" height="420" fill="#1a1a19"/>
<text x="78" y="28" font-size="16" font-weight="600" fill="#ffffff">h-refinement at order N = 6: time-to-solution incl. infrastructure</text>
<text x="78" y="48" font-size="12.5" fill="#c3c2b7">−∇²u = f on [0,2π]², doubly periodic · meshes 16²·4^L elements · second-run timings</text>
<line x1="78" x2="530" y1="358.0" y2="358.0" stroke="#34342f" stroke-width="1"/>
<text x="68" y="362.0" font-size="12" text-anchor="end" fill="#c3c2b7">10⁻⁴</text>
<line x1="78" x2="530" y1="316.3" y2="316.3" stroke="#34342f" stroke-width="1"/>
<text x="68" y="320.3" font-size="12" text-anchor="end" fill="#c3c2b7">10⁻³</text>
<line x1="78" x2="530" y1="274.7" y2="274.7" stroke="#34342f" stroke-width="1"/>
<text x="68" y="278.7" font-size="12" text-anchor="end" fill="#c3c2b7">10⁻²</text>
<line x1="78" x2="530" y1="233.0" y2="233.0" stroke="#34342f" stroke-width="1"/>
<text x="68" y="237.0" font-size="12" text-anchor="end" fill="#c3c2b7">10⁻¹</text>
<line x1="78" x2="530" y1="191.3" y2="191.3" stroke="#34342f" stroke-width="1"/>
<text x="68" y="195.3" font-size="12" text-anchor="end" fill="#c3c2b7">10⁰</text>
<line x1="78" x2="530" y1="149.7" y2="149.7" stroke="#34342f" stroke-width="1"/>
<text x="68" y="153.7" font-size="12" text-anchor="end" fill="#c3c2b7">10¹</text>
<line x1="78" x2="530" y1="108.0" y2="108.0" stroke="#34342f" stroke-width="1"/>
<text x="68" y="112.0" font-size="12" text-anchor="end" fill="#c3c2b7">10²</text>
<line x1="78" x2="530" y1="358" y2="358" stroke="#5d5c55" stroke-width="1"/>
<line x1="86.9" x2="86.9" y1="358" y2="363" stroke="#5d5c55" stroke-width="1"/>
<text x="86.9" y="378" font-size="12" text-anchor="middle" fill="#c3c2b7">10⁴</text>
<line x1="337.1" x2="337.1" y1="358" y2="363" stroke="#5d5c55" stroke-width="1"/>
<text x="337.1" y="378" font-size="12" text-anchor="middle" fill="#c3c2b7">10⁵</text>
<text x="304.0" y="406" font-size="12.5" text-anchor="middle" fill="#c3c2b7">unknowns (log scale)</text>
<text x="18" y="233.0" font-size="12.5" text-anchor="middle" fill="#c3c2b7" transform="rotate(-90 18 233.0)">seconds (log scale)</text>
<polyline points="78.0,195.2 228.7,184.6 379.3,160.0 530.0,138.4" fill="none" stroke="#3987e5" stroke-width="2" stroke-linejoin="round" stroke-linecap="round"/>
<circle cx="78.0" cy="195.2" r="4.5" fill="#3987e5" stroke="#1a1a19" stroke-width="2"/>
<circle cx="228.7" cy="184.6" r="4.5" fill="#3987e5" stroke="#1a1a19" stroke-width="2"/>
<circle cx="379.3" cy="160.0" r="4.5" fill="#3987e5" stroke="#1a1a19" stroke-width="2"/>
<circle cx="530.0" cy="138.4" r="4.5" fill="#3987e5" stroke="#1a1a19" stroke-width="2"/>
<polyline points="78.0,193.5 228.7,173.5 379.3,154.1" fill="none" stroke="#d95926" stroke-width="2" stroke-linejoin="round" stroke-linecap="round"/>
<rect x="73.5" y="189.0" width="9" height="9" rx="1.5" fill="#d95926" stroke="#1a1a19" stroke-width="2"/>
<rect x="224.2" y="169.0" width="9" height="9" rx="1.5" fill="#d95926" stroke="#1a1a19" stroke-width="2"/>
<rect x="374.8" y="149.6" width="9" height="9" rx="1.5" fill="#d95926" stroke="#1a1a19" stroke-width="2"/>
<polyline points="78.0,197.6 228.7,179.4 379.3,164.1 530.0,135.8" fill="none" stroke="#199e70" stroke-width="2" stroke-linejoin="round" stroke-linecap="round"/>
<path d="M78.0,192.1 L83.5,202.1 L72.5,202.1 Z" fill="#199e70" stroke="#1a1a19" stroke-width="2" stroke-linejoin="round"/>
<path d="M228.7,173.9 L234.2,183.9 L223.2,183.9 Z" fill="#199e70" stroke="#1a1a19" stroke-width="2" stroke-linejoin="round"/>
<path d="M379.3,158.6 L384.8,168.6 L373.8,168.6 Z" fill="#199e70" stroke="#1a1a19" stroke-width="2" stroke-linejoin="round"/>
<path d="M530.0,130.3 L535.5,140.3 L524.5,140.3 Z" fill="#199e70" stroke="#1a1a19" stroke-width="2" stroke-linejoin="round"/>
<polyline points="78.0,195.0 228.7,181.9 379.3,157.3 530.0,132.9" fill="none" stroke="#c98500" stroke-width="2" stroke-linejoin="round" stroke-linecap="round"/>
<path d="M78.0,189.0 L84.0,195.0 L78.0,201.0 L72.0,195.0 Z" fill="#c98500" stroke="#1a1a19" stroke-width="2" stroke-linejoin="round"/>
<path d="M228.7,175.9 L234.7,181.9 L228.7,187.9 L222.7,181.9 Z" fill="#c98500" stroke="#1a1a19" stroke-width="2" stroke-linejoin="round"/>
<path d="M379.3,151.3 L385.3,157.3 L379.3,163.3 L373.3,157.3 Z" fill="#c98500" stroke="#1a1a19" stroke-width="2" stroke-linejoin="round"/>
<path d="M530.0,126.9 L536.0,132.9 L530.0,138.9 L524.0,132.9 Z" fill="#c98500" stroke="#1a1a19" stroke-width="2" stroke-linejoin="round"/>
<polyline points="78.0,278.9 228.7,252.9 379.3,223.7 530.0,193.1" fill="none" stroke="#d55181" stroke-width="2" stroke-linejoin="round" stroke-linecap="round"/>
<path d="M78.0,284.4 L83.5,274.4 L72.5,274.4 Z" fill="#d55181" stroke="#1a1a19" stroke-width="2" stroke-linejoin="round"/>
<path d="M228.7,258.4 L234.2,248.4 L223.2,248.4 Z" fill="#d55181" stroke="#1a1a19" stroke-width="2" stroke-linejoin="round"/>
<path d="M379.3,229.2 L384.8,219.2 L373.8,219.2 Z" fill="#d55181" stroke="#1a1a19" stroke-width="2" stroke-linejoin="round"/>
<path d="M530.0,198.6 L535.5,188.6 L524.5,188.6 Z" fill="#d55181" stroke="#1a1a19" stroke-width="2" stroke-linejoin="round"/>
<polyline points="78.0,322.7 228.7,311.1 379.3,190.6 530.0,184.7" fill="none" stroke="#008300" stroke-width="2" stroke-linejoin="round" stroke-linecap="round"/>
<circle cx="78.0" cy="322.7" r="4" fill="#1a1a19" stroke="#008300" stroke-width="2.5"/>
<circle cx="228.7" cy="311.1" r="4" fill="#1a1a19" stroke="#008300" stroke-width="2.5"/>
<circle cx="379.3" cy="190.6" r="4" fill="#1a1a19" stroke="#008300" stroke-width="2.5"/>
<circle cx="530.0" cy="184.7" r="4" fill="#1a1a19" stroke="#008300" stroke-width="2.5"/>
<text x="542.0" y="151.8" font-size="12.5" fill="#ffffff">SEM direct</text>
<text x="391.3" y="166.8" font-size="12.5" fill="#ffffff">SEM AMG</text>
<text x="542.0" y="136.8" font-size="12.5" fill="#ffffff">SC direct</text>
<text x="542.0" y="121.8" font-size="12.5" fill="#ffffff">SC AMG</text>
<text x="542.0" y="200.4" font-size="12.5" fill="#ffffff">pseudo-spectral</text>
<text x="542.0" y="185.4" font-size="12.5" fill="#ffffff">FFT</text>
<line x1="78" x2="100" y1="68" y2="68" stroke="#3987e5" stroke-width="2"/>
<circle cx="89.0" cy="68.0" r="4.5" fill="#3987e5" stroke="#1a1a19" stroke-width="2"/>
<text x="108" y="72" font-size="12.5" fill="#ffffff">SEM direct</text>
<line x1="268" x2="290" y1="68" y2="68" stroke="#d95926" stroke-width="2"/>
<rect x="274.5" y="63.5" width="9" height="9" rx="1.5" fill="#d95926" stroke="#1a1a19" stroke-width="2"/>
<text x="298" y="72" font-size="12.5" fill="#ffffff">SEM AMG</text>
<line x1="458" x2="480" y1="68" y2="68" stroke="#199e70" stroke-width="2"/>
<path d="M469.0,62.5 L474.5,72.5 L463.5,72.5 Z" fill="#199e70" stroke="#1a1a19" stroke-width="2" stroke-linejoin="round"/>
<text x="488" y="72" font-size="12.5" fill="#ffffff">SC direct</text>
<line x1="78" x2="100" y1="88" y2="88" stroke="#c98500" stroke-width="2"/>
<path d="M89.0,82.0 L95.0,88.0 L89.0,94.0 L83.0,88.0 Z" fill="#c98500" stroke="#1a1a19" stroke-width="2" stroke-linejoin="round"/>
<text x="108" y="92" font-size="12.5" fill="#ffffff">SC AMG</text>
<line x1="268" x2="290" y1="88" y2="88" stroke="#d55181" stroke-width="2"/>
<path d="M279.0,93.5 L284.5,83.5 L273.5,83.5 Z" fill="#d55181" stroke="#1a1a19" stroke-width="2" stroke-linejoin="round"/>
<text x="298" y="92" font-size="12.5" fill="#ffffff">pseudo-spectral</text>
<line x1="458" x2="480" y1="88" y2="88" stroke="#008300" stroke-width="2"/>
<circle cx="469.0" cy="88.0" r="4" fill="#1a1a19" stroke="#008300" stroke-width="2.5"/>
<text x="488" y="92" font-size="12.5" fill="#ffffff">FFT</text>
</svg>
