<svg xmlns="http://www.w3.org/2000/svg" viewBox="0 0 680 420" width="680" height="420" role="img" aria-labelledby="t d" font-family="-apple-system, Segoe UI, Helvetica, Arial, sans-serif">
<title id="t">h-refinement at order N = 8: solve step</title><desc id="d">Wall-clock of the solve step versus number of unknowns under uniform mesh refinement at SEM order 8, for the six solvers.</desc>
<rect width="680" height="420" fill="#1a1a19"/>
<text x="78" y="28" font-size="16" font-weight="600" fill="#ffffff">h-refinement at order N = 8: solve step</text>
<text x="78" y="48" font-size="12.5" fill="#c3c2b7">−∇²u = f on [0,2π]², doubly periodic · meshes 16²·4^L elements · second-run timings</text>
<line x1="78" x2="530" y1="358.0" y2="358.0" stroke="#34342f" stroke-width="1"/>
<text x="68" y="362.0" font-size="12" text-anchor="end" fill="#c3c2b7">10⁻⁴</text>
<line x1="78" x2="530" y1="316.3" y2="316.3" stroke="#34342f" stroke-width="1"/>
<text x="68" y="320.3" font-size="12" text-anchor="end" fill="#c3c2b7">10⁻³</text>
<line x1="78" x2="530" y1="274.7" y2="274.7" stroke="#34342f" stroke-width="1"/>
<text x="68" y="278.7" font-size="12" text-anchor="end" fill="#c3c2b7">10⁻²</text>
<line x1="78" x2="530" y1="233.0" y2="233.0" stroke="#34342f" stroke-width="1"/>
<text x="68" y="237.0" font-size="12" text-anchor="end" fill="#c3c2b7">10⁻¹</text>
<line x1="78" x2="530" y1="191.3" y2="191.3" stroke="#34342f" stroke-width="1"/>
<text x="68" y="195.3" font-size="12" text-anchor="end" fill="#c3c2b7">10⁰</text>
<line x1="78" x2="530" y1="149.7" y2="149.7" stroke="#34342f" stroke-width="1"/>
<text x="68" y="153.7" font-size="12" text-anchor="end" fill="#c3c2b7">10¹</text>
<line x1="78" x2="530" y1="108.0" y2="108.0" stroke="#34342f" stroke-width="1"/>
<text x="68" y="112.0" font-size="12" text-anchor="end" fill="#c3c2b7">10²</text>
<line x1="78" x2="530" y1="358" y2="358" stroke="#5d5c55" stroke-width="1"/>
<line x1="372.9" x2="372.9" y1="358" y2="363" stroke="#5d5c55" stroke-width="1"/>
<text x="372.9" y="378" font-size="12" text-anchor="middle" fill="#c3c2b7">10⁵</text>
<text x="304.0" y="406" font-size="12.5" text-anchor="middle" fill="#c3c2b7">unknowns (log scale)</text>
<text x="18" y="233.0" font-size="12.5" text-anchor="middle" fill="#c3c2b7" transform="rotate(-90 18 233.0)">seconds (log scale)</text>
<polyline points="78.0,291.9 304.0,279.4 530.0,243.3" fill="none" stroke="#3987e5" stroke-width="2" stroke-linejoin="round" stroke-linecap="round"/>
<circle cx="78.0" cy="291.9" r="4.5" fill="#3987e5" stroke="#1a1a19" stroke-width="2"/>
<circle cx="304.0" cy="279.4" r="4.5" fill="#3987e5" stroke="#1a1a19" stroke-width="2"/>
<circle cx="530.0" cy="243.3" r="4.5" fill="#3987e5" stroke="#1a1a19" stroke-width="2"/>
<polyline points="78.0,193.2 304.0,165.1 530.0,141.0" fill="none" stroke="#d95926" stroke-width="2" stroke-linejoin="round" stroke-linecap="round"/>
<rect x="73.5" y="188.7" width="9" height="9" rx="1.5" fill="#d95926" stroke="#1a1a19" stroke-width="2"/>
<rect x="299.5" y="160.6" width="9" height="9" rx="1.5" fill="#d95926" stroke="#1a1a19" stroke-width="2"/>
<rect x="525.5" y="136.5" width="9" height="9" rx="1.5" fill="#d95926" stroke="#1a1a19" stroke-width="2"/>
<polyline points="78.0,274.4 304.0,247.3 530.0,214.6" fill="none" stroke="#199e70" stroke-width="2" stroke-linejoin="round" stroke-linecap="round"/>
<path d="M78.0,268.9 L83.5,278.9 L72.5,278.9 Z" fill="#199e70" stroke="#1a1a19" stroke-width="2" stroke-linejoin="round"/>
<path d="M304.0,241.8 L309.5,251.8 L298.5,251.8 Z" fill="#199e70" stroke="#1a1a19" stroke-width="2" stroke-linejoin="round"/>
<path d="M530.0,209.1 L535.5,219.1 L524.5,219.1 Z" fill="#199e70" stroke="#1a1a19" stroke-width="2" stroke-linejoin="round"/>
<polyline points="78.0,245.3 304.0,219.6 530.0,190.3" fill="none" stroke="#c98500" stroke-width="2" stroke-linejoin="round" stroke-linecap="round"/>
<path d="M78.0,239.3 L84.0,245.3 L78.0,251.3 L72.0,245.3 Z" fill="#c98500" stroke="#1a1a19" stroke-width="2" stroke-linejoin="round"/>
<path d="M304.0,213.6 L310.0,219.6 L304.0,225.6 L298.0,219.6 Z" fill="#c98500" stroke="#1a1a19" stroke-width="2" stroke-linejoin="round"/>
<path d="M530.0,184.3 L536.0,190.3 L530.0,196.3 L524.0,190.3 Z" fill="#c98500" stroke="#1a1a19" stroke-width="2" stroke-linejoin="round"/>
<polyline points="78.0,328.9 304.0,289.6 530.0,259.6" fill="none" stroke="#d55181" stroke-width="2" stroke-linejoin="round" stroke-linecap="round"/>
<path d="M78.0,334.4 L83.5,324.4 L72.5,324.4 Z" fill="#d55181" stroke="#1a1a19" stroke-width="2" stroke-linejoin="round"/>
<path d="M304.0,295.1 L309.5,285.1 L298.5,285.1 Z" fill="#d55181" stroke="#1a1a19" stroke-width="2" stroke-linejoin="round"/>
<path d="M530.0,265.1 L535.5,255.1 L524.5,255.1 Z" fill="#d55181" stroke="#1a1a19" stroke-width="2" stroke-linejoin="round"/>
<polyline points="78.0,349.6 304.0,340.5 530.0,310.6" fill="none" stroke="#008300" stroke-width="2" stroke-linejoin="round" stroke-linecap="round"/>
<circle cx="78.0" cy="349.6" r="4" fill="#1a1a19" stroke="#008300" stroke-width="2.5"/>
<circle cx="304.0" cy="340.5" r="4" fill="#1a1a19" stroke="#008300" stroke-width="2.5"/>
<circle cx="530.0" cy="310.6" r="4" fill="#1a1a19" stroke="#008300" stroke-width="2.5"/>
<text x="542.0" y="247.3" font-size="12.5" fill="#ffffff">SEM direct</text>
<text x="542.0" y="145.0" font-size="12.5" fill="#ffffff">SEM AMG</text>
<text x="542.0" y="218.6" font-size="12.5" fill="#ffffff">SC direct</text>
<text x="542.0" y="194.3" font-size="12.5" fill="#ffffff">SC AMG</text>
<text x="542.0" y="263.6" font-size="12.5" fill="#ffffff">pseudo-spectral</text>
<text x="542.0" y="314.6" font-size="12.5" fill="#ffffff">FFT</text>
<line x1="78" x2="100" y1="68" y2="68" stroke="#3987e5" stroke-width="2"/>
<circle cx="89.0" cy="68.0" r="4.5" fill="#3987e5" stroke="#1a1a19" stroke-width="2"/>
<text x="108" y="72" font-size="12.5" fill="#ffffff">SEM direct</text>
<line x1="268" x2="290" y1="68" y2="68" stroke="#d95926" stroke-width="2"/>
<rect x="274.5" y="63.5" width="9" height="9" rx="1.5" fill="#d95926" stroke="#1a1a19" stroke-width="2"/>
<text x="298" y="72" font-size="12.5" fill="#ffffff">SEM AMG</text>
<line x1="458" x2="480" y1="68" y2="68" stroke="#199e70" stroke-width="2"/>
<path d="M469.0,62.5 L474.5,72.5 L463.5,72.5 Z" fill="#199e70" stroke="#1a1a19" stroke-width="2" stroke-linejoin="round"/>
<text x="488" y="72" font-size="12.5" fill="#ffffff">SC direct</text>
<line x1="78" x2="100" y1="88" y2="88" stroke="#c98500" stroke-width="2"/>
<path d="M89.0,82.0 L95.0,88.0 L89.0,94.0 L83.0,88.0 Z" fill="#c98500" stroke="#1a1a19" stroke-width="2" stroke-linejoin="round"/>
<text x="108" y="92" font-size="12.5" fill="#ffffff">SC AMG</text>
<line x1="268" x2="290" y1="88" y2="88" stroke="#d55181" stroke-width="2"/>
<path d="M279.0,93.5 L284.5,83.5 L273.5,83.5 Z" fill="#d55181" stroke="#1a1a19" stroke-width="2" stroke-linejoin="round"/>
<text x="298" y="92" font-size="12.5" fill="#ffffff">pseudo-spectral</text>
<line x1="458" x2="480" y1="88" y2="88" stroke="#008300" stroke-width="2"/>
<circle cx="469.0" cy="88.0" r="4" fill="#1a1a19" stroke="#008300" stroke-width="2.5"/>
<text x="488" y="92" font-size="12.5" fill="#ffffff">FFT</text>
</svg>
