<svg xmlns="http://www.w3.org/2000/svg" viewBox="0 0 680 420" width="680" height="420" role="img" aria-labelledby="t d" font-family="-apple-system, Segoe UI, Helvetica, Arial, sans-serif">
<title id="t">h-refinement at order N = 2: time-to-solution incl. infrastructure</title><desc id="d">Wall-clock of the time-to-solution incl. infrastructure versus number of unknowns under uniform mesh refinement at SEM order 2, for the six solvers.</desc>
<rect width="680" height="420" fill="#fcfcfb"/>
<text x="78" y="28" font-size="16" font-weight="600" fill="#0b0b0b">h-refinement at order N = 2: time-to-solution incl. infrastructure</text>
<text x="78" y="48" font-size="12.5" fill="#52514e">−∇²u = f on [0,2π]², doubly periodic · meshes 16²·4^L elements · second-run timings</text>
<line x1="78" x2="530" y1="358.0" y2="358.0" stroke="#e4e3dd" stroke-width="1"/>
<text x="68" y="362.0" font-size="12" text-anchor="end" fill="#52514e">10⁻⁴</text>
<line x1="78" x2="530" y1="308.0" y2="308.0" stroke="#e4e3dd" stroke-width="1"/>
<text x="68" y="312.0" font-size="12" text-anchor="end" fill="#52514e">10⁻³</text>
<line x1="78" x2="530" y1="258.0" y2="258.0" stroke="#e4e3dd" stroke-width="1"/>
<text x="68" y="262.0" font-size="12" text-anchor="end" fill="#52514e">10⁻²</text>
<line x1="78" x2="530" y1="208.0" y2="208.0" stroke="#e4e3dd" stroke-width="1"/>
<text x="68" y="212.0" font-size="12" text-anchor="end" fill="#52514e">10⁻¹</text>
<line x1="78" x2="530" y1="158.0" y2="158.0" stroke="#e4e3dd" stroke-width="1"/>
<text x="68" y="162.0" font-size="12" text-anchor="end" fill="#52514e">10⁰</text>
<line x1="78" x2="530" y1="108.0" y2="108.0" stroke="#e4e3dd" stroke-width="1"/>
<text x="68" y="112.0" font-size="12" text-anchor="end" fill="#52514e">10¹</text>
<line x1="78" x2="530" y1="358" y2="358" stroke="#b5b3aa" stroke-width="1"/>
<line x1="325.7" x2="325.7" y1="358" y2="363" stroke="#b5b3aa" stroke-width="1"/>
<text x="325.7" y="378" font-size="12" text-anchor="middle" fill="#52514e">10⁴</text>
<text x="304.0" y="406" font-size="12.5" text-anchor="middle" fill="#52514e">unknowns (log scale)</text>
<text x="18" y="233.0" font-size="12.5" text-anchor="middle" fill="#52514e" transform="rotate(-90 18 233.0)">seconds (log scale)</text>
<polyline points="78.0,172.2 228.7,179.6 379.3,145.8 530.0,138.0" fill="none" stroke="#2a78d6" stroke-width="2" stroke-linejoin="round" stroke-linecap="round"/>
<circle cx="78.0" cy="172.2" r="4.5" fill="#2a78d6" stroke="#fcfcfb" stroke-width="2"/>
<circle cx="228.7" cy="179.6" r="4.5" fill="#2a78d6" stroke="#fcfcfb" stroke-width="2"/>
<circle cx="379.3" cy="145.8" r="4.5" fill="#2a78d6" stroke="#fcfcfb" stroke-width="2"/>
<circle cx="530.0" cy="138.0" r="4.5" fill="#2a78d6" stroke="#fcfcfb" stroke-width="2"/>
<polyline points="78.0,168.1 228.7,177.4 379.3,169.3 530.0,148.9" fill="none" stroke="#eb6834" stroke-width="2" stroke-linejoin="round" stroke-linecap="round"/>
<rect x="73.5" y="163.6" width="9" height="9" rx="1.5" fill="#eb6834" stroke="#fcfcfb" stroke-width="2"/>
<rect x="224.2" y="172.9" width="9" height="9" rx="1.5" fill="#eb6834" stroke="#fcfcfb" stroke-width="2"/>
<rect x="374.8" y="164.8" width="9" height="9" rx="1.5" fill="#eb6834" stroke="#fcfcfb" stroke-width="2"/>
<rect x="525.5" y="144.4" width="9" height="9" rx="1.5" fill="#eb6834" stroke="#fcfcfb" stroke-width="2"/>
<polyline points="78.0,171.6 228.7,171.6 379.3,169.9 530.0,147.5" fill="none" stroke="#1baf7a" stroke-width="2" stroke-linejoin="round" stroke-linecap="round"/>
<path d="M78.0,166.1 L83.5,176.1 L72.5,176.1 Z" fill="#1baf7a" stroke="#fcfcfb" stroke-width="2" stroke-linejoin="round"/>
<path d="M228.7,166.1 L234.2,176.1 L223.2,176.1 Z" fill="#1baf7a" stroke="#fcfcfb" stroke-width="2" stroke-linejoin="round"/>
<path d="M379.3,164.4 L384.8,174.4 L373.8,174.4 Z" fill="#1baf7a" stroke="#fcfcfb" stroke-width="2" stroke-linejoin="round"/>
<path d="M530.0,142.0 L535.5,152.0 L524.5,152.0 Z" fill="#1baf7a" stroke="#fcfcfb" stroke-width="2" stroke-linejoin="round"/>
<polyline points="78.0,171.0 228.7,164.7 379.3,170.5 530.0,149.2" fill="none" stroke="#eda100" stroke-width="2" stroke-linejoin="round" stroke-linecap="round"/>
<path d="M78.0,165.0 L84.0,171.0 L78.0,177.0 L72.0,171.0 Z" fill="#eda100" stroke="#fcfcfb" stroke-width="2" stroke-linejoin="round"/>
<path d="M228.7,158.7 L234.7,164.7 L228.7,170.7 L222.7,164.7 Z" fill="#eda100" stroke="#fcfcfb" stroke-width="2" stroke-linejoin="round"/>
<path d="M379.3,164.5 L385.3,170.5 L379.3,176.5 L373.3,170.5 Z" fill="#eda100" stroke="#fcfcfb" stroke-width="2" stroke-linejoin="round"/>
<path d="M530.0,143.2 L536.0,149.2 L530.0,155.2 L524.0,149.2 Z" fill="#eda100" stroke="#fcfcfb" stroke-width="2" stroke-linejoin="round"/>
<polyline points="78.0,311.4 228.7,280.9 379.3,253.0 530.0,220.9" fill="none" stroke="#e87ba4" stroke-width="2" stroke-linejoin="round" stroke-linecap="round"/>
<path d="M78.0,316.9 L83.5,306.9 L72.5,306.9 Z" fill="#e87ba4" stroke="#fcfcfb" stroke-width="2" stroke-linejoin="round"/>
<path d="M228.7,286.4 L234.2,276.4 L223.2,276.4 Z" fill="#e87ba4" stroke="#fcfcfb" stroke-width="2" stroke-linejoin="round"/>
<path d="M379.3,258.5 L384.8,248.5 L373.8,248.5 Z" fill="#e87ba4" stroke="#fcfcfb" stroke-width="2" stroke-linejoin="round"/>
<path d="M530.0,226.4 L535.5,216.4 L524.5,216.4 Z" fill="#e87ba4" stroke="#fcfcfb" stroke-width="2" stroke-linejoin="round"/>
<polyline points="78.0,346.3 228.7,347.5 379.3,298.2 530.0,296.5" fill="none" stroke="#008300" stroke-width="2" stroke-linejoin="round" stroke-linecap="round"/>
<circle cx="78.0" cy="346.3" r="4" fill="#fcfcfb" stroke="#008300" stroke-width="2.5"/>
<circle cx="228.7" cy="347.5" r="4" fill="#fcfcfb" stroke="#008300" stroke-width="2.5"/>
<circle cx="379.3" cy="298.2" r="4" fill="#fcfcfb" stroke="#008300" stroke-width="2.5"/>
<circle cx="530.0" cy="296.5" r="4" fill="#fcfcfb" stroke="#008300" stroke-width="2.5"/>
<text x="542.0" y="127.4" font-size="12.5" fill="#0b0b0b">SEM direct</text>
<text x="542.0" y="157.4" font-size="12.5" fill="#0b0b0b">SEM AMG</text>
<text x="542.0" y="142.4" font-size="12.5" fill="#0b0b0b">SC direct</text>
<text x="542.0" y="172.4" font-size="12.5" fill="#0b0b0b">SC AMG</text>
<text x="542.0" y="224.9" font-size="12.5" fill="#0b0b0b">pseudo-spectral</text>
<text x="542.0" y="300.5" font-size="12.5" fill="#0b0b0b">FFT</text>
<line x1="78" x2="100" y1="68" y2="68" stroke="#2a78d6" stroke-width="2"/>
<circle cx="89.0" cy="68.0" r="4.5" fill="#2a78d6" stroke="#fcfcfb" stroke-width="2"/>
<text x="108" y="72" font-size="12.5" fill="#0b0b0b">SEM direct</text>
<line x1="268" x2="290" y1="68" y2="68" stroke="#eb6834" stroke-width="2"/>
<rect x="274.5" y="63.5" width="9" height="9" rx="1.5" fill="#eb6834" stroke="#fcfcfb" stroke-width="2"/>
<text x="298" y="72" font-size="12.5" fill="#0b0b0b">SEM AMG</text>
<line x1="458" x2="480" y1="68" y2="68" stroke="#1baf7a" stroke-width="2"/>
<path d="M469.0,62.5 L474.5,72.5 L463.5,72.5 Z" fill="#1baf7a" stroke="#fcfcfb" stroke-width="2" stroke-linejoin="round"/>
<text x="488" y="72" font-size="12.5" fill="#0b0b0b">SC direct</text>
<line x1="78" x2="100" y1="88" y2="88" stroke="#eda100" stroke-width="2"/>
<path d="M89.0,82.0 L95.0,88.0 L89.0,94.0 L83.0,88.0 Z" fill="#eda100" stroke="#fcfcfb" stroke-width="2" stroke-linejoin="round"/>
<text x="108" y="92" font-size="12.5" fill="#0b0b0b">SC AMG</text>
<line x1="268" x2="290" y1="88" y2="88" stroke="#e87ba4" stroke-width="2"/>
<path d="M279.0,93.5 L284.5,83.5 L273.5,83.5 Z" fill="#e87ba4" stroke="#fcfcfb" stroke-width="2" stroke-linejoin="round"/>
<text x="298" y="92" font-size="12.5" fill="#0b0b0b">pseudo-spectral</text>
<line x1="458" x2="480" y1="88" y2="88" stroke="#008300" stroke-width="2"/>
<circle cx="469.0" cy="88.0" r="4" fill="#fcfcfb" stroke="#008300" stroke-width="2.5"/>
<text x="488" y="92" font-size="12.5" fill="#0b0b0b">FFT</text>
</svg>
