<svg xmlns="http://www.w3.org/2000/svg" viewBox="0 0 680 420" width="680" height="420" role="img" aria-labelledby="t d" font-family="-apple-system, Segoe UI, Helvetica, Arial, sans-serif">
<title id="t">h-refinement at order N = 7: setup + solve (no SEM infrastructure)</title><desc id="d">Wall-clock of the setup + solve (no SEM infrastructure) versus number of unknowns under uniform mesh refinement at SEM order 7, for the six solvers.</desc>
<rect width="680" height="420" fill="#1a1a19"/>
<text x="78" y="28" font-size="16" font-weight="600" fill="#ffffff">h-refinement at order N = 7: setup + solve (no SEM infrastructure)</text>
<text x="78" y="48" font-size="12.5" fill="#c3c2b7">−∇²u = f on [0,2π]², doubly periodic · meshes 16²·4^L elements · second-run timings</text>
<line x1="78" x2="530" y1="358.0" y2="358.0" stroke="#34342f" stroke-width="1"/>
<text x="68" y="362.0" font-size="12" text-anchor="end" fill="#c3c2b7">10⁻⁴</text>
<line x1="78" x2="530" y1="316.3" y2="316.3" stroke="#34342f" stroke-width="1"/>
<text x="68" y="320.3" font-size="12" text-anchor="end" fill="#c3c2b7">10⁻³</text>
<line x1="78" x2="530" y1="274.7" y2="274.7" stroke="#34342f" stroke-width="1"/>
<text x="68" y="278.7" font-size="12" text-anchor="end" fill="#c3c2b7">10⁻²</text>
<line x1="78" x2="530" y1="233.0" y2="233.0" stroke="#34342f" stroke-width="1"/>
<text x="68" y="237.0" font-size="12" text-anchor="end" fill="#c3c2b7">10⁻¹</text>
<line x1="78" x2="530" y1="191.3" y2="191.3" stroke="#34342f" stroke-width="1"/>
<text x="68" y="195.3" font-size="12" text-anchor="end" fill="#c3c2b7">10⁰</text>
<line x1="78" x2="530" y1="149.7" y2="149.7" stroke="#34342f" stroke-width="1"/>
<text x="68" y="153.7" font-size="12" text-anchor="end" fill="#c3c2b7">10¹</text>
<line x1="78" x2="530" y1="108.0" y2="108.0" stroke="#34342f" stroke-width="1"/>
<text x="68" y="112.0" font-size="12" text-anchor="end" fill="#c3c2b7">10²</text>
<line x1="78" x2="530" y1="358" y2="358" stroke="#5d5c55" stroke-width="1"/>
<line x1="303.6" x2="303.6" y1="358" y2="363" stroke="#5d5c55" stroke-width="1"/>
<text x="303.6" y="378" font-size="12" text-anchor="middle" fill="#c3c2b7">10⁵</text>
<text x="304.0" y="406" font-size="12.5" text-anchor="middle" fill="#c3c2b7">unknowns (log scale)</text>
<text x="18" y="233.0" font-size="12.5" text-anchor="middle" fill="#c3c2b7" transform="rotate(-90 18 233.0)">seconds (log scale)</text>
<polyline points="78.0,236.5 228.7,208.6 379.3,160.9 530.0,132.9" fill="none" stroke="#3987e5" stroke-width="2" stroke-linejoin="round" stroke-linecap="round"/>
<circle cx="78.0" cy="236.5" r="4.5" fill="#3987e5" stroke="#1a1a19" stroke-width="2"/>
<circle cx="228.7" cy="208.6" r="4.5" fill="#3987e5" stroke="#1a1a19" stroke-width="2"/>
<circle cx="379.3" cy="160.9" r="4.5" fill="#3987e5" stroke="#1a1a19" stroke-width="2"/>
<circle cx="530.0" cy="132.9" r="4.5" fill="#3987e5" stroke="#1a1a19" stroke-width="2"/>
<polyline points="78.0,201.6 228.7,174.2 379.3,147.3" fill="none" stroke="#d95926" stroke-width="2" stroke-linejoin="round" stroke-linecap="round"/>
<rect x="73.5" y="197.1" width="9" height="9" rx="1.5" fill="#d95926" stroke="#1a1a19" stroke-width="2"/>
<rect x="224.2" y="169.7" width="9" height="9" rx="1.5" fill="#d95926" stroke="#1a1a19" stroke-width="2"/>
<rect x="374.8" y="142.8" width="9" height="9" rx="1.5" fill="#d95926" stroke="#1a1a19" stroke-width="2"/>
<polyline points="78.0,235.1 228.7,202.1 379.3,173.3 530.0,127.7" fill="none" stroke="#199e70" stroke-width="2" stroke-linejoin="round" stroke-linecap="round"/>
<path d="M78.0,229.6 L83.5,239.6 L72.5,239.6 Z" fill="#199e70" stroke="#1a1a19" stroke-width="2" stroke-linejoin="round"/>
<path d="M228.7,196.6 L234.2,206.6 L223.2,206.6 Z" fill="#199e70" stroke="#1a1a19" stroke-width="2" stroke-linejoin="round"/>
<path d="M379.3,167.8 L384.8,177.8 L373.8,177.8 Z" fill="#199e70" stroke="#1a1a19" stroke-width="2" stroke-linejoin="round"/>
<path d="M530.0,122.2 L535.5,132.2 L524.5,132.2 Z" fill="#199e70" stroke="#1a1a19" stroke-width="2" stroke-linejoin="round"/>
<polyline points="78.0,230.4 228.7,208.1 379.3,172.3 530.0,140.5" fill="none" stroke="#c98500" stroke-width="2" stroke-linejoin="round" stroke-linecap="round"/>
<path d="M78.0,224.4 L84.0,230.4 L78.0,236.4 L72.0,230.4 Z" fill="#c98500" stroke="#1a1a19" stroke-width="2" stroke-linejoin="round"/>
<path d="M228.7,202.1 L234.7,208.1 L228.7,214.1 L222.7,208.1 Z" fill="#c98500" stroke="#1a1a19" stroke-width="2" stroke-linejoin="round"/>
<path d="M379.3,166.3 L385.3,172.3 L379.3,178.3 L373.3,172.3 Z" fill="#c98500" stroke="#1a1a19" stroke-width="2" stroke-linejoin="round"/>
<path d="M530.0,134.5 L536.0,140.5 L530.0,146.5 L524.0,140.5 Z" fill="#c98500" stroke="#1a1a19" stroke-width="2" stroke-linejoin="round"/>
<polyline points="78.0,270.7 228.7,249.0 379.3,220.2 530.0,187.2" fill="none" stroke="#d55181" stroke-width="2" stroke-linejoin="round" stroke-linecap="round"/>
<path d="M78.0,276.2 L83.5,266.2 L72.5,266.2 Z" fill="#d55181" stroke="#1a1a19" stroke-width="2" stroke-linejoin="round"/>
<path d="M228.7,254.5 L234.2,244.5 L223.2,244.5 Z" fill="#d55181" stroke="#1a1a19" stroke-width="2" stroke-linejoin="round"/>
<path d="M379.3,225.7 L384.8,215.7 L373.8,215.7 Z" fill="#d55181" stroke="#1a1a19" stroke-width="2" stroke-linejoin="round"/>
<path d="M530.0,192.7 L535.5,182.7 L524.5,182.7 Z" fill="#d55181" stroke="#1a1a19" stroke-width="2" stroke-linejoin="round"/>
<polyline points="78.0,337.8 228.7,333.9 379.3,200.3 530.0,192.3" fill="none" stroke="#008300" stroke-width="2" stroke-linejoin="round" stroke-linecap="round"/>
<circle cx="78.0" cy="337.8" r="4" fill="#1a1a19" stroke="#008300" stroke-width="2.5"/>
<circle cx="228.7" cy="333.9" r="4" fill="#1a1a19" stroke="#008300" stroke-width="2.5"/>
<circle cx="379.3" cy="200.3" r="4" fill="#1a1a19" stroke="#008300" stroke-width="2.5"/>
<circle cx="530.0" cy="192.3" r="4" fill="#1a1a19" stroke="#008300" stroke-width="2.5"/>
<text x="542.0" y="133.6" font-size="12.5" fill="#ffffff">SEM direct</text>
<text x="391.3" y="163.6" font-size="12.5" fill="#ffffff">SEM AMG</text>
<text x="542.0" y="118.6" font-size="12.5" fill="#ffffff">SC direct</text>
<text x="542.0" y="148.6" font-size="12.5" fill="#ffffff">SC AMG</text>
<text x="542.0" y="186.2" font-size="12.5" fill="#ffffff">pseudo-spectral</text>
<text x="542.0" y="201.2" font-size="12.5" fill="#ffffff">FFT</text>
<line x1="78" x2="100" y1="68" y2="68" stroke="#3987e5" stroke-width="2"/>
<circle cx="89.0" cy="68.0" r="4.5" fill="#3987e5" stroke="#1a1a19" stroke-width="2"/>
<text x="108" y="72" font-size="12.5" fill="#ffffff">SEM direct</text>
<line x1="268" x2="290" y1="68" y2="68" stroke="#d95926" stroke-width="2"/>
<rect x="274.5" y="63.5" width="9" height="9" rx="1.5" fill="#d95926" stroke="#1a1a19" stroke-width="2"/>
<text x="298" y="72" font-size="12.5" fill="#ffffff">SEM AMG</text>
<line x1="458" x2="480" y1="68" y2="68" stroke="#199e70" stroke-width="2"/>
<path d="M469.0,62.5 L474.5,72.5 L463.5,72.5 Z" fill="#199e70" stroke="#1a1a19" stroke-width="2" stroke-linejoin="round"/>
<text x="488" y="72" font-size="12.5" fill="#ffffff">SC direct</text>
<line x1="78" x2="100" y1="88" y2="88" stroke="#c98500" stroke-width="2"/>
<path d="M89.0,82.0 L95.0,88.0 L89.0,94.0 L83.0,88.0 Z" fill="#c98500" stroke="#1a1a19" stroke-width="2" stroke-linejoin="round"/>
<text x="108" y="92" font-size="12.5" fill="#ffffff">SC AMG</text>
<line x1="268" x2="290" y1="88" y2="88" stroke="#d55181" stroke-width="2"/>
<path d="M279.0,93.5 L284.5,83.5 L273.5,83.5 Z" fill="#d55181" stroke="#1a1a19" stroke-width="2" stroke-linejoin="round"/>
<text x="298" y="92" font-size="12.5" fill="#ffffff">pseudo-spectral</text>
<line x1="458" x2="480" y1="88" y2="88" stroke="#008300" stroke-width="2"/>
<circle cx="469.0" cy="88.0" r="4" fill="#1a1a19" stroke="#008300" stroke-width="2.5"/>
<text x="488" y="92" font-size="12.5" fill="#ffffff">FFT</text>
</svg>
