$MeshFormat
4.1 0 8
$EndMeshFormat
$PhysicalNames
7
2 1 "front"
2 2 "back"
2 4 "top"
2 5 "bottom"
2 6 "left"
2 7 "right"
3 3 "internal"
$EndPhysicalNames
$Entities
8 12 6 1
1 -5000 -250 0 0 
2 5000 -250 0 0 
3 5000 -250 10000 0 
4 -5000 -250 10000 0 
5 -5000 250 10000 0 
6 -5000 250 0 0 
10 5000 250 0 0 
14 5000 250 10000 0 
1 -5000 -250 0 5000 -250 0 0 2 1 -2 
2 5000 -250 0 5000 -250 10000 0 2 2 -3 
3 -5000 -250 10000 5000 -250 10000 0 2 3 -4 
4 -5000 -250 0 -5000 -250 10000 0 2 4 -1 
14 -5000 250 0 -5000 250 10000 0 2 5 -6 
15 -5000 250 0 5000 250 0 0 2 6 -10 
16 5000 250 0 5000 250 10000 0 2 10 -14 
17 -5000 250 10000 5000 250 10000 0 2 14 -5 
19 -5000 -250 10000 -5000 250 10000 0 2 4 -5 
20 -5000 -250 0 -5000 250 0 0 2 1 -6 
24 5000 -250 0 5000 250 0 0 2 2 -10 
28 5000 -250 10000 5000 250 10000 0 2 3 -14 
12 -5000 -250 0 5000 -250 10000 1 1 4 4 1 2 3 
21 -5000 -250 0 -5000 250 10000 1 6 4 4 20 -14 -19 
25 -5000 -250 0 5000 250 0 1 5 4 1 24 -15 -20 
29 5000 -250 0 5000 250 10000 1 7 4 2 28 -16 -24 
33 -5000 -250 10000 5000 250 10000 1 4 4 3 19 -17 -28 
34 -5000 250 0 5000 250 10000 1 2 4 14 15 16 17 
1 -5000 -250 0 5000 250 10000 1 3 6 -12 34 21 25 29 33 
$EndEntities
$Nodes
23 902 1 902
0 1 0 1
1
-5000 -250 0
0 2 0 1
2
5000 -250 0
0 3 0 1
3
5000 -250 10000
0 4 0 1
4
-5000 -250 10000
0 5 0 1
5
-5000 250 10000
0 6 0 1
6
-5000 250 0
0 10 0 1
7
5000 250 0
0 14 0 1
8
5000 250 10000
1 1 0 9
9
10
11
12
13
14
15
16
17
-4000.000000003498 -250 0
-3000.000000006322 -250 0
-2000.000000006055 -250 0
-1000.00000000547 -250 0
-8.792085282038897e-09 -250 0
999.9999999961647 -250 0
2000.000000001299 -250 0
3000.000000006431 -250 0
4000.000000003962 -250 0
1 2 0 39
18
19
20
21
22
23
24
25
26
27
28
29
30
31
32
33
34
35
36
37
38
39
40
41
42
43
44
45
46
47
48
49
50
51
52
53
54
55
56
5000 -250 249.9999999997957
5000 -250 499.9999999995336
5000 -250 749.9999999994048
5000 -250 999.9999999994183
5000 -250 1249.999999999387
5000 -250 1499.999999998877
5000 -250 1749.999999998322
5000 -250 1999.999999997767
5000 -250 2249.99999999762
5000 -250 2499.999999997633
5000 -250 2749.999999997646
5000 -250 2999.999999997659
5000 -250 3249.999999997671
5000 -250 3499.999999997684
5000 -250 3749.999999997696
5000 -250 3999.999999997709
5000 -250 4249.999999997047
5000 -250 4499.999999995922
5000 -250 4749.999999994798
5000 -250 4999.999999993852
5000 -250 5249.999999994826
5000 -250 5499.999999995977
5000 -250 5749.999999997128
5000 -250 5999.999999998279
5000 -250 6249.999999999431
5000 -250 6500.000000000582
5000 -250 6750.000000001733
5000 -250 7000.000000002883
5000 -250 7250.000000004035
5000 -250 7500.000000005186
5000 -250 7750.000000006337
5000 -250 8000.000000007489
5000 -250 8250.000000007858
5000 -250 8500.000000006736
5000 -250 8750.000000005613
5000 -250 9000.000000004491
5000 -250 9250.000000003369
5000 -250 9500.000000002245
5000 -250 9750.000000001122
1 3 0 9
57
58
59
60
61
62
63
64
65
4000.000000003498 -250 10000
3000.000000006322 -250 10000
2000.000000006055 -250 10000
1000.00000000547 -250 10000
8.792085282038897e-09 -250 10000
-999.9999999961647 -250 10000
-2000.000000001299 -250 10000
-3000.000000006431 -250 10000
-4000.000000003962 -250 10000
1 4 0 39
66
67
68
69
70
71
72
73
74
75
76
77
78
79
80
81
82
83
84
85
86
87
88
89
90
91
92
93
94
95
96
97
98
99
100
101
102
103
104
-5000 -250 9750.000000000719
-5000 -250 9500.000000001439
-5000 -250 9250.000000002157
-5000 -250 9000.000000002876
-5000 -250 8750.000000003594
-5000 -250 8500.000000004315
-5000 -250 8250.000000005033
-5000 -250 8000.000000005753
-5000 -250 7750.000000006472
-5000 -250 7500.00000000719
-5000 -250 7250.000000007909
-5000 -250 7000.000000008627
-5000 -250 6750.000000009346
-5000 -250 6500.000000010064
-5000 -250 6250.000000010783
-5000 -250 6000.000000011501
-5000 -250 5750.000000012219
-5000 -250 5500.000000012938
-5000 -250 5250.000000013657
-5000 -250 5000.000000014197
-5000 -250 4750.000000012822
-5000 -250 4500.000000011269
-5000 -250 4250.000000009715
-5000 -250 4000.00000000816
-5000 -250 3750.000000006607
-5000 -250 3500.000000005053
-5000 -250 3250.0000000035
-5000 -250 3000.000000001946
-5000 -250 2750.000000000392
-5000 -250 2499.999999998839
-5000 -250 2249.999999997286
-5000 -250 1999.999999995732
-5000 -250 1749.99999999496
-5000 -250 1499.99999999568
-5000 -250 1249.9999999964
-5000 -250 999.9999999971205
-5000 -250 749.9999999978409
-5000 -250 499.9999999985612
-5000 -250 249.9999999992815
1 14 0 39
105
106
107
108
109
110
111
112
113
114
115
116
117
118
119
120
121
122
123
124
125
126
127
128
129
130
131
132
133
134
135
136
137
138
139
140
141
142
143
-5000 250 9750.000000000719
-5000 250 9500.000000001439
-5000 250 9250.000000002157
-5000 250 9000.000000002876
-5000 250 8750.000000003594
-5000 250 8500.000000004315
-5000 250 8250.000000005033
-5000 250 8000.000000005753
-5000 250 7750.000000006472
-5000 250 7500.00000000719
-5000 250 7250.000000007909
-5000 250 7000.000000008627
-5000 250 6750.000000009346
-5000 250 6500.000000010064
-5000 250 6250.000000010783
-5000 250 6000.000000011501
-5000 250 5750.000000012219
-5000 250 5500.000000012938
-5000 250 5250.000000013657
-5000 250 5000.000000014197
-5000 250 4750.000000012822
-5000 250 4500.000000011269
-5000 250 4250.000000009715
-5000 250 4000.00000000816
-5000 250 3750.000000006607
-5000 250 3500.000000005053
-5000 250 3250.0000000035
-5000 250 3000.000000001946
-5000 250 2750.000000000392
-5000 250 2499.999999998839
-5000 250 2249.999999997286
-5000 250 1999.999999995732
-5000 250 1749.99999999496
-5000 250 1499.99999999568
-5000 250 1249.9999999964
-5000 250 999.9999999971205
-5000 250 749.9999999978409
-5000 250 499.9999999985612
-5000 250 249.9999999992815
1 15 0 9
144
145
146
147
148
149
150
151
152
-4000.000000003498 250 0
-3000.000000006322 250 0
-2000.000000006055 250 0
-1000.00000000547 250 0
-8.792085282038897e-09 250 0
999.9999999961647 250 0
2000.000000001299 250 0
3000.000000006431 250 0
4000.000000003962 250 0
1 16 0 39
153
154
155
156
157
158
159
160
161
162
163
164
165
166
167
168
169
170
171
172
173
174
175
176
177
178
179
180
181
182
183
184
185
186
187
188
189
190
191
5000 250 249.9999999997957
5000 250 499.9999999995336
5000 250 749.9999999994048
5000 250 999.9999999994183
5000 250 1249.999999999387
5000 250 1499.999999998877
5000 250 1749.999999998322
5000 250 1999.999999997767
5000 250 2249.99999999762
5000 250 2499.999999997633
5000 250 2749.999999997646
5000 250 2999.999999997659
5000 250 3249.999999997671
5000 250 3499.999999997684
5000 250 3749.999999997696
5000 250 3999.999999997709
5000 250 4249.999999997047
5000 250 4499.999999995922
5000 250 4749.999999994798
5000 250 4999.999999993852
5000 250 5249.999999994826
5000 250 5499.999999995977
5000 250 5749.999999997128
5000 250 5999.999999998279
5000 250 6249.999999999431
5000 250 6500.000000000582
5000 250 6750.000000001733
5000 250 7000.000000002883
5000 250 7250.000000004035
5000 250 7500.000000005186
5000 250 7750.000000006337
5000 250 8000.000000007489
5000 250 8250.000000007858
5000 250 8500.000000006736
5000 250 8750.000000005613
5000 250 9000.000000004491
5000 250 9250.000000003369
5000 250 9500.000000002245
5000 250 9750.000000001122
1 17 0 9
192
193
194
195
196
197
198
199
200
4000.000000003498 250 10000
3000.000000006322 250 10000
2000.000000006055 250 10000
1000.00000000547 250 10000
8.792085282038897e-09 250 10000
-999.9999999961647 250 10000
-2000.000000001299 250 10000
-3000.000000006431 250 10000
-4000.000000003962 250 10000
2 12 0 351
201
202
203
204
205
206
207
208
209
210
211
212
213
214
215
216
217
218
219
220
221
222
223
224
225
226
227
228
229
230
231
232
233
234
235
236
237
238
239
240
241
242
243
244
245
246
247
248
249
250
251
252
253
254
255
256
257
258
259
260
261
262
263
264
265
266
267
268
269
270
271
272
273
274
275
276
277
278
279
280
281
282
283
284
285
286
287
288
289
290
291
292
293
294
295
296
297
298
299
300
301
302
303
304
305
306
307
308
309
310
311
312
313
314
315
316
317
318
319
320
321
322
323
324
325
326
327
328
329
330
331
332
333
334
335
336
337
338
339
340
341
342
343
344
345
346
347
348
349
350
351
352
353
354
355
356
357
358
359
360
361
362
363
364
365
366
367
368
369
370
371
372
373
374
375
376
377
378
379
380
381
382
383
384
385
386
387
388
389
390
391
392
393
394
395
396
397
398
399
400
401
402
403
404
405
406
407
408
409
410
411
412
413
414
415
416
417
418
419
420
421
422
423
424
425
426
427
428
429
430
431
432
433
434
435
436
437
438
439
440
441
442
443
444
445
446
447
448
449
450
451
452
453
454
455
456
457
458
459
460
461
462
463
464
465
466
467
468
469
470
471
472
473
474
475
476
477
478
479
480
481
482
483
484
485
486
487
488
489
490
491
492
493
494
495
496
497
498
499
500
501
502
503
504
505
506
507
508
509
510
511
512
513
514
515
516
517
518
519
520
521
522
523
524
525
526
527
528
529
530
531
532
533
534
535
536
537
538
539
540
541
542
543
544
545
546
547
548
549
550
551
-4000.000000003949 -250 9750.000000000757
-3000.000000006427 -250 9750.0000000008
-2000.000000001417 -250 9750.000000000837
-999.9999999963973 -250 9750.00000000088
8.352344593731686e-09 -250 9750.00000000092
1000.000000005237 -250 9750.00000000096
2000.000000005936 -250 9750.000000001
3000.000000006325 -250 9750.000000001044
4000.000000003509 -250 9750.000000001079
-4000.000000003937 -250 9500.000000001521
-3000.000000006426 -250 9500.000000001601
-2000.000000001536 -250 9500.000000001681
-999.9999999966294 -250 9500.000000001759
7.913058652775362e-09 -250 9500.000000001841
1000.000000005004 -250 9500.000000001919
2000.000000005818 -250 9500.000000001999
3000.000000006329 -250 9500.000000002081
4000.000000003521 -250 9500.000000002161
-4000.000000003925 -250 9250.000000002279
-3000.000000006424 -250 9250.000000002401
-2000.000000001655 -250 9250.000000002521
-999.9999999968627 -250 9250.000000002643
7.473317964468151e-09 -250 9250.000000002763
1000.000000004772 -250 9250.000000002883
2000.000000005699 -250 9250.000000003009
3000.00000000633 -250 9250.000000003127
4000.000000003532 -250 9250.000000003247
-4000.000000003915 -250 9000.000000003036
-3000.00000000642 -250 9000.000000003196
-2000.000000001775 -250 9000.00000000336
-999.9999999970946 -250 9000.000000003522
7.033577276160941e-09 -250 9000.000000003683
1000.000000004539 -250 9000.000000003844
2000.00000000558 -250 9000.000000004007
3000.000000006334 -250 9000.000000004167
4000.000000003545 -250 9000.000000004331
-4000.000000003904 -250 8750.000000003796
-3000.000000006418 -250 8750.000000003996
-2000.000000001893 -250 8750.0000000042
-999.9999999973274 -250 8750.000000004402
6.594291335204616e-09 -250 8750.000000004604
1000.000000004306 -250 8750.000000004804
2000.000000005461 -250 8750.000000005008
3000.000000006336 -250 8750.000000005206
4000.000000003556 -250 8750.000000005411
-4000.000000003893 -250 8500.00000000456
-3000.000000006414 -250 8500.000000004798
-2000.000000002012 -250 8500.00000000504
-999.9999999975603 -250 8500.000000005286
6.154550646897405e-09 -250 8500.000000005526
1000.000000004074 -250 8500.000000005768
2000.000000005342 -250 8500.00000000601
3000.00000000634 -250 8500.000000006252
4000.000000003567 -250 8500.000000006494
-4000.000000003879 -250 8250.000000005317
-3000.000000006413 -250 8250.000000005595
-2000.000000002131 -250 8250.000000005881
-999.9999999977931 -250 8250.000000006163
5.714809958590195e-09 -250 8250.000000006445
1000.000000003841 -250 8250.000000006728
2000.000000005223 -250 8250.00000000701
3000.000000006341 -250 8250.000000007291
4000.000000003579 -250 8250.000000007576
-4000.000000003869 -250 8000.000000005925
-3000.00000000641 -250 8000.0000000061
-2000.00000000225 -250 8000.000000006274
-999.9999999980259 -250 8000.000000006448
5.275069270282984e-09 -250 8000.000000006621
1000.000000003609 -250 8000.000000006797
2000.000000005104 -250 8000.000000006969
3000.000000006344 -250 8000.000000007141
4000.00000000359 -250 8000.000000007316
-4000.000000003857 -250 7750.000000006457
-3000.000000006407 -250 7750.000000006444
-2000.000000002369 -250 7750.00000000643
-999.9999999982581 -250 7750.000000006416
4.835783329326659e-09 -250 7750.000000006405
1000.000000003376 -250 7750.000000006389
2000.000000004985 -250 7750.000000006378
3000.000000006346 -250 7750.000000006364
4000.000000003602 -250 7750.000000006349
-4000.000000003845 -250 7500.000000006989
-3000.000000006403 -250 7500.00000000679
-2000.000000002487 -250 7500.000000006589
-999.9999999984905 -250 7500.000000006388
4.396042641019449e-09 -250 7500.000000006188
1000.000000003143 -250 7500.000000005988
2000.000000004867 -250 7500.000000005788
3000.000000006351 -250 7500.000000005588
4000.000000003613 -250 7500.000000005387
-4000.000000003834 -250 7250.00000000752
-3000.000000006402 -250 7250.000000007135
-2000.000000002606 -250 7250.000000006747
-999.9999999987231 -250 7250.00000000636
3.956301952712238e-09 -250 7250.000000005972
1000.00000000291 -250 7250.000000005582
2000.000000004747 -250 7250.000000005196
3000.000000006352 -250 7250.000000004811
4000.000000003624 -250 7250.000000004421
-4000.00000000382 -250 7000.000000008052
-3000.000000006398 -250 7000.000000007477
-2000.000000002726 -250 7000.000000006905
-999.9999999989559 -250 7000.000000006329
3.517016011755913e-09 -250 7000.000000005754
1000.000000002678 -250 7000.00000000518
2000.000000004628 -250 7000.000000004605
3000.000000006355 -250 7000.000000004034
4000.000000003637 -250 7000.000000003456
-4000.00000000381 -250 6750.000000008585
-3000.000000006396 -250 6750.000000007822
-2000.000000002844 -250 6750.000000007062
-999.9999999991892 -250 6750.000000006301
3.077047949773259e-09 -250 6750.000000005539
1000.000000002446 -250 6750.000000004778
2000.00000000451 -250 6750.000000004016
3000.000000006357 -250 6750.000000003256
4000.000000003648 -250 6750.000000002495
-4000.0000000038 -250 6500.000000009118
-3000.000000006392 -250 6500.000000008167
-2000.000000002964 -250 6500.00000000722
-999.9999999994209 -250 6500.000000006272
2.637534635141492e-09 -250 6500.000000005324
1000.000000002213 -250 6500.000000004375
2000.000000004391 -250 6500.000000003427
3000.00000000636 -250 6500.000000002479
4000.000000003662 -250 6500.000000001531
-4000.000000003786 -250 6250.000000009647
-3000.000000006391 -250 6250.000000008511
-2000.000000003082 -250 6250.000000007376
-999.9999999996537 -250 6250.000000006241
2.198476067860611e-09 -250 6250.000000005109
1000.00000000198 -250 6250.000000003972
2000.000000004271 -250 6250.000000002834
3000.000000006363 -250 6250.0000000017
4000.000000003672 -250 6250.000000000564
-4000.000000003776 -250 6000.00000001018
-3000.000000006387 -250 6000.000000008857
-2000.000000003201 -250 6000.000000007536
-999.999999999887 -250 6000.000000006213
1.7587353795534e-09 -250 6000.00000000489
1000.000000001748 -250 6000.000000003568
2000.000000004153 -250 6000.000000002246
3000.000000006366 -250 6000.000000000924
4000.000000003683 -250 5999.999999999603
-4000.000000003763 -250 5750.000000010709
-3000.000000006386 -250 5750.000000009202
-2000.000000003321 -250 5750.000000007693
-1000.00000000012 -250 5750.000000006182
1.318767317570746e-09 -250 5750.000000004672
1000.000000001515 -250 5750.000000003165
2000.000000004033 -250 5750.000000001657
3000.000000006368 -250 5750.000000000146
4000.000000003695 -250 5749.999999998637
-4000.000000003752 -250 5500.000000011241
-3000.000000006382 -250 5500.000000009545
-2000.000000003438 -250 5500.000000007849
-1000.000000000352 -250 5500.000000006154
8.792540029389784e-10 -250 5500.000000004457
1000.000000001282 -250 5500.000000002761
2000.000000003915 -250 5500.000000001066
3000.000000006371 -250 5499.99999999937
4000.000000003707 -250 5499.999999997673
-4000.000000003741 -250 5250.000000011772
-3000.000000006379 -250 5250.000000009892
-2000.000000003558 -250 5250.000000008007
-1000.000000000584 -250 5250.000000006125
4.39968061982654e-10 -250 5250.000000004242
1000.00000000105 -250 5250.000000002359
2000.000000003796 -250 5250.000000000475
3000.000000006374 -250 5249.999999998592
4000.000000003718 -250 5249.999999996709
-4000.000000003731 -250 5000.000000012163
-3000.000000006376 -250 5000.000000010127
-2000.000000003677 -250 5000.000000008092
-1000.000000000817 -250 5000.000000006058
0 -250 5000.000000004025
1000.000000000817 -250 5000.000000001989
2000.000000003677 -250 4999.999999999955
3000.000000006376 -250 4999.999999997922
4000.00000000373 -250 4999.999999995886
-4000.000000003718 -250 4750.000000011019
-3000.000000006375 -250 4750.000000009218
-2000.000000003795 -250 4750.000000007415
-1000.00000000105 -250 4750.000000005612
-4.397406883072108e-10 -250 4750.00000000381
1000.000000000584 -250 4750.000000002006
2000.000000003557 -250 4750.000000000205
3000.000000006379 -250 4749.999999998402
4000.000000003742 -250 4749.999999996601
-4000.000000003707 -250 4500.000000009734
-3000.000000006371 -250 4500.000000008199
-2000.000000003915 -250 4500.000000006665
-1000.000000001282 -250 4500.00000000513
-8.790266292635351e-10 -250 4500.000000003595
1000.000000000352 -250 4500.000000002062
2000.000000003439 -250 4500.000000000527
3000.000000006382 -250 4499.999999998991
4000.000000003753 -250 4499.999999997456
-4000.000000003694 -250 4250.000000008448
-3000.00000000637 -250 4250.000000007182
-2000.000000004034 -250 4250.000000005915
-1000.000000001514 -250 4250.000000004649
-1.318767317570746e-09 -250 4250.000000003382
1000.000000000119 -250 4250.000000002114
2000.00000000332 -250 4250.000000000846
3000.000000006385 -250 4249.999999999581
4000.000000003765 -250 4249.999999998314
-4000.000000003683 -250 4000.000000007116
-3000.000000006366 -250 4000.000000006069
-2000.000000004153 -250 4000.000000005025
-1000.000000001747 -250 4000.00000000398
-1.758394319040235e-09 -250 4000.000000002934
999.9999999998868 -250 4000.000000001889
2000.000000003201 -250 4000.000000000844
3000.000000006387 -250 3999.999999999799
4000.000000003776 -250 3999.999999998754
-4000.000000003672 -250 3750.000000005716
-3000.000000006364 -250 3750.000000004824
-2000.000000004272 -250 3750.000000003933
-1000.000000001981 -250 3750.000000003042
-2.197680259996559e-09 -250 3750.000000002152
999.9999999996537 -250 3750.00000000126
2000.000000003082 -250 3750.000000000369
3000.00000000639 -250 3749.999999999478
4000.000000003788 -250 3749.999999998587
-4000.000000003659 -250 3500.000000004316
-3000.000000006361 -250 3500.00000000358
-2000.00000000439 -250 3500.000000002843
-1000.000000002213 -250 3500.000000002106
-2.637534635141492e-09 -250 3500.000000001369
999.9999999994211 -250 3500.000000000632
2000.000000002964 -250 3499.999999999895
3000.000000006393 -250 3499.999999999158
4000.000000003799 -250 3499.999999998421
-4000.000000003649 -250 3250.000000002917
-3000.000000006358 -250 3250.000000002334
-2000.000000004509 -250 3250.000000001751
-1000.000000002446 -250 3250.000000001169
-3.077275323448703e-09 -250 3250.000000000586
999.9999999991887 -250 3250.000000000003
2000.000000002844 -250 3249.999999999421
3000.000000006396 -250 3249.999999998837
4000.00000000381 -250 3249.999999998254
-4000.000000003636 -250 3000.000000001517
-3000.000000006356 -250 3000.00000000109
-2000.000000004629 -250 3000.000000000659
-1000.000000002678 -250 3000.000000000232
-3.517016011755913e-09 -250 2999.999999999803
999.9999999989558 -250 2999.999999999373
2000.000000002726 -250 2999.999999998945
3000.000000006398 -250 2999.999999998516
4000.000000003823 -250 2999.999999998088
-4000.000000003624 -250 2750.000000000118
-3000.000000006353 -250 2749.999999999843
-2000.000000004747 -250 2749.999999999569
-1000.00000000291 -250 2749.999999999294
-3.956301952712238e-09 -250 2749.99999999902
999.9999999987233 -250 2749.999999998745
2000.000000002606 -250 2749.999999998469
3000.000000006401 -250 2749.999999998196
4000.000000003834 -250 2749.999999997921
-4000.000000003614 -250 2499.999999998719
-3000.00000000635 -250 2499.999999998598
-2000.000000004866 -250 2499.999999998478
-1000.000000003143 -250 2499.999999998357
-4.39615632785717e-09 -250 2499.999999998237
999.9999999984911 -250 2499.999999998116
2000.000000002488 -250 2499.999999997995
3000.000000006404 -250 2499.999999997875
4000.000000003845 -250 2499.999999997755
-4000.000000003603 -250 2249.999999997319
-3000.000000006346 -250 2249.999999997353
-2000.000000004984 -250 2249.999999997386
-1000.000000003376 -250 2249.99999999742
-4.835897016164381e-09 -250 2249.999999997453
999.9999999982582 -250 2249.999999997487
2000.000000002369 -250 2249.99999999752
3000.000000006406 -250 2249.999999997554
4000.000000003858 -250 2249.999999997587
-4000.00000000359 -250 1999.999999995935
-3000.000000006344 -250 1999.999999996139
-2000.000000005104 -250 1999.999999996342
-1000.000000003609 -250 1999.999999996545
-5.275126113701845e-09 -250 1999.999999996749
999.9999999980251 -250 1999.999999996953
2000.000000002249 -250 1999.999999997156
3000.000000006409 -250 1999.99999999736
4000.000000003868 -250 1999.999999997563
-4000.000000003579 -250 1749.999999995296
-3000.000000006342 -250 1749.999999995632
-2000.000000005223 -250 1749.999999995968
-1000.000000003841 -250 1749.999999996304
-5.714696271752473e-09 -250 1749.999999996641
999.9999999977929 -250 1749.999999996977
2000.00000000213 -250 1749.999999997313
3000.000000006412 -250 1749.999999997649
4000.000000003881 -250 1749.999999997985
-4000.000000003567 -250 1499.999999995999
-3000.000000006339 -250 1499.99999999632
-2000.000000005341 -250 1499.999999996639
-1000.000000004074 -250 1499.999999996958
-6.154607490316266e-09 -250 1499.999999997278
999.9999999975601 -250 1499.999999997598
2000.000000002012 -250 1499.999999997918
3000.000000006415 -250 1499.999999998237
4000.000000003893 -250 1499.999999998557
-4000.000000003556 -250 1249.999999996699
-3000.000000006336 -250 1249.999999996998
-2000.000000005462 -250 1249.999999997296
-1000.000000004306 -250 1249.999999997595
-6.594348178623477e-09 -250 1249.999999997894
999.9999999973273 -250 1249.999999998193
2000.000000001893 -250 1249.999999998491
3000.000000006417 -250 1249.99999999879
4000.000000003904 -250 1249.999999999088
-4000.000000003545 -250 999.9999999973502
-3000.000000006333 -250 999.9999999975799
-2000.000000005579 -250 999.9999999978099
-1000.000000004539 -250 999.9999999980397
-7.03354885445151e-09 -250 999.9999999982696
999.9999999970946 -250 999.9999999984989
2000.000000001774 -250 999.9999999987289
3000.00000000642 -250 999.9999999989587
4000.000000003916 -250 999.9999999991883
-4000.000000003532 -250 749.9999999979975
-3000.000000006331 -250 749.9999999981537
-2000.000000005699 -250 749.9999999983102
-1000.000000004772 -250 749.9999999984664
-7.473289542758721e-09 -250 749.9999999986229
999.9999999968626 -250 749.9999999987795
2000.000000001655 -250 749.9999999989356
3000.000000006424 -250 749.9999999990921
4000.000000003926 -250 749.9999999992485
-4000.000000003521 -250 499.9999999986584
-3000.000000006328 -250 499.9999999987555
-2000.000000005818 -250 499.9999999988529
-1000.000000005004 -250 499.99999999895
-7.913030231065932e-09 -250 499.9999999990474
999.9999999966294 -250 499.9999999991446
2000.000000001537 -250 499.9999999992418
3000.000000006426 -250 499.9999999993391
4000.000000003939 -250 499.9999999994363
-4000.000000003508 -250 249.9999999993329
-3000.000000006325 -250 249.9999999993844
-2000.000000005936 -250 249.9999999994357
-1000.000000005238 -250 249.9999999994872
-8.352444069714693e-09 -250 249.9999999995386
999.9999999963973 -250 249.99999999959
2000.000000001417 -250 249.9999999996414
3000.000000006429 -250 249.9999999996929
4000.000000003951 -250 249.9999999997443
2 21 0 0
2 25 0 0
2 29 0 0
2 33 0 0
2 34 0 351
552
553
554
555
556
557
558
559
560
561
562
563
564
565
566
567
568
569
570
571
572
573
574
575
576
577
578
579
580
581
582
583
584
585
586
587
588
589
590
591
592
593
594
595
596
597
598
599
600
601
602
603
604
605
606
607
608
609
610
611
612
613
614
615
616
617
618
619
620
621
622
623
624
625
626
627
628
629
630
631
632
633
634
635
636
637
638
639
640
641
642
643
644
645
646
647
648
649
650
651
652
653
654
655
656
657
658
659
660
661
662
663
664
665
666
667
668
669
670
671
672
673
674
675
676
677
678
679
680
681
682
683
684
685
686
687
688
689
690
691
692
693
694
695
696
697
698
699
700
701
702
703
704
705
706
707
708
709
710
711
712
713
714
715
716
717
718
719
720
721
722
723
724
725
726
727
728
729
730
731
732
733
734
735
736
737
738
739
740
741
742
743
744
745
746
747
748
749
750
751
752
753
754
755
756
757
758
759
760
761
762
763
764
765
766
767
768
769
770
771
772
773
774
775
776
777
778
779
780
781
782
783
784
785
786
787
788
789
790
791
792
793
794
795
796
797
798
799
800
801
802
803
804
805
806
807
808
809
810
811
812
813
814
815
816
817
818
819
820
821
822
823
824
825
826
827
828
829
830
831
832
833
834
835
836
837
838
839
840
841
842
843
844
845
846
847
848
849
850
851
852
853
854
855
856
857
858
859
860
861
862
863
864
865
866
867
868
869
870
871
872
873
874
875
876
877
878
879
880
881
882
883
884
885
886
887
888
889
890
891
892
893
894
895
896
897
898
899
900
901
902
-4000.000000003949 250 9750.000000000757
-3000.000000006427 250 9750.0000000008
-2000.000000001417 250 9750.000000000837
-999.9999999963973 250 9750.00000000088
8.352344593731686e-09 250 9750.00000000092
1000.000000005237 250 9750.00000000096
2000.000000005936 250 9750.000000001
3000.000000006325 250 9750.000000001044
4000.000000003509 250 9750.000000001079
-4000.000000003937 250 9500.000000001521
-3000.000000006426 250 9500.000000001601
-2000.000000001536 250 9500.000000001681
-999.9999999966294 250 9500.000000001759
7.913058652775362e-09 250 9500.000000001841
1000.000000005004 250 9500.000000001919
2000.000000005818 250 9500.000000001999
3000.000000006329 250 9500.000000002081
4000.000000003521 250 9500.000000002161
-4000.000000003925 250 9250.000000002279
-3000.000000006424 250 9250.000000002401
-2000.000000001655 250 9250.000000002521
-999.9999999968627 250 9250.000000002643
7.473317964468151e-09 250 9250.000000002763
1000.000000004772 250 9250.000000002883
2000.000000005699 250 9250.000000003009
3000.00000000633 250 9250.000000003127
4000.000000003532 250 9250.000000003247
-4000.000000003915 250 9000.000000003036
-3000.00000000642 250 9000.000000003196
-2000.000000001775 250 9000.00000000336
-999.9999999970946 250 9000.000000003522
7.033577276160941e-09 250 9000.000000003683
1000.000000004539 250 9000.000000003844
2000.00000000558 250 9000.000000004007
3000.000000006334 250 9000.000000004167
4000.000000003545 250 9000.000000004331
-4000.000000003904 250 8750.000000003796
-3000.000000006418 250 8750.000000003996
-2000.000000001893 250 8750.0000000042
-999.9999999973274 250 8750.000000004402
6.594291335204616e-09 250 8750.000000004604
1000.000000004306 250 8750.000000004804
2000.000000005461 250 8750.000000005008
3000.000000006336 250 8750.000000005206
4000.000000003556 250 8750.000000005411
-4000.000000003893 250 8500.00000000456
-3000.000000006414 250 8500.000000004798
-2000.000000002012 250 8500.00000000504
-999.9999999975603 250 8500.000000005286
6.154550646897405e-09 250 8500.000000005526
1000.000000004074 250 8500.000000005768
2000.000000005342 250 8500.00000000601
3000.00000000634 250 8500.000000006252
4000.000000003567 250 8500.000000006494
-4000.000000003879 250 8250.000000005317
-3000.000000006413 250 8250.000000005595
-2000.000000002131 250 8250.000000005881
-999.9999999977931 250 8250.000000006163
5.714809958590195e-09 250 8250.000000006445
1000.000000003841 250 8250.000000006728
2000.000000005223 250 8250.00000000701
3000.000000006341 250 8250.000000007291
4000.000000003579 250 8250.000000007576
-4000.000000003869 250 8000.000000005925
-3000.00000000641 250 8000.0000000061
-2000.00000000225 250 8000.000000006274
-999.9999999980259 250 8000.000000006448
5.275069270282984e-09 250 8000.000000006621
1000.000000003609 250 8000.000000006797
2000.000000005104 250 8000.000000006969
3000.000000006344 250 8000.000000007141
4000.00000000359 250 8000.000000007316
-4000.000000003857 250 7750.000000006457
-3000.000000006407 250 7750.000000006444
-2000.000000002369 250 7750.00000000643
-999.9999999982581 250 7750.000000006416
4.835783329326659e-09 250 7750.000000006405
1000.000000003376 250 7750.000000006389
2000.000000004985 250 7750.000000006378
3000.000000006346 250 7750.000000006364
4000.000000003602 250 7750.000000006349
-4000.000000003845 250 7500.000000006989
-3000.000000006403 250 7500.00000000679
-2000.000000002487 250 7500.000000006589
-999.9999999984905 250 7500.000000006388
4.396042641019449e-09 250 7500.000000006188
1000.000000003143 250 7500.000000005988
2000.000000004867 250 7500.000000005788
3000.000000006351 250 7500.000000005588
4000.000000003613 250 7500.000000005387
-4000.000000003834 250 7250.00000000752
-3000.000000006402 250 7250.000000007135
-2000.000000002606 250 7250.000000006747
-999.9999999987231 250 7250.00000000636
3.956301952712238e-09 250 7250.000000005972
1000.00000000291 250 7250.000000005582
2000.000000004747 250 7250.000000005196
3000.000000006352 250 7250.000000004811
4000.000000003624 250 7250.000000004421
-4000.00000000382 250 7000.000000008052
-3000.000000006398 250 7000.000000007477
-2000.000000002726 250 7000.000000006905
-999.9999999989559 250 7000.000000006329
3.517016011755913e-09 250 7000.000000005754
1000.000000002678 250 7000.00000000518
2000.000000004628 250 7000.000000004605
3000.000000006355 250 7000.000000004034
4000.000000003637 250 7000.000000003456
-4000.00000000381 250 6750.000000008585
-3000.000000006396 250 6750.000000007822
-2000.000000002844 250 6750.000000007062
-999.9999999991892 250 6750.000000006301
3.077047949773259e-09 250 6750.000000005539
1000.000000002446 250 6750.000000004778
2000.00000000451 250 6750.000000004016
3000.000000006357 250 6750.000000003256
4000.000000003648 250 6750.000000002495
-4000.0000000038 250 6500.000000009118
-3000.000000006392 250 6500.000000008167
-2000.000000002964 250 6500.00000000722
-999.9999999994209 250 6500.000000006272
2.637534635141492e-09 250 6500.000000005324
1000.000000002213 250 6500.000000004375
2000.000000004391 250 6500.000000003427
3000.00000000636 250 6500.000000002479
4000.000000003662 250 6500.000000001531
-4000.000000003786 250 6250.000000009647
-3000.000000006391 250 6250.000000008511
-2000.000000003082 250 6250.000000007376
-999.9999999996537 250 6250.000000006241
2.198476067860611e-09 250 6250.000000005109
1000.00000000198 250 6250.000000003972
2000.000000004271 250 6250.000000002834
3000.000000006363 250 6250.0000000017
4000.000000003672 250 6250.000000000564
-4000.000000003776 250 6000.00000001018
-3000.000000006387 250 6000.000000008857
-2000.000000003201 250 6000.000000007536
-999.999999999887 250 6000.000000006213
1.7587353795534e-09 250 6000.00000000489
1000.000000001748 250 6000.000000003568
2000.000000004153 250 6000.000000002246
3000.000000006366 250 6000.000000000924
4000.000000003683 250 5999.999999999603
-4000.000000003763 250 5750.000000010709
-3000.000000006386 250 5750.000000009202
-2000.000000003321 250 5750.000000007693
-1000.00000000012 250 5750.000000006182
1.318767317570746e-09 250 5750.000000004672
1000.000000001515 250 5750.000000003165
2000.000000004033 250 5750.000000001657
3000.000000006368 250 5750.000000000146
4000.000000003695 250 5749.999999998637
-4000.000000003752 250 5500.000000011241
-3000.000000006382 250 5500.000000009545
-2000.000000003438 250 5500.000000007849
-1000.000000000352 250 5500.000000006154
8.792540029389784e-10 250 5500.000000004457
1000.000000001282 250 5500.000000002761
2000.000000003915 250 5500.000000001066
3000.000000006371 250 5499.99999999937
4000.000000003707 250 5499.999999997673
-4000.000000003741 250 5250.000000011772
-3000.000000006379 250 5250.000000009892
-2000.000000003558 250 5250.000000008007
-1000.000000000584 250 5250.000000006125
4.39968061982654e-10 250 5250.000000004242
1000.00000000105 250 5250.000000002359
2000.000000003796 250 5250.000000000475
3000.000000006374 250 5249.999999998592
4000.000000003718 250 5249.999999996709
-4000.000000003731 250 5000.000000012163
-3000.000000006376 250 5000.000000010127
-2000.000000003677 250 5000.000000008092
-1000.000000000817 250 5000.000000006058
0 250 5000.000000004025
1000.000000000817 250 5000.000000001989
2000.000000003677 250 4999.999999999955
3000.000000006376 250 4999.999999997922
4000.00000000373 250 4999.999999995886
-4000.000000003718 250 4750.000000011019
-3000.000000006375 250 4750.000000009218
-2000.000000003795 250 4750.000000007415
-1000.00000000105 250 4750.000000005612
-4.397406883072108e-10 250 4750.00000000381
1000.000000000584 250 4750.000000002006
2000.000000003557 250 4750.000000000205
3000.000000006379 250 4749.999999998402
4000.000000003742 250 4749.999999996601
-4000.000000003707 250 4500.000000009734
-3000.000000006371 250 4500.000000008199
-2000.000000003915 250 4500.000000006665
-1000.000000001282 250 4500.00000000513
-8.790266292635351e-10 250 4500.000000003595
1000.000000000352 250 4500.000000002062
2000.000000003439 250 4500.000000000527
3000.000000006382 250 4499.999999998991
4000.000000003753 250 4499.999999997456
-4000.000000003694 250 4250.000000008448
-3000.00000000637 250 4250.000000007182
-2000.000000004034 250 4250.000000005915
-1000.000000001514 250 4250.000000004649
-1.318767317570746e-09 250 4250.000000003382
1000.000000000119 250 4250.000000002114
2000.00000000332 250 4250.000000000846
3000.000000006385 250 4249.999999999581
4000.000000003765 250 4249.999999998314
-4000.000000003683 250 4000.000000007116
-3000.000000006366 250 4000.000000006069
-2000.000000004153 250 4000.000000005025
-1000.000000001747 250 4000.00000000398
-1.758394319040235e-09 250 4000.000000002934
999.9999999998868 250 4000.000000001889
2000.000000003201 250 4000.000000000844
3000.000000006387 250 3999.999999999799
4000.000000003776 250 3999.999999998754
-4000.000000003672 250 3750.000000005716
-3000.000000006364 250 3750.000000004824
-2000.000000004272 250 3750.000000003933
-1000.000000001981 250 3750.000000003042
-2.197680259996559e-09 250 3750.000000002152
999.9999999996537 250 3750.00000000126
2000.000000003082 250 3750.000000000369
3000.00000000639 250 3749.999999999478
4000.000000003788 250 3749.999999998587
-4000.000000003659 250 3500.000000004316
-3000.000000006361 250 3500.00000000358
-2000.00000000439 250 3500.000000002843
-1000.000000002213 250 3500.000000002106
-2.637534635141492e-09 250 3500.000000001369
999.9999999994211 250 3500.000000000632
2000.000000002964 250 3499.999999999895
3000.000000006393 250 3499.999999999158
4000.000000003799 250 3499.999999998421
-4000.000000003649 250 3250.000000002917
-3000.000000006358 250 3250.000000002334
-2000.000000004509 250 3250.000000001751
-1000.000000002446 250 3250.000000001169
-3.077275323448703e-09 250 3250.000000000586
999.9999999991887 250 3250.000000000003
2000.000000002844 250 3249.999999999421
3000.000000006396 250 3249.999999998837
4000.00000000381 250 3249.999999998254
-4000.000000003636 250 3000.000000001517
-3000.000000006356 250 3000.00000000109
-2000.000000004629 250 3000.000000000659
-1000.000000002678 250 3000.000000000232
-3.517016011755913e-09 250 2999.999999999803
999.9999999989558 250 2999.999999999373
2000.000000002726 250 2999.999999998945
3000.000000006398 250 2999.999999998516
4000.000000003823 250 2999.999999998088
-4000.000000003624 250 2750.000000000118
-3000.000000006353 250 2749.999999999843
-2000.000000004747 250 2749.999999999569
-1000.00000000291 250 2749.999999999294
-3.956301952712238e-09 250 2749.99999999902
999.9999999987233 250 2749.999999998745
2000.000000002606 250 2749.999999998469
3000.000000006401 250 2749.999999998196
4000.000000003834 250 2749.999999997921
-4000.000000003614 250 2499.999999998719
-3000.00000000635 250 2499.999999998598
-2000.000000004866 250 2499.999999998478
-1000.000000003143 250 2499.999999998357
-4.39615632785717e-09 250 2499.999999998237
999.9999999984911 250 2499.999999998116
2000.000000002488 250 2499.999999997995
3000.000000006404 250 2499.999999997875
4000.000000003845 250 2499.999999997755
-4000.000000003603 250 2249.999999997319
-3000.000000006346 250 2249.999999997353
-2000.000000004984 250 2249.999999997386
-1000.000000003376 250 2249.99999999742
-4.835897016164381e-09 250 2249.999999997453
999.9999999982582 250 2249.999999997487
2000.000000002369 250 2249.99999999752
3000.000000006406 250 2249.999999997554
4000.000000003858 250 2249.999999997587
-4000.00000000359 250 1999.999999995935
-3000.000000006344 250 1999.999999996139
-2000.000000005104 250 1999.999999996342
-1000.000000003609 250 1999.999999996545
-5.275126113701845e-09 250 1999.999999996749
999.9999999980251 250 1999.999999996953
2000.000000002249 250 1999.999999997156
3000.000000006409 250 1999.99999999736
4000.000000003868 250 1999.999999997563
-4000.000000003579 250 1749.999999995296
-3000.000000006342 250 1749.999999995632
-2000.000000005223 250 1749.999999995968
-1000.000000003841 250 1749.999999996304
-5.714696271752473e-09 250 1749.999999996641
999.9999999977929 250 1749.999999996977
2000.00000000213 250 1749.999999997313
3000.000000006412 250 1749.999999997649
4000.000000003881 250 1749.999999997985
-4000.000000003567 250 1499.999999995999
-3000.000000006339 250 1499.99999999632
-2000.000000005341 250 1499.999999996639
-1000.000000004074 250 1499.999999996958
-6.154607490316266e-09 250 1499.999999997278
999.9999999975601 250 1499.999999997598
2000.000000002012 250 1499.999999997918
3000.000000006415 250 1499.999999998237
4000.000000003893 250 1499.999999998557
-4000.000000003556 250 1249.999999996699
-3000.000000006336 250 1249.999999996998
-2000.000000005462 250 1249.999999997296
-1000.000000004306 250 1249.999999997595
-6.594348178623477e-09 250 1249.999999997894
999.9999999973273 250 1249.999999998193
2000.000000001893 250 1249.999999998491
3000.000000006417 250 1249.99999999879
4000.000000003904 250 1249.999999999088
-4000.000000003545 250 999.9999999973502
-3000.000000006333 250 999.9999999975799
-2000.000000005579 250 999.9999999978099
-1000.000000004539 250 999.9999999980397
-7.03354885445151e-09 250 999.9999999982696
999.9999999970946 250 999.9999999984989
2000.000000001774 250 999.9999999987289
3000.00000000642 250 999.9999999989587
4000.000000003916 250 999.9999999991883
-4000.000000003532 250 749.9999999979975
-3000.000000006331 250 749.9999999981537
-2000.000000005699 250 749.9999999983102
-1000.000000004772 250 749.9999999984664
-7.473289542758721e-09 250 749.9999999986229
999.9999999968626 250 749.9999999987795
2000.000000001655 250 749.9999999989356
3000.000000006424 250 749.9999999990921
4000.000000003926 250 749.9999999992485
-4000.000000003521 250 499.9999999986584
-3000.000000006328 250 499.9999999987555
-2000.000000005818 250 499.9999999988529
-1000.000000005004 250 499.99999999895
-7.913030231065932e-09 250 499.9999999990474
999.9999999966294 250 499.9999999991446
2000.000000001537 250 499.9999999992418
3000.000000006426 250 499.9999999993391
4000.000000003939 250 499.9999999994363
-4000.000000003508 250 249.9999999993329
-3000.000000006325 250 249.9999999993844
-2000.000000005936 250 249.9999999994357
-1000.000000005238 250 249.9999999994872
-8.352444069714693e-09 250 249.9999999995386
999.9999999963973 250 249.99999999959
2000.000000001417 250 249.9999999996414
3000.000000006429 250 249.9999999996929
4000.000000003951 250 249.9999999997443
3 1 0 0
$EndNodes
$Elements
7 1300 1 1300
2 12 3 400
1 4 66 201 65 
2 65 201 202 64 
3 64 202 203 63 
4 63 203 204 62 
5 62 204 205 61 
6 61 205 206 60 
7 60 206 207 59 
8 59 207 208 58 
9 58 208 209 57 
10 57 209 56 3 
11 66 67 210 201 
12 201 210 211 202 
13 202 211 212 203 
14 203 212 213 204 
15 204 213 214 205 
16 205 214 215 206 
17 206 215 216 207 
18 207 216 217 208 
19 208 217 218 209 
20 209 218 55 56 
21 67 68 219 210 
22 210 219 220 211 
23 211 220 221 212 
24 212 221 222 213 
25 213 222 223 214 
26 214 223 224 215 
27 215 224 225 216 
28 216 225 226 217 
29 217 226 227 218 
30 218 227 54 55 
31 68 69 228 219 
32 219 228 229 220 
33 220 229 230 221 
34 221 230 231 222 
35 222 231 232 223 
36 223 232 233 224 
37 224 233 234 225 
38 225 234 235 226 
39 226 235 236 227 
40 227 236 53 54 
41 69 70 237 228 
42 228 237 238 229 
43 229 238 239 230 
44 230 239 240 231 
45 231 240 241 232 
46 232 241 242 233 
47 233 242 243 234 
48 234 243 244 235 
49 235 244 245 236 
50 236 245 52 53 
51 70 71 246 237 
52 237 246 247 238 
53 238 247 248 239 
54 239 248 249 240 
55 240 249 250 241 
56 241 250 251 242 
57 242 251 252 243 
58 243 252 253 244 
59 244 253 254 245 
60 245 254 51 52 
61 71 72 255 246 
62 246 255 256 247 
63 247 256 257 248 
64 248 257 258 249 
65 249 258 259 250 
66 250 259 260 251 
67 251 260 261 252 
68 252 261 262 253 
69 253 262 263 254 
70 254 263 50 51 
71 72 73 264 255 
72 255 264 265 256 
73 256 265 266 257 
74 257 266 267 258 
75 258 267 268 259 
76 259 268 269 260 
77 260 269 270 261 
78 261 270 271 262 
79 262 271 272 263 
80 263 272 49 50 
81 73 74 273 264 
82 264 273 274 265 
83 265 274 275 266 
84 266 275 276 267 
85 267 276 277 268 
86 268 277 278 269 
87 269 278 279 270 
88 270 279 280 271 
89 271 280 281 272 
90 272 281 48 49 
91 74 75 282 273 
92 273 282 283 274 
93 274 283 284 275 
94 275 284 285 276 
95 276 285 286 277 
96 277 286 287 278 
97 278 287 288 279 
98 279 288 289 280 
99 280 289 290 281 
100 281 290 47 48 
101 75 76 291 282 
102 282 291 292 283 
103 283 292 293 284 
104 284 293 294 285 
105 285 294 295 286 
106 286 295 296 287 
107 287 296 297 288 
108 288 297 298 289 
109 289 298 299 290 
110 290 299 46 47 
111 76 77 300 291 
112 291 300 301 292 
113 292 301 302 293 
114 293 302 303 294 
115 294 303 304 295 
116 295 304 305 296 
117 296 305 306 297 
118 297 306 307 298 
119 298 307 308 299 
120 299 308 45 46 
121 77 78 309 300 
122 300 309 310 301 
123 301 310 311 302 
124 302 311 312 303 
125 303 312 313 304 
126 304 313 314 305 
127 305 314 315 306 
128 306 315 316 307 
129 307 316 317 308 
130 308 317 44 45 
131 78 79 318 309 
132 309 318 319 310 
133 310 319 320 311 
134 311 320 321 312 
135 312 321 322 313 
136 313 322 323 314 
137 314 323 324 315 
138 315 324 325 316 
139 316 325 326 317 
140 317 326 43 44 
141 79 80 327 318 
142 318 327 328 319 
143 319 328 329 320 
144 320 329 330 321 
145 321 330 331 322 
146 322 331 332 323 
147 323 332 333 324 
148 324 333 334 325 
149 325 334 335 326 
150 326 335 42 43 
151 80 81 336 327 
152 327 336 337 328 
153 328 337 338 329 
154 329 338 339 330 
155 330 339 340 331 
156 331 340 341 332 
157 332 341 342 333 
158 333 342 343 334 
159 334 343 344 335 
160 335 344 41 42 
161 81 82 345 336 
162 336 345 346 337 
163 337 346 347 338 
164 338 347 348 339 
165 339 348 349 340 
166 340 349 350 341 
167 341 350 351 342 
168 342 351 352 343 
169 343 352 353 344 
170 344 353 40 41 
171 82 83 354 345 
172 345 354 355 346 
173 346 355 356 347 
174 347 356 357 348 
175 348 357 358 349 
176 349 358 359 350 
177 350 359 360 351 
178 351 360 361 352 
179 352 361 362 353 
180 353 362 39 40 
181 83 84 363 354 
182 354 363 364 355 
183 355 364 365 356 
184 356 365 366 357 
185 357 366 367 358 
186 358 367 368 359 
187 359 368 369 360 
188 360 369 370 361 
189 361 370 371 362 
190 362 371 38 39 
191 84 85 372 363 
192 363 372 373 364 
193 364 373 374 365 
194 365 374 375 366 
195 366 375 376 367 
196 367 376 377 368 
197 368 377 378 369 
198 369 378 379 370 
199 370 379 380 371 
200 371 380 37 38 
201 85 86 381 372 
202 372 381 382 373 
203 373 382 383 374 
204 374 383 384 375 
205 375 384 385 376 
206 376 385 386 377 
207 377 386 387 378 
208 378 387 388 379 
209 379 388 389 380 
210 380 389 36 37 
211 86 87 390 381 
212 381 390 391 382 
213 382 391 392 383 
214 383 392 393 384 
215 384 393 394 385 
216 385 394 395 386 
217 386 395 396 387 
218 387 396 397 388 
219 388 397 398 389 
220 389 398 35 36 
221 87 88 399 390 
222 390 399 400 391 
223 391 400 401 392 
224 392 401 402 393 
225 393 402 403 394 
226 394 403 404 395 
227 395 404 405 396 
228 396 405 406 397 
229 397 406 407 398 
230 398 407 34 35 
231 88 89 408 399 
232 399 408 409 400 
233 400 409 410 401 
234 401 410 411 402 
235 402 411 412 403 
236 403 412 413 404 
237 404 413 414 405 
238 405 414 415 406 
239 406 415 416 407 
240 407 416 33 34 
241 89 90 417 408 
242 408 417 418 409 
243 409 418 419 410 
244 410 419 420 411 
245 411 420 421 412 
246 412 421 422 413 
247 413 422 423 414 
248 414 423 424 415 
249 415 424 425 416 
250 416 425 32 33 
251 90 91 426 417 
252 417 426 427 418 
253 418 427 428 419 
254 419 428 429 420 
255 420 429 430 421 
256 421 430 431 422 
257 422 431 432 423 
258 423 432 433 424 
259 424 433 434 425 
260 425 434 31 32 
261 91 92 435 426 
262 426 435 436 427 
263 427 436 437 428 
264 428 437 438 429 
265 429 438 439 430 
266 430 439 440 431 
267 431 440 441 432 
268 432 441 442 433 
269 433 442 443 434 
270 434 443 30 31 
271 92 93 444 435 
272 435 444 445 436 
273 436 445 446 437 
274 437 446 447 438 
275 438 447 448 439 
276 439 448 449 440 
277 440 449 450 441 
278 441 450 451 442 
279 442 451 452 443 
280 443 452 29 30 
281 93 94 453 444 
282 444 453 454 445 
283 445 454 455 446 
284 446 455 456 447 
285 447 456 457 448 
286 448 457 458 449 
287 449 458 459 450 
288 450 459 460 451 
289 451 460 461 452 
290 452 461 28 29 
291 94 95 462 453 
292 453 462 463 454 
293 454 463 464 455 
294 455 464 465 456 
295 456 465 466 457 
296 457 466 467 458 
297 458 467 468 459 
298 459 468 469 460 
299 460 469 470 461 
300 461 470 27 28 
301 95 96 471 462 
302 462 471 472 463 
303 463 472 473 464 
304 464 473 474 465 
305 465 474 475 466 
306 466 475 476 467 
307 467 476 477 468 
308 468 477 478 469 
309 469 478 479 470 
310 470 479 26 27 
311 96 97 480 471 
312 471 480 481 472 
313 472 481 482 473 
314 473 482 483 474 
315 474 483 484 475 
316 475 484 485 476 
317 476 485 486 477 
318 477 486 487 478 
319 478 487 488 479 
320 479 488 25 26 
321 97 98 489 480 
322 480 489 490 481 
323 481 490 491 482 
324 482 491 492 483 
325 483 492 493 484 
326 484 493 494 485 
327 485 494 495 486 
328 486 495 496 487 
329 487 496 497 488 
330 488 497 24 25 
331 98 99 498 489 
332 489 498 499 490 
333 490 499 500 491 
334 491 500 501 492 
335 492 501 502 493 
336 493 502 503 494 
337 494 503 504 495 
338 495 504 505 496 
339 496 505 506 497 
340 497 506 23 24 
341 99 100 507 498 
342 498 507 508 499 
343 499 508 509 500 
344 500 509 510 501 
345 501 510 511 502 
346 502 511 512 503 
347 503 512 513 504 
348 504 513 514 505 
349 505 514 515 506 
350 506 515 22 23 
351 100 101 516 507 
352 507 516 517 508 
353 508 517 518 509 
354 509 518 519 510 
355 510 519 520 511 
356 511 520 521 512 
357 512 521 522 513 
358 513 522 523 514 
359 514 523 524 515 
360 515 524 21 22 
361 101 102 525 516 
362 516 525 526 517 
363 517 526 527 518 
364 518 527 528 519 
365 519 528 529 520 
366 520 529 530 521 
367 521 530 531 522 
368 522 531 532 523 
369 523 532 533 524 
370 524 533 20 21 
371 102 103 534 525 
372 525 534 535 526 
373 526 535 536 527 
374 527 536 537 528 
375 528 537 538 529 
376 529 538 539 530 
377 530 539 540 531 
378 531 540 541 532 
379 532 541 542 533 
380 533 542 19 20 
381 103 104 543 534 
382 534 543 544 535 
383 535 544 545 536 
384 536 545 546 537 
385 537 546 547 538 
386 538 547 548 539 
387 539 548 549 540 
388 540 549 550 541 
389 541 550 551 542 
390 542 551 18 19 
391 104 1 9 543 
392 543 9 10 544 
393 544 10 11 545 
394 545 11 12 546 
395 546 12 13 547 
396 547 13 14 548 
397 548 14 15 549 
398 549 15 16 550 
399 550 16 17 551 
400 551 17 2 18 
2 21 3 40
401 4 66 105 5 
402 66 67 106 105 
403 67 68 107 106 
404 68 69 108 107 
405 69 70 109 108 
406 70 71 110 109 
407 71 72 111 110 
408 72 73 112 111 
409 73 74 113 112 
410 74 75 114 113 
411 75 76 115 114 
412 76 77 116 115 
413 77 78 117 116 
414 78 79 118 117 
415 79 80 119 118 
416 80 81 120 119 
417 81 82 121 120 
418 82 83 122 121 
419 83 84 123 122 
420 84 85 124 123 
421 85 86 125 124 
422 86 87 126 125 
423 87 88 127 126 
424 88 89 128 127 
425 89 90 129 128 
426 90 91 130 129 
427 91 92 131 130 
428 92 93 132 131 
429 93 94 133 132 
430 94 95 134 133 
431 95 96 135 134 
432 96 97 136 135 
433 97 98 137 136 
434 98 99 138 137 
435 99 100 139 138 
436 100 101 140 139 
437 101 102 141 140 
438 102 103 142 141 
439 103 104 143 142 
440 104 1 6 143 
2 25 3 10
441 1 9 144 6 
442 9 10 145 144 
443 10 11 146 145 
444 11 12 147 146 
445 12 13 148 147 
446 13 14 149 148 
447 14 15 150 149 
448 15 16 151 150 
449 16 17 152 151 
450 17 2 7 152 
2 29 3 40
451 2 18 153 7 
452 18 19 154 153 
453 19 20 155 154 
454 20 21 156 155 
455 21 22 157 156 
456 22 23 158 157 
457 23 24 159 158 
458 24 25 160 159 
459 25 26 161 160 
460 26 27 162 161 
461 27 28 163 162 
462 28 29 164 163 
463 29 30 165 164 
464 30 31 166 165 
465 31 32 167 166 
466 32 33 168 167 
467 33 34 169 168 
468 34 35 170 169 
469 35 36 171 170 
470 36 37 172 171 
471 37 38 173 172 
472 38 39 174 173 
473 39 40 175 174 
474 40 41 176 175 
475 41 42 177 176 
476 42 43 178 177 
477 43 44 179 178 
478 44 45 180 179 
479 45 46 181 180 
480 46 47 182 181 
481 47 48 183 182 
482 48 49 184 183 
483 49 50 185 184 
484 50 51 186 185 
485 51 52 187 186 
486 52 53 188 187 
487 53 54 189 188 
488 54 55 190 189 
489 55 56 191 190 
490 56 3 8 191 
2 33 3 10
491 3 57 192 8 
492 57 58 193 192 
493 58 59 194 193 
494 59 60 195 194 
495 60 61 196 195 
496 61 62 197 196 
497 62 63 198 197 
498 63 64 199 198 
499 64 65 200 199 
500 65 4 5 200 
2 34 3 400
501 5 105 552 200 
502 200 552 553 199 
503 199 553 554 198 
504 198 554 555 197 
505 197 555 556 196 
506 196 556 557 195 
507 195 557 558 194 
508 194 558 559 193 
509 193 559 560 192 
510 192 560 191 8 
511 105 106 561 552 
512 552 561 562 553 
513 553 562 563 554 
514 554 563 564 555 
515 555 564 565 556 
516 556 565 566 557 
517 557 566 567 558 
518 558 567 568 559 
519 559 568 569 560 
520 560 569 190 191 
521 106 107 570 561 
522 561 570 571 562 
523 562 571 572 563 
524 563 572 573 564 
525 564 573 574 565 
526 565 574 575 566 
527 566 575 576 567 
528 567 576 577 568 
529 568 577 578 569 
530 569 578 189 190 
531 107 108 579 570 
532 570 579 580 571 
533 571 580 581 572 
534 572 581 582 573 
535 573 582 583 574 
536 574 583 584 575 
537 575 584 585 576 
538 576 585 586 577 
539 577 586 587 578 
540 578 587 188 189 
541 108 109 588 579 
542 579 588 589 580 
543 580 589 590 581 
544 581 590 591 582 
545 582 591 592 583 
546 583 592 593 584 
547 584 593 594 585 
548 585 594 595 586 
549 586 595 596 587 
550 587 596 187 188 
551 109 110 597 588 
552 588 597 598 589 
553 589 598 599 590 
554 590 599 600 591 
555 591 600 601 592 
556 592 601 602 593 
557 593 602 603 594 
558 594 603 604 595 
559 595 604 605 596 
560 596 605 186 187 
561 110 111 606 597 
562 597 606 607 598 
563 598 607 608 599 
564 599 608 609 600 
565 600 609 610 601 
566 601 610 611 602 
567 602 611 612 603 
568 603 612 613 604 
569 604 613 614 605 
570 605 614 185 186 
571 111 112 615 606 
572 606 615 616 607 
573 607 616 617 608 
574 608 617 618 609 
575 609 618 619 610 
576 610 619 620 611 
577 611 620 621 612 
578 612 621 622 613 
579 613 622 623 614 
580 614 623 184 185 
581 112 113 624 615 
582 615 624 625 616 
583 616 625 626 617 
584 617 626 627 618 
585 618 627 628 619 
586 619 628 629 620 
587 620 629 630 621 
588 621 630 631 622 
589 622 631 632 623 
590 623 632 183 184 
591 113 114 633 624 
592 624 633 634 625 
593 625 634 635 626 
594 626 635 636 627 
595 627 636 637 628 
596 628 637 638 629 
597 629 638 639 630 
598 630 639 640 631 
599 631 640 641 632 
600 632 641 182 183 
601 114 115 642 633 
602 633 642 643 634 
603 634 643 644 635 
604 635 644 645 636 
605 636 645 646 637 
606 637 646 647 638 
607 638 647 648 639 
608 639 648 649 640 
609 640 649 650 641 
610 641 650 181 182 
611 115 116 651 642 
612 642 651 652 643 
613 643 652 653 644 
614 644 653 654 645 
615 645 654 655 646 
616 646 655 656 647 
617 647 656 657 648 
618 648 657 658 649 
619 649 658 659 650 
620 650 659 180 181 
621 116 117 660 651 
622 651 660 661 652 
623 652 661 662 653 
624 653 662 663 654 
625 654 663 664 655 
626 655 664 665 656 
627 656 665 666 657 
628 657 666 667 658 
629 658 667 668 659 
630 659 668 179 180 
631 117 118 669 660 
632 660 669 670 661 
633 661 670 671 662 
634 662 671 672 663 
635 663 672 673 664 
636 664 673 674 665 
637 665 674 675 666 
638 666 675 676 667 
639 667 676 677 668 
640 668 677 178 179 
641 118 119 678 669 
642 669 678 679 670 
643 670 679 680 671 
644 671 680 681 672 
645 672 681 682 673 
646 673 682 683 674 
647 674 683 684 675 
648 675 684 685 676 
649 676 685 686 677 
650 677 686 177 178 
651 119 120 687 678 
652 678 687 688 679 
653 679 688 689 680 
654 680 689 690 681 
655 681 690 691 682 
656 682 691 692 683 
657 683 692 693 684 
658 684 693 694 685 
659 685 694 695 686 
660 686 695 176 177 
661 120 121 696 687 
662 687 696 697 688 
663 688 697 698 689 
664 689 698 699 690 
665 690 699 700 691 
666 691 700 701 692 
667 692 701 702 693 
668 693 702 703 694 
669 694 703 704 695 
670 695 704 175 176 
671 121 122 705 696 
672 696 705 706 697 
673 697 706 707 698 
674 698 707 708 699 
675 699 708 709 700 
676 700 709 710 701 
677 701 710 711 702 
678 702 711 712 703 
679 703 712 713 704 
680 704 713 174 175 
681 122 123 714 705 
682 705 714 715 706 
683 706 715 716 707 
684 707 716 717 708 
685 708 717 718 709 
686 709 718 719 710 
687 710 719 720 711 
688 711 720 721 712 
689 712 721 722 713 
690 713 722 173 174 
691 123 124 723 714 
692 714 723 724 715 
693 715 724 725 716 
694 716 725 726 717 
695 717 726 727 718 
696 718 727 728 719 
697 719 728 729 720 
698 720 729 730 721 
699 721 730 731 722 
700 722 731 172 173 
701 124 125 732 723 
702 723 732 733 724 
703 724 733 734 725 
704 725 734 735 726 
705 726 735 736 727 
706 727 736 737 728 
707 728 737 738 729 
708 729 738 739 730 
709 730 739 740 731 
710 731 740 171 172 
711 125 126 741 732 
712 732 741 742 733 
713 733 742 743 734 
714 734 743 744 735 
715 735 744 745 736 
716 736 745 746 737 
717 737 746 747 738 
718 738 747 748 739 
719 739 748 749 740 
720 740 749 170 171 
721 126 127 750 741 
722 741 750 751 742 
723 742 751 752 743 
724 743 752 753 744 
725 744 753 754 745 
726 745 754 755 746 
727 746 755 756 747 
728 747 756 757 748 
729 748 757 758 749 
730 749 758 169 170 
731 127 128 759 750 
732 750 759 760 751 
733 751 760 761 752 
734 752 761 762 753 
735 753 762 763 754 
736 754 763 764 755 
737 755 764 765 756 
738 756 765 766 757 
739 757 766 767 758 
740 758 767 168 169 
741 128 129 768 759 
742 759 768 769 760 
743 760 769 770 761 
744 761 770 771 762 
745 762 771 772 763 
746 763 772 773 764 
747 764 773 774 765 
748 765 774 775 766 
749 766 775 776 767 
750 767 776 167 168 
751 129 130 777 768 
752 768 777 778 769 
753 769 778 779 770 
754 770 779 780 771 
755 771 780 781 772 
756 772 781 782 773 
757 773 782 783 774 
758 774 783 784 775 
759 775 784 785 776 
760 776 785 166 167 
761 130 131 786 777 
762 777 786 787 778 
763 778 787 788 779 
764 779 788 789 780 
765 780 789 790 781 
766 781 790 791 782 
767 782 791 792 783 
768 783 792 793 784 
769 784 793 794 785 
770 785 794 165 166 
771 131 132 795 786 
772 786 795 796 787 
773 787 796 797 788 
774 788 797 798 789 
775 789 798 799 790 
776 790 799 800 791 
777 791 800 801 792 
778 792 801 802 793 
779 793 802 803 794 
780 794 803 164 165 
781 132 133 804 795 
782 795 804 805 796 
783 796 805 806 797 
784 797 806 807 798 
785 798 807 808 799 
786 799 808 809 800 
787 800 809 810 801 
788 801 810 811 802 
789 802 811 812 803 
790 803 812 163 164 
791 133 134 813 804 
792 804 813 814 805 
793 805 814 815 806 
794 806 815 816 807 
795 807 816 817 808 
796 808 817 818 809 
797 809 818 819 810 
798 810 819 820 811 
799 811 820 821 812 
800 812 821 162 163 
801 134 135 822 813 
802 813 822 823 814 
803 814 823 824 815 
804 815 824 825 816 
805 816 825 826 817 
806 817 826 827 818 
807 818 827 828 819 
808 819 828 829 820 
809 820 829 830 821 
810 821 830 161 162 
811 135 136 831 822 
812 822 831 832 823 
813 823 832 833 824 
814 824 833 834 825 
815 825 834 835 826 
816 826 835 836 827 
817 827 836 837 828 
818 828 837 838 829 
819 829 838 839 830 
820 830 839 160 161 
821 136 137 840 831 
822 831 840 841 832 
823 832 841 842 833 
824 833 842 843 834 
825 834 843 844 835 
826 835 844 845 836 
827 836 845 846 837 
828 837 846 847 838 
829 838 847 848 839 
830 839 848 159 160 
831 137 138 849 840 
832 840 849 850 841 
833 841 850 851 842 
834 842 851 852 843 
835 843 852 853 844 
836 844 853 854 845 
837 845 854 855 846 
838 846 855 856 847 
839 847 856 857 848 
840 848 857 158 159 
841 138 139 858 849 
842 849 858 859 850 
843 850 859 860 851 
844 851 860 861 852 
845 852 861 862 853 
846 853 862 863 854 
847 854 863 864 855 
848 855 864 865 856 
849 856 865 866 857 
850 857 866 157 158 
851 139 140 867 858 
852 858 867 868 859 
853 859 868 869 860 
854 860 869 870 861 
855 861 870 871 862 
856 862 871 872 863 
857 863 872 873 864 
858 864 873 874 865 
859 865 874 875 866 
860 866 875 156 157 
861 140 141 876 867 
862 867 876 877 868 
863 868 877 878 869 
864 869 878 879 870 
865 870 879 880 871 
866 871 880 881 872 
867 872 881 882 873 
868 873 882 883 874 
869 874 883 884 875 
870 875 884 155 156 
871 141 142 885 876 
872 876 885 886 877 
873 877 886 887 878 
874 878 887 888 879 
875 879 888 889 880 
876 880 889 890 881 
877 881 890 891 882 
878 882 891 892 883 
879 883 892 893 884 
880 884 893 154 155 
881 142 143 894 885 
882 885 894 895 886 
883 886 895 896 887 
884 887 896 897 888 
885 888 897 898 889 
886 889 898 899 890 
887 890 899 900 891 
888 891 900 901 892 
889 892 901 902 893 
890 893 902 153 154 
891 143 6 144 894 
892 894 144 145 895 
893 895 145 146 896 
894 896 146 147 897 
895 897 147 148 898 
896 898 148 149 899 
897 899 149 150 900 
898 900 150 151 901 
899 901 151 152 902 
900 902 152 7 153 
3 1 5 400
901 201 66 4 65 552 105 5 200 
902 202 201 65 64 553 552 200 199 
903 203 202 64 63 554 553 199 198 
904 204 203 63 62 555 554 198 197 
905 205 204 62 61 556 555 197 196 
906 206 205 61 60 557 556 196 195 
907 207 206 60 59 558 557 195 194 
908 208 207 59 58 559 558 194 193 
909 209 208 58 57 560 559 193 192 
910 56 209 57 3 191 560 192 8 
911 210 67 66 201 561 106 105 552 
912 211 210 201 202 562 561 552 553 
913 212 211 202 203 563 562 553 554 
914 213 212 203 204 564 563 554 555 
915 214 213 204 205 565 564 555 556 
916 215 214 205 206 566 565 556 557 
917 216 215 206 207 567 566 557 558 
918 217 216 207 208 568 567 558 559 
919 218 217 208 209 569 568 559 560 
920 55 218 209 56 190 569 560 191 
921 219 68 67 210 570 107 106 561 
922 220 219 210 211 571 570 561 562 
923 221 220 211 212 572 571 562 563 
924 222 221 212 213 573 572 563 564 
925 223 222 213 214 574 573 564 565 
926 224 223 214 215 575 574 565 566 
927 225 224 215 216 576 575 566 567 
928 226 225 216 217 577 576 567 568 
929 227 226 217 218 578 577 568 569 
930 54 227 218 55 189 578 569 190 
931 228 69 68 219 579 108 107 570 
932 229 228 219 220 580 579 570 571 
933 230 229 220 221 581 580 571 572 
934 231 230 221 222 582 581 572 573 
935 232 231 222 223 583 582 573 574 
936 233 232 223 224 584 583 574 575 
937 234 233 224 225 585 584 575 576 
938 235 234 225 226 586 585 576 577 
939 236 235 226 227 587 586 577 578 
940 53 236 227 54 188 587 578 189 
941 237 70 69 228 588 109 108 579 
942 238 237 228 229 589 588 579 580 
943 239 238 229 230 590 589 580 581 
944 240 239 230 231 591 590 581 582 
945 241 240 231 232 592 591 582 583 
946 242 241 232 233 593 592 583 584 
947 243 242 233 234 594 593 584 585 
948 244 243 234 235 595 594 585 586 
949 245 244 235 236 596 595 586 587 
950 52 245 236 53 187 596 587 188 
951 246 71 70 237 597 110 109 588 
952 247 246 237 238 598 597 588 589 
953 248 247 238 239 599 598 589 590 
954 249 248 239 240 600 599 590 591 
955 250 249 240 241 601 600 591 592 
956 251 250 241 242 602 601 592 593 
957 252 251 242 243 603 602 593 594 
958 253 252 243 244 604 603 594 595 
959 254 253 244 245 605 604 595 596 
960 51 254 245 52 186 605 596 187 
961 255 72 71 246 606 111 110 597 
962 256 255 246 247 607 606 597 598 
963 257 256 247 248 608 607 598 599 
964 258 257 248 249 609 608 599 600 
965 259 258 249 250 610 609 600 601 
966 260 259 250 251 611 610 601 602 
967 261 260 251 252 612 611 602 603 
968 262 261 252 253 613 612 603 604 
969 263 262 253 254 614 613 604 605 
970 50 263 254 51 185 614 605 186 
971 264 73 72 255 615 112 111 606 
972 265 264 255 256 616 615 606 607 
973 266 265 256 257 617 616 607 608 
974 267 266 257 258 618 617 608 609 
975 268 267 258 259 619 618 609 610 
976 269 268 259 260 620 619 610 611 
977 270 269 260 261 621 620 611 612 
978 271 270 261 262 622 621 612 613 
979 272 271 262 263 623 622 613 614 
980 49 272 263 50 184 623 614 185 
981 273 74 73 264 624 113 112 615 
982 274 273 264 265 625 624 615 616 
983 275 274 265 266 626 625 616 617 
984 276 275 266 267 627 626 617 618 
985 277 276 267 268 628 627 618 619 
986 278 277 268 269 629 628 619 620 
987 279 278 269 270 630 629 620 621 
988 280 279 270 271 631 630 621 622 
989 281 280 271 272 632 631 622 623 
990 48 281 272 49 183 632 623 184 
991 282 75 74 273 633 114 113 624 
992 283 282 273 274 634 633 624 625 
993 284 283 274 275 635 634 625 626 
994 285 284 275 276 636 635 626 627 
995 286 285 276 277 637 636 627 628 
996 287 286 277 278 638 637 628 629 
997 288 287 278 279 639 638 629 630 
998 289 288 279 280 640 639 630 631 
999 290 289 280 281 641 640 631 632 
1000 47 290 281 48 182 641 632 183 
1001 291 76 75 282 642 115 114 633 
1002 292 291 282 283 643 642 633 634 
1003 293 292 283 284 644 643 634 635 
1004 294 293 284 285 645 644 635 636 
1005 295 294 285 286 646 645 636 637 
1006 296 295 286 287 647 646 637 638 
1007 297 296 287 288 648 647 638 639 
1008 298 297 288 289 649 648 639 640 
1009 299 298 289 290 650 649 640 641 
1010 46 299 290 47 181 650 641 182 
1011 300 77 76 291 651 116 115 642 
1012 301 300 291 292 652 651 642 643 
1013 302 301 292 293 653 652 643 644 
1014 303 302 293 294 654 653 644 645 
1015 304 303 294 295 655 654 645 646 
1016 305 304 295 296 656 655 646 647 
1017 306 305 296 297 657 656 647 648 
1018 307 306 297 298 658 657 648 649 
1019 308 307 298 299 659 658 649 650 
1020 45 308 299 46 180 659 650 181 
1021 309 78 77 300 660 117 116 651 
1022 310 309 300 301 661 660 651 652 
1023 311 310 301 302 662 661 652 653 
1024 312 311 302 303 663 662 653 654 
1025 313 312 303 304 664 663 654 655 
1026 314 313 304 305 665 664 655 656 
1027 315 314 305 306 666 665 656 657 
1028 316 315 306 307 667 666 657 658 
1029 317 316 307 308 668 667 658 659 
1030 44 317 308 45 179 668 659 180 
1031 318 79 78 309 669 118 117 660 
1032 319 318 309 310 670 669 660 661 
1033 320 319 310 311 671 670 661 662 
1034 321 320 311 312 672 671 662 663 
1035 322 321 312 313 673 672 663 664 
1036 323 322 313 314 674 673 664 665 
1037 324 323 314 315 675 674 665 666 
1038 325 324 315 316 676 675 666 667 
1039 326 325 316 317 677 676 667 668 
1040 43 326 317 44 178 677 668 179 
1041 327 80 79 318 678 119 118 669 
1042 328 327 318 319 679 678 669 670 
1043 329 328 319 320 680 679 670 671 
1044 330 329 320 321 681 680 671 672 
1045 331 330 321 322 682 681 672 673 
1046 332 331 322 323 683 682 673 674 
1047 333 332 323 324 684 683 674 675 
1048 334 333 324 325 685 684 675 676 
1049 335 334 325 326 686 685 676 677 
1050 42 335 326 43 177 686 677 178 
1051 336 81 80 327 687 120 119 678 
1052 337 336 327 328 688 687 678 679 
1053 338 337 328 329 689 688 679 680 
1054 339 338 329 330 690 689 680 681 
1055 340 339 330 331 691 690 681 682 
1056 341 340 331 332 692 691 682 683 
1057 342 341 332 333 693 692 683 684 
1058 343 342 333 334 694 693 684 685 
1059 344 343 334 335 695 694 685 686 
1060 41 344 335 42 176 695 686 177 
1061 345 82 81 336 696 121 120 687 
1062 346 345 336 337 697 696 687 688 
1063 347 346 337 338 698 697 688 689 
1064 348 347 338 339 699 698 689 690 
1065 349 348 339 340 700 699 690 691 
1066 350 349 340 341 701 700 691 692 
1067 351 350 341 342 702 701 692 693 
1068 352 351 342 343 703 702 693 694 
1069 353 352 343 344 704 703 694 695 
1070 40 353 344 41 175 704 695 176 
1071 354 83 82 345 705 122 121 696 
1072 355 354 345 346 706 705 696 697 
1073 356 355 346 347 707 706 697 698 
1074 357 356 347 348 708 707 698 699 
1075 358 357 348 349 709 708 699 700 
1076 359 358 349 350 710 709 700 701 
1077 360 359 350 351 711 710 701 702 
1078 361 360 351 352 712 711 702 703 
1079 362 361 352 353 713 712 703 704 
1080 39 362 353 40 174 713 704 175 
1081 363 84 83 354 714 123 122 705 
1082 364 363 354 355 715 714 705 706 
1083 365 364 355 356 716 715 706 707 
1084 366 365 356 357 717 716 707 708 
1085 367 366 357 358 718 717 708 709 
1086 368 367 358 359 719 718 709 710 
1087 369 368 359 360 720 719 710 711 
1088 370 369 360 361 721 720 711 712 
1089 371 370 361 362 722 721 712 713 
1090 38 371 362 39 173 722 713 174 
1091 372 85 84 363 723 124 123 714 
1092 373 372 363 364 724 723 714 715 
1093 374 373 364 365 725 724 715 716 
1094 375 374 365 366 726 725 716 717 
1095 376 375 366 367 727 726 717 718 
1096 377 376 367 368 728 727 718 719 
1097 378 377 368 369 729 728 719 720 
1098 379 378 369 370 730 729 720 721 
1099 380 379 370 371 731 730 721 722 
1100 37 380 371 38 172 731 722 173 
1101 381 86 85 372 732 125 124 723 
1102 382 381 372 373 733 732 723 724 
1103 383 382 373 374 734 733 724 725 
1104 384 383 374 375 735 734 725 726 
1105 385 384 375 376 736 735 726 727 
1106 386 385 376 377 737 736 727 728 
1107 387 386 377 378 738 737 728 729 
1108 388 387 378 379 739 738 729 730 
1109 389 388 379 380 740 739 730 731 
1110 36 389 380 37 171 740 731 172 
1111 390 87 86 381 741 126 125 732 
1112 391 390 381 382 742 741 732 733 
1113 392 391 382 383 743 742 733 734 
1114 393 392 383 384 744 743 734 735 
1115 394 393 384 385 745 744 735 736 
1116 395 394 385 386 746 745 736 737 
1117 396 395 386 387 747 746 737 738 
1118 397 396 387 388 748 747 738 739 
1119 398 397 388 389 749 748 739 740 
1120 35 398 389 36 170 749 740 171 
1121 399 88 87 390 750 127 126 741 
1122 400 399 390 391 751 750 741 742 
1123 401 400 391 392 752 751 742 743 
1124 402 401 392 393 753 752 743 744 
1125 403 402 393 394 754 753 744 745 
1126 404 403 394 395 755 754 745 746 
1127 405 404 395 396 756 755 746 747 
1128 406 405 396 397 757 756 747 748 
1129 407 406 397 398 758 757 748 749 
1130 34 407 398 35 169 758 749 170 
1131 408 89 88 399 759 128 127 750 
1132 409 408 399 400 760 759 750 751 
1133 410 409 400 401 761 760 751 752 
1134 411 410 401 402 762 761 752 753 
1135 412 411 402 403 763 762 753 754 
1136 413 412 403 404 764 763 754 755 
1137 414 413 404 405 765 764 755 756 
1138 415 414 405 406 766 765 756 757 
1139 416 415 406 407 767 766 757 758 
1140 33 416 407 34 168 767 758 169 
1141 417 90 89 408 768 129 128 759 
1142 418 417 408 409 769 768 759 760 
1143 419 418 409 410 770 769 760 761 
1144 420 419 410 411 771 770 761 762 
1145 421 420 411 412 772 771 762 763 
1146 422 421 412 413 773 772 763 764 
1147 423 422 413 414 774 773 764 765 
1148 424 423 414 415 775 774 765 766 
1149 425 424 415 416 776 775 766 767 
1150 32 425 416 33 167 776 767 168 
1151 426 91 90 417 777 130 129 768 
1152 427 426 417 418 778 777 768 769 
1153 428 427 418 419 779 778 769 770 
1154 429 428 419 420 780 779 770 771 
1155 430 429 420 421 781 780 771 772 
1156 431 430 421 422 782 781 772 773 
1157 432 431 422 423 783 782 773 774 
1158 433 432 423 424 784 783 774 775 
1159 434 433 424 425 785 784 775 776 
1160 31 434 425 32 166 785 776 167 
1161 435 92 91 426 786 131 130 777 
1162 436 435 426 427 787 786 777 778 
1163 437 436 427 428 788 787 778 779 
1164 438 437 428 429 789 788 779 780 
1165 439 438 429 430 790 789 780 781 
1166 440 439 430 431 791 790 781 782 
1167 441 440 431 432 792 791 782 783 
1168 442 441 432 433 793 792 783 784 
1169 443 442 433 434 794 793 784 785 
1170 30 443 434 31 165 794 785 166 
1171 444 93 92 435 795 132 131 786 
1172 445 444 435 436 796 795 786 787 
1173 446 445 436 437 797 796 787 788 
1174 447 446 437 438 798 797 788 789 
1175 448 447 438 439 799 798 789 790 
1176 449 448 439 440 800 799 790 791 
1177 450 449 440 441 801 800 791 792 
1178 451 450 441 442 802 801 792 793 
1179 452 451 442 443 803 802 793 794 
1180 29 452 443 30 164 803 794 165 
1181 453 94 93 444 804 133 132 795 
1182 454 453 444 445 805 804 795 796 
1183 455 454 445 446 806 805 796 797 
1184 456 455 446 447 807 806 797 798 
1185 457 456 447 448 808 807 798 799 
1186 458 457 448 449 809 808 799 800 
1187 459 458 449 450 810 809 800 801 
1188 460 459 450 451 811 810 801 802 
1189 461 460 451 452 812 811 802 803 
1190 28 461 452 29 163 812 803 164 
1191 462 95 94 453 813 134 133 804 
1192 463 462 453 454 814 813 804 805 
1193 464 463 454 455 815 814 805 806 
1194 465 464 455 456 816 815 806 807 
1195 466 465 456 457 817 816 807 808 
1196 467 466 457 458 818 817 808 809 
1197 468 467 458 459 819 818 809 810 
1198 469 468 459 460 820 819 810 811 
1199 470 469 460 461 821 820 811 812 
1200 27 470 461 28 162 821 812 163 
1201 471 96 95 462 822 135 134 813 
1202 472 471 462 463 823 822 813 814 
1203 473 472 463 464 824 823 814 815 
1204 474 473 464 465 825 824 815 816 
1205 475 474 465 466 826 825 816 817 
1206 476 475 466 467 827 826 817 818 
1207 477 476 467 468 828 827 818 819 
1208 478 477 468 469 829 828 819 820 
1209 479 478 469 470 830 829 820 821 
1210 26 479 470 27 161 830 821 162 
1211 480 97 96 471 831 136 135 822 
1212 481 480 471 472 832 831 822 823 
1213 482 481 472 473 833 832 823 824 
1214 483 482 473 474 834 833 824 825 
1215 484 483 474 475 835 834 825 826 
1216 485 484 475 476 836 835 826 827 
1217 486 485 476 477 837 836 827 828 
1218 487 486 477 478 838 837 828 829 
1219 488 487 478 479 839 838 829 830 
1220 25 488 479 26 160 839 830 161 
1221 489 98 97 480 840 137 136 831 
1222 490 489 480 481 841 840 831 832 
1223 491 490 481 482 842 841 832 833 
1224 492 491 482 483 843 842 833 834 
1225 493 492 483 484 844 843 834 835 
1226 494 493 484 485 845 844 835 836 
1227 495 494 485 486 846 845 836 837 
1228 496 495 486 487 847 846 837 838 
1229 497 496 487 488 848 847 838 839 
1230 24 497 488 25 159 848 839 160 
1231 498 99 98 489 849 138 137 840 
1232 499 498 489 490 850 849 840 841 
1233 500 499 490 491 851 850 841 842 
1234 501 500 491 492 852 851 842 843 
1235 502 501 492 493 853 852 843 844 
1236 503 502 493 494 854 853 844 845 
1237 504 503 494 495 855 854 845 846 
1238 505 504 495 496 856 855 846 847 
1239 506 505 496 497 857 856 847 848 
1240 23 506 497 24 158 857 848 159 
1241 507 100 99 498 858 139 138 849 
1242 508 507 498 499 859 858 849 850 
1243 509 508 499 500 860 859 850 851 
1244 510 509 500 501 861 860 851 852 
1245 511 510 501 502 862 861 852 853 
1246 512 511 502 503 863 862 853 854 
1247 513 512 503 504 864 863 854 855 
1248 514 513 504 505 865 864 855 856 
1249 515 514 505 506 866 865 856 857 
1250 22 515 506 23 157 866 857 158 
1251 516 101 100 507 867 140 139 858 
1252 517 516 507 508 868 867 858 859 
1253 518 517 508 509 869 868 859 860 
1254 519 518 509 510 870 869 860 861 
1255 520 519 510 511 871 870 861 862 
1256 521 520 511 512 872 871 862 863 
1257 522 521 512 513 873 872 863 864 
1258 523 522 513 514 874 873 864 865 
1259 524 523 514 515 875 874 865 866 
1260 21 524 515 22 156 875 866 157 
1261 525 102 101 516 876 141 140 867 
1262 526 525 516 517 877 876 867 868 
1263 527 526 517 518 878 877 868 869 
1264 528 527 518 519 879 878 869 870 
1265 529 528 519 520 880 879 870 871 
1266 530 529 520 521 881 880 871 872 
1267 531 530 521 522 882 881 872 873 
1268 532 531 522 523 883 882 873 874 
1269 533 532 523 524 884 883 874 875 
1270 20 533 524 21 155 884 875 156 
1271 534 103 102 525 885 142 141 876 
1272 535 534 525 526 886 885 876 877 
1273 536 535 526 527 887 886 877 878 
1274 537 536 527 528 888 887 878 879 
1275 538 537 528 529 889 888 879 880 
1276 539 538 529 530 890 889 880 881 
1277 540 539 530 531 891 890 881 882 
1278 541 540 531 532 892 891 882 883 
1279 542 541 532 533 893 892 883 884 
1280 19 542 533 20 154 893 884 155 
1281 543 104 103 534 894 143 142 885 
1282 544 543 534 535 895 894 885 886 
1283 545 544 535 536 896 895 886 887 
1284 546 545 536 537 897 896 887 888 
1285 547 546 537 538 898 897 888 889 
1286 548 547 538 539 899 898 889 890 
1287 549 548 539 540 900 899 890 891 
1288 550 549 540 541 901 900 891 892 
1289 551 550 541 542 902 901 892 893 
1290 18 551 542 19 153 902 893 154 
1291 9 1 104 543 144 6 143 894 
1292 10 9 543 544 145 144 894 895 
1293 11 10 544 545 146 145 895 896 
1294 12 11 545 546 147 146 896 897 
1295 13 12 546 547 148 147 897 898 
1296 14 13 547 548 149 148 898 899 
1297 15 14 548 549 150 149 899 900 
1298 16 15 549 550 151 150 900 901 
1299 17 16 550 551 152 151 901 902 
1300 2 17 551 18 7 152 902 153 
$EndElements
