$MeshFormat
4.1 0 8
$EndMeshFormat
$PhysicalNames
3
1 1 "clamped"
1 2 "free"
2 3 "domain"
$EndPhysicalNames
$Entities
4 4 1 0
1 0 -0.05 0 0 
2 1 -0.05 0 0 
3 1 0.05 0 0 
4 0 0.05 0 0 
1 0 -0.05 0 1 -0.05 0 1 2 2 1 -2 
2 1 -0.05 0 1 0.05 0 1 2 2 2 -3 
3 0 0.05 0 1 0.05 0 1 2 2 3 -4 
4 0 -0.05 0 0 0.05 0 1 1 2 4 -1 
1 0 -0.05 0 1 0.05 0 1 3 4 1 2 3 4 
$EndEntities
$Nodes
9 205 1 205
0 1 0 1
1
0 -0.05 0
0 2 0 1
2
1 -0.05 0
0 3 0 1
3
1 0.05 0
0 4 0 1
4
0 0.05 0
1 1 0 39
5
6
7
8
9
10
11
12
13
14
15
16
17
18
19
20
21
22
23
24
25
26
27
28
29
30
31
32
33
34
35
36
37
38
39
40
41
42
43
0.02499999999995272 -0.05 0
0.04999999999989938 -0.05 0
0.07499999999985242 -0.05 0
0.09999999999981413 -0.05 0
0.1249999999997731 -0.05 0
0.1499999999997028 -0.05 0
0.1749999999996299 -0.05 0
0.1999999999995569 -0.05 0
0.2249999999994839 -0.05 0
0.2499999999994109 -0.05 0
0.274999999999338 -0.05 0
0.299999999999265 -0.05 0
0.324999999999192 -0.05 0
0.3499999999991191 -0.05 0
0.3749999999990461 -0.05 0
0.3999999999989731 -0.05 0
0.4249999999989001 -0.05 0
0.4499999999988272 -0.05 0
0.4749999999987542 -0.05 0
0.4999999999986921 -0.05 0
0.5249999999987471 -0.05 0
0.5499999999988131 -0.05 0
0.5749999999988791 -0.05 0
0.599999999998945 -0.05 0
0.6249999999990109 -0.05 0
0.6499999999990769 -0.05 0
0.6749999999991427 -0.05 0
0.6999999999992088 -0.05 0
0.7249999999992747 -0.05 0
0.7499999999993406 -0.05 0
0.7749999999994065 -0.05 0
0.7999999999994725 -0.05 0
0.8249999999995385 -0.05 0
0.8499999999996044 -0.05 0
0.8749999999996704 -0.05 0
0.8999999999997362 -0.05 0
0.9249999999998022 -0.05 0
0.9499999999998682 -0.05 0
0.9749999999999341 -0.05 0
1 2 0 3
44
45
46
1 -0.0250000000000603 0
1 -1.328728793659195e-13 0
1 0.02499999999993288 0
1 3 0 39
47
48
49
50
51
52
53
54
55
56
57
58
59
60
61
62
63
64
65
66
67
68
69
70
71
72
73
74
75
76
77
78
79
80
81
82
83
84
85
0.9749999999998959 0.05 0
0.9499999999997918 0.05 0
0.9249999999996877 0.05 0
0.8999999999995836 0.05 0
0.8749999999995012 0.05 0
0.849999999999653 0.05 0
0.8249999999998265 0.05 0
0.8 0.05 0
0.7750000000001736 0.05 0
0.7500000000003471 0.05 0
0.7250000000005203 0.05 0
0.7000000000006938 0.05 0
0.6750000000008674 0.05 0
0.6500000000010406 0.05 0
0.6250000000012141 0.05 0
0.6000000000013874 0.05 0
0.5750000000015609 0.05 0
0.5500000000017343 0.05 0
0.5250000000019077 0.05 0
0.5000000000020595 0.05 0
0.4750000000019771 0.05 0
0.450000000001873 0.05 0
0.425000000001769 0.05 0
0.400000000001665 0.05 0
0.3750000000015609 0.05 0
0.3500000000014568 0.05 0
0.3250000000013528 0.05 0
0.3000000000012487 0.05 0
0.2750000000011447 0.05 0
0.2500000000010406 0.05 0
0.2250000000009365 0.05 0
0.2000000000008325 0.05 0
0.1750000000007285 0.05 0
0.1500000000006244 0.05 0
0.1250000000005204 0.05 0
0.1000000000004162 0.05 0
0.07500000000031226 0.05 0
0.0500000000002081 0.05 0
0.02500000000010416 0.05 0
1 4 0 3
86
87
88
0 0.0250000000000603 0
0 1.328728793659195e-13 0
0 -0.02499999999993288 0
2 1 0 117
89
90
91
92
93
94
95
96
97
98
99
100
101
102
103
104
105
106
107
108
109
110
111
112
113
114
115
116
117
118
119
120
121
122
123
124
125
126
127
128
129
130
131
132
133
134
135
136
137
138
139
140
141
142
143
144
145
146
147
148
149
150
151
152
153
154
155
156
157
158
159
160
161
162
163
164
165
166
167
168
169
170
171
172
173
174
175
176
177
178
179
180
181
182
183
184
185
186
187
188
189
190
191
192
193
194
195
196
197
198
199
200
201
202
203
204
205
0.02499999999999059 -0.02499999999993607 0
0.02500000000002844 1.262288884529283e-13 0
0.0250000000000663 0.02500000000005712 0
0.04999999999997655 -0.02499999999993924 0
0.05000000000005374 1.195848975399372e-13 0
0.05000000000013091 0.02500000000005392 0
0.07499999999996736 -0.02499999999994244 0
0.07500000000008235 1.12940906626946e-13 0
0.07500000000019731 0.02500000000005075 0
0.09999999999996464 -0.02499999999994564 0
0.1000000000001151 1.062969157139548e-13 0
0.1000000000002657 0.02500000000004755 0
0.1249999999999599 -0.02499999999994881 0
0.1250000000001467 9.965292480096366e-14 0
0.1250000000003335 0.02500000000004437 0
0.1499999999999332 -0.02499999999995199 0
0.1500000000001636 9.301240333492444e-14 0
0.150000000000394 0.02500000000004118 0
0.1749999999999045 -0.02499999999995518 0
0.1750000000001792 8.636841242193327e-14 0
0.1750000000004538 0.02500000000003801 0
0.1999999999998758 -0.02499999999995837 0
0.2000000000001947 7.97244215089421e-14 0
0.2000000000005136 0.02500000000003482 0
0.224999999999847 -0.02499999999996155 0
0.2250000000002102 7.308390004290288e-14 0
0.2250000000005733 0.02500000000003163 0
0.2499999999998184 -0.02499999999996474 0
0.2500000000002257 6.643643968295976e-14 0
0.2500000000006332 0.02500000000002844 0
0.2749999999997896 -0.02499999999996792 0
0.2750000000002413 5.979244876996859e-14 0
0.275000000000693 0.02500000000002526 0
0.299999999999761 -0.02499999999997111 0
0.3000000000002568 5.314845785697742e-14 0
0.3000000000007528 0.02500000000002207 0
0.3249999999997322 -0.02499999999997429 0
0.3250000000002725 4.65079363909382e-14 0
0.3250000000008126 0.02500000000001889 0
0.3499999999997035 -0.02499999999997747 0
0.350000000000288 3.986047603099507e-14 0
0.3500000000008724 0.0250000000000157 0
0.3749999999996748 -0.02499999999998066 0
0.3750000000003036 3.321821984147988e-14 0
0.3750000000009322 0.02500000000001252 0
0.3999999999996462 -0.02499999999998385 0
0.400000000000319 2.657422892848871e-14 0
0.400000000000992 0.02500000000000933 0
0.4249999999996174 -0.02499999999998703 0
0.4250000000003346 1.993023801549754e-14 0
0.4250000000010518 0.02500000000000614 0
0.4499999999995887 -0.02499999999999022 0
0.45000000000035 1.328798182598234e-14 0
0.4500000000011116 0.02500000000000296 0
0.4749999999995599 -0.0249999999999934 0
0.4750000000003656 6.643990912991171e-15 0
0.4750000000011714 0.02499999999999978 0
0.4999999999995338 -0.02499999999999659 0
0.5000000000003757 0 0
0.5000000000012177 0.02499999999999659 0
0.5249999999995373 -0.02499999999999977 0
0.5250000000003275 -6.643990912991171e-15 0
0.5250000000011176 0.0249999999999934 0
0.5499999999995435 -0.02500000000000296 0
0.5500000000002738 -1.328798182598234e-14 0
0.5500000000010039 0.02499999999999022 0
0.5749999999995496 -0.02500000000000615 0
0.5750000000002201 -1.993197273897351e-14 0
0.5750000000008905 0.02499999999998703 0
0.5999999999995558 -0.02500000000000933 0
0.6000000000001662 -2.657596365196468e-14 0
0.6000000000007768 0.02499999999998385 0
0.6249999999995617 -0.02500000000001252 0
0.6250000000001126 -3.321995456495586e-14 0
0.6250000000006632 0.02499999999998066 0
0.6499999999995677 -0.0250000000000157 0
0.6500000000000589 -3.986221075447105e-14 0
0.6500000000005496 0.02499999999997748 0
0.6749999999995737 -0.02500000000001889 0
0.6750000000000049 -4.650273222051027e-14 0
0.6750000000004361 0.0249999999999743 0
0.6999999999995802 -0.02500000000002208 0
0.6999999999999514 -5.314759049523943e-14 0
0.7000000000003227 0.02499999999997111 0
0.7249999999995861 -0.02500000000002526 0
0.7249999999998976 -5.97915814082306e-14 0
0.7250000000002089 0.02499999999996792 0
0.7499999999995922 -0.02500000000002843 0
0.749999999999844 -6.643643968295976e-14 0
0.7500000000000953 0.02499999999996473 0
0.7749999999995985 -0.02500000000003163 0
0.77499999999979 -7.308043059595093e-14 0
0.7749999999999818 0.02499999999996155 0
0.7999999999996044 -0.02500000000003482 0
0.7999999999997364 -7.97244215089421e-14 0
0.7999999999998683 0.02499999999995836 0
0.8249999999996106 -0.02500000000003801 0
0.8249999999996827 -8.636927978367126e-14 0
0.8249999999997546 0.02499999999995518 0
0.8499999999996164 -0.02500000000004117 0
0.8499999999996286 -9.301327069666243e-14 0
0.8499999999996408 0.02499999999995199 0
0.8749999999996281 -0.02500000000004437 0
0.8749999999995859 -9.965249112009467e-14 0
0.8749999999995435 0.02499999999994881 0
0.8999999999996982 -0.02500000000004756 0
0.8999999999996597 -1.062977830756928e-13 0
0.8999999999996218 0.02499999999994562 0
0.9249999999997736 -0.02500000000005075 0
0.9249999999997448 -1.129424245099875e-13 0
0.9249999999997164 0.02499999999994245 0
0.949999999999849 -0.02500000000005392 0
0.9499999999998301 -1.195835964973302e-13 0
0.9499999999998108 0.02499999999993925 0
0.9749999999999246 -0.02500000000005712 0
0.9749999999999152 -1.262282379316249e-13 0
0.9749999999999055 0.02499999999993607 0
$EndNodes
$Elements
5 248 1 248
1 1 1 40
1 1 5 
2 5 6 
3 6 7 
4 7 8 
5 8 9 
6 9 10 
7 10 11 
8 11 12 
9 12 13 
10 13 14 
11 14 15 
12 15 16 
13 16 17 
14 17 18 
15 18 19 
16 19 20 
17 20 21 
18 21 22 
19 22 23 
20 23 24 
21 24 25 
22 25 26 
23 26 27 
24 27 28 
25 28 29 
26 29 30 
27 30 31 
28 31 32 
29 32 33 
30 33 34 
31 34 35 
32 35 36 
33 36 37 
34 37 38 
35 38 39 
36 39 40 
37 40 41 
38 41 42 
39 42 43 
40 43 2 
1 2 1 4
41 2 44 
42 44 45 
43 45 46 
44 46 3 
1 3 1 40
45 3 47 
46 47 48 
47 48 49 
48 49 50 
49 50 51 
50 51 52 
51 52 53 
52 53 54 
53 54 55 
54 55 56 
55 56 57 
56 57 58 
57 58 59 
58 59 60 
59 60 61 
60 61 62 
61 62 63 
62 63 64 
63 64 65 
64 65 66 
65 66 67 
66 67 68 
67 68 69 
68 69 70 
69 70 71 
70 71 72 
71 72 73 
72 73 74 
73 74 75 
74 75 76 
75 76 77 
76 77 78 
77 78 79 
78 79 80 
79 80 81 
80 81 82 
81 82 83 
82 83 84 
83 84 85 
84 85 4 
1 4 1 4
85 4 86 
86 86 87 
87 87 88 
88 88 1 
2 1 3 160
89 1 5 89 88 
90 88 89 90 87 
91 87 90 91 86 
92 86 91 85 4 
93 5 6 92 89 
94 89 92 93 90 
95 90 93 94 91 
96 91 94 84 85 
97 6 7 95 92 
98 92 95 96 93 
99 93 96 97 94 
100 94 97 83 84 
101 7 8 98 95 
102 95 98 99 96 
103 96 99 100 97 
104 97 100 82 83 
105 8 9 101 98 
106 98 101 102 99 
107 99 102 103 100 
108 100 103 81 82 
109 9 10 104 101 
110 101 104 105 102 
111 102 105 106 103 
112 103 106 80 81 
113 10 11 107 104 
114 104 107 108 105 
115 105 108 109 106 
116 106 109 79 80 
117 11 12 110 107 
118 107 110 111 108 
119 108 111 112 109 
120 109 112 78 79 
121 12 13 113 110 
122 110 113 114 111 
123 111 114 115 112 
124 112 115 77 78 
125 13 14 116 113 
126 113 116 117 114 
127 114 117 118 115 
128 115 118 76 77 
129 14 15 119 116 
130 116 119 120 117 
131 117 120 121 118 
132 118 121 75 76 
133 15 16 122 119 
134 119 122 123 120 
135 120 123 124 121 
136 121 124 74 75 
137 16 17 125 122 
138 122 125 126 123 
139 123 126 127 124 
140 124 127 73 74 
141 17 18 128 125 
142 125 128 129 126 
143 126 129 130 127 
144 127 130 72 73 
145 18 19 131 128 
146 128 131 132 129 
147 129 132 133 130 
148 130 133 71 72 
149 19 20 134 131 
150 131 134 135 132 
151 132 135 136 133 
152 133 136 70 71 
153 20 21 137 134 
154 134 137 138 135 
155 135 138 139 136 
156 136 139 69 70 
157 21 22 140 137 
158 137 140 141 138 
159 138 141 142 139 
160 139 142 68 69 
161 22 23 143 140 
162 140 143 144 141 
163 141 144 145 142 
164 142 145 67 68 
165 23 24 146 143 
166 143 146 147 144 
167 144 147 148 145 
168 145 148 66 67 
169 24 25 149 146 
170 146 149 150 147 
171 147 150 151 148 
172 148 151 65 66 
173 25 26 152 149 
174 149 152 153 150 
175 150 153 154 151 
176 151 154 64 65 
177 26 27 155 152 
178 152 155 156 153 
179 153 156 157 154 
180 154 157 63 64 
181 27 28 158 155 
182 155 158 159 156 
183 156 159 160 157 
184 157 160 62 63 
185 28 29 161 158 
186 158 161 162 159 
187 159 162 163 160 
188 160 163 61 62 
189 29 30 164 161 
190 161 164 165 162 
191 162 165 166 163 
192 163 166 60 61 
193 30 31 167 164 
194 164 167 168 165 
195 165 168 169 166 
196 166 169 59 60 
197 31 32 170 167 
198 167 170 171 168 
199 168 171 172 169 
200 169 172 58 59 
201 32 33 173 170 
202 170 173 174 171 
203 171 174 175 172 
204 172 175 57 58 
205 33 34 176 173 
206 173 176 177 174 
207 174 177 178 175 
208 175 178 56 57 
209 34 35 179 176 
210 176 179 180 177 
211 177 180 181 178 
212 178 181 55 56 
213 35 36 182 179 
214 179 182 183 180 
215 180 183 184 181 
216 181 184 54 55 
217 36 37 185 182 
218 182 185 186 183 
219 183 186 187 184 
220 184 187 53 54 
221 37 38 188 185 
222 185 188 189 186 
223 186 189 190 187 
224 187 190 52 53 
225 38 39 191 188 
226 188 191 192 189 
227 189 192 193 190 
228 190 193 51 52 
229 39 40 194 191 
230 191 194 195 192 
231 192 195 196 193 
232 193 196 50 51 
233 40 41 197 194 
234 194 197 198 195 
235 195 198 199 196 
236 196 199 49 50 
237 41 42 200 197 
238 197 200 201 198 
239 198 201 202 199 
240 199 202 48 49 
241 42 43 203 200 
242 200 203 204 201 
243 201 204 205 202 
244 202 205 47 48 
245 43 2 44 203 
246 203 44 45 204 
247 204 45 46 205 
248 205 46 3 47 
$EndElements
