$MeshFormat
4.1 0 8
$EndMeshFormat
$PhysicalNames
4
1 1 "support"
1 2 "top"
1 3 "bottom"
2 4 "domain"
$EndPhysicalNames
$Entities
4 4 1 0
1 0 -0.1 0 0 
2 1 -0.1 0 0 
3 1 0.1 0 0 
4 0 0.1 0 0 
1 0 -0.1 0 1 -0.1 0 1 3 2 1 -2 
2 1 -0.1 0 1 0.1 0 1 1 2 2 -3 
3 0 0.1 0 1 0.1 0 1 2 2 3 -4 
4 0 -0.1 0 0 0.1 0 1 1 2 4 -1 
1 0 -0.1 0 1 0.1 0 1 4 4 1 2 3 4 
$EndEntities
$Nodes
9 231 1 231
0 1 0 1
1
0 -0.1 0
0 2 0 1
2
1 -0.1 0
0 3 0 1
3
1 0.1 0
0 4 0 1
4
0 0.1 0
1 1 0 31
5
6
7
8
9
10
11
12
13
14
15
16
17
18
19
20
21
22
23
24
25
26
27
28
29
30
31
32
33
34
35
0.03124999999994044 -0.1 0
0.06249999999987291 -0.1 0
0.0937499999998237 -0.1 0
0.1249999999997731 -0.1 0
0.1562499999996846 -0.1 0
0.1874999999995934 -0.1 0
0.2187499999995021 -0.1 0
0.2499999999994109 -0.1 0
0.2812499999993197 -0.1 0
0.3124999999992285 -0.1 0
0.3437499999991373 -0.1 0
0.3749999999990461 -0.1 0
0.4062499999989549 -0.1 0
0.4374999999988636 -0.1 0
0.4687499999987724 -0.1 0
0.4999999999986921 -0.1 0
0.5312499999987637 -0.1 0
0.562499999998846 -0.1 0
0.5937499999989285 -0.1 0
0.6249999999990109 -0.1 0
0.6562499999990934 -0.1 0
0.6874999999991758 -0.1 0
0.7187499999992581 -0.1 0
0.7499999999993406 -0.1 0
0.781249999999423 -0.1 0
0.8124999999995055 -0.1 0
0.8437499999995879 -0.1 0
0.8749999999996703 -0.1 0
0.9062499999997528 -0.1 0
0.9374999999998351 -0.1 0
0.9687499999999176 -0.1 0
1 2 0 5
36
37
38
39
40
1 -0.06666666666673984 0
1 -0.0333333333335014 0
1 -2.65745758731839e-13 0
1 0.03333333333315255 0
1 0.066666666666579 0
1 3 0 31
41
42
43
44
45
46
47
48
49
50
51
52
53
54
55
56
57
58
59
60
61
62
63
64
65
66
67
68
69
70
71
0.9687499999998699 0.1 0
0.9374999999997398 0.1 0
0.9062499999996096 0.1 0
0.8749999999995012 0.1 0
0.8437499999996964 0.1 0
0.8124999999999132 0.1 0
0.7812500000001301 0.1 0
0.7500000000003471 0.1 0
0.7187500000005638 0.1 0
0.6875000000007805 0.1 0
0.6562500000009973 0.1 0
0.625000000001214 0.1 0
0.5937500000014309 0.1 0
0.5625000000016476 0.1 0
0.5312500000018643 0.1 0
0.5000000000020595 0.1 0
0.468750000001951 0.1 0
0.437500000001821 0.1 0
0.4062500000016909 0.1 0
0.3750000000015609 0.1 0
0.3437500000014307 0.1 0
0.3125000000013007 0.1 0
0.2812500000011706 0.1 0
0.2500000000010405 0.1 0
0.2187500000009105 0.1 0
0.1875000000007804 0.1 0
0.1562500000006504 0.1 0
0.1250000000005203 0.1 0
0.09375000000039024 0.1 0
0.06250000000026013 0.1 0
0.03125000000013012 0.1 0
1 4 0 5
72
73
74
75
76
0 0.06666666666673984 0
0 0.0333333333335014 0
0 2.65745758731839e-13 0
0 -0.03333333333315255 0
0 -0.066666666666579 0
2 1 0 155
77
78
79
80
81
82
83
84
85
86
87
88
89
90
91
92
93
94
95
96
97
98
99
100
101
102
103
104
105
106
107
108
109
110
111
112
113
114
115
116
117
118
119
120
121
122
123
124
125
126
127
128
129
130
131
132
133
134
135
136
137
138
139
140
141
142
143
144
145
146
147
148
149
150
151
152
153
154
155
156
157
158
159
160
161
162
163
164
165
166
167
168
169
170
171
172
173
174
175
176
177
178
179
180
181
182
183
184
185
186
187
188
189
190
191
192
193
194
195
196
197
198
199
200
201
202
203
204
205
206
207
208
209
210
211
212
213
214
215
216
217
218
219
220
221
222
223
224
225
226
227
228
229
230
231
0.03124999999997205 -0.06666666666658402 0
0.03125000000000366 -0.03333333333316344 0
0.03125000000003528 2.491340467258851e-13 0
0.03125000000006689 0.0333333333334905 0
0.0312500000000985 0.06666666666673481 0
0.06249999999993745 -0.06666666666658903 0
0.062500000000002 -0.03333333333317436 0
0.06250000000006652 2.325292736138351e-13 0
0.06250000000013105 0.03333333333347959 0
0.06250000000019558 0.06666666666672978 0
0.09374999999991812 -0.06666666666659406 0
0.09375000000001253 -0.03333333333318526 0
0.09375000000010697 2.159175616078812e-13 0
0.09375000000020139 0.0333333333334687 0
0.09375000000029582 0.06666666666672474 0
0.1249999999998976 -0.06666666666659908 0
0.1250000000000221 -0.03333333333319616 0
0.1250000000001467 1.993058496019273e-13 0
0.1250000000002712 0.03333333333345778 0
0.1250000000003957 0.06666666666671975 0
0.1562499999998455 -0.06666666666660415 0
0.1562500000000065 -0.03333333333320705 0
0.1562500000001675 1.827010764898773e-13 0
0.1562500000003285 0.0333333333334469 0
0.1562500000004894 0.06666666666671468 0
0.1874999999997912 -0.06666666666660913 0
0.1874999999999891 -0.03333333333321796 0
0.1875000000001869 1.660893644839234e-13 0
0.1875000000003847 0.03333333333343598 0
0.1875000000005826 0.06666666666670969 0
0.2187499999997368 -0.06666666666661419 0
0.2187499999999716 -0.03333333333322886 0
0.2187500000002063 1.494845913718734e-13 0
0.2187500000004411 0.03333333333342509 0
0.2187500000006758 0.06666666666670465 0
0.2499999999996825 -0.06666666666661919 0
0.249999999999954 -0.03333333333323975 0
0.2500000000002257 1.328728793659195e-13 0
0.2500000000004973 0.03333333333341419 0
0.2500000000007689 0.06666666666669963 0
0.2812499999996282 -0.06666666666662423 0
0.2812499999999366 -0.03333333333325067 0
0.2812500000002451 1.162681062538695e-13 0
0.2812500000005537 0.03333333333340328 0
0.2812500000008621 0.0666666666666946 0
0.3124999999995738 -0.06666666666662927 0
0.3124999999999192 -0.03333333333326155 0
0.3125000000002647 9.964945535401171e-14 0
0.31250000000061 0.03333333333339239 0
0.3125000000009553 0.06666666666668956 0
0.3437499999995195 -0.06666666666663427 0
0.3437499999999017 -0.03333333333327246 0
0.3437500000002841 8.304468224196171e-14 0
0.3437500000006662 0.03333333333338148 0
0.3437500000010485 0.06666666666668454 0
0.3749999999994653 -0.0666666666666393 0
0.3749999999998843 -0.03333333333328337 0
0.3750000000003035 6.64329702360078e-14 0
0.3750000000007226 0.03333333333337058 0
0.3750000000011418 0.06666666666667952 0
0.4062499999994109 -0.06666666666664434 0
0.4062499999998669 -0.03333333333329427 0
0.4062500000003229 4.982819712395781e-14 0
0.4062500000007788 0.03333333333335969 0
0.4062500000012349 0.06666666666667451 0
0.4374999999993565 -0.06666666666664936 0
0.4374999999998495 -0.03333333333330515 0
0.4375000000003423 3.321301567105195e-14 0
0.4375000000008351 0.03333333333334878 0
0.4375000000013281 0.06666666666666947 0
0.4687499999993022 -0.06666666666665437 0
0.468749999999832 -0.03333333333331606 0
0.4687500000003618 1.66117120059539e-14 0
0.4687500000008914 0.03333333333333786 0
0.4687500000014213 0.06666666666666446 0
0.4999999999992534 -0.06666666666665942 0
0.4999999999998145 -0.03333333333332697 0
0.5000000000003758 0 0
0.5000000000009371 0.03333333333332698 0
0.5000000000014982 0.06666666666665941 0
0.5312499999992804 -0.06666666666666442 0
0.5312499999997971 -0.03333333333333786 0
0.531250000000314 -1.66117120059539e-14 0
0.5312500000008307 0.03333333333331608 0
0.5312500000013476 0.0666666666666544 0
0.5624999999993129 -0.06666666666666947 0
0.56249999999978 -0.03333333333334876 0
0.5625000000002468 -3.32164851180039e-14 0
0.5625000000007138 0.03333333333330517 0
0.5625000000011807 0.06666666666664936 0
0.5937499999993454 -0.06666666666667451 0
0.5937499999997626 -0.03333333333335967 0
0.5937500000001796 -4.982819712395781e-14 0
0.5937500000005966 0.03333333333329427 0
0.5937500000010139 0.06666666666664434 0
0.6249999999993782 -0.06666666666667952 0
0.6249999999997453 -0.03333333333337057 0
0.6250000000001126 -6.643643968295976e-14 0
0.6250000000004796 0.03333333333328337 0
0.6250000000008469 0.06666666666663931 0
0.6562499999994109 -0.06666666666668455 0
0.656249999999728 -0.03333333333338147 0
0.6562500000000453 -8.304468224196171e-14 0
0.6562500000003626 0.03333333333327247 0
0.6562500000006799 0.06666666666663429 0
0.6874999999994432 -0.06666666666668956 0
0.6874999999997107 -0.03333333333339236 0
0.6874999999999782 -9.965639424791561e-14 0
0.6875000000002456 0.03333333333326156 0
0.6875000000005129 0.06666666666662927 0
0.718749999999476 -0.0666666666666946 0
0.7187499999996935 -0.03333333333340327 0
0.7187499999999108 -1.162611673599656e-13 0
0.7187500000001285 0.03333333333325067 0
0.7187500000003463 0.06666666666662424 0
0.7499999999995084 -0.06666666666669963 0
0.749999999999676 -0.0333333333334142 0
0.7499999999998439 -1.328746140893955e-13 0
0.7500000000000115 0.03333333333323975 0
0.7500000000001792 0.06666666666661922 0
0.7812499999995409 -0.06666666666670464 0
0.7812499999996587 -0.03333333333342509 0
0.7812499999997766 -1.494863260953494e-13 0
0.7812499999998943 0.03333333333322887 0
0.7812500000000124 0.06666666666661417 0
0.8124999999995735 -0.06666666666670967 0
0.8124999999996414 -0.03333333333343598 0
0.8124999999997093 -1.660910992073994e-13 0
0.8124999999997773 0.03333333333321797 0
0.8124999999998452 0.06666666666660917 0
0.843749999999606 -0.06666666666671471 0
0.8437499999996241 -0.03333333333344687 0
0.843749999999642 -1.827045459368293e-13 0
0.84374999999966 0.03333333333320706 0
0.8437499999996783 0.06666666666660412 0
0.8749999999996423 -0.06666666666671972 0
0.8749999999996139 -0.03333333333345779 0
0.8749999999995858 -1.993058496019273e-13 0
0.8749999999995576 0.03333333333319614 0
0.8749999999995292 0.06666666666659912 0
0.906249999999729 -0.06666666666672477 0
0.9062499999997049 -0.0333333333334687 0
0.9062499999996813 -2.159192963313572e-13 0
0.9062499999996573 0.03333333333318525 0
0.9062499999996335 0.06666666666659406 0
0.9374999999998193 -0.06666666666672978 0
0.9374999999998035 -0.03333333333347959 0
0.9374999999997875 -2.325279725712281e-13 0
0.9374999999997715 0.03333333333317436 0
0.9374999999997555 0.06666666666658903 0
0.9687499999999098 -0.06666666666673482 0
0.9687499999999016 -0.03333333333349049 0
0.9687499999998938 -2.491368656515336e-13 0
0.9687499999998859 0.03333333333316345 0
0.9687499999998779 0.06666666666658402 0
$EndNodes
$Elements
5 268 1 268
1 1 1 32
1 1 5 
2 5 6 
3 6 7 
4 7 8 
5 8 9 
6 9 10 
7 10 11 
8 11 12 
9 12 13 
10 13 14 
11 14 15 
12 15 16 
13 16 17 
14 17 18 
15 18 19 
16 19 20 
17 20 21 
18 21 22 
19 22 23 
20 23 24 
21 24 25 
22 25 26 
23 26 27 
24 27 28 
25 28 29 
26 29 30 
27 30 31 
28 31 32 
29 32 33 
30 33 34 
31 34 35 
32 35 2 
1 2 1 6
33 2 36 
34 36 37 
35 37 38 
36 38 39 
37 39 40 
38 40 3 
1 3 1 32
39 3 41 
40 41 42 
41 42 43 
42 43 44 
43 44 45 
44 45 46 
45 46 47 
46 47 48 
47 48 49 
48 49 50 
49 50 51 
50 51 52 
51 52 53 
52 53 54 
53 54 55 
54 55 56 
55 56 57 
56 57 58 
57 58 59 
58 59 60 
59 60 61 
60 61 62 
61 62 63 
62 63 64 
63 64 65 
64 65 66 
65 66 67 
66 67 68 
67 68 69 
68 69 70 
69 70 71 
70 71 4 
1 4 1 6
71 4 72 
72 72 73 
73 73 74 
74 74 75 
75 75 76 
76 76 1 
2 1 3 192
77 1 5 77 76 
78 76 77 78 75 
79 75 78 79 74 
80 74 79 80 73 
81 73 80 81 72 
82 72 81 71 4 
83 5 6 82 77 
84 77 82 83 78 
85 78 83 84 79 
86 79 84 85 80 
87 80 85 86 81 
88 81 86 70 71 
89 6 7 87 82 
90 82 87 88 83 
91 83 88 89 84 
92 84 89 90 85 
93 85 90 91 86 
94 86 91 69 70 
95 7 8 92 87 
96 87 92 93 88 
97 88 93 94 89 
98 89 94 95 90 
99 90 95 96 91 
100 91 96 68 69 
101 8 9 97 92 
102 92 97 98 93 
103 93 98 99 94 
104 94 99 100 95 
105 95 100 101 96 
106 96 101 67 68 
107 9 10 102 97 
108 97 102 103 98 
109 98 103 104 99 
110 99 104 105 100 
111 100 105 106 101 
112 101 106 66 67 
113 10 11 107 102 
114 102 107 108 103 
115 103 108 109 104 
116 104 109 110 105 
117 105 110 111 106 
118 106 111 65 66 
119 11 12 112 107 
120 107 112 113 108 
121 108 113 114 109 
122 109 114 115 110 
123 110 115 116 111 
124 111 116 64 65 
125 12 13 117 112 
126 112 117 118 113 
127 113 118 119 114 
128 114 119 120 115 
129 115 120 121 116 
130 116 121 63 64 
131 13 14 122 117 
132 117 122 123 118 
133 118 123 124 119 
134 119 124 125 120 
135 120 125 126 121 
136 121 126 62 63 
137 14 15 127 122 
138 122 127 128 123 
139 123 128 129 124 
140 124 129 130 125 
141 125 130 131 126 
142 126 131 61 62 
143 15 16 132 127 
144 127 132 133 128 
145 128 133 134 129 
146 129 134 135 130 
147 130 135 136 131 
148 131 136 60 61 
149 16 17 137 132 
150 132 137 138 133 
151 133 138 139 134 
152 134 139 140 135 
153 135 140 141 136 
154 136 141 59 60 
155 17 18 142 137 
156 137 142 143 138 
157 138 143 144 139 
158 139 144 145 140 
159 140 145 146 141 
160 141 146 58 59 
161 18 19 147 142 
162 142 147 148 143 
163 143 148 149 144 
164 144 149 150 145 
165 145 150 151 146 
166 146 151 57 58 
167 19 20 152 147 
168 147 152 153 148 
169 148 153 154 149 
170 149 154 155 150 
171 150 155 156 151 
172 151 156 56 57 
173 20 21 157 152 
174 152 157 158 153 
175 153 158 159 154 
176 154 159 160 155 
177 155 160 161 156 
178 156 161 55 56 
179 21 22 162 157 
180 157 162 163 158 
181 158 163 164 159 
182 159 164 165 160 
183 160 165 166 161 
184 161 166 54 55 
185 22 23 167 162 
186 162 167 168 163 
187 163 168 169 164 
188 164 169 170 165 
189 165 170 171 166 
190 166 171 53 54 
191 23 24 172 167 
192 167 172 173 168 
193 168 173 174 169 
194 169 174 175 170 
195 170 175 176 171 
196 171 176 52 53 
197 24 25 177 172 
198 172 177 178 173 
199 173 178 179 174 
200 174 179 180 175 
201 175 180 181 176 
202 176 181 51 52 
203 25 26 182 177 
204 177 182 183 178 
205 178 183 184 179 
206 179 184 185 180 
207 180 185 186 181 
208 181 186 50 51 
209 26 27 187 182 
210 182 187 188 183 
211 183 188 189 184 
212 184 189 190 185 
213 185 190 191 186 
214 186 191 49 50 
215 27 28 192 187 
216 187 192 193 188 
217 188 193 194 189 
218 189 194 195 190 
219 190 195 196 191 
220 191 196 48 49 
221 28 29 197 192 
222 192 197 198 193 
223 193 198 199 194 
224 194 199 200 195 
225 195 200 201 196 
226 196 201 47 48 
227 29 30 202 197 
228 197 202 203 198 
229 198 203 204 199 
230 199 204 205 200 
231 200 205 206 201 
232 201 206 46 47 
233 30 31 207 202 
234 202 207 208 203 
235 203 208 209 204 
236 204 209 210 205 
237 205 210 211 206 
238 206 211 45 46 
239 31 32 212 207 
240 207 212 213 208 
241 208 213 214 209 
242 209 214 215 210 
243 210 215 216 211 
244 211 216 44 45 
245 32 33 217 212 
246 212 217 218 213 
247 213 218 219 214 
248 214 219 220 215 
249 215 220 221 216 
250 216 221 43 44 
251 33 34 222 217 
252 217 222 223 218 
253 218 223 224 219 
254 219 224 225 220 
255 220 225 226 221 
256 221 226 42 43 
257 34 35 227 222 
258 222 227 228 223 
259 223 228 229 224 
260 224 229 230 225 
261 225 230 231 226 
262 226 231 41 42 
263 35 2 36 227 
264 227 36 37 228 
265 228 37 38 229 
266 229 38 39 230 
267 230 39 40 231 
268 231 40 3 41 
$EndElements
