<svg xmlns="http://www.w3.org/2000/svg" viewBox="0 0 680 420" width="680" height="420" role="img" aria-labelledby="t d" font-family="-apple-system, Segoe UI, Helvetica, Arial, sans-serif">
<title id="t">Error vs order</title><desc id="d">L-infinity error versus SEM polynomial order N (one SEM curve for its four solvers, which give the same discrete solution); the Fourier solvers are plotted at the order whose SEM grid has the same number of unknowns (a 16N by 16N grid).</desc>
<rect width="680" height="420" fill="#1a1a19"/>
<text x="78" y="28" font-size="16" font-weight="600" fill="#ffffff">Error vs order</text>
<text x="78" y="48" font-size="12.5" fill="#c3c2b7">−∇²u = f on [0,2π]², doubly periodic · 16×16 elements · second-run timings</text>
<line x1="78" x2="530" y1="358.0" y2="358.0" stroke="#34342f" stroke-width="1"/>
<text x="68" y="362.0" font-size="12" text-anchor="end" fill="#c3c2b7">10⁻⁷</text>
<line x1="78" x2="530" y1="322.3" y2="322.3" stroke="#34342f" stroke-width="1"/>
<text x="68" y="326.3" font-size="12" text-anchor="end" fill="#c3c2b7">10⁻⁶</text>
<line x1="78" x2="530" y1="286.6" y2="286.6" stroke="#34342f" stroke-width="1"/>
<text x="68" y="290.6" font-size="12" text-anchor="end" fill="#c3c2b7">10⁻⁵</text>
<line x1="78" x2="530" y1="250.9" y2="250.9" stroke="#34342f" stroke-width="1"/>
<text x="68" y="254.9" font-size="12" text-anchor="end" fill="#c3c2b7">10⁻⁴</text>
<line x1="78" x2="530" y1="215.1" y2="215.1" stroke="#34342f" stroke-width="1"/>
<text x="68" y="219.1" font-size="12" text-anchor="end" fill="#c3c2b7">10⁻³</text>
<line x1="78" x2="530" y1="179.4" y2="179.4" stroke="#34342f" stroke-width="1"/>
<text x="68" y="183.4" font-size="12" text-anchor="end" fill="#c3c2b7">10⁻²</text>
<line x1="78" x2="530" y1="143.7" y2="143.7" stroke="#34342f" stroke-width="1"/>
<text x="68" y="147.7" font-size="12" text-anchor="end" fill="#c3c2b7">10⁻¹</text>
<line x1="78" x2="530" y1="108.0" y2="108.0" stroke="#34342f" stroke-width="1"/>
<text x="68" y="112.0" font-size="12" text-anchor="end" fill="#c3c2b7">10⁰</text>
<line x1="78" x2="530" y1="358" y2="358" stroke="#5d5c55" stroke-width="1"/>
<line x1="78.0" x2="78.0" y1="358" y2="363" stroke="#5d5c55" stroke-width="1"/>
<text x="78.0" y="378" font-size="12" text-anchor="middle" fill="#c3c2b7">2</text>
<line x1="153.3" x2="153.3" y1="358" y2="363" stroke="#5d5c55" stroke-width="1"/>
<text x="153.3" y="378" font-size="12" text-anchor="middle" fill="#c3c2b7">3</text>
<line x1="228.7" x2="228.7" y1="358" y2="363" stroke="#5d5c55" stroke-width="1"/>
<text x="228.7" y="378" font-size="12" text-anchor="middle" fill="#c3c2b7">4</text>
<line x1="304.0" x2="304.0" y1="358" y2="363" stroke="#5d5c55" stroke-width="1"/>
<text x="304.0" y="378" font-size="12" text-anchor="middle" fill="#c3c2b7">5</text>
<line x1="379.3" x2="379.3" y1="358" y2="363" stroke="#5d5c55" stroke-width="1"/>
<text x="379.3" y="378" font-size="12" text-anchor="middle" fill="#c3c2b7">6</text>
<line x1="454.7" x2="454.7" y1="358" y2="363" stroke="#5d5c55" stroke-width="1"/>
<text x="454.7" y="378" font-size="12" text-anchor="middle" fill="#c3c2b7">7</text>
<line x1="530.0" x2="530.0" y1="358" y2="363" stroke="#5d5c55" stroke-width="1"/>
<text x="530.0" y="378" font-size="12" text-anchor="middle" fill="#c3c2b7">8</text>
<text x="304.0" y="406" font-size="12.5" text-anchor="middle" fill="#c3c2b7">SEM order N   (Fourier solvers: 16N × 16N grid, same unknowns)</text>
<text x="18" y="233.0" font-size="12.5" text-anchor="middle" fill="#c3c2b7" transform="rotate(-90 18 233.0)">L∞ error vs exact solution</text>
<polyline points="78.0,112.8 153.3,131.5 228.7,155.4 304.0,200.6 379.3,212.8 454.7,242.2 530.0,261.8" fill="none" stroke="#3987e5" stroke-width="2" stroke-linejoin="round" stroke-linecap="round"/>
<circle cx="78.0" cy="112.8" r="4.5" fill="#3987e5" stroke="#1a1a19" stroke-width="2"/>
<circle cx="153.3" cy="131.5" r="4.5" fill="#3987e5" stroke="#1a1a19" stroke-width="2"/>
<circle cx="228.7" cy="155.4" r="4.5" fill="#3987e5" stroke="#1a1a19" stroke-width="2"/>
<circle cx="304.0" cy="200.6" r="4.5" fill="#3987e5" stroke="#1a1a19" stroke-width="2"/>
<circle cx="379.3" cy="212.8" r="4.5" fill="#3987e5" stroke="#1a1a19" stroke-width="2"/>
<circle cx="454.7" cy="242.2" r="4.5" fill="#3987e5" stroke="#1a1a19" stroke-width="2"/>
<circle cx="530.0" cy="261.8" r="4.5" fill="#3987e5" stroke="#1a1a19" stroke-width="2"/>
<polyline points="78.0,116.9 153.3,155.7 228.7,195.7 304.0,233.9 379.3,269.1 454.7,301.8 530.0,332.9" fill="none" stroke="#d55181" stroke-width="2" stroke-linejoin="round" stroke-linecap="round"/>
<path d="M78.0,122.4 L83.5,112.4 L72.5,112.4 Z" fill="#d55181" stroke="#1a1a19" stroke-width="2" stroke-linejoin="round"/>
<path d="M153.3,161.2 L158.8,151.2 L147.8,151.2 Z" fill="#d55181" stroke="#1a1a19" stroke-width="2" stroke-linejoin="round"/>
<path d="M228.7,201.2 L234.2,191.2 L223.2,191.2 Z" fill="#d55181" stroke="#1a1a19" stroke-width="2" stroke-linejoin="round"/>
<path d="M304.0,239.4 L309.5,229.4 L298.5,229.4 Z" fill="#d55181" stroke="#1a1a19" stroke-width="2" stroke-linejoin="round"/>
<path d="M379.3,274.6 L384.8,264.6 L373.8,264.6 Z" fill="#d55181" stroke="#1a1a19" stroke-width="2" stroke-linejoin="round"/>
<path d="M454.7,307.3 L460.2,297.3 L449.2,297.3 Z" fill="#d55181" stroke="#1a1a19" stroke-width="2" stroke-linejoin="round"/>
<path d="M530.0,338.4 L535.5,328.4 L524.5,328.4 Z" fill="#d55181" stroke="#1a1a19" stroke-width="2" stroke-linejoin="round"/>
<polyline points="78.0,116.9 153.3,155.7 228.7,195.7 304.0,233.9 379.3,269.1 454.7,301.8 530.0,332.9" fill="none" stroke="#008300" stroke-width="2" stroke-linejoin="round" stroke-linecap="round"/>
<circle cx="78.0" cy="116.9" r="4" fill="#1a1a19" stroke="#008300" stroke-width="2.5"/>
<circle cx="153.3" cy="155.7" r="4" fill="#1a1a19" stroke="#008300" stroke-width="2.5"/>
<circle cx="228.7" cy="195.7" r="4" fill="#1a1a19" stroke="#008300" stroke-width="2.5"/>
<circle cx="304.0" cy="233.9" r="4" fill="#1a1a19" stroke="#008300" stroke-width="2.5"/>
<circle cx="379.3" cy="269.1" r="4" fill="#1a1a19" stroke="#008300" stroke-width="2.5"/>
<circle cx="454.7" cy="301.8" r="4" fill="#1a1a19" stroke="#008300" stroke-width="2.5"/>
<circle cx="530.0" cy="332.9" r="4" fill="#1a1a19" stroke="#008300" stroke-width="2.5"/>
<text x="542.0" y="265.8" font-size="12.5" fill="#ffffff">SEM (all 4 solvers)</text>
<text x="542.0" y="329.4" font-size="12.5" fill="#ffffff">pseudo-spectral</text>
<text x="542.0" y="344.4" font-size="12.5" fill="#ffffff">FFT</text>
<line x1="78" x2="100" y1="68" y2="68" stroke="#3987e5" stroke-width="2"/>
<circle cx="89.0" cy="68.0" r="4.5" fill="#3987e5" stroke="#1a1a19" stroke-width="2"/>
<text x="108" y="72" font-size="12.5" fill="#ffffff">SEM (all 4 solvers)</text>
<line x1="268" x2="290" y1="68" y2="68" stroke="#d55181" stroke-width="2"/>
<path d="M279.0,73.5 L284.5,63.5 L273.5,63.5 Z" fill="#d55181" stroke="#1a1a19" stroke-width="2" stroke-linejoin="round"/>
<text x="298" y="72" font-size="12.5" fill="#ffffff">pseudo-spectral</text>
<line x1="458" x2="480" y1="68" y2="68" stroke="#008300" stroke-width="2"/>
<circle cx="469.0" cy="68.0" r="4" fill="#1a1a19" stroke="#008300" stroke-width="2.5"/>
<text x="488" y="72" font-size="12.5" fill="#ffffff">FFT</text>
</svg>
