<svg xmlns="http://www.w3.org/2000/svg" viewBox="0 0 680 420" width="680" height="420" role="img" aria-labelledby="t d" font-family="-apple-system, Segoe UI, Helvetica, Arial, sans-serif">
<title id="t">Error vs unknowns</title><desc id="d">L-infinity error versus number of unknowns for the SEM (one curve: its four solvers give the same discrete solution), pseudo-spectral and FFT solvers.</desc>
<rect width="680" height="420" fill="#fcfcfb"/>
<text x="78" y="28" font-size="16" font-weight="600" fill="#0b0b0b">Error vs unknowns</text>
<text x="78" y="48" font-size="12.5" fill="#52514e">−∇²u = f on [0,2π]², doubly periodic · 32×32 elements · second-run timings</text>
<line x1="78" x2="530" y1="358.0" y2="358.0" stroke="#e4e3dd" stroke-width="1"/>
<text x="68" y="362.0" font-size="12" text-anchor="end" fill="#52514e">10⁻¹³</text>
<line x1="78" x2="530" y1="338.8" y2="338.8" stroke="#e4e3dd" stroke-width="1"/>
<line x1="78" x2="530" y1="319.5" y2="319.5" stroke="#e4e3dd" stroke-width="1"/>
<text x="68" y="323.5" font-size="12" text-anchor="end" fill="#52514e">10⁻¹¹</text>
<line x1="78" x2="530" y1="300.3" y2="300.3" stroke="#e4e3dd" stroke-width="1"/>
<line x1="78" x2="530" y1="281.1" y2="281.1" stroke="#e4e3dd" stroke-width="1"/>
<text x="68" y="285.1" font-size="12" text-anchor="end" fill="#52514e">10⁻⁹</text>
<line x1="78" x2="530" y1="261.8" y2="261.8" stroke="#e4e3dd" stroke-width="1"/>
<line x1="78" x2="530" y1="242.6" y2="242.6" stroke="#e4e3dd" stroke-width="1"/>
<text x="68" y="246.6" font-size="12" text-anchor="end" fill="#52514e">10⁻⁷</text>
<line x1="78" x2="530" y1="223.4" y2="223.4" stroke="#e4e3dd" stroke-width="1"/>
<line x1="78" x2="530" y1="204.2" y2="204.2" stroke="#e4e3dd" stroke-width="1"/>
<text x="68" y="208.2" font-size="12" text-anchor="end" fill="#52514e">10⁻⁵</text>
<line x1="78" x2="530" y1="184.9" y2="184.9" stroke="#e4e3dd" stroke-width="1"/>
<line x1="78" x2="530" y1="165.7" y2="165.7" stroke="#e4e3dd" stroke-width="1"/>
<text x="68" y="169.7" font-size="12" text-anchor="end" fill="#52514e">10⁻³</text>
<line x1="78" x2="530" y1="146.5" y2="146.5" stroke="#e4e3dd" stroke-width="1"/>
<line x1="78" x2="530" y1="127.2" y2="127.2" stroke="#e4e3dd" stroke-width="1"/>
<text x="68" y="131.2" font-size="12" text-anchor="end" fill="#52514e">10⁻¹</text>
<line x1="78" x2="530" y1="108.0" y2="108.0" stroke="#e4e3dd" stroke-width="1"/>
<line x1="78" x2="530" y1="358" y2="358" stroke="#b5b3aa" stroke-width="1"/>
<line x1="223.5" x2="223.5" y1="358" y2="363" stroke="#b5b3aa" stroke-width="1"/>
<text x="223.5" y="378" font-size="12" text-anchor="middle" fill="#52514e">10⁴</text>
<text x="304.0" y="406" font-size="12.5" text-anchor="middle" fill="#52514e">unknowns (log scale)</text>
<text x="18" y="233.0" font-size="12.5" text-anchor="middle" fill="#52514e" transform="rotate(-90 18 233.0)">L∞ error vs exact solution</text>
<polyline points="78.0,121.7 210.2,142.4 304.0,167.6 376.8,188.6 436.2,201.8 486.5,222.3 530.0,236.9" fill="none" stroke="#2a78d6" stroke-width="2" stroke-linejoin="round" stroke-linecap="round"/>
<circle cx="78.0" cy="121.7" r="4.5" fill="#2a78d6" stroke="#fcfcfb" stroke-width="2"/>
<circle cx="210.2" cy="142.4" r="4.5" fill="#2a78d6" stroke="#fcfcfb" stroke-width="2"/>
<circle cx="304.0" cy="167.6" r="4.5" fill="#2a78d6" stroke="#fcfcfb" stroke-width="2"/>
<circle cx="376.8" cy="188.6" r="4.5" fill="#2a78d6" stroke="#fcfcfb" stroke-width="2"/>
<circle cx="436.2" cy="201.8" r="4.5" fill="#2a78d6" stroke="#fcfcfb" stroke-width="2"/>
<circle cx="486.5" cy="222.3" r="4.5" fill="#2a78d6" stroke="#fcfcfb" stroke-width="2"/>
<circle cx="530.0" cy="236.9" r="4.5" fill="#2a78d6" stroke="#fcfcfb" stroke-width="2"/>
<polyline points="78.0,155.2 210.2,194.7 304.0,229.1 376.8,261.6 436.2,293.3 486.5,324.5 530.0,336.8" fill="none" stroke="#e87ba4" stroke-width="2" stroke-linejoin="round" stroke-linecap="round"/>
<path d="M78.0,160.7 L83.5,150.7 L72.5,150.7 Z" fill="#e87ba4" stroke="#fcfcfb" stroke-width="2" stroke-linejoin="round"/>
<path d="M210.2,200.2 L215.7,190.2 L204.7,190.2 Z" fill="#e87ba4" stroke="#fcfcfb" stroke-width="2" stroke-linejoin="round"/>
<path d="M304.0,234.6 L309.5,224.6 L298.5,224.6 Z" fill="#e87ba4" stroke="#fcfcfb" stroke-width="2" stroke-linejoin="round"/>
<path d="M376.8,267.1 L382.3,257.1 L371.3,257.1 Z" fill="#e87ba4" stroke="#fcfcfb" stroke-width="2" stroke-linejoin="round"/>
<path d="M436.2,298.8 L441.7,288.8 L430.7,288.8 Z" fill="#e87ba4" stroke="#fcfcfb" stroke-width="2" stroke-linejoin="round"/>
<path d="M486.5,330.0 L492.0,320.0 L481.0,320.0 Z" fill="#e87ba4" stroke="#fcfcfb" stroke-width="2" stroke-linejoin="round"/>
<path d="M530.0,342.3 L535.5,332.3 L524.5,332.3 Z" fill="#e87ba4" stroke="#fcfcfb" stroke-width="2" stroke-linejoin="round"/>
<polyline points="78.0,155.2 210.2,194.7 304.0,229.1 376.8,261.6 436.2,293.3 486.5,324.7 530.0,355.7" fill="none" stroke="#008300" stroke-width="2" stroke-linejoin="round" stroke-linecap="round"/>
<circle cx="78.0" cy="155.2" r="4" fill="#fcfcfb" stroke="#008300" stroke-width="2.5"/>
<circle cx="210.2" cy="194.7" r="4" fill="#fcfcfb" stroke="#008300" stroke-width="2.5"/>
<circle cx="304.0" cy="229.1" r="4" fill="#fcfcfb" stroke="#008300" stroke-width="2.5"/>
<circle cx="376.8" cy="261.6" r="4" fill="#fcfcfb" stroke="#008300" stroke-width="2.5"/>
<circle cx="436.2" cy="293.3" r="4" fill="#fcfcfb" stroke="#008300" stroke-width="2.5"/>
<circle cx="486.5" cy="324.7" r="4" fill="#fcfcfb" stroke="#008300" stroke-width="2.5"/>
<circle cx="530.0" cy="355.7" r="4" fill="#fcfcfb" stroke="#008300" stroke-width="2.5"/>
<text x="542.0" y="240.9" font-size="12.5" fill="#0b0b0b">SEM (all 4 solvers)</text>
<text x="542.0" y="340.8" font-size="12.5" fill="#0b0b0b">pseudo-spectral</text>
<text x="542.0" y="359.7" font-size="12.5" fill="#0b0b0b">FFT</text>
<line x1="78" x2="100" y1="68" y2="68" stroke="#2a78d6" stroke-width="2"/>
<circle cx="89.0" cy="68.0" r="4.5" fill="#2a78d6" stroke="#fcfcfb" stroke-width="2"/>
<text x="108" y="72" font-size="12.5" fill="#0b0b0b">SEM (all 4 solvers)</text>
<line x1="268" x2="290" y1="68" y2="68" stroke="#e87ba4" stroke-width="2"/>
<path d="M279.0,73.5 L284.5,63.5 L273.5,63.5 Z" fill="#e87ba4" stroke="#fcfcfb" stroke-width="2" stroke-linejoin="round"/>
<text x="298" y="72" font-size="12.5" fill="#0b0b0b">pseudo-spectral</text>
<line x1="458" x2="480" y1="68" y2="68" stroke="#008300" stroke-width="2"/>
<circle cx="469.0" cy="68.0" r="4" fill="#fcfcfb" stroke="#008300" stroke-width="2.5"/>
<text x="488" y="72" font-size="12.5" fill="#0b0b0b">FFT</text>
</svg>
