<svg xmlns="http://www.w3.org/2000/svg" viewBox="0 0 680 420" width="680" height="420" role="img" aria-labelledby="t d" font-family="-apple-system, Segoe UI, Helvetica, Arial, sans-serif">
<title id="t">Error vs time-to-solution (with infrastructure)</title><desc id="d">L-infinity error versus time-to-solution incl. infrastructure (log scale) for the six solvers (four SEM solves, pseudo-spectral, FFT); each curve runs over increasing resolution.</desc>
<rect width="680" height="420" fill="#1a1a19"/>
<text x="78" y="28" font-size="16" font-weight="600" fill="#ffffff">Error vs time-to-solution (with infrastructure)</text>
<text x="78" y="48" font-size="12.5" fill="#c3c2b7">−∇²u = f on [0,2π]², doubly periodic · 128×128 elements · second-run timings</text>
<line x1="78" x2="530" y1="358.0" y2="358.0" stroke="#34342f" stroke-width="1"/>
<text x="68" y="362.0" font-size="12" text-anchor="end" fill="#c3c2b7">10⁻¹⁵</text>
<line x1="78" x2="530" y1="337.2" y2="337.2" stroke="#34342f" stroke-width="1"/>
<line x1="78" x2="530" y1="316.3" y2="316.3" stroke="#34342f" stroke-width="1"/>
<text x="68" y="320.3" font-size="12" text-anchor="end" fill="#c3c2b7">10⁻¹³</text>
<line x1="78" x2="530" y1="295.5" y2="295.5" stroke="#34342f" stroke-width="1"/>
<line x1="78" x2="530" y1="274.7" y2="274.7" stroke="#34342f" stroke-width="1"/>
<text x="68" y="278.7" font-size="12" text-anchor="end" fill="#c3c2b7">10⁻¹¹</text>
<line x1="78" x2="530" y1="253.8" y2="253.8" stroke="#34342f" stroke-width="1"/>
<line x1="78" x2="530" y1="233.0" y2="233.0" stroke="#34342f" stroke-width="1"/>
<text x="68" y="237.0" font-size="12" text-anchor="end" fill="#c3c2b7">10⁻⁹</text>
<line x1="78" x2="530" y1="212.2" y2="212.2" stroke="#34342f" stroke-width="1"/>
<line x1="78" x2="530" y1="191.3" y2="191.3" stroke="#34342f" stroke-width="1"/>
<text x="68" y="195.3" font-size="12" text-anchor="end" fill="#c3c2b7">10⁻⁷</text>
<line x1="78" x2="530" y1="170.5" y2="170.5" stroke="#34342f" stroke-width="1"/>
<line x1="78" x2="530" y1="149.7" y2="149.7" stroke="#34342f" stroke-width="1"/>
<text x="68" y="153.7" font-size="12" text-anchor="end" fill="#c3c2b7">10⁻⁵</text>
<line x1="78" x2="530" y1="128.8" y2="128.8" stroke="#34342f" stroke-width="1"/>
<line x1="78" x2="530" y1="108.0" y2="108.0" stroke="#34342f" stroke-width="1"/>
<text x="68" y="112.0" font-size="12" text-anchor="end" fill="#c3c2b7">10⁻³</text>
<line x1="78" x2="530" y1="358" y2="358" stroke="#5d5c55" stroke-width="1"/>
<line x1="78.0" x2="78.0" y1="358" y2="363" stroke="#5d5c55" stroke-width="1"/>
<text x="78.0" y="378" font-size="12" text-anchor="middle" fill="#c3c2b7">1 ms</text>
<line x1="168.4" x2="168.4" y1="358" y2="363" stroke="#5d5c55" stroke-width="1"/>
<text x="168.4" y="378" font-size="12" text-anchor="middle" fill="#c3c2b7">10 ms</text>
<line x1="258.8" x2="258.8" y1="358" y2="363" stroke="#5d5c55" stroke-width="1"/>
<text x="258.8" y="378" font-size="12" text-anchor="middle" fill="#c3c2b7">100 ms</text>
<line x1="349.2" x2="349.2" y1="358" y2="363" stroke="#5d5c55" stroke-width="1"/>
<text x="349.2" y="378" font-size="12" text-anchor="middle" fill="#c3c2b7">1 s</text>
<line x1="439.6" x2="439.6" y1="358" y2="363" stroke="#5d5c55" stroke-width="1"/>
<text x="439.6" y="378" font-size="12" text-anchor="middle" fill="#c3c2b7">10 s</text>
<line x1="530.0" x2="530.0" y1="358" y2="363" stroke="#5d5c55" stroke-width="1"/>
<text x="530.0" y="378" font-size="12" text-anchor="middle" fill="#c3c2b7">100 s</text>
<text x="304.0" y="406" font-size="12.5" text-anchor="middle" fill="#c3c2b7">time-to-solution incl. infrastructure (log scale)</text>
<text x="18" y="233.0" font-size="12.5" text-anchor="middle" fill="#c3c2b7" transform="rotate(-90 18 233.0)">L∞ error vs exact solution</text>
<polyline points="380.3,125.4 395.5,156.8 417.0,186.2 444.0,215.0 466.4,245.3 487.9,266.9" fill="none" stroke="#3987e5" stroke-width="2" stroke-linejoin="round" stroke-linecap="round"/>
<circle cx="380.3" cy="125.4" r="4.5" fill="#3987e5" stroke="#1a1a19" stroke-width="2"/>
<circle cx="395.5" cy="156.8" r="4.5" fill="#3987e5" stroke="#1a1a19" stroke-width="2"/>
<circle cx="417.0" cy="186.2" r="4.5" fill="#3987e5" stroke="#1a1a19" stroke-width="2"/>
<circle cx="444.0" cy="215.0" r="4.5" fill="#3987e5" stroke="#1a1a19" stroke-width="2"/>
<circle cx="466.4" cy="245.3" r="4.5" fill="#3987e5" stroke="#1a1a19" stroke-width="2"/>
<circle cx="487.9" cy="266.9" r="4.5" fill="#3987e5" stroke="#1a1a19" stroke-width="2"/>
<polyline points="364.1,125.4 396.9,156.8 425.6,186.2" fill="none" stroke="#d95926" stroke-width="2" stroke-linejoin="round" stroke-linecap="round"/>
<rect x="359.6" y="120.9" width="9" height="9" rx="1.5" fill="#d95926" stroke="#1a1a19" stroke-width="2"/>
<rect x="392.4" y="152.3" width="9" height="9" rx="1.5" fill="#d95926" stroke="#1a1a19" stroke-width="2"/>
<rect x="421.1" y="181.7" width="9" height="9" rx="1.5" fill="#d95926" stroke="#1a1a19" stroke-width="2"/>
<polyline points="360.7,125.4 386.3,156.8 413.6,186.2 438.0,215.0 460.8,245.5 497.1,264.8" fill="none" stroke="#199e70" stroke-width="2" stroke-linejoin="round" stroke-linecap="round"/>
<path d="M360.7,119.9 L366.2,129.9 L355.2,129.9 Z" fill="#199e70" stroke="#1a1a19" stroke-width="2" stroke-linejoin="round"/>
<path d="M386.3,151.3 L391.8,161.3 L380.8,161.3 Z" fill="#199e70" stroke="#1a1a19" stroke-width="2" stroke-linejoin="round"/>
<path d="M413.6,180.7 L419.1,190.7 L408.1,190.7 Z" fill="#199e70" stroke="#1a1a19" stroke-width="2" stroke-linejoin="round"/>
<path d="M438.0,209.5 L443.5,219.5 L432.5,219.5 Z" fill="#199e70" stroke="#1a1a19" stroke-width="2" stroke-linejoin="round"/>
<path d="M460.8,240.0 L466.3,250.0 L455.3,250.0 Z" fill="#199e70" stroke="#1a1a19" stroke-width="2" stroke-linejoin="round"/>
<path d="M497.1,259.3 L502.6,269.3 L491.6,269.3 Z" fill="#199e70" stroke="#1a1a19" stroke-width="2" stroke-linejoin="round"/>
<polyline points="362.4,125.4 389.5,156.8 425.6,186.2 444.2,215.0 464.9,245.5 499.9,265.3" fill="none" stroke="#c98500" stroke-width="2" stroke-linejoin="round" stroke-linecap="round"/>
<path d="M362.4,119.4 L368.4,125.4 L362.4,131.4 L356.4,125.4 Z" fill="#c98500" stroke="#1a1a19" stroke-width="2" stroke-linejoin="round"/>
<path d="M389.5,150.8 L395.5,156.8 L389.5,162.8 L383.5,156.8 Z" fill="#c98500" stroke="#1a1a19" stroke-width="2" stroke-linejoin="round"/>
<path d="M425.6,180.2 L431.6,186.2 L425.6,192.2 L419.6,186.2 Z" fill="#c98500" stroke="#1a1a19" stroke-width="2" stroke-linejoin="round"/>
<path d="M444.2,209.0 L450.2,215.0 L444.2,221.0 L438.2,215.0 Z" fill="#c98500" stroke="#1a1a19" stroke-width="2" stroke-linejoin="round"/>
<path d="M464.9,239.5 L470.9,245.5 L464.9,251.5 L458.9,245.5 Z" fill="#c98500" stroke="#1a1a19" stroke-width="2" stroke-linejoin="round"/>
<path d="M499.9,259.3 L505.9,265.3 L499.9,271.3 L493.9,265.3 Z" fill="#c98500" stroke="#1a1a19" stroke-width="2" stroke-linejoin="round"/>
<polyline points="235.6,293.3 269.9,298.5 298.7,296.3 319.1,289.0 338.6,282.1 361.7,272.2" fill="none" stroke="#d55181" stroke-width="2" stroke-linejoin="round" stroke-linecap="round"/>
<path d="M235.6,298.8 L241.1,288.8 L230.1,288.8 Z" fill="#d55181" stroke="#1a1a19" stroke-width="2" stroke-linejoin="round"/>
<path d="M269.9,304.0 L275.4,294.0 L264.4,294.0 Z" fill="#d55181" stroke="#1a1a19" stroke-width="2" stroke-linejoin="round"/>
<path d="M298.7,301.8 L304.2,291.8 L293.2,291.8 Z" fill="#d55181" stroke="#1a1a19" stroke-width="2" stroke-linejoin="round"/>
<path d="M319.1,294.5 L324.6,284.5 L313.6,284.5 Z" fill="#d55181" stroke="#1a1a19" stroke-width="2" stroke-linejoin="round"/>
<path d="M338.6,287.6 L344.1,277.6 L333.1,277.6 Z" fill="#d55181" stroke="#1a1a19" stroke-width="2" stroke-linejoin="round"/>
<path d="M361.7,277.7 L367.2,267.7 L356.2,267.7 Z" fill="#d55181" stroke="#1a1a19" stroke-width="2" stroke-linejoin="round"/>
<polyline points="120.8,313.9 158.2,341.6 178.8,340.3 198.7,338.1 211.1,340.8 236.6,341.0" fill="none" stroke="#008300" stroke-width="2" stroke-linejoin="round" stroke-linecap="round"/>
<circle cx="120.8" cy="313.9" r="4" fill="#1a1a19" stroke="#008300" stroke-width="2.5"/>
<circle cx="158.2" cy="341.6" r="4" fill="#1a1a19" stroke="#008300" stroke-width="2.5"/>
<circle cx="178.8" cy="340.3" r="4" fill="#1a1a19" stroke="#008300" stroke-width="2.5"/>
<circle cx="198.7" cy="338.1" r="4" fill="#1a1a19" stroke="#008300" stroke-width="2.5"/>
<circle cx="211.1" cy="340.8" r="4" fill="#1a1a19" stroke="#008300" stroke-width="2.5"/>
<circle cx="236.6" cy="341.0" r="4" fill="#1a1a19" stroke="#008300" stroke-width="2.5"/>
<text x="499.9" y="278.8" font-size="12.5" fill="#ffffff">SEM direct</text>
<text x="437.6" y="190.2" font-size="12.5" fill="#ffffff">SEM AMG</text>
<text x="509.1" y="248.8" font-size="12.5" fill="#ffffff">SC direct</text>
<text x="511.9" y="263.8" font-size="12.5" fill="#ffffff">SC AMG</text>
<text x="373.7" y="293.8" font-size="12.5" fill="#ffffff">pseudo-spectral</text>
<text x="248.6" y="345.0" font-size="12.5" fill="#ffffff">FFT</text>
<line x1="78" x2="100" y1="68" y2="68" stroke="#3987e5" stroke-width="2"/>
<circle cx="89.0" cy="68.0" r="4.5" fill="#3987e5" stroke="#1a1a19" stroke-width="2"/>
<text x="108" y="72" font-size="12.5" fill="#ffffff">SEM direct</text>
<line x1="268" x2="290" y1="68" y2="68" stroke="#d95926" stroke-width="2"/>
<rect x="274.5" y="63.5" width="9" height="9" rx="1.5" fill="#d95926" stroke="#1a1a19" stroke-width="2"/>
<text x="298" y="72" font-size="12.5" fill="#ffffff">SEM AMG</text>
<line x1="458" x2="480" y1="68" y2="68" stroke="#199e70" stroke-width="2"/>
<path d="M469.0,62.5 L474.5,72.5 L463.5,72.5 Z" fill="#199e70" stroke="#1a1a19" stroke-width="2" stroke-linejoin="round"/>
<text x="488" y="72" font-size="12.5" fill="#ffffff">SC direct</text>
<line x1="78" x2="100" y1="88" y2="88" stroke="#c98500" stroke-width="2"/>
<path d="M89.0,82.0 L95.0,88.0 L89.0,94.0 L83.0,88.0 Z" fill="#c98500" stroke="#1a1a19" stroke-width="2" stroke-linejoin="round"/>
<text x="108" y="92" font-size="12.5" fill="#ffffff">SC AMG</text>
<line x1="268" x2="290" y1="88" y2="88" stroke="#d55181" stroke-width="2"/>
<path d="M279.0,93.5 L284.5,83.5 L273.5,83.5 Z" fill="#d55181" stroke="#1a1a19" stroke-width="2" stroke-linejoin="round"/>
<text x="298" y="92" font-size="12.5" fill="#ffffff">pseudo-spectral</text>
<line x1="458" x2="480" y1="88" y2="88" stroke="#008300" stroke-width="2"/>
<circle cx="469.0" cy="88.0" r="4" fill="#1a1a19" stroke="#008300" stroke-width="2.5"/>
<text x="488" y="92" font-size="12.5" fill="#ffffff">FFT</text>
</svg>
