<svg xmlns="http://www.w3.org/2000/svg" viewBox="0 0 680 420" width="680" height="420" role="img" aria-labelledby="t d" font-family="-apple-system, Segoe UI, Helvetica, Arial, sans-serif">
<title id="t">Error vs time of the solve step</title><desc id="d">L-infinity error versus solve-step wall-clock (log scale) for the six solvers (four SEM solves, pseudo-spectral, FFT); each curve runs over increasing resolution.</desc>
<rect width="680" height="420" fill="#1a1a19"/>
<text x="78" y="28" font-size="16" font-weight="600" fill="#ffffff">Error vs time of the solve step</text>
<text x="78" y="48" font-size="12.5" fill="#c3c2b7">−∇²u = f on [0,2π]², doubly periodic · 32×32 elements · second-run timings</text>
<line x1="78" x2="530" y1="358.0" y2="358.0" stroke="#34342f" stroke-width="1"/>
<text x="68" y="362.0" font-size="12" text-anchor="end" fill="#c3c2b7">10⁻¹³</text>
<line x1="78" x2="530" y1="338.8" y2="338.8" stroke="#34342f" stroke-width="1"/>
<line x1="78" x2="530" y1="319.5" y2="319.5" stroke="#34342f" stroke-width="1"/>
<text x="68" y="323.5" font-size="12" text-anchor="end" fill="#c3c2b7">10⁻¹¹</text>
<line x1="78" x2="530" y1="300.3" y2="300.3" stroke="#34342f" stroke-width="1"/>
<line x1="78" x2="530" y1="281.1" y2="281.1" stroke="#34342f" stroke-width="1"/>
<text x="68" y="285.1" font-size="12" text-anchor="end" fill="#c3c2b7">10⁻⁹</text>
<line x1="78" x2="530" y1="261.8" y2="261.8" stroke="#34342f" stroke-width="1"/>
<line x1="78" x2="530" y1="242.6" y2="242.6" stroke="#34342f" stroke-width="1"/>
<text x="68" y="246.6" font-size="12" text-anchor="end" fill="#c3c2b7">10⁻⁷</text>
<line x1="78" x2="530" y1="223.4" y2="223.4" stroke="#34342f" stroke-width="1"/>
<line x1="78" x2="530" y1="204.2" y2="204.2" stroke="#34342f" stroke-width="1"/>
<text x="68" y="208.2" font-size="12" text-anchor="end" fill="#c3c2b7">10⁻⁵</text>
<line x1="78" x2="530" y1="184.9" y2="184.9" stroke="#34342f" stroke-width="1"/>
<line x1="78" x2="530" y1="165.7" y2="165.7" stroke="#34342f" stroke-width="1"/>
<text x="68" y="169.7" font-size="12" text-anchor="end" fill="#c3c2b7">10⁻³</text>
<line x1="78" x2="530" y1="146.5" y2="146.5" stroke="#34342f" stroke-width="1"/>
<line x1="78" x2="530" y1="127.2" y2="127.2" stroke="#34342f" stroke-width="1"/>
<text x="68" y="131.2" font-size="12" text-anchor="end" fill="#c3c2b7">10⁻¹</text>
<line x1="78" x2="530" y1="108.0" y2="108.0" stroke="#34342f" stroke-width="1"/>
<line x1="78" x2="530" y1="358" y2="358" stroke="#5d5c55" stroke-width="1"/>
<line x1="78.0" x2="78.0" y1="358" y2="363" stroke="#5d5c55" stroke-width="1"/>
<text x="78.0" y="378" font-size="12" text-anchor="middle" fill="#c3c2b7">10 µs</text>
<line x1="153.3" x2="153.3" y1="358" y2="363" stroke="#5d5c55" stroke-width="1"/>
<text x="153.3" y="378" font-size="12" text-anchor="middle" fill="#c3c2b7">100 µs</text>
<line x1="228.7" x2="228.7" y1="358" y2="363" stroke="#5d5c55" stroke-width="1"/>
<text x="228.7" y="378" font-size="12" text-anchor="middle" fill="#c3c2b7">1 ms</text>
<line x1="304.0" x2="304.0" y1="358" y2="363" stroke="#5d5c55" stroke-width="1"/>
<text x="304.0" y="378" font-size="12" text-anchor="middle" fill="#c3c2b7">10 ms</text>
<line x1="379.3" x2="379.3" y1="358" y2="363" stroke="#5d5c55" stroke-width="1"/>
<text x="379.3" y="378" font-size="12" text-anchor="middle" fill="#c3c2b7">100 ms</text>
<line x1="454.7" x2="454.7" y1="358" y2="363" stroke="#5d5c55" stroke-width="1"/>
<text x="454.7" y="378" font-size="12" text-anchor="middle" fill="#c3c2b7">1 s</text>
<line x1="530.0" x2="530.0" y1="358" y2="363" stroke="#5d5c55" stroke-width="1"/>
<text x="530.0" y="378" font-size="12" text-anchor="middle" fill="#c3c2b7">10 s</text>
<text x="304.0" y="406" font-size="12.5" text-anchor="middle" fill="#c3c2b7">solve-step wall-clock (log scale)</text>
<text x="18" y="233.0" font-size="12.5" text-anchor="middle" fill="#c3c2b7" transform="rotate(-90 18 233.0)">L∞ error vs exact solution</text>
<polyline points="186.3,121.7 206.2,142.4 222.3,167.6 241.0,188.6 262.3,201.8 275.4,222.3 292.1,236.9" fill="none" stroke="#3987e5" stroke-width="2" stroke-linejoin="round" stroke-linecap="round"/>
<circle cx="186.3" cy="121.7" r="4.5" fill="#3987e5" stroke="#1a1a19" stroke-width="2"/>
<circle cx="206.2" cy="142.4" r="4.5" fill="#3987e5" stroke="#1a1a19" stroke-width="2"/>
<circle cx="222.3" cy="167.6" r="4.5" fill="#3987e5" stroke="#1a1a19" stroke-width="2"/>
<circle cx="241.0" cy="188.6" r="4.5" fill="#3987e5" stroke="#1a1a19" stroke-width="2"/>
<circle cx="262.3" cy="201.8" r="4.5" fill="#3987e5" stroke="#1a1a19" stroke-width="2"/>
<circle cx="275.4" cy="222.3" r="4.5" fill="#3987e5" stroke="#1a1a19" stroke-width="2"/>
<circle cx="292.1" cy="236.9" r="4.5" fill="#3987e5" stroke="#1a1a19" stroke-width="2"/>
<polyline points="309.9,121.7 358.3,142.4 396.1,167.6 426.3,188.6 453.1,201.8 476.1,222.3 497.7,236.9" fill="none" stroke="#d95926" stroke-width="2" stroke-linejoin="round" stroke-linecap="round"/>
<rect x="305.4" y="117.2" width="9" height="9" rx="1.5" fill="#d95926" stroke="#1a1a19" stroke-width="2"/>
<rect x="353.8" y="137.9" width="9" height="9" rx="1.5" fill="#d95926" stroke="#1a1a19" stroke-width="2"/>
<rect x="391.6" y="163.1" width="9" height="9" rx="1.5" fill="#d95926" stroke="#1a1a19" stroke-width="2"/>
<rect x="421.8" y="184.1" width="9" height="9" rx="1.5" fill="#d95926" stroke="#1a1a19" stroke-width="2"/>
<rect x="448.6" y="197.3" width="9" height="9" rx="1.5" fill="#d95926" stroke="#1a1a19" stroke-width="2"/>
<rect x="471.6" y="217.8" width="9" height="9" rx="1.5" fill="#d95926" stroke="#1a1a19" stroke-width="2"/>
<rect x="493.2" y="232.4" width="9" height="9" rx="1.5" fill="#d95926" stroke="#1a1a19" stroke-width="2"/>
<polyline points="223.7,121.7 240.0,142.4 262.3,167.6 284.8,188.6 323.2,201.8 324.6,222.3 344.8,236.9" fill="none" stroke="#199e70" stroke-width="2" stroke-linejoin="round" stroke-linecap="round"/>
<path d="M223.7,116.2 L229.2,126.2 L218.2,126.2 Z" fill="#199e70" stroke="#1a1a19" stroke-width="2" stroke-linejoin="round"/>
<path d="M240.0,136.9 L245.5,146.9 L234.5,146.9 Z" fill="#199e70" stroke="#1a1a19" stroke-width="2" stroke-linejoin="round"/>
<path d="M262.3,162.1 L267.8,172.1 L256.8,172.1 Z" fill="#199e70" stroke="#1a1a19" stroke-width="2" stroke-linejoin="round"/>
<path d="M284.8,183.1 L290.3,193.1 L279.3,193.1 Z" fill="#199e70" stroke="#1a1a19" stroke-width="2" stroke-linejoin="round"/>
<path d="M323.2,196.3 L328.7,206.3 L317.7,206.3 Z" fill="#199e70" stroke="#1a1a19" stroke-width="2" stroke-linejoin="round"/>
<path d="M324.6,216.8 L330.1,226.8 L319.1,226.8 Z" fill="#199e70" stroke="#1a1a19" stroke-width="2" stroke-linejoin="round"/>
<path d="M344.8,231.4 L350.3,241.4 L339.3,241.4 Z" fill="#199e70" stroke="#1a1a19" stroke-width="2" stroke-linejoin="round"/>
<polyline points="292.7,121.7 324.3,142.4 345.3,167.6 362.3,188.6 378.1,201.8 415.4,222.3 402.8,236.9" fill="none" stroke="#c98500" stroke-width="2" stroke-linejoin="round" stroke-linecap="round"/>
<path d="M292.7,115.7 L298.7,121.7 L292.7,127.7 L286.7,121.7 Z" fill="#c98500" stroke="#1a1a19" stroke-width="2" stroke-linejoin="round"/>
<path d="M324.3,136.4 L330.3,142.4 L324.3,148.4 L318.3,142.4 Z" fill="#c98500" stroke="#1a1a19" stroke-width="2" stroke-linejoin="round"/>
<path d="M345.3,161.6 L351.3,167.6 L345.3,173.6 L339.3,167.6 Z" fill="#c98500" stroke="#1a1a19" stroke-width="2" stroke-linejoin="round"/>
<path d="M362.3,182.6 L368.3,188.6 L362.3,194.6 L356.3,188.6 Z" fill="#c98500" stroke="#1a1a19" stroke-width="2" stroke-linejoin="round"/>
<path d="M378.1,195.8 L384.1,201.8 L378.1,207.8 L372.1,201.8 Z" fill="#c98500" stroke="#1a1a19" stroke-width="2" stroke-linejoin="round"/>
<path d="M415.4,216.3 L421.4,222.3 L415.4,228.3 L409.4,222.3 Z" fill="#c98500" stroke="#1a1a19" stroke-width="2" stroke-linejoin="round"/>
<path d="M402.8,230.9 L408.8,236.9 L402.8,242.9 L396.8,236.9 Z" fill="#c98500" stroke="#1a1a19" stroke-width="2" stroke-linejoin="round"/>
<polyline points="152.2,155.2 170.3,194.7 195.0,229.1 216.3,261.6 237.6,293.3 249.3,324.5 273.2,336.8" fill="none" stroke="#d55181" stroke-width="2" stroke-linejoin="round" stroke-linecap="round"/>
<path d="M152.2,160.7 L157.7,150.7 L146.7,150.7 Z" fill="#d55181" stroke="#1a1a19" stroke-width="2" stroke-linejoin="round"/>
<path d="M170.3,200.2 L175.8,190.2 L164.8,190.2 Z" fill="#d55181" stroke="#1a1a19" stroke-width="2" stroke-linejoin="round"/>
<path d="M195.0,234.6 L200.5,224.6 L189.5,224.6 Z" fill="#d55181" stroke="#1a1a19" stroke-width="2" stroke-linejoin="round"/>
<path d="M216.3,267.1 L221.8,257.1 L210.8,257.1 Z" fill="#d55181" stroke="#1a1a19" stroke-width="2" stroke-linejoin="round"/>
<path d="M237.6,298.8 L243.1,288.8 L232.1,288.8 Z" fill="#d55181" stroke="#1a1a19" stroke-width="2" stroke-linejoin="round"/>
<path d="M249.3,330.0 L254.8,320.0 L243.8,320.0 Z" fill="#d55181" stroke="#1a1a19" stroke-width="2" stroke-linejoin="round"/>
<path d="M273.2,342.3 L278.7,332.3 L267.7,332.3 Z" fill="#d55181" stroke="#1a1a19" stroke-width="2" stroke-linejoin="round"/>
<polyline points="93.8,155.2 125.3,194.7 141.2,229.1 171.8,261.6 170.1,293.3 187.8,324.7 204.3,355.7" fill="none" stroke="#008300" stroke-width="2" stroke-linejoin="round" stroke-linecap="round"/>
<circle cx="93.8" cy="155.2" r="4" fill="#1a1a19" stroke="#008300" stroke-width="2.5"/>
<circle cx="125.3" cy="194.7" r="4" fill="#1a1a19" stroke="#008300" stroke-width="2.5"/>
<circle cx="141.2" cy="229.1" r="4" fill="#1a1a19" stroke="#008300" stroke-width="2.5"/>
<circle cx="171.8" cy="261.6" r="4" fill="#1a1a19" stroke="#008300" stroke-width="2.5"/>
<circle cx="170.1" cy="293.3" r="4" fill="#1a1a19" stroke="#008300" stroke-width="2.5"/>
<circle cx="187.8" cy="324.7" r="4" fill="#1a1a19" stroke="#008300" stroke-width="2.5"/>
<circle cx="204.3" cy="355.7" r="4" fill="#1a1a19" stroke="#008300" stroke-width="2.5"/>
<text x="304.1" y="263.4" font-size="12.5" fill="#ffffff">SEM direct</text>
<text x="509.7" y="218.4" font-size="12.5" fill="#ffffff">SEM AMG</text>
<text x="356.8" y="248.4" font-size="12.5" fill="#ffffff">SC direct</text>
<text x="414.8" y="233.4" font-size="12.5" fill="#ffffff">SC AMG</text>
<text x="285.2" y="340.8" font-size="12.5" fill="#ffffff">pseudo-spectral</text>
<text x="216.3" y="359.7" font-size="12.5" fill="#ffffff">FFT</text>
<line x1="78" x2="100" y1="68" y2="68" stroke="#3987e5" stroke-width="2"/>
<circle cx="89.0" cy="68.0" r="4.5" fill="#3987e5" stroke="#1a1a19" stroke-width="2"/>
<text x="108" y="72" font-size="12.5" fill="#ffffff">SEM direct</text>
<line x1="268" x2="290" y1="68" y2="68" stroke="#d95926" stroke-width="2"/>
<rect x="274.5" y="63.5" width="9" height="9" rx="1.5" fill="#d95926" stroke="#1a1a19" stroke-width="2"/>
<text x="298" y="72" font-size="12.5" fill="#ffffff">SEM AMG</text>
<line x1="458" x2="480" y1="68" y2="68" stroke="#199e70" stroke-width="2"/>
<path d="M469.0,62.5 L474.5,72.5 L463.5,72.5 Z" fill="#199e70" stroke="#1a1a19" stroke-width="2" stroke-linejoin="round"/>
<text x="488" y="72" font-size="12.5" fill="#ffffff">SC direct</text>
<line x1="78" x2="100" y1="88" y2="88" stroke="#c98500" stroke-width="2"/>
<path d="M89.0,82.0 L95.0,88.0 L89.0,94.0 L83.0,88.0 Z" fill="#c98500" stroke="#1a1a19" stroke-width="2" stroke-linejoin="round"/>
<text x="108" y="92" font-size="12.5" fill="#ffffff">SC AMG</text>
<line x1="268" x2="290" y1="88" y2="88" stroke="#d55181" stroke-width="2"/>
<path d="M279.0,93.5 L284.5,83.5 L273.5,83.5 Z" fill="#d55181" stroke="#1a1a19" stroke-width="2" stroke-linejoin="round"/>
<text x="298" y="92" font-size="12.5" fill="#ffffff">pseudo-spectral</text>
<line x1="458" x2="480" y1="88" y2="88" stroke="#008300" stroke-width="2"/>
<circle cx="469.0" cy="88.0" r="4" fill="#1a1a19" stroke="#008300" stroke-width="2.5"/>
<text x="488" y="92" font-size="12.5" fill="#ffffff">FFT</text>
</svg>
