<svg xmlns="http://www.w3.org/2000/svg" viewBox="0 0 680 420" width="680" height="420" role="img" aria-labelledby="t d" font-family="-apple-system, Segoe UI, Helvetica, Arial, sans-serif">
<title id="t">Error vs time-to-solution (with infrastructure)</title><desc id="d">L-infinity error versus time-to-solution incl. infrastructure (log scale) for the SEM, pseudo-spectral and FFT solvers; each curve runs over increasing resolution.</desc>
<rect width="680" height="420" fill="#1a1a19"/>
<text x="78" y="28" font-size="16" font-weight="600" fill="#ffffff">Error vs time-to-solution (with infrastructure)</text>
<text x="78" y="48" font-size="12.5" fill="#c3c2b7">−∇²u = f on [0,2π]², doubly periodic · second-run timings</text>
<line x1="78" x2="530" y1="358.0" y2="358.0" stroke="#34342f" stroke-width="1"/>
<text x="68" y="362.0" font-size="12" text-anchor="end" fill="#c3c2b7">10⁻¹⁵</text>
<line x1="78" x2="530" y1="337.5" y2="337.5" stroke="#34342f" stroke-width="1"/>
<line x1="78" x2="530" y1="317.1" y2="317.1" stroke="#34342f" stroke-width="1"/>
<text x="68" y="321.1" font-size="12" text-anchor="end" fill="#c3c2b7">10⁻¹³</text>
<line x1="78" x2="530" y1="296.6" y2="296.6" stroke="#34342f" stroke-width="1"/>
<line x1="78" x2="530" y1="276.2" y2="276.2" stroke="#34342f" stroke-width="1"/>
<text x="68" y="280.2" font-size="12" text-anchor="end" fill="#c3c2b7">10⁻¹¹</text>
<line x1="78" x2="530" y1="255.7" y2="255.7" stroke="#34342f" stroke-width="1"/>
<line x1="78" x2="530" y1="235.2" y2="235.2" stroke="#34342f" stroke-width="1"/>
<text x="68" y="239.2" font-size="12" text-anchor="end" fill="#c3c2b7">10⁻⁹</text>
<line x1="78" x2="530" y1="214.8" y2="214.8" stroke="#34342f" stroke-width="1"/>
<line x1="78" x2="530" y1="194.3" y2="194.3" stroke="#34342f" stroke-width="1"/>
<text x="68" y="198.3" font-size="12" text-anchor="end" fill="#c3c2b7">10⁻⁷</text>
<line x1="78" x2="530" y1="173.8" y2="173.8" stroke="#34342f" stroke-width="1"/>
<line x1="78" x2="530" y1="153.4" y2="153.4" stroke="#34342f" stroke-width="1"/>
<text x="68" y="157.4" font-size="12" text-anchor="end" fill="#c3c2b7">10⁻⁵</text>
<line x1="78" x2="530" y1="132.9" y2="132.9" stroke="#34342f" stroke-width="1"/>
<line x1="78" x2="530" y1="112.5" y2="112.5" stroke="#34342f" stroke-width="1"/>
<text x="68" y="116.5" font-size="12" text-anchor="end" fill="#c3c2b7">10⁻³</text>
<line x1="78" x2="530" y1="92.0" y2="92.0" stroke="#34342f" stroke-width="1"/>
<line x1="78" x2="530" y1="358" y2="358" stroke="#5d5c55" stroke-width="1"/>
<line x1="78.0" x2="78.0" y1="358" y2="363" stroke="#5d5c55" stroke-width="1"/>
<text x="78.0" y="378" font-size="12" text-anchor="middle" fill="#c3c2b7">100 µs</text>
<line x1="168.4" x2="168.4" y1="358" y2="363" stroke="#5d5c55" stroke-width="1"/>
<text x="168.4" y="378" font-size="12" text-anchor="middle" fill="#c3c2b7">1 ms</text>
<line x1="258.8" x2="258.8" y1="358" y2="363" stroke="#5d5c55" stroke-width="1"/>
<text x="258.8" y="378" font-size="12" text-anchor="middle" fill="#c3c2b7">10 ms</text>
<line x1="349.2" x2="349.2" y1="358" y2="363" stroke="#5d5c55" stroke-width="1"/>
<text x="349.2" y="378" font-size="12" text-anchor="middle" fill="#c3c2b7">100 ms</text>
<line x1="439.6" x2="439.6" y1="358" y2="363" stroke="#5d5c55" stroke-width="1"/>
<text x="439.6" y="378" font-size="12" text-anchor="middle" fill="#c3c2b7">1 s</text>
<line x1="530.0" x2="530.0" y1="358" y2="363" stroke="#5d5c55" stroke-width="1"/>
<text x="530.0" y="378" font-size="12" text-anchor="middle" fill="#c3c2b7">10 s</text>
<text x="304.0" y="406" font-size="12.5" text-anchor="middle" fill="#c3c2b7">time-to-solution incl. infrastructure (log scale)</text>
<text x="18" y="225.0" font-size="12.5" text-anchor="middle" fill="#c3c2b7" transform="rotate(-90 18 225.0)">L∞ error vs exact solution</text>
<polyline points="437.9,102.5 438.6,131.9 439.9,161.4 443.7,193.0 449.0,223.9 455.4,256.0 462.0,268.7" fill="none" stroke="#3987e5" stroke-width="2" stroke-linejoin="round" stroke-linecap="round"/>
<circle cx="437.9" cy="102.5" r="4.5" fill="#3987e5" stroke="#1a1a19" stroke-width="2"/>
<circle cx="438.6" cy="131.9" r="4.5" fill="#3987e5" stroke="#1a1a19" stroke-width="2"/>
<circle cx="439.9" cy="161.4" r="4.5" fill="#3987e5" stroke="#1a1a19" stroke-width="2"/>
<circle cx="443.7" cy="193.0" r="4.5" fill="#3987e5" stroke="#1a1a19" stroke-width="2"/>
<circle cx="449.0" cy="223.9" r="4.5" fill="#3987e5" stroke="#1a1a19" stroke-width="2"/>
<circle cx="455.4" cy="256.0" r="4.5" fill="#3987e5" stroke="#1a1a19" stroke-width="2"/>
<circle cx="462.0" cy="268.7" r="4.5" fill="#3987e5" stroke="#1a1a19" stroke-width="2"/>
<text x="474.0" y="272.7" font-size="12.5" fill="#ffffff">SEM (16×16 el.)</text>
<polyline points="167.6,329.1 205.4,320.1 238.5,304.5 241.3,308.9 262.2,304.9 286.0,301.0 289.8,300.3" fill="none" stroke="#d95926" stroke-width="2" stroke-linejoin="round" stroke-linecap="round"/>
<rect x="163.1" y="324.6" width="9" height="9" rx="1.5" fill="#d95926" stroke="#1a1a19" stroke-width="2"/>
<rect x="200.9" y="315.6" width="9" height="9" rx="1.5" fill="#d95926" stroke="#1a1a19" stroke-width="2"/>
<rect x="234.0" y="300.0" width="9" height="9" rx="1.5" fill="#d95926" stroke="#1a1a19" stroke-width="2"/>
<rect x="236.8" y="304.4" width="9" height="9" rx="1.5" fill="#d95926" stroke="#1a1a19" stroke-width="2"/>
<rect x="257.7" y="300.4" width="9" height="9" rx="1.5" fill="#d95926" stroke="#1a1a19" stroke-width="2"/>
<rect x="281.5" y="296.5" width="9" height="9" rx="1.5" fill="#d95926" stroke="#1a1a19" stroke-width="2"/>
<rect x="285.3" y="295.8" width="9" height="9" rx="1.5" fill="#d95926" stroke="#1a1a19" stroke-width="2"/>
<text x="301.8" y="304.3" font-size="12.5" fill="#ffffff">pseudo-spectral</text>
<polyline points="103.7,350.5 139.6,350.9 127.5,349.3 150.4,348.6 155.8,349.2 162.2,347.9 163.9,349.7" fill="none" stroke="#199e70" stroke-width="2" stroke-linejoin="round" stroke-linecap="round"/>
<path d="M103.7,345.0 L109.2,355.0 L98.2,355.0 Z" fill="#199e70" stroke="#1a1a19" stroke-width="2" stroke-linejoin="round"/>
<path d="M139.6,345.4 L145.1,355.4 L134.1,355.4 Z" fill="#199e70" stroke="#1a1a19" stroke-width="2" stroke-linejoin="round"/>
<path d="M127.5,343.8 L133.0,353.8 L122.0,353.8 Z" fill="#199e70" stroke="#1a1a19" stroke-width="2" stroke-linejoin="round"/>
<path d="M150.4,343.1 L155.9,353.1 L144.9,353.1 Z" fill="#199e70" stroke="#1a1a19" stroke-width="2" stroke-linejoin="round"/>
<path d="M155.8,343.7 L161.3,353.7 L150.3,353.7 Z" fill="#199e70" stroke="#1a1a19" stroke-width="2" stroke-linejoin="round"/>
<path d="M162.2,342.4 L167.7,352.4 L156.7,352.4 Z" fill="#199e70" stroke="#1a1a19" stroke-width="2" stroke-linejoin="round"/>
<path d="M163.9,344.2 L169.4,354.2 L158.4,354.2 Z" fill="#199e70" stroke="#1a1a19" stroke-width="2" stroke-linejoin="round"/>
<text x="175.9" y="353.7" font-size="12.5" fill="#ffffff">FFT</text>
<line x1="78" x2="100" y1="70" y2="70" stroke="#3987e5" stroke-width="2"/>
<circle cx="89.0" cy="70.0" r="4.5" fill="#3987e5" stroke="#1a1a19" stroke-width="2"/>
<text x="108" y="74" font-size="12.5" fill="#ffffff">SEM (16×16 el.)</text>
<line x1="242.0" x2="264.0" y1="70" y2="70" stroke="#d95926" stroke-width="2"/>
<rect x="248.5" y="65.5" width="9" height="9" rx="1.5" fill="#d95926" stroke="#1a1a19" stroke-width="2"/>
<text x="272.0" y="74" font-size="12.5" fill="#ffffff">pseudo-spectral</text>
<line x1="406.0" x2="428.0" y1="70" y2="70" stroke="#199e70" stroke-width="2"/>
<path d="M417.0,64.5 L422.5,74.5 L411.5,74.5 Z" fill="#199e70" stroke="#1a1a19" stroke-width="2" stroke-linejoin="round"/>
<text x="436.0" y="74" font-size="12.5" fill="#ffffff">FFT</text>
</svg>
