$MeshFormat
4.1 0 8
$EndMeshFormat
$PhysicalNames
6
1 1 "bottom"
1 2 "outflow"
1 3 "top"
1 4 "inflow"
1 5 "circle_boundary"
2 6 "domain"
$EndPhysicalNames
$Entities
9 8 1 0
1 0 -1 0 0 
2 3 -1 0 0 
3 3 1 0 0 
4 0 1 0 0 
5 1 0 0 0 
6 1.2 0 0 0 
7 1 0.2 0 0 
8 0.8 0 0 0 
9 1 -0.2 0 0 
1 0 -1 0 3 -1 0 1 1 2 1 -2 
2 3 -1 0 3 1 0 1 2 2 2 -3 
3 0 1 0 3 1 0 1 3 2 3 -4 
4 0 -1 0 0 1 0 1 4 2 4 -1 
5 1 0 0 1.2 0.2 0 1 5 2 6 -7 
6 0.8 1.387778780781446e-17 0 1 0.2 0 1 5 2 7 -8 
7 0.8 -0.2 0 1 0 0 1 5 2 8 -9 
8 1 -0.2 0 1.2 -1.387778780781446e-17 0 1 5 2 9 -6 
1 0 -1 0 3 1 0 1 6 8 1 2 3 4 -8 -7 -6 -5 
$EndEntities
$Nodes
18 844 1 844
0 1 0 1
1
0 -1 0
0 2 0 1
2
3 -1 0
0 3 0 1
3
3 1 0
0 4 0 1
4
0 1 0
0 5 0 1
844
1 0 0
0 6 0 1
5
1.2 0 0
0 7 0 1
6
1 0.2 0
0 8 0 1
7
0.8 0 0
0 9 0 1
8
1 -0.2 0
1 1 1 29
9
10
11
12
13
14
15
16
17
18
19
20
21
22
23
24
25
26
27
28
29
30
31
32
33
34
35
36
37
0.09999999999955492 -1 0 0.03333333333318497
0.1999999999991203 -1 0 0.06666666666637344
0.2999999999987617 -1 0 0.09999999999958724
0.3999999999983593 -1 0 0.1333333333327864
0.4999999999978253 -1 0 0.1666666666659418
0.5999999999974546 -1 0 0.1999999999991515
0.6999999999970983 -1 0 0.2333333333323661
0.799999999996742 -1 0 0.2666666666655806
0.8999999999963859 -1 0 0.2999999999987953
0.9999999999960294 -1 0 0.3333333333320098
1.099999999995673 -1 0 0.3666666666652244
1.199999999995317 -1 0 0.3999999999984389
1.299999999994961 -1 0 0.4333333333316535
1.399999999994604 -1 0 0.4666666666648681
1.499999999994291 -1 0 0.4999999999980971
1.599999999994632 -1 0 0.533333333331544
1.699999999995016 -1 0 0.5666666666650052
1.799999999995399 -1 0 0.5999999999984663
1.899999999995782 -1 0 0.6333333333319274
1.999999999996166 -1 0 0.6666666666653885
2.099999999996549 -1 0 0.6999999999988497
2.199999999996932 -1 0 0.7333333333323108
2.299999999997316 -1 0 0.766666666665772
2.3999999999977 -1 0 0.7999999999992332
2.499999999998083 -1 0 0.8333333333326943
2.599999999998466 -1 0 0.8666666666661554
2.69999999999885 -1 0 0.8999999999996166
2.799999999999233 -1 0 0.9333333333330777
2.899999999999617 -1 0 0.9666666666665389
1 2 1 19
38
39
40
41
42
43
44
45
46
47
48
49
50
51
52
53
54
55
56
3 -0.9000000000002774 0 0.0499999999998613
3 -0.8000000000005548 0 0.0999999999997226
3 -0.7000000000008322 0 0.1499999999995839
3 -0.6000000000011096 0 0.1999999999994452
3 -0.500000000001387 0 0.2499999999993065
3 -0.4000000000016644 0 0.2999999999991678
3 -0.3000000000019418 0 0.3499999999990291
3 -0.2000000000022192 0 0.3999999999988904
3 -0.1000000000024964 0 0.4499999999987518
3 -2.752242878045763e-12 0 0.4999999999986239
3 0.09999999999750342 0 0.5499999999987517
3 0.1999999999977808 0 0.5999999999988904
3 0.2999999999980583 0 0.6499999999990291
3 0.3999999999983355 0 0.6999999999991677
3 0.4999999999986129 0 0.7499999999993064
3 0.5999999999988903 0 0.7999999999994452
3 0.699999999999168 0 0.849999999999584
3 0.7999999999994454 0 0.8999999999997227
3 0.8999999999997226 0 0.9499999999998613
1 3 1 29
57
58
59
60
61
62
63
64
65
66
67
68
69
70
71
72
73
74
75
76
77
78
79
80
81
82
83
84
85
2.900000000001199 1 0 0.03333333333293347
2.800000000002174 1 0 0.06666666666594212
2.700000000001933 1 0 0.09999999999935552
2.600000000002023 1 0 0.1333333333326591
2.500000000003165 1 0 0.1666666666656118
2.400000000003 1 0 0.1999999999990002
2.300000000002719 1 0 0.2333333333324271
2.200000000002438 1 0 0.2666666666658541
2.100000000002157 1 0 0.2999999999992811
2.000000000001934 1 0 0.3333333333326888
1.900000000002364 1 0 0.3666666666658786
1.800000000002824 1 0 0.3999999999990587
1.700000000003284 1 0 0.4333333333322388
1.600000000003743 1 0 0.4666666666654189
1.500000000004159 1 0 0.4999999999986136
1.400000000003922 1 0 0.533333333332026
1.300000000003642 1 0 0.5666666666654527
1.200000000003361 1 0 0.5999999999988795
1.100000000003082 1 0 0.6333333333323061
1.000000000002801 1 0 0.6666666666657329
0.900000000002521 1 0 0.6999999999991596
0.8000000000022411 1 0 0.7333333333325863
0.7000000000019608 1 0 0.766666666666013
0.600000000001681 1 0 0.7999999999994397
0.5000000000014007 1 0 0.8333333333328665
0.4000000000011208 1 0 0.8666666666662931
0.30000000000084 1 0 0.8999999999997199
0.2000000000005602 1 0 0.9333333333331466
0.1000000000002803 1 0 0.9666666666665733
1 4 1 19
86
87
88
89
90
91
92
93
94
95
96
97
98
99
100
101
102
103
104
0 0.9000000000002774 0 0.0499999999998613
0 0.8000000000005548 0 0.0999999999997226
0 0.7000000000008322 0 0.1499999999995839
0 0.6000000000011096 0 0.1999999999994452
0 0.500000000001387 0 0.2499999999993065
0 0.4000000000016644 0 0.2999999999991678
0 0.3000000000019418 0 0.3499999999990291
0 0.2000000000022192 0 0.3999999999988904
0 0.1000000000024964 0 0.4499999999987518
0 2.752242878045763e-12 0 0.4999999999986239
0 -0.09999999999750342 0 0.5499999999987517
0 -0.1999999999977808 0 0.5999999999988904
0 -0.2999999999980583 0 0.6499999999990291
0 -0.3999999999983355 0 0.6999999999991677
0 -0.4999999999986129 0 0.7499999999993064
0 -0.5999999999988903 0 0.7999999999994452
0 -0.699999999999168 0 0.849999999999584
0 -0.7999999999994454 0 0.8999999999997227
0 -0.8999999999997226 0 0.9499999999998613
1 5 1 3
105
106
107
1.184775906370522 0.07653668679105452 0 0.2500000010957509
1.141421355904595 0.1414213565700239 0 0.5000000014977413
1.076536686016555 0.1847759066913303 0 0.750000001572679
1 6 1 3
108
109
110
0.9234633133172274 0.1847759064153741 0 0.2500000007226805
0.8585786433805469 0.1414213558551659 0 0.5000000017202507
0.8152240934065119 0.07653668625276755 0 0.7500000007588423
1 7 1 3
111
112
113
0.815224093594576 -0.0765366867067942 0 0.2500000008054437
0.8585786440826623 -0.1414213565572812 0 0.5000000014403789
0.9234633136494993 -0.1847759065530056 0 0.7500000004221161
1 8 1 3
114
115
116
1.076536686695887 -0.1847759064099419 0 0.2500000007678651
1.141421356646048 -0.1414213558285713 0 0.5000000018399685
1.184775906573112 -0.07653668630196049 0 0.7500000005893548
2 1 1 727
117
118
119
120
121
122
123
124
125
126
127
128
129
130
131
132
133
134
135
136
137
138
139
140
141
142
143
144
145
146
147
148
149
150
151
152
153
154
155
156
157
158
159
160
161
162
163
164
165
166
167
168
169
170
171
172
173
174
175
176
177
178
179
180
181
182
183
184
185
186
187
188
189
190
191
192
193
194
195
196
197
198
199
200
201
202
203
204
205
206
207
208
209
210
211
212
213
214
215
216
217
218
219
220
221
222
223
224
225
226
227
228
229
230
231
232
233
234
235
236
237
238
239
240
241
242
243
244
245
246
247
248
249
250
251
252
253
254
255
256
257
258
259
260
261
262
263
264
265
266
267
268
269
270
271
272
273
274
275
276
277
278
279
280
281
282
283
284
285
286
287
288
289
290
291
292
293
294
295
296
297
298
299
300
301
302
303
304
305
306
307
308
309
310
311
312
313
314
315
316
317
318
319
320
321
322
323
324
325
326
327
328
329
330
331
332
333
334
335
336
337
338
339
340
341
342
343
344
345
346
347
348
349
350
351
352
353
354
355
356
357
358
359
360
361
362
363
364
365
366
367
368
369
370
371
372
373
374
375
376
377
378
379
380
381
382
383
384
385
386
387
388
389
390
391
392
393
394
395
396
397
398
399
400
401
402
403
404
405
406
407
408
409
410
411
412
413
414
415
416
417
418
419
420
421
422
423
424
425
426
427
428
429
430
431
432
433
434
435
436
437
438
439
440
441
442
443
444
445
446
447
448
449
450
451
452
453
454
455
456
457
458
459
460
461
462
463
464
465
466
467
468
469
470
471
472
473
474
475
476
477
478
479
480
481
482
483
484
485
486
487
488
489
490
491
492
493
494
495
496
497
498
499
500
501
502
503
504
505
506
507
508
509
510
511
512
513
514
515
516
517
518
519
520
521
522
523
524
525
526
527
528
529
530
531
532
533
534
535
536
537
538
539
540
541
542
543
544
545
546
547
548
549
550
551
552
553
554
555
556
557
558
559
560
561
562
563
564
565
566
567
568
569
570
571
572
573
574
575
576
577
578
579
580
581
582
583
584
585
586
587
588
589
590
591
592
593
594
595
596
597
598
599
600
601
602
603
604
605
606
607
608
609
610
611
612
613
614
615
616
617
618
619
620
621
622
623
624
625
626
627
628
629
630
631
632
633
634
635
636
637
638
639
640
641
642
643
644
645
646
647
648
649
650
651
652
653
654
655
656
657
658
659
660
661
662
663
664
665
666
667
668
669
670
671
672
673
674
675
676
677
678
679
680
681
682
683
684
685
686
687
688
689
690
691
692
693
694
695
696
697
698
699
700
701
702
703
704
705
706
707
708
709
710
711
712
713
714
715
716
717
718
719
720
721
722
723
724
725
726
727
728
729
730
731
732
733
734
735
736
737
738
739
740
741
742
743
744
745
746
747
748
749
750
751
752
753
754
755
756
757
758
759
760
761
762
763
764
765
766
767
768
769
770
771
772
773
774
775
776
777
778
779
780
781
782
783
784
785
786
787
788
789
790
791
792
793
794
795
796
797
798
799
800
801
802
803
804
805
806
807
808
809
810
811
812
813
814
815
816
817
818
819
820
821
822
823
824
825
826
827
828
829
830
831
832
833
834
835
836
837
838
839
840
841
842
843
2.901657171208993 -0.06560651004939637 0 -0.06560651004939637 2.901657171208993
1.276821853977345 -0.04861835160120844 0 -0.04861835160120844 1.276821853977345
2.074544302195724 0.9084957070705055 0 0.9084957070705055 2.074544302195724
2.008694815202109 -0.9129453522520495 0 -0.9129453522520495 2.008694815202109
2.907119475000642 0.3212956060704442 0 0.3212956060704442 2.907119475000642
1.643510261985373 -0.8943252607315268 0 -0.8943252607315268 1.643510261985373
1.686293586354493 0.9145808152436383 0 0.9145808152436383 1.686293586354493
2.298449220739989 -0.9133790965965493 0 -0.9133790965965493 2.298449220739989
2.344244658197669 0.8751250086652946 0 0.8751250086652946 2.344244658197669
2.905161265780849 -0.3402994092277763 0 -0.3402994092277763 2.905161265780849
0.8494628164976259 -0.2109556622286068 0 -0.2109556622286068 0.8494628164976259
0.7713838033956461 0.1231386820788811 0 0.1231386820788811 0.7713838033956461
1.177134809285243 -0.201477463473913 0 -0.201477463473913 1.177134809285243
0.08125684131755867 -0.4596927390011817 0 -0.4596927390011817 0.08125684131755867
0.5467213446850054 0.9190092608018123 0 0.9190092608018123 0.5467213446850054
0.5625905286786583 -0.9130318813863185 0 -0.9130318813863185 0.5625905286786583
0.07845516850817499 0.4484248506722258 0 0.4484248506722258 0.07845516850817499
1.050958255040284 0.2551754985471307 0 0.2551754985471307 1.050958255040284
0.7426190567386359 -0.03769796838071815 0 -0.03769796838071815 0.7426190567386359
1.357827087924833 0.9090516383349642 0 0.9090516383349642 1.357827087924833
1.341328338626423 -0.9094366277174122 0 -0.9094366277174122 1.341328338626423
0.8830743096453723 0.9136743154395908 0 0.9136743154395908 0.8830743096453723
1.052013714854694 -0.8936563503165793 0 -0.8936563503165793 1.052013714854694
0.09505259654215215 0.1537976511289275 0 0.1537976511289275 0.09505259654215215
0.07849615353517883 -0.1216232783692418 0 -0.1216232783692418 0.07849615353517883
2.888338433146338 0.625159309473433 0 0.625159309473433 2.888338433146338
2.601018241883419 -0.9126879400337703 0 -0.9126879400337703 2.601018241883419
2.618288353798774 0.9181654116472856 0 0.9181654116472856 2.618288353798774
2.906572756528879 -0.6406084361924055 0 -0.6406084361924055 2.906572756528879
1.162639011011243 0.9162789069453176 0 0.9162789069453176 1.162639011011243
0.7811717206772142 -0.9128525517467033 0 -0.9128525517467033 0.7811717206772142
0.3696739230075843 -0.9186227232658933 0 -0.9186227232658933 0.3696739230075843
0.0827157325529367 0.6000107469490696 0 0.6000107469490696 0.0827157325529367
1.882863684131395 0.908867805751343 0 0.908867805751343 1.882863684131395
0.08199813702244173 -0.6071016560293092 0 -0.6071016560293092 0.08199813702244173
0.3655323428548831 0.9009576353340862 0 0.9009576353340862 0.3655323428548831
1.822859702862275 -0.9192276974098377 0 -0.9192276974098377 1.822859702862275
2.911555004280873 0.1199391656167773 0 0.1199391656167773 2.911555004280873
2.908565912615352 0.816429642952659 0 0.816429642952659 2.908565912615352
2.802932842636796 -0.910315393204214 0 -0.910315393204214 2.802932842636796
0.1930688102069117 0.9054644394699097 0 0.9054644394699097 0.1930688102069117
0.09212995091418852 -0.8017850104871489 0 -0.8017850104871489 0.09212995091418852
1.272038211226066 0.02204633730860108 0 0.02204633730860108 1.272038211226066
1.343879736073348 -0.03492553327292949 0 -0.03492553327292949 1.343879736073348
1.343627515704057 -0.0803416057358799 0 -0.0803416057358799 1.343627515704057
1.408235995595215 -0.03739417121737402 0 -0.03739417121737402 1.408235995595215
1.38910046560545 -0.09866421767983063 0 -0.09866421767983063 1.38910046560545
1.478471151559531 -0.03970406180885741 0 -0.03970406180885741 1.478471151559531
1.474052269448686 0.0155106210796193 0 0.0155106210796193 1.474052269448686
1.57413042208817 -0.02648432524867922 0 -0.02648432524867922 1.57413042208817
1.519972837997231 0.05488862530313426 0 0.05488862530313426 1.519972837997231
1.651473899649117 0.04667791572826671 0 0.04667791572826671 1.651473899649117
1.716128321648959 -0.009630334265944377 0 -0.009630334265944377 1.716128321648959
1.66765309121823 -0.07561516023376008 0 -0.07561516023376008 1.66765309121823
1.768621327665612 -0.0453714603485986 0 -0.0453714603485986 1.768621327665612
1.76733315663351 0.04706024614176275 0 0.04706024614176275 1.76733315663351
1.837516417027977 -0.009371185574895828 0 -0.009371185574895828 1.837516417027977
1.855981099277625 -0.1019629844402524 0 -0.1019629844402524 1.855981099277625
1.914197476691532 -0.01765989149464033 0 -0.01765989149464033 1.914197476691532
1.875300499755823 0.07912483554227238 0 0.07912483554227238 1.875300499755823
1.963475626951135 0.04194153397391596 0 0.04194153397391596 1.963475626951135
2.006428800450366 -0.04398781301822065 0 -0.04398781301822065 2.006428800450366
2.052789105342424 0.04791264514936018 0 0.04791264514936018 2.052789105342424
2.056066530888556 0.1331271238152066 0 0.1331271238152066 2.056066530888556
1.975044751891636 0.1462237222182619 0 0.1462237222182619 1.975044751891636
2.134776137129859 0.1143423214275425 0 0.1143423214275425 2.134776137129859
2.143374737891823 0.2007192746359744 0 0.2007192746359744 2.143374737891823
2.224625020720864 0.1736495503095266 0 0.1736495503095266 2.224625020720864
2.214354369282402 0.0887450333614771 0 0.0887450333614771 2.214354369282402
2.238263101278239 0.2565025023063198 0 0.2565025023063198 2.238263101278239
2.317947575200283 0.2237609901065427 0 0.2237609901065427 2.317947575200283
2.256553138934488 0.3381905548077528 0 0.3381905548077528 2.256553138934488
2.34157529211594 0.2990902279450265 0 0.2990902279450265 2.34157529211594
2.365632845901054 0.3812086609166037 0 0.3812086609166037 2.365632845901054
2.452947141056629 0.3471254905511 0 0.3471254905511 2.452947141056629
2.43504547250545 0.2417787841798142 0 0.2417787841798142 2.43504547250545
2.472467400504094 0.4271721682514268 0 0.4271721682514268 2.472467400504094
2.388660878288638 0.4639196270808764 0 0.4639196270808764 2.388660878288638
2.415488404150905 0.5434063318820864 0 0.5434063318820864 2.415488404150905
2.50365372801699 0.5006860280099308 0 0.5006860280099308 2.50365372801699
1.589505043461742 0.130492457762502 0 0.130492457762502 1.589505043461742
1.517105540735678 0.1597529288563014 0 0.1597529288563014 1.517105540735678
1.590351734229518 0.2344963474586124 0 0.2344963474586124 1.590351734229518
1.512894228191287 0.2258461270269422 0 0.2258461270269422 1.512894228191287
1.585176379847428 0.3249834487126431 0 0.3249834487126431 1.585176379847428
1.507226261691296 0.3152034176470223 0 0.3152034176470223 1.507226261691296
1.580284209593979 0.4134973391601835 0 0.4134973391601835 1.580284209593979
1.504698016296717 0.4086460641744515 0 0.4086460641744515 1.504698016296717
1.579645430689991 0.4787389478444423 0 0.4787389478444423 1.579645430689991
1.659573575046402 0.4306145256976526 0 0.4306145256976526 1.659573575046402
1.517338033603793 0.5171618143709903 0 0.5171618143709903 1.517338033603793
1.425279745535491 0.4039328453454782 0 0.4039328453454782 1.425279745535491
1.636369274160735 0.5119062983325547 0 0.5119062983325547 1.636369274160735
1.764176087270754 0.4596914656848829 0 0.4596914656848829 1.764176087270754
1.417955088482318 0.502450273954839 0 0.502450273954839 1.417955088482318
1.33581776661221 0.4912627750273852 0 0.4912627750273852 1.33581776661221
1.473980322056601 -0.1300624090264071 0 -0.1300624090264071 1.473980322056601
1.401433673717023 -0.2019959040073308 0 -0.2019959040073308 1.401433673717023
1.449035680231979 -0.2629710242622414 0 -0.2629710242622414 1.449035680231979
1.383943871767394 -0.3101224624270015 0 -0.3101224624270015 1.383943871767394
1.480939975864672 -0.3348818799816062 0 -0.3348818799816062 1.480939975864672
1.411588499652701 -0.3727845336299501 0 -0.3727845336299501 1.411588499652701
1.50104679962969 -0.4136624322901636 0 -0.4136624322901636 1.50104679962969
1.427950130591406 -0.4480252231446331 0 -0.4480252231446331 1.427950130591406
1.515646977847835 -0.4970652115273894 0 -0.4970652115273894 1.515646977847835
1.591345835313228 -0.4623776174839122 0 -0.4623776174839122 1.591345835313228
1.605675652975552 -0.5478782229196362 0 -0.5478782229196362 1.605675652975552
1.681005735798007 -0.5193057954876862 0 -0.5193057954876862 1.681005735798007
1.34692228891675 -0.3970088292152611 0 -0.3970088292152611 1.34692228891675
1.356408496652366 -0.4727194285931418 0 -0.4727194285931418 1.356408496652366
1.284809458192541 -0.484724323962426 0 -0.484724323962426 1.284809458192541
1.289183659344395 -0.5704843117917817 0 -0.5704843117917817 1.289183659344395
1.211766177710264 -0.4831140018670654 0 -0.4831140018670654 1.211766177710264
1.322649479160367 0.5828941527256393 0 0.5828941527256393 1.322649479160367
1.258298294303042 0.4792949475943343 0 0.4792949475943343 1.258298294303042
1.693044297619333 -0.6018446551554876 0 -0.6018446551554876 1.693044297619333
1.757938777417881 -0.4995801454097124 0 -0.4995801454097124 1.757938777417881
1.747007181044672 -0.4092354096957688 0 -0.4092354096957688 1.747007181044672
1.838519711131714 -0.4877739089733528 0 -0.4877739089733528 1.838519711131714
1.84403266742436 -0.5847563321252596 0 -0.5847563321252596 1.84403266742436
1.920090910590038 -0.4791894321245811 0 -0.4791894321245811 1.920090910590038
1.530150914808588 -0.5829364055802314 0 -0.5829364055802314 1.530150914808588
1.485225349988812 0.6148920644266506 0 0.6148920644266506 1.485225349988812
2.327572492276761 0.581897190598248 0 0.581897190598248 2.327572492276761
1.997582803213946 -0.4785029544770201 0 -0.4785029544770201 1.997582803213946
2.002604642151613 -0.5457264730366358 0 -0.5457264730366358 2.002604642151613
2.075217126798277 -0.4979310712087625 0 -0.4979310712087625 2.075217126798277
2.05888186731385 -0.5773485098319879 0 -0.5773485098319879 2.05888186731385
2.161086939907132 -0.5286011952752508 0 -0.5286011952752508 2.161086939907132
2.17014505911147 -0.4393075280166171 0 -0.4393075280166171 2.17014505911147
2.254492277809778 -0.4659936489772643 0 -0.4659936489772643 2.254492277809778
2.266987730364523 -0.3905888997266444 0 -0.3905888997266444 2.266987730364523
2.327252860381152 -0.4183569067978668 0 -0.4183569067978668 2.327252860381152
2.294593505685924 -0.3186931550055335 0 -0.3186931550055335 2.294593505685924
2.390640707771101 -0.3799346852595586 0 -0.3799346852595586 2.390640707771101
2.424349092414986 -0.4812611020454639 0 -0.4812611020454639 2.424349092414986
2.417964064590747 -0.2811220234320407 0 -0.2811220234320407 2.417964064590747
2.507871101706426 -0.3157534401186223 0 -0.3157534401186223 2.507871101706426
2.448879915137665 -0.1960468856952043 0 -0.1960468856952043 2.448879915137665
2.537888009869821 -0.2399804272970986 0 -0.2399804272970986 2.537888009869821
2.57640642031424 -0.159477313922968 0 -0.159477313922968 2.57640642031424
2.572495815667261 -0.338927520220269 0 -0.338927520220269 2.572495815667261
1.716361754816194 0.5596847215640416 0 0.5596847215640416 1.716361754816194
1.838266699641232 0.5381301143609726 0 0.5381301143609726 1.838266699641232
2.254852001399094 -0.5514440892022539 0 -0.5514440892022539 2.254852001399094
2.537764486553389 0.3326519589017918 0 0.3326519589017918 2.537764486553389
2.544524819459789 0.2393828008363409 0 0.2393828008363409 2.544524819459789
1.21119100639622 -0.5694763338206608 0 -0.5694763338206608 1.21119100639622
1.131758537709864 -0.557911165242045 0 -0.557911165242045 1.131758537709864
1.671463005417532 0.2468503175014364 0 0.2468503175014364 1.671463005417532
1.243985174635906 0.5683933325720498 0 0.5683933325720498 1.243985174635906
1.169119781905125 0.5665226382032319 0 0.5665226382032319 1.169119781905125
2.326907861716357 -0.2395111300676162 0 -0.2395111300676162 2.326907861716357
2.540582994322353 0.5788855319130477 0 0.5788855319130477 2.540582994322353
1.135802450947239 -0.471246585681719 0 -0.471246585681719 1.135802450947239
1.050932204405419 -0.5448882678558216 0 -0.5448882678558216 1.050932204405419
1.271439121449957 0.3879199397024286 0 0.3879199397024286 1.271439121449957
1.049266009266742 -0.6291511357128223 0 -0.6291511357128223 1.049266009266742
0.9796941726157156 -0.6256098098076945 0 -0.6256098098076945 0.9796941726157156
0.969086405515202 -0.5457216996823463 0 -0.5457216996823463 0.969086405515202
0.8906211097573935 -0.5669514982795845 0 -0.5669514982795845 0.8906211097573935
0.9120688185599221 -0.6452627386152323 0 -0.6452627386152323 0.9120688185599221
0.8143026139309241 -0.5985891659916588 0 -0.5985891659916588 0.8143026139309241
0.7881702985697278 -0.5231373179126305 0 -0.5231373179126305 0.7881702985697278
0.7329970641555221 -0.5482599498521279 0 -0.5482599498521279 0.7329970641555221
0.7516599301333947 -0.4556150571153478 0 -0.4556150571153478 0.7516599301333947
0.6746222909865605 -0.4997242369236037 0 -0.4997242369236037 0.6746222909865605
0.6616990472247047 -0.4303621004401204 0 -0.4303621004401204 0.6616990472247047
0.5705666281104741 -0.4855292956519319 0 -0.4855292956519319 0.5705666281104741
0.6075998572932237 -0.4041770104318039 0 -0.4041770104318039 0.6075998572932237
0.4878501853343619 -0.4299364486408441 0 -0.4299364486408441 0.4878501853343619
0.5346292621783396 -0.3609066100073626 0 -0.3609066100073626 0.5346292621783396
0.5228617711721313 -0.5272412702761269 0 -0.5272412702761269 0.5228617711721313
0.4040640608659504 -0.3829317318497401 0 -0.3829317318497401 0.4040640608659504
0.4579155501874566 -0.308464756087468 0 -0.308464756087468 0.4579155501874566
0.5216043103285267 -0.2452685338132761 0 -0.2452685338132761 0.5216043103285267
0.4665292853580196 -0.179515106480613 0 -0.179515106480613 0.4665292853580196
0.6398153740523205 -0.5792853790801876 0 -0.5792853790801876 0.6398153740523205
0.5369486097886138 -0.1378090622720241 0 -0.1378090622720241 0.5369486097886138
0.4338268845861111 -0.09897025059921057 0 -0.09897025059921057 0.4338268845861111
0.5092881605723293 -0.07218546441426699 0 -0.07218546441426699 0.5092881605723293
0.4195380627620149 -0.011419802285338 0 -0.011419802285338 0.4195380627620149
0.495824075067257 0.001665247342652994 0 0.001665247342652994 0.495824075067257
0.411965092391866 0.07499936860759911 0 0.07499936860759911 0.411965092391866
0.5008087364224907 0.09305729000996177 0 0.09305729000996177 0.5008087364224907
0.4073832911308422 0.138951901016439 0 0.138951901016439 0.4073832911308422
0.461770144869126 0.1744548801927565 0 0.1744548801927565 0.461770144869126
0.4160811874161058 0.2467732226230633 0 0.2467732226230633 0.4160811874161058
0.4929046281235301 0.2985372405615038 0 0.2985372405615038 0.4929046281235301
0.3655264560425315 0.3275910750112876 0 0.3275910750112876 0.3655264560425315
0.4545264278274577 0.3915869844984782 0 0.3915869844984782 0.4545264278274577
0.3827231462827219 0.458679548419567 0 0.458679548419567 0.3827231462827219
0.4784690746919165 0.4692855998974348 0 0.4692855998974348 0.4784690746919165
0.5481304218424888 0.3940875088903944 0 0.3940875088903944 0.5481304218424888
0.5518854991684919 0.4919973345726393 0 0.4919973345726393 0.5518854991684919
0.6494108624295045 0.4581092301259698 0 0.4581092301259698 0.6494108624295045
0.5958581257954452 0.5793704343044552 0 0.5793704343044552 0.5958581257954452
0.6981686989778244 0.5481006882334184 0 0.5481006882334184 0.6981686989778244
0.4934313801050124 0.5701700685386824 0 0.5701700685386824 0.4934313801050124
0.7067447076793117 0.4284505492962065 0 0.4284505492962065 0.7067447076793117
0.7793409184599589 0.4575743959774112 0 0.4575743959774112 0.7793409184599589
0.7751593502502034 0.5793562695124058 0 0.5793562695124058 0.7751593502502034
0.8354651280638974 0.5424749671878295 0 0.5424749671878295 0.8354651280638974
0.8797792765712806 0.6327943771708638 0 0.6327943771708638 0.8797792765712806
0.7781395262499523 0.6472117442405667 0 0.6472117442405667 0.7781395262499523
2.629941484603463 0.5333724265420727 0 0.5333724265420727 2.629941484603463
2.662034117322276 -0.2035230492317683 0 -0.2035230492317683 2.662034117322276
2.621303303811336 -0.06220062200940608 0 -0.06220062200940608 2.621303303811336
0.3358860568942574 0.07010900968256063 0 0.07010900968256063 0.3358860568942574
2.186987633453844 -0.3566819542596656 0 -0.3566819542596656 2.186987633453844
2.460569734638981 0.1350912148108115 0 0.1350912148108115 2.460569734638981
1.172706943132442 0.6300652723886967 0 0.6300652723886967 1.172706943132442
0.8735671780745999 0.4253846097025369 0 0.4253846097025369 0.8735671780745999
2.031794275755354 -0.6491564105918333 0 -0.6491564105918333 2.031794275755354
1.796746767879095 0.6085241127803002 0 0.6085241127803002 1.796746767879095
1.882208230809157 0.5776389318911467 0 0.5776389318911467 1.882208230809157
1.897598804397077 0.4868262841025182 0 0.4868262841025182 1.897598804397077
1.934478990587607 0.5549732243384413 0 0.5549732243384413 1.934478990587607
1.430386490512516 0.3077868234541563 0 0.3077868234541563 1.430386490512516
2.486982238859798 -0.1143063781092907 0 -0.1143063781092907 2.486982238859798
0.3680412739788406 -0.2339237836207993 0 -0.2339237836207993 0.3680412739788406
0.5493428272474141 0.2224057438531169 0 0.2224057438531169 0.5493428272474141
2.634081476673483 0.2410209878920743 0 0.2410209878920743 2.634081476673483
1.556229665799826 -0.2949230983094551 0 -0.2949230983094551 1.556229665799826
1.293595068133503 -0.6622764084089847 0 -0.6622764084089847 1.293595068133503
2.63924418916009 0.1696653224648473 0 0.1696653224648473 2.63924418916009
1.951866484070801 0.6319983891350184 0 0.6319983891350184 1.951866484070801
2.03673358247083 0.6091870162676684 0 0.6091870162676684 2.03673358247083
1.210001657211794 -0.6634133957285497 0 -0.6634133957285497 1.210001657211794
2.09093898858059 -0.6777067892326241 0 -0.6777067892326241 2.09093898858059
0.5832742664717763 -0.1914617562962768 0 -0.1914617562962768 0.5832742664717763
0.5726356863834732 0.057731685353388 0 0.057731685353388 0.5726356863834732
1.975175710931842 0.4258541644665608 0 0.4258541644665608 1.975175710931842
1.673432718118287 0.6372851614502565 0 0.6372851614502565 1.673432718118287
0.9152021591542054 0.4935347509378191 0 0.4935347509378191 0.9152021591542054
1.306625086358553 0.6677250816247431 0 0.6677250816247431 1.306625086358553
2.585563857255246 0.6683942675642633 0 0.6683942675642633 2.585563857255246
2.474163956685543 0.7022810890293029 0 0.7022810890293029 2.474163956685543
0.8379088387574846 -0.6789658097770731 0 -0.6789658097770731 0.8379088387574846
1.909674235410352 0.3902085949237395 0 0.3902085949237395 1.909674235410352
1.349393086039162 0.03351513337867751 0 0.03351513337867751 1.349393086039162
0.9407758495065174 -0.7136469834254507 0 -0.7136469834254507 0.9407758495065174
1.282153338564401 -0.4060676788505665 0 -0.4060676788505665 1.282153338564401
0.8187845852838148 -0.4135198131159332 0 -0.4135198131159332 0.8187845852838148
2.676515557478799 0.598835096877572 0 0.598835096877572 2.676515557478799
2.693277657123701 0.5026287756148138 0 0.5026287756148138 2.693277657123701
2.056119016353873 0.7120136926701991 0 0.7120136926701991 2.056119016353873
2.155559430695707 0.6565693039287267 0 0.6565693039287267 2.155559430695707
2.708035916861966 -0.1319720283223384 0 -0.1319720283223384 2.708035916861966
2.702887425844271 -0.00183676797170775 0 -0.00183676797170775 2.702887425844271
2.722219114117601 -0.2336507160242389 0 -0.2336507160242389 2.722219114117601
0.8662921703943164 0.735864901159901 0 0.735864901159901 0.8662921703943164
0.9481695226605797 0.6703914889938247 0 0.6703914889938247 0.9481695226605797
0.7801362302651007 0.7370179104630111 0 0.7370179104630111 0.7801362302651007
0.950805555404458 0.7368408047312024 0 0.7368408047312024 0.950805555404458
2.659734306856786 0.700200296751462 0 0.700200296751462 2.659734306856786
0.6536799483057909 -0.3458446042040511 0 -0.3458446042040511 0.6536799483057909
2.722194951719791 0.2373957414782031 0 0.2373957414782031 2.722194951719791
2.126013042611348 0.575266265029828 0 0.575266265029828 2.126013042611348
1.33949339647572 -0.2582214463333258 0 -0.2582214463333258 1.33949339647572
0.9269531394674977 0.401993534112139 0 0.401993534112139 0.9269531394674977
0.8512748694788262 0.3530479789076504 0 0.3530479789076504 0.8512748694788262
0.9760440683386187 0.4354485071657205 0 0.4354485071657205 0.9760440683386187
1.098589960842375 -0.2672004940395248 0 -0.2672004940395248 1.098589960842375
0.9977254297745519 -0.266626429427768 0 -0.266626429427768 0.9977254297745519
0.7926698545423286 -0.1576120969385353 0 -0.1576120969385353 0.7926698545423286
0.7303870650914368 0.05309809392185504 0 0.05309809392185504 0.7303870650914368
1.130364137540259 0.2429965086940511 0 0.2429965086940511 1.130364137540259
1.756350996835452 0.7084850047226132 0 0.7084850047226132 1.756350996835452
0.9671736992140013 0.5628564411204993 0 0.5628564411204993 0.9671736992140013
1.082477150872398 0.2994234642628489 0 0.2994234642628489 1.082477150872398
1.998400533406612 -0.3851567589618637 0 -0.3851567589618637 1.998400533406612
1.911938770132199 -0.3820058905241692 0 -0.3820058905241692 1.911938770132199
2.007790821776915 -0.2699383202680357 0 -0.2699383202680357 2.007790821776915
1.959045439345413 0.7203051573526199 0 0.7203051573526199 1.959045439345413
1.753174733671965 0.345455955331607 0 0.345455955331607 1.753174733671965
2.715085241484076 0.3391155341005799 0 0.3391155341005799 2.715085241484076
0.6928665043276906 0.7428758214574068 0 0.7428758214574068 0.6928665043276906
0.7112052256346053 0.1674114828516682 0 0.1674114828516682 0.7112052256346053
2.132964163996653 0.7567541851456313 0 0.7567541851456313 2.132964163996653
2.19086972047061 0.7313657575034702 0 0.7313657575034702 2.19086972047061
2.22400969918508 0.8090613015195779 0 0.8090613015195779 2.22400969918508
1.240487659339731 -0.1486928878912385 0 -0.1486928878912385 1.240487659339731
2.014342231584759 -0.7313010211992431 0 -0.7313010211992431 2.014342231584759
1.904580962254098 -0.715042942759462 0 -0.715042942759462 1.904580962254098
2.305633269929391 0.7818590257972605 0 0.7818590257972605 2.305633269929391
1.2989659091398 -0.7549935671725961 0 -0.7549935671725961 1.2989659091398
1.20499818520263 -0.7828134456391191 0 -0.7828134456391191 1.20499818520263
1.108335356928448 -0.7351667839538756 0 -0.7351667839538756 1.108335356928448
1.373637128153508 -0.6441140628759641 0 -0.6441140628759641 1.373637128153508
1.193003479570111 0.2998950327237592 0 0.2998950327237592 1.193003479570111
0.6948986506734555 0.8310951510864705 0 0.8310951510864705 0.6948986506734555
0.6077040008183704 0.7506543814054751 0 0.7506543814054751 0.6077040008183704
1.068640079320809 -0.3670109723474058 0 -0.3670109723474058 1.068640079320809
2.600122599746876 0.01652846459188272 0 0.01652846459188272 2.600122599746876
1.176649190730302 -0.3190409052743084 0 -0.3190409052743084 1.176649190730302
2.771833423338343 -0.1943259993418646 0 -0.1943259993418646 2.771833423338343
2.714477678219668 0.126242651433722 0 0.126242651433722 2.714477678219668
0.8244133561886968 0.191351840708457 0 0.191351840708457 0.8244133561886968
1.044045414324952 0.7284670586375709 0 0.7284670586375709 1.044045414324952
1.048098927178091 0.8290045327169302 0 0.8290045327169302 1.048098927178091
1.985041791139793 0.3247701110871674 0 0.3247701110871674 1.985041791139793
0.7800198608123097 -0.2253754106426973 0 -0.2253754106426973 0.7800198608123097
2.098255111592584 -0.7404893637896929 0 -0.7404893637896929 2.098255111592584
2.182360359122648 -0.7381042477641409 0 -0.7381042477641409 2.182360359122648
2.195363700429081 -0.8264223609850941 0 -0.8264223609850941 2.195363700429081
2.2768135527791 -0.7362681845060486 0 -0.7362681845060486 2.2768135527791
0.8722420148104748 -0.7550635172344321 0 -0.7550635172344321 0.8722420148104748
0.7533965437117779 -0.71258836220985 0 -0.71258836220985 0.7533965437117779
0.9109624883876326 -0.8239182726428481 0 -0.8239182726428481 0.9109624883876326
0.7682670328194209 0.2600169625472829 0 0.2600169625472829 0.7682670328194209
1.680925540291602 0.7441611863711484 0 0.7441611863711484 1.680925540291602
1.627036382061814 0.7027101807262599 0 0.7027101807262599 1.627036382061814
1.122695850914358 0.7699030092664991 0 0.7699030092664991 1.122695850914358
0.6730836046204826 0.2835402706563317 0 0.2835402706563317 0.6730836046204826
1.901014887975308 -0.2840648761008654 0 -0.2840648761008654 1.901014887975308
1.814239576227508 -0.3007888332548441 0 -0.3007888332548441 1.814239576227508
0.6942816728221973 -0.01153821086784998 0 -0.01153821086784998 0.6942816728221973
0.663608049821928 -0.07625537392904994 0 -0.07625537392904994 0.663608049821928
2.741851117153658 0.5379918897080375 0 0.5379918897080375 2.741851117153658
2.804868070899128 0.4537474330962072 0 0.4537474330962072 2.804868070899128
0.6962541878144635 -0.1784626998015044 0 -0.1784626998015044 0.6962541878144635
0.9950918436399375 0.2625464266562962 0 0.2625464266562962 0.9950918436399375
2.080360535016738 0.4010858165724381 0 0.4010858165724381 2.080360535016738
1.617391307887958 -0.1635612445332603 0 -0.1635612445332603 1.617391307887958
1.698461078117221 -0.1754963250411144 0 -0.1754963250411144 1.698461078117221
1.380204252953003 -0.7321743384406233 0 -0.7321743384406233 1.380204252953003
1.46507602169858 -0.7054373205771272 0 -0.7054373205771272 1.46507602169858
1.481150603924061 -0.8085908822366519 0 -0.8085908822366519 1.481150603924061
1.576228783255389 -0.7446386882036178 0 -0.7446386882036178 1.576228783255389
0.9858631371167794 -0.3449877199902196 0 -0.3449877199902196 0.9858631371167794
1.917184232210804 -0.8264778351883245 0 -0.8264778351883245 1.917184232210804
1.809122116721614 -0.7689085254538263 0 -0.7689085254538263 1.809122116721614
0.9931901149127843 -0.786779249378851 0 -0.786779249378851 0.9931901149127843
1.228358724083907 -0.2601893097311354 0 -0.2601893097311354 1.228358724083907
2.30191214214491 0.5014657706003084 0 0.5014657706003084 2.30191214214491
0.8325310222544888 -0.302814112320415 0 -0.302814112320415 0.8325310222544888
1.124002219816134 0.3663765614556206 0 0.3663765614556206 1.124002219816134
1.90854954599358 0.3292209069848204 0 0.3292209069848204 1.90854954599358
2.843981917051791 0.5232632889583233 0 0.5232632889583233 2.843981917051791
2.814961651062779 0.2294475928608552 0 0.2294475928608552 2.814961651062779
1.580143766986098 0.7618812504987007 0 0.7618812504987007 1.580143766986098
1.514797081963227 0.7122246142790601 0 0.7122246142790601 1.514797081963227
1.530952482390703 0.8174886994725816 0 0.8174886994725816 1.530952482390703
1.463655653058558 0.7621629088322065 0 0.7621629088322065 1.463655653058558
2.824200432821562 -0.2812171902286013 0 -0.2812171902286013 2.824200432821562
2.730788106902039 -0.2932170618668056 0 -0.2932170618668056 2.730788106902039
0.586533504831439 -0.04586053763052005 0 -0.04586053763052005 0.586533504831439
2.069107632224143 0.3108084850639654 0 0.3108084850639654 2.069107632224143
1.771793640941032 0.8174643336135141 0 0.8174643336135141 1.771793640941032
1.140313314836894 -0.8410227687548028 0 -0.8410227687548028 1.140313314836894
1.240973319838546 -0.9012619099869634 0 -0.9012619099869634 1.240973319838546
0.6391009960605231 0.2002166280170682 0 0.2002166280170682 0.6391009960605231
1.966391006303705 -0.1636328171549981 0 -0.1636328171549981 1.966391006303705
2.067617599393413 -0.2129949060436495 0 -0.2129949060436495 2.067617599393413
1.147675453492027 -0.3899546292128414 0 -0.3899546292128414 1.147675453492027
1.07207155203023 0.4938303758272118 0 0.4938303758272118 1.07207155203023
1.012575912964827 0.3516180130242664 0 0.3516180130242664 1.012575912964827
1.053986144108639 -0.4564307276540341 0 -0.4564307276540341 1.053986144108639
2.356771418823478 0.6619770092393555 0 0.6619770092393555 2.356771418823478
1.793912378269127 -0.2133497288205629 0 -0.2133497288205629 1.793912378269127
0.9007614157235638 0.2579759035651601 0 0.2579759035651601 0.9007614157235638
2.910871617563191 -0.2026131685307828 0 -0.2026131685307828 2.910871617563191
1.091193692921755 0.5923279341629 0 0.5923279341629 1.091193692921755
1.545575303638246 -0.8484132102105253 0 -0.8484132102105253 1.545575303638246
1.610049396258675 -0.8123374227331558 0 -0.8123374227331558 1.610049396258675
1.649990240881155 -0.6969984265252963 0 -0.6969984265252963 1.649990240881155
1.73203690710749 -0.8190134767773012 0 -0.8190134767773012 1.73203690710749
1.687838657100103 -0.7587913588679933 0 -0.7587913588679933 1.687838657100103
0.5536898260156633 0.1459036841296492 0 0.1459036841296492 0.5536898260156633
0.7746418623342654 0.3590905228047679 0 0.3590905228047679 0.7746418623342654
0.5889444423556305 -0.2980867504928816 0 -0.2980867504928816 0.5889444423556305
0.8592054920969018 -0.8520305514779195 0 -0.8520305514779195 0.8592054920969018
1.469260976451081 0.6729882516973819 0 0.6729882516973819 1.469260976451081
1.834549605405839 0.3381037044225044 0 0.3381037044225044 1.834549605405839
1.828268734097579 0.2542418885322348 0 0.2542418885322348 1.828268734097579
0.7831254052225064 0.8272080912248102 0 0.8272080912248102 0.7831254052225064
0.6979856075195758 0.9165204793329442 0 0.9165204793329442 0.6979856075195758
0.8603862455369211 -0.4868832307834153 0 -0.4868832307834153 0.8603862455369211
0.7075175625530076 -0.3969574697660372 0 -0.3969574697660372 0.7075175625530076
1.346349664458655 0.3957122364628129 0 0.3957122364628129 1.346349664458655
1.353143855216424 0.3005498058118361 0 0.3005498058118361 1.353143855216424
1.277176787214861 0.2955208834533078 0 0.2955208834533078 1.277176787214861
1.356917215486694 0.2064274488489376 0 0.2064274488489376 1.356917215486694
1.436420071239591 0.216469830107889 0 0.216469830107889 1.436420071239591
1.452069021535464 0.1173526757116346 0 0.1173526757116346 1.452069021535464
1.259315275834317 0.9149217742812279 0 0.9149217742812279 1.259315275834317
1.317778769506903 0.8243101331391472 0 0.8243101331391472 1.317778769506903
1.226162567611248 0.8307284166732661 0 0.8307284166732661 1.226162567611248
1.299220127900068 0.745819270533604 0 0.745819270533604 1.299220127900068
0.6743589698808893 -0.9112950716001941 0 -0.9112950716001941 0.6743589698808893
0.6599342240118694 -0.8193086126593679 0 -0.8193086126593679 0.6599342240118694
0.5040157636452234 -0.828088858448616 0 -0.828088858448616 0.5040157636452234
0.573301392993762 -0.7165547416478569 0 -0.7165547416478569 0.573301392993762
0.4694359720517519 -0.7375204665128556 0 -0.7375204665128556 0.4694359720517519
0.5049974382457352 -0.6788459720225467 0 -0.6788459720225467 0.5049974382457352
0.4428180850891252 -0.63541896571163 0 -0.63541896571163 0.4428180850891252
0.3912932793241446 -0.7217507492191375 0 -0.7217507492191375 0.3912932793241446
0.3345622049165858 -0.6585900626365353 0 -0.6585900626365353 0.3345622049165858
0.3584995522440388 -0.582434818172643 0 -0.582434818172643 0.3584995522440388
0.2548297059507331 -0.5900437342131268 0 -0.5900437342131268 0.2548297059507331
0.2961816753775084 -0.7590742757357609 0 -0.7590742757357609 0.2961816753775084
0.3235446154468266 -0.5119872242395622 0 -0.5119872242395622 0.3235446154468266
0.2546031951819534 -0.5076878296143396 0 -0.5076878296143396 0.2546031951819534
0.2744852116537595 -0.424773450154011 0 -0.424773450154011 0.2744852116537595
0.1669306178048143 -0.6007158075865364 0 -0.6007158075865364 0.1669306178048143
0.6605986723973198 -0.7297605736986907 0 -0.7297605736986907 0.6605986723973198
0.4546524495512153 -0.5133376333264439 0 -0.5133376333264439 0.4546524495512153
0.4616106218797337 -0.9152860231880121 0 -0.9152860231880121 0.4616106218797337
0.181671165220861 -0.4025944221364475 0 -0.4025944221364475 0.181671165220861
0.2075693597481012 -0.2881173397915426 0 -0.2881173397915426 0.2075693597481012
0.09262728482681491 -0.2983137508867725 0 -0.2983137508867725 0.09262728482681491
0.1633011062210601 -0.1902179576776891 0 -0.1902179576776891 0.1633011062210601
0.6226634562717615 0.3824959402690228 0 0.3824959402690228 0.6226634562717615
0.5454312253766562 0.333047552083424 0 0.333047552083424 0.5454312253766562
0.6082139767831282 -0.6428452277088379 0 -0.6428452277088379 0.6082139767831282
1.827893843355411 -0.3939316441026056 0 -0.3939316441026056 1.827893843355411
1.732918772193842 -0.3220988300257376 0 -0.3220988300257376 1.732918772193842
1.6684992771565 -0.4336058335165258 0 -0.4336058335165258 1.6684992771565
1.784352195143043 0.9101886700747694 0 0.9101886700747694 1.784352195143043
1.870455004864318 0.8147610852649644 0 0.8147610852649644 1.870455004864318
1.980212118608432 0.9080614949736049 0 0.9080614949736049 1.980212118608432
2.058503311614493 0.8170587198925203 0 0.8170587198925203 2.058503311614493
1.912776164440674 -0.9150511541410579 0 -0.9150511541410579 1.912776164440674
0.07759567074705817 0.5332611980420499 0 0.5332611980420499 0.07759567074705817
0.1659666310099255 0.5809539258806604 0 0.5809539258806604 0.1659666310099255
0.1813077108244414 0.676870573937998 0 0.676870573937998 0.1813077108244414
0.2692628560778172 0.6431520833170732 0 0.6431520833170732 0.2692628560778172
0.2496917361646188 0.5521332037885598 0 0.5521332037885598 0.2496917361646188
0.2949431482093352 0.7320640304261569 0 0.7320640304261569 0.2949431482093352
0.3558397077935002 0.6991254854330877 0 0.6991254854330877 0.3558397077935002
0.3309702158802855 0.8129578211965247 0 0.8129578211965247 0.3309702158802855
0.4191640571257894 0.7568213703673164 0 0.7568213703673164 0.4191640571257894
0.2744973307956194 0.8425377210222249 0 0.8425377210222249 0.2744973307956194
0.4505597180439676 0.8767466171655789 0 0.8767466171655789 0.4505597180439676
0.5223861970266918 0.7572355951415861 0 0.7572355951415861 0.5223861970266918
0.5293349565963577 0.6663451022382652 0 0.6663451022382652 0.5293349565963577
0.09057690602636494 0.6946355287661927 0 0.6946355287661927 0.09057690602636494
0.367680186132304 0.6070298942348528 0 0.6070298942348528 0.367680186132304
0.3227353732955196 0.5148677025364019 0 0.5148677025364019 0.3227353732955196
0.2388798227650179 0.4683250544038948 0 0.4683250544038948 0.2388798227650179
0.1419316666274866 0.4819240406045078 0 0.4819240406045078 0.1419316666274866
0.1676113716077931 0.3792802341414627 0 0.3792802341414627 0.1676113716077931
0.08691571504308657 0.3810569783982368 0 0.3810569783982368 0.08691571504308657
0.1815935176750712 0.3097412755578084 0 0.3097412755578084 0.1815935176750712
0.116655793722882 0.268011319979424 0 0.268011319979424 0.116655793722882
0.2098789891789627 0.1911281826548303 0 0.1911281826548303 0.2098789891789627
0.1822693586300196 0.108253259532704 0 0.108253259532704 0.1822693586300196
0.2656653527054225 0.1474379003750286 0 0.1474379003750286 0.2656653527054225
0.2483674389847566 0.3853174445875601 0 0.3853174445875601 0.2483674389847566
1.17064905954148 0.4556802412383686 0 0.4556802412383686 1.17064905954148
0.9609957162035632 0.8255262229689994 0 0.8255262229689994 0.9609957162035632
1.340031188883941 -0.3441248026997975 0 -0.3441248026997975 1.340031188883941
1.653860317653217 -0.347790671208872 0 -0.347790671208872 1.653860317653217
1.474558686634841 0.889574910806044 0 0.889574910806044 1.474558686634841
1.070723488515027 0.9150530594528745 0 0.9150530594528745 1.070723488515027
0.08117366328800071 -0.03787974763122146 0 -0.03787974763122146 0.08117366328800071
0.1660180063344365 -0.09202912851097204 0 -0.09202912851097204 0.1660180063344365
0.1711662614223128 0.01216149989195573 0 0.01216149989195573 0.1711662614223128
0.254054452527942 -0.01617826507669509 0 -0.01617826507669509 0.254054452527942
0.2418982218616827 -0.1316918122739621 0 -0.1316918122739621 0.2418982218616827
0.08684385313223629 0.05560759489101558 0 0.05560759489101558 0.08684385313223629
0.946768604094708 -0.895017517517558 0 -0.895017517517558 0.946768604094708
2.211310994680423 -0.2780681413915557 0 -0.2780681413915557 2.211310994680423
2.239305573787705 -0.1986512947219099 0 -0.1986512947219099 2.239305573787705
2.266628365135638 -0.1144696786585599 0 -0.1144696786585599 2.266628365135638
2.180682800637307 -0.0796736520331303 0 -0.0796736520331303 2.180682800637307
2.287141937974454 -0.02490745730767763 0 -0.02490745730767763 2.287141937974454
2.155293271696898 -0.1618019849274018 0 -0.1618019849274018 2.155293271696898
2.105183635585127 -0.04427218249080531 0 -0.04427218249080531 2.105183635585127
2.201555385482714 0.004226013115959985 0 0.004226013115959985 2.201555385482714
2.12983772070705 -0.241168613288816 0 -0.241168613288816 2.12983772070705
2.912932574339459 0.04863614358128356 0 0.04863614358128356 2.912932574339459
2.832229088628887 0.0193089986355956 0 0.0193089986355956 2.832229088628887
2.820376591422305 0.128225304494777 0 0.128225304494777 2.820376591422305
2.358169629137766 -0.1523452147973529 0 -0.1523452147973529 2.358169629137766
2.103750726489596 -0.9131658389423823 0 -0.9131658389423823 2.103750726489596
2.199780081706185 -0.9133684136160224 0 -0.9133684136160224 2.199780081706185
2.168490130162603 0.9070997456246551 0 0.9070997456246551 2.168490130162603
2.259491079098405 0.898964875529016 0 0.898964875529016 2.259491079098405
0.08789532004664555 -0.7008409809719011 0 -0.7008409809719011 0.08789532004664555
0.1925292628730178 -0.8041755630468066 0 -0.8041755630468066 0.1925292628730178
0.1911993230237787 -0.9088985341531434 0 -0.9088985341531434 0.1911993230237787
0.2738419026900099 -0.8562655906962431 0 -0.8562655906962431 0.2738419026900099
0.1787485572860355 -0.6930658057327683 0 -0.6930658057327683 0.1787485572860355
2.908363936762829 0.2175616368818152 0 0.2175616368818152 2.908363936762829
2.520093182603102 -0.03891036305486974 0 -0.03891036305486974 2.520093182603102
2.461304959394377 -0.01351657281270933 0 -0.01351657281270933 2.461304959394377
2.540352480151993 0.03532659741392741 0 0.03532659741392741 2.540352480151993
2.395518221615703 -0.05041249446825524 0 -0.05041249446825524 2.395518221615703
2.381107852837301 0.05237980597214395 0 0.05237980597214395 2.381107852837301
1.751548146971764 0.2553751872286965 0 0.2553751872286965 1.751548146971764
1.754324577391106 0.1781002895527558 0 0.1781002895527558 1.754324577391106
1.82208206478553 0.1754668692858396 0 0.1754668692858396 1.82208206478553
2.39777581526129 -0.9129348406890458 0 -0.9129348406890458 2.39777581526129
2.390709213911272 -0.8257361281747905 0 -0.8257361281747905 2.390709213911272
2.493567274432489 -0.8261033329927753 0 -0.8261033329927753 2.493567274432489
2.482309804714347 -0.7402437331584569 0 -0.7402437331584569 2.482309804714347
2.587291455178592 -0.7406134241664495 0 -0.7406134241664495 2.587291455178592
2.465399396962331 -0.6544702526288227 0 -0.6544702526288227 2.465399396962331
2.568612307150328 -0.6551334157209846 0 -0.6551334157209846 2.568612307150328
2.544191503057486 -0.5689254169981816 0 -0.5689254169981816 2.544191503057486
2.643229729998864 -0.565834128444049 0 -0.565834128444049 2.643229729998864
2.671551238084386 -0.6518800601560897 0 -0.6518800601560897 2.671551238084386
2.740730984515719 -0.5547145325444071 0 -0.5547145325444071 2.740730984515719
2.701721134133224 -0.4687124721307343 0 -0.4687124721307343 2.701721134133224
2.782880916217069 -0.4440771407309931 0 -0.4440771407309931 2.782880916217069
2.776321534811164 -0.6437453441970276 0 -0.6437453441970276 2.776321534811164
2.69046516927148 -0.7380277638550888 0 -0.7380277638550888 2.69046516927148
2.795209536496134 -0.7323608282478227 0 -0.7323608282478227 2.795209536496134
2.828583519981936 -0.5233052341258986 0 -0.5233052341258986 2.828583519981936
2.90311358846111 -0.4702570924670829 0 -0.4702570924670829 2.90311358846111
2.44559067707478 -0.5677472747075694 0 -0.5677472747075694 2.44559067707478
2.349786138556998 -0.5627692222537227 0 -0.5627692222537227 2.349786138556998
2.363672895353834 -0.6500410144341923 0 -0.6500410144341923 2.363672895353834
2.596384603991023 -0.8260483180523099 0 -0.8260483180523099 2.596384603991023
2.801445254194755 -0.8205039592326352 0 -0.8205039592326352 2.801445254194755
2.454395100286828 0.9124426115455204 0 0.9124426115455204 2.454395100286828
2.4292133285786 0.8328957071280733 0 0.8328957071280733 2.4292133285786
2.54247794053923 0.8369637296605936 0 0.8369637296605936 2.54247794053923
2.524487163724397 0.9171075582999842 0 0.9171075582999842 2.524487163724397
2.634519397331959 0.8378364559401205 0 0.8378364559401205 2.634519397331959
2.726360986310421 0.8355564174378789 0 0.8355564174378789 2.726360986310421
2.713946133063898 0.9172323085162818 0 0.9172323085162818 2.713946133063898
2.817158417946482 0.8283842329800341 0 0.8283842329800341 2.817158417946482
1.838940511571363 -0.6574714792625409 0 -0.6574714792625409 1.838940511571363
2.374629839016225 0.1975827349465592 0 0.1975827349465592 2.374629839016225
2.811034532105771 0.3343440443843834 0 0.3343440443843834 2.811034532105771
2.906917306233166 0.7246351298774006 0 0.7246351298774006 2.906917306233166
2.818813144791448 0.6825569385114624 0 0.6825569385114624 2.818813144791448
1.856780797922746 0.4163664548304832 0 0.4163664548304832 1.856780797922746
2.612356129192979 -0.4791171816406936 0 -0.4791171816406936 2.612356129192979
2.669657758427893 -0.3863967505225345 0 -0.3863967505225345 2.669657758427893
2.086119557879712 -0.40910074411838 0 -0.40910074411838 2.086119557879712
2.596617398129097 0.4397660543546176 0 0.4397660543546176 2.596617398129097
1.346151953218364 -0.1536153024492107 0 -0.1536153024492107 1.346151953218364
2.518549510461527 -0.4806510598232751 0 -0.4806510598232751 2.518549510461527
2.498185405479806 -0.912883856089626 0 -0.912883856089626 2.498185405479806
2.012576023670568 0.5216617354597922 0 0.5216617354597922 2.012576023670568
1.435718268953298 -0.9116544535425366 0 -0.9116544535425366 1.435718268953298
1.943718523367228 -0.5915860066865581 0 -0.5915860066865581 1.943718523367228
0.6081322403070597 0.6622639771922063 0 0.6622639771922063 0.6081322403070597
0.4553346346733593 0.6481376221874861 0 0.6481376221874861 0.4553346346733593
2.447338848486856 0.6226298491236387 0 0.6226298491236387 2.447338848486856
2.632307109712992 -0.2941042101618891 0 -0.2941042101618891 2.632307109712992
2.532770702804971 0.3982464748178849 0 0.3982464748178849 2.532770702804971
2.303643034430646 0.1486537769949848 0 0.1486537769949848 2.303643034430646
2.278219015821245 0.4198283966067023 0 0.4198283966067023 2.278219015821245
1.683978803259246 0.1633922725075559 0 0.1633922725075559 1.683978803259246
0.3146020204431998 -0.337664777872083 0 -0.337664777872083 0.3146020204431998
2.190550746180207 0.4556470771951444 0 0.4556470771951444 2.190550746180207
2.149433854072206 -0.6340126372708198 0 -0.6340126372708198 2.149433854072206
1.440563385622754 -0.5302389370946079 0 -0.5302389370946079 1.440563385622754
0.2086812573771631 0.7923616851375149 0 0.7923616851375149 0.2086812573771631
1.873535398779882 0.634172834448955 0 0.634172834448955 1.873535398779882
2.104801075395695 -0.3217812466756663 0 -0.3217812466756663 2.104801075395695
0.4226942696503517 -0.827889852928122 0 -0.827889852928122 0.4226942696503517
1.216635700244126 -0.404885516106086 0 -0.404885516106086 1.216635700244126
1.598082156642194 0.5830305921506519 0 0.5830305921506519 1.598082156642194
2.622822922015726 0.3349665514223723 0 0.3349665514223723 2.622822922015726
0.6926144992741574 0.6536328422689249 0 0.6536328422689249 0.6926144992741574
1.556058091463727 -0.1072590548823375 0 -0.1072590548823375 1.556058091463727
0.8725309143803467 0.8256481849685788 0 0.8256481849685788 0.8725309143803467
2.69864902201812 -0.8244182119128961 0 -0.8244182119128961 2.69864902201812
1.125613015396659 -0.6478363222077557 0 -0.6478363222077557 1.125613015396659
0.7201622193140103 -0.6205488946916849 0 -0.6205488946916849 0.7201622193140103
0.9852961434220444 -0.6825529643599171 0 -0.6825529643599171 0.9852961434220444
1.365074527658421 -0.5549896661876441 0 -0.5549896661876441 1.365074527658421
2.700987672317336 -0.9119176294365678 0 -0.9119176294365678 2.700987672317336
1.575988855471417 -0.3793191966320283 0 -0.3793191966320283 1.575988855471417
1.668287130789626 0.3382614190405739 0 0.3382614190405739 1.668287130789626
1.764957524605508 -0.5889085237670273 0 -0.5889085237670273 1.764957524605508
1.715441612948615 0.09710405709574396 0 0.09710405709574396 1.715441612948615
0.2605629663459397 0.07985752007521964 0 0.07985752007521964 0.2605629663459397
0.5871227056582523 -0.5541124741142001 0 -0.5541124741142001 0.5871227056582523
0.9047253298626988 -0.2573761660234228 0 -0.2573761660234228 0.9047253298626988
2.702489732015273 0.4348996438096079 0 0.4348996438096079 2.702489732015273
0.584527234572931 -0.1098688452957661 0 -0.1098688452957661 0.584527234572931
1.557592407163345 0.6516165923907998 0 0.6516165923907998 1.557592407163345
1.210338727807378 0.1922664271944504 0 0.1922664271944504 1.210338727807378
0.3476018670809153 -0.1184810155468481 0 -0.1184810155468481 0.3476018670809153
1.54809309563708 -0.6666118813387844 0 -0.6666118813387844 1.54809309563708
1.363828706044533 0.7499455287637922 0 0.7499455287637922 1.363828706044533
2.901266101348211 -0.8119423531516723 0 -0.8119423531516723 2.901266101348211
2.90880989162588 0.421212305068124 0 0.421212305068124 2.90880989162588
1.27732513423371 0.1989102426237747 0 0.1989102426237747 1.27732513423371
2.80824563101432 -0.3552885384311986 0 -0.3552885384311986 2.80824563101432
0.338164340593025 -0.02015531135205624 0 -0.02015531135205624 0.338164340593025
1.306321891333671 -0.8207399471711485 0 -0.8207399471711485 1.306321891333671
0.07841556308975028 -0.5421643517473311 0 -0.5421643517473311 0.07841556308975028
1.523142682831714 -0.2164509767037397 0 -0.2164509767037397 1.523142682831714
0.09684986636127696 0.7971063781142809 0 0.7971063781142809 0.09684986636127696
1.406232515055509 0.5951934997658948 0 0.5951934997658948 1.406232515055509
0.6104071907633432 0.8378468625518223 0 0.8378468625518223 0.6104071907633432
0.7455757788614488 -0.1050076678401348 0 -0.1050076678401348 0.7455757788614488
2.809327295943147 0.9136230699138989 0 0.9136230699138989 2.809327295943147
0.8820774132920985 -0.3664110327112283 0 -0.3664110327112283 0.8820774132920985
1.033731450405844 -0.7054412911053065 0 -0.7054412911053065 1.033731450405844
2.502191030021573 -0.3945860178111996 0 -0.3945860178111996 2.502191030021573
0.6963587461327726 0.3660282873718181 0 0.3660282873718181 0.6963587461327726
0.08467076944334335 -0.2043636238181111 0 -0.2043636238181111 0.08467076944334335
2.379206788126484 0.1365221345491029 0 0.1365221345491029 2.379206788126484
0.4799468344606009 -0.5855690734653133 0 -0.5855690734653133 0.4799468344606009
0.3387498768148791 0.1733332466449698 0 0.1733332466449698 0.3387498768148791
0.6306632385913497 -0.1372005225323688 0 -0.1372005225323688 0.6306632385913497
1.452392196799426 -0.6154886494248061 0 -0.6154886494248061 1.452392196799426
1.009900994972952 0.6364454706643812 0 0.6364454706643812 1.009900994972952
2.009964041238667 -0.8231636370356549 0 -0.8231636370356549 2.009964041238667
1.072541091081406 0.4019370256926922 0 0.4019370256926922 1.072541091081406
2.767488356185434 -0.06441924811948044 0 -0.06441924811948044 2.767488356185434
1.591041937068619 0.9135607061175361 0 0.9135607061175361 1.591041937068619
1.288845443300384 -0.2061668846299266 0 -0.2061668846299266 1.288845443300384
1.080814898131803 -0.8155557881483609 0 -0.8155557881483609 1.080814898131803
1.42182172445556 0.02949223107682562 0 0.02949223107682562 1.42182172445556
0.6454905294928969 -0.2394393909597839 0 -0.2394393909597839 0.6454905294928969
2.561134652304093 0.7601420190740827 0 0.7601420190740827 2.561134652304093
2.567111147156279 0.1298524480226426 0 0.1298524480226426 2.567111147156279
2.378206372793508 -0.7381067818109327 0 -0.7381067818109327 2.378206372793508
1.282183241114018 -0.3247452558694099 0 -0.3247452558694099 1.282183241114018
1.222745859678073 -0.3502887175959487 0 -0.3502887175959487 1.222745859678073
1.623308357206144 -0.6279762444330915 0 -0.6279762444330915 1.623308357206144
2.748494001458873 0.04539656526279554 0 0.04539656526279554 2.748494001458873
0.6050217167572287 0.1248963687953362 0 0.1248963687953362 0.6050217167572287
1.356076111643089 0.1158117625551931 0 0.1158117625551931 1.356076111643089
2.144815310469393 0.8193974770547657 0 0.8193974770547657 2.144815310469393
1.635382709805215 -0.2637942820566306 0 -0.2637942820566306 1.635382709805215
1.758310602422399 0.1271093847020746 0 0.1271093847020746 1.758310602422399
0.2650141443498061 0.2803213693699585 0 0.2803213693699585 0.2650141443498061
2.643536949740565 0.06055618606759165 0 0.06055618606759165 2.643536949740565
1.714177928854124 -0.2391763961642852 0 -0.2391763961642852 1.714177928854124
1.126319873855624 0.6667068495524922 0 0.6667068495524922 1.126319873855624
1.401389520995792 0.8022648812038908 0 0.8022648812038908 1.401389520995792
0.5387928778458416 0.6036531834693215 0 0.6036531834693215 0.5387928778458416
0.997290158768851 -0.8655163718591052 0 -0.8655163718591052 0.997290158768851
2.29042361908976 -0.8256790397379179 0 -0.8256790397379179 2.29042361908976
1.66086121195437 0.816888872269105 0 0.816888872269105 1.66086121195437
1.699334253041992 -0.6607634200510157 0 -0.6607634200510157 1.699334253041992
2.749588176602595 -0.3681289091582433 0 -0.3681289091582433 2.749588176602595
1.804564916053532 0.1067465417033572 0 0.1067465417033572 1.804564916053532
1.894991129617829 0.1615788726311594 0 0.1615788726311594 1.894991129617829
2.834523082365949 -0.1308360927819616 0 -0.1308360927819616 2.834523082365949
2.73507938548368 0.7554429207084483 0 0.7554429207084483 2.73507938548368
1.755942095033376 -0.1217133910679225 0 -0.1217133910679225 1.755942095033376
0.2823944620593145 0.9093681000196423 0 0.9093681000196423 0.2823944620593145
0.7105405554802178 -0.2911382116740184 0 -0.2911382116740184 0.7105405554802178
0.2733762204635088 -0.2182454474196997 0 -0.2182454474196997 0.2733762204635088
1.142043746930792 -0.9204863043831966 0 -0.9204863043831966 1.142043746930792
2.740006486376528 0.6652901717160304 0 0.6652901717160304 2.740006486376528
1.87920335262831 -0.1905865267142472 0 -0.1905865267142472 1.87920335262831
1.982050260464282 0.2357392620758056 0 0.2357392620758056 1.982050260464282
1.137851871104192 0.832671778344237 0 0.832671778344237 1.137851871104192
2.899224889482419 -0.719901847477798 0 -0.719901847477798 2.899224889482419
0.3600357997195286 -0.4595748453435798 0 -0.4595748453435798 0.3600357997195286
1.828215525972733 -0.8426363054056828 0 -0.8426363054056828 1.828215525972733
0.661082827018849 -0.667025072744585 0 -0.667025072744585 0.661082827018849
2.060696085098218 -0.1288106610679387 0 -0.1288106610679387 2.060696085098218
1.903865317568401 0.2459838528062926 0 0.2459838528062926 1.903865317568401
1.736489200391211 -0.9173913013989182 0 -0.9173913013989182 1.736489200391211
1.762320635837112 -0.6858586264188893 0 -0.6858586264188893 1.762320635837112
0.282475151032618 -0.9175061899633054 0 -0.9175061899633054 0.282475151032618
0.9229612419699661 0.3458589195911931 0 0.3458589195911931 0.9229612419699661
2.338456655151488 -0.4791169909753757 0 -0.4791169909753757 2.338456655151488
0.5969178203780174 0.3084548468538804 0 0.3084548468538804 0.5969178203780174
0.9783067134508835 0.9137247593174008 0 0.9137247593174008 0.9783067134508835
1.301374763331723 -0.1066128575356414 0 -0.1066128575356414 1.301374763331723
2.154913389969308 0.2859360581871164 0 0.2859360581871164 2.154913389969308
0.2689755440915406 -0.6754719336597814 0 -0.6754719336597814 0.2689755440915406
2.93882440572526 -0.5276217690814538 0 -0.5276217690814538 2.93882440572526
1.19716520203477 0.7345066222611104 0 0.7345066222611104 1.19716520203477
0.7908118056375174 0.9143743863059719 0 0.9143743863059719 0.7908118056375174
1.274736595079662 0.1048474343573991 0 0.1048474343573991 1.274736595079662
2.062557758541394 0.2203751360690214 0 0.2203751360690214 2.062557758541394
2.804330727376541 0.5806268999055416 0 0.5806268999055416 2.804330727376541
0.767732104319361 -0.3498304171669602 0 -0.3498304171669602 0.767732104319361
0.322953866557298 0.408631226534189 0 0.408631226534189 0.322953866557298
2.170561089013336 0.370725808300927 0 0.370725808300927 2.170561089013336
0.8406228681266927 0.2935104045289556 0 0.2935104045289556 0.8406228681266927
0.3369094839327374 -0.8399633312095891 0 -0.8399633312095891 0.3369094839327374
0.7869495547429413 -0.8112388361948375 0 -0.8112388361948375 0.7869495547429413
0.5393332335321565 -0.5937890524806279 0 -0.5937890524806279 0.5393332335321565
2.053612942824196 -0.01475329093753916 0 -0.01475329093753916 2.053612942824196
0.1481479814254144 -0.5026302911011848 0 -0.5026302911011848 0.1481479814254144
0.6692857757083954 0.09236521859407032 0 0.09236521859407032 0.6692857757083954
2.102310608230644 -0.8254143775849641 0 -0.8254143775849641 2.102310608230644
2.588909166565491 -0.3970924585989782 0 -0.3970924585989782 2.588909166565491
1.528846075503286 -0.9114606143278857 0 -0.9114606143278857 1.528846075503286
2.124701834189028 0.0312889758134049 0 0.0312889758134049 2.124701834189028
1.935895219968993 -0.0782813326921586 0 -0.0782813326921586 1.935895219968993
1.22895365030472 0.6476778785813736 0 0.6476778785813736 1.22895365030472
2.908346505966724 0.5153891414276892 0 0.5153891414276892 2.908346505966724
1.371943696866873 -0.8187743567909836 0 -0.8187743567909836 1.371943696866873
0.6324568938249198 0.0244748234505726 0 0.0244748234505726 0.6324568938249198
0.08890229524599706 -0.3928635996292785 0 -0.3928635996292785 0.08890229524599706
0.09632686596546175 -0.9022505651092008 0 -0.9022505651092008 0.09632686596546175
0.09867382368307663 0.9001084689908897 0 0.9001084689908897 0.09867382368307663
2.904630472316809 0.9076066674815508 0 0.9076066674815508 2.904630472316809
2.901197243961898 -0.9056355489371442 0 -0.9056355489371442 2.901197243961898
0.9508152453864513 -0.440722304032035 0 -0.440722304032035 0.9508152453864513
2.297523385149274 0.06567931629747097 0 0.06567931629747097 2.297523385149274
2.214703455453495 0.5378648969613907 0 0.5378648969613907 2.214703455453495
2.101223997883212 0.4881261148212157 0 0.4881261148212157 2.101223997883212
0.8723776236843372 -0.9131840089568635 0 -0.9131840089568635 0.8723776236843372
0.9254358497994088 -0.32730368783049 0 -0.32730368783049 0.9254358497994088
0.4356917243206462 0.5208789987121663 0 0.5208789987121663 0.4356917243206462
1.402158388257436 0.691003476829845 0 0.691003476829845 1.402158388257436
0.1362201610913979 -0.1322912707113802 0 -0.1322912707113802 0.1362201610913979
2.46208990463915 0.04913872420793025 0 0.04913872420793025 2.46208990463915
1.866885270827968 0.71965789885669 0 0.71965789885669 1.866885270827968
2.939702708987681 -0.2854239551654847 0 -0.2854239551654847 2.939702708987681
1.214881216435432 0.3812540165906722 0 0.3812540165906722 1.214881216435432
1.589613201745182 0.8522039586146921 0 0.8522039586146921 1.589613201745182
2.389453460609941 0.7430166465067199 0 0.7430166465067199 2.389453460609941
2.940132175374212 -0.1187172610831657 0 -0.1187172610831657 2.940132175374212
0.6104025834491328 0.9196719687471495 0 0.9196719687471495 0.6104025834491328
0.5498839600132294 0.007970523438292895 0 0.007970523438292895 0.5498839600132294
2.242050668879532 0.6183680665411321 0 0.6183680665411321 2.242050668879532
2.262894755913041 -0.6429953653145781 0 -0.6429953653145781 2.262894755913041
1.764395982842077 -0.8599600282729492 0 -0.8599600282729492 1.764395982842077
2.85047305879404 -0.4002437815059753 0 -0.4002437815059753 2.85047305879404
0.5223840057168471 0.8567287170596153 0 0.8567287170596153 0.5223840057168471
2.273026361788825 0.6982001506244023 0 0.6982001506244023 2.273026361788825
2.648260527732827 0.7594947641327227 0 0.7594947641327227 2.648260527732827
2.493519778650744 0.7598720720076889 0 0.7598720720076889 2.493519778650744
2.819072025991812 0.7442978199252863 0 0.7442978199252863 2.819072025991812
1.158084274363235 0.1906597158631516 0 0.1906597158631516 1.158084274363235
1.967376021557171 0.8142928310816622 0 0.8142928310816622 1.967376021557171
0.2951286969765298 0.4633676918908599 0 0.4633676918908599 0.2951286969765298
$EndNodes
$Elements
18 910 1 910
0 1 15 1
902 1 
0 2 15 1
903 2 
0 3 15 1
904 3 
0 4 15 1
905 4 
0 5 15 1
906 844 
0 6 15 1
907 5 
0 7 15 1
908 6 
0 8 15 1
909 7 
0 9 15 1
910 8 
1 1 1 30
1 1 9 
2 9 10 
3 10 11 
4 11 12 
5 12 13 
6 13 14 
7 14 15 
8 15 16 
9 16 17 
10 17 18 
11 18 19 
12 19 20 
13 20 21 
14 21 22 
15 22 23 
16 23 24 
17 24 25 
18 25 26 
19 26 27 
20 27 28 
21 28 29 
22 29 30 
23 30 31 
24 31 32 
25 32 33 
26 33 34 
27 34 35 
28 35 36 
29 36 37 
30 37 2 
1 2 1 20
31 2 38 
32 38 39 
33 39 40 
34 40 41 
35 41 42 
36 42 43 
37 43 44 
38 44 45 
39 45 46 
40 46 47 
41 47 48 
42 48 49 
43 49 50 
44 50 51 
45 51 52 
46 52 53 
47 53 54 
48 54 55 
49 55 56 
50 56 3 
1 3 1 30
51 3 57 
52 57 58 
53 58 59 
54 59 60 
55 60 61 
56 61 62 
57 62 63 
58 63 64 
59 64 65 
60 65 66 
61 66 67 
62 67 68 
63 68 69 
64 69 70 
65 70 71 
66 71 72 
67 72 73 
68 73 74 
69 74 75 
70 75 76 
71 76 77 
72 77 78 
73 78 79 
74 79 80 
75 80 81 
76 81 82 
77 82 83 
78 83 84 
79 84 85 
80 85 4 
1 4 1 20
81 4 86 
82 86 87 
83 87 88 
84 88 89 
85 89 90 
86 90 91 
87 91 92 
88 92 93 
89 93 94 
90 94 95 
91 95 96 
92 96 97 
93 97 98 
94 98 99 
95 99 100 
96 100 101 
97 101 102 
98 102 103 
99 103 104 
100 104 1 
1 5 1 4
101 5 105 
102 105 106 
103 106 107 
104 107 6 
1 6 1 4
105 6 108 
106 108 109 
107 109 110 
108 110 7 
1 7 1 4
109 7 111 
110 111 112 
111 112 113 
112 113 8 
1 8 1 4
113 8 114 
114 114 115 
115 115 116 
116 116 5 
2 1 3 785
117 460 571 748 461 
118 473 725 454 567 
119 716 530 779 431 
120 417 572 780 568 
121 137 468 20 21 
122 502 740 357 730 
123 820 315 659 555 
124 527 666 337 762 
125 602 121 644 457 
126 815 607 718 663 
127 387 474 439 134 
128 453 790 360 713 
129 381 380 114 8 
130 711 382 112 111 
131 629 252 778 630 
132 338 469 431 779 
133 478 108 6 439 
134 478 415 109 108 
135 129 451 728 399 
136 381 8 113 692 
137 759 477 765 174 
138 590 726 757 117 
139 537 150 536 466 
140 670 550 760 157 
141 434 135 7 383 
142 553 659 315 749 
143 39 700 813 38 
144 366 726 590 738 
145 605 411 745 733 
146 472 412 380 410 
147 427 395 128 415 
148 116 399 781 118 
149 376 728 451 735 
150 480 473 567 268 
151 393 644 437 693 
152 445 656 802 481 
153 577 762 337 697 
154 374 414 591 457 
155 427 793 378 487 
156 271 472 410 475 
157 66 67 150 538 
158 628 43 126 835 
159 729 139 763 467 
160 10 599 810 9 
161 612 734 423 751 
162 804 470 772 178 
163 733 327 823 605 
164 735 451 412 736 
165 721 435 464 694 
166 437 644 121 701 
167 426 489 818 579 
168 552 553 658 409 
169 200 501 502 198 
170 505 767 430 785 
171 176 756 610 755 
172 142 789 456 806 
173 772 586 797 178 
174 576 577 697 704 
175 835 703 754 623 
176 448 540 120 724 
177 407 696 702 499 
178 747 328 805 785 
179 816 375 817 667 
180 677 394 409 658 
181 744 561 562 563 
182 294 691 796 532 
183 152 548 549 551 
184 363 396 741 539 
185 782 792 440 465 
186 608 266 665 609 
187 498 500 501 335 
188 392 687 266 608 
189 140 562 92 93 
190 821 461 748 699 
191 523 508 795 425 
192 548 152 760 550 
193 448 770 153 540 
194 287 290 769 524 
195 444 698 238 722 
196 472 271 229 674 
197 239 695 459 490 
198 576 690 564 575 
199 118 160 357 159 
200 126 825 479 462 
201 596 595 741 398 
202 575 564 140 578 
203 624 626 768 145 
204 562 560 91 92 
205 373 488 288 286 
206 122 484 485 482 
207 661 649 754 463 
208 204 208 335 202 
209 145 627 621 624 
210 148 12 13 525 
211 562 140 564 563 
212 409 710 836 552 
213 305 531 310 307 
214 183 782 465 788 
215 744 566 559 561 
216 469 395 427 431 
217 672 326 580 588 
218 570 686 222 535 
219 566 557 558 559 
220 499 273 826 407 
221 690 576 704 325 
222 497 212 231 273 
223 522 151 597 601 
224 556 555 544 545 
225 149 541 558 542 
226 136 503 505 504 
227 552 549 659 553 
228 499 498 497 273 
229 335 208 497 498 
230 236 642 401 657 
231 216 569 225 218 
232 491 647 210 392 
233 716 316 312 530 
234 496 373 286 284 
235 776 148 794 600 
236 347 295 293 292 
237 509 508 523 510 
238 234 534 570 535 
239 507 508 509 132 
240 575 574 577 576 
241 282 280 495 360 
242 329 377 379 351 
243 338 303 301 486 
244 243 650 388 241 
245 503 136 72 73 
246 572 146 74 75 
247 317 329 351 319 
248 141 573 95 96 
249 507 15 16 147 
250 560 133 90 91 
251 578 140 93 94 
252 473 480 723 386 
253 488 292 291 288 
254 558 541 90 133 
255 590 117 47 589 
256 312 316 317 314 
257 14 132 525 13 
258 530 312 311 310 
259 647 491 455 356 
260 545 544 543 542 
261 495 280 279 277 
262 136 571 71 72 
263 497 208 211 212 
264 601 597 158 598 
265 255 336 606 592 
266 252 629 618 653 
267 536 150 67 68 
268 540 153 26 27 
269 584 582 592 606 
270 609 743 755 610 
271 501 200 202 335 
272 583 586 772 585 
273 282 360 790 496 
274 94 95 573 578 
275 606 336 603 604 
276 28 29 593 120 
277 310 531 779 530 
278 538 119 65 66 
279 146 503 73 74 
280 464 297 295 694 
281 581 580 250 269 
282 132 14 15 507 
283 585 581 582 583 
284 216 376 735 569 
285 326 248 250 580 
286 475 272 265 271 
287 555 547 546 544 
288 123 536 68 69 
289 432 389 388 390 
290 630 631 616 629 
291 210 647 333 260 
292 558 133 560 559 
293 234 533 433 534 
294 455 418 349 356 
295 120 540 27 28 
296 512 511 509 510 
297 119 595 64 65 
298 124 594 30 31 
299 317 487 378 329 
300 488 373 761 731 
301 554 88 89 149 
302 635 634 62 125 
303 487 716 431 427 
304 144 60 61 637 
305 567 231 267 268 
306 359 227 226 225 
307 154 591 590 589 
308 187 643 192 189 
309 149 89 90 541 
310 101 102 597 151 
311 608 609 610 492 
312 392 608 492 491 
313 235 237 389 533 
314 580 581 585 588 
315 629 616 617 618 
316 746 477 759 442 
317 154 589 47 48 
318 143 654 33 34 
319 594 422 800 593 
320 803 586 583 587 
321 336 257 324 603 
322 48 49 602 154 
323 594 593 29 30 
324 596 125 62 63 
325 31 32 611 124 
326 587 583 582 584 
327 595 596 63 64 
328 324 411 605 603 
329 307 310 311 309 
330 209 259 350 675 
331 446 482 485 483 
332 535 224 233 234 
333 745 411 324 366 
334 614 615 617 616 
335 638 639 640 144 
336 158 597 102 103 
337 389 237 241 388 
338 121 602 49 50 
339 496 284 283 282 
340 666 527 526 521 
341 297 296 293 295 
342 62 634 637 61 
343 640 59 60 144 
344 645 142 53 54 
345 349 333 647 356 
346 621 622 648 619 
347 155 645 54 55 
348 687 392 210 206 
349 432 433 533 389 
350 144 637 636 638 
351 650 243 245 246 
352 326 246 247 248 
353 197 665 266 199 
354 549 548 546 547 
355 255 592 269 253 
356 204 207 211 208 
357 269 250 251 253 
358 627 623 622 621 
359 574 575 578 573 
360 635 636 637 634 
361 619 648 653 618 
362 400 330 657 401 
363 21 22 656 137 
364 336 255 256 257 
365 614 613 632 615 
366 32 33 654 611 
367 299 298 296 297 
368 542 543 554 149 
369 516 519 520 517 
370 533 234 233 235 
371 465 440 349 418 
372 559 560 562 561 
373 620 625 626 624 
374 452 194 195 240 
375 618 617 620 619 
376 248 249 251 250 
377 619 620 624 621 
378 314 313 311 312 
379 301 300 298 299 
380 612 611 654 613 
381 257 323 365 324 
382 246 326 672 650 
383 555 659 549 547 
384 322 362 436 361 
385 581 269 592 582 
386 680 685 156 633 
387 253 254 256 255 
388 260 333 334 332 
389 143 632 613 654 
390 458 459 695 429 
391 303 302 300 301 
392 194 193 196 195 
393 751 423 421 422 
394 271 265 264 229 
395 276 275 274 272 
396 503 146 767 505 
397 463 462 413 367 
398 651 322 270 196 
399 323 367 413 365 
400 333 349 655 334 
401 361 353 270 322 
402 218 225 226 220 
403 338 305 304 303 
404 414 374 339 342 
405 516 515 514 513 
406 263 262 191 192 
407 280 282 283 281 
408 502 167 197 198 
409 644 393 374 457 
410 445 446 698 444 
411 212 230 267 231 
412 617 615 625 620 
413 375 364 363 344 
414 655 344 343 334 
415 461 459 458 460 
416 246 245 261 247 
417 194 190 191 193 
418 380 381 447 410 
419 542 558 557 545 
420 319 318 314 317 
421 34 35 685 143 
422 192 191 190 189 
423 159 5 116 118 
424 353 354 660 270 
425 397 396 363 364 
426 235 236 657 237 
427 452 664 190 194 
428 391 343 344 363 
429 664 188 189 190 
430 189 188 186 187 
431 330 400 420 346 
432 651 196 193 662 
433 185 184 183 182 
434 463 367 323 661 
435 512 513 514 511 
436 241 242 244 243 
437 195 660 476 240 
438 257 256 661 323 
439 429 350 385 428 
440 196 270 660 195 
441 180 181 177 179 
442 639 641 712 640 
443 254 258 661 256 
444 815 663 184 185 
445 241 237 657 242 
446 286 285 283 284 
447 527 528 809 526 
448 510 532 796 512 
449 193 191 262 662 
450 288 287 285 286 
451 200 198 197 199 
452 173 175 177 176 
453 626 625 680 633 
454 259 331 385 350 
455 376 216 215 214 
456 129 399 116 115 
457 482 446 445 481 
458 734 631 833 423 
459 210 260 331 259 
460 711 111 7 135 
461 244 242 657 330 
462 473 386 351 379 
463 229 227 359 674 
464 685 680 632 143 
465 390 388 650 672 
466 186 184 663 187 
467 787 105 5 159 
468 320 369 371 368 
469 169 171 173 172 
470 227 229 264 228 
471 588 471 390 672 
472 202 200 199 201 
473 708 554 543 670 
474 652 214 213 163 
475 420 421 668 346 
476 206 210 259 209 
477 374 393 676 339 
478 276 277 278 275 
479 535 222 223 224 
480 371 369 723 416 
481 160 161 163 162 
482 459 461 821 490 
483 291 290 287 288 
484 777 378 793 478 
485 243 244 668 245 
486 166 170 169 168 
487 598 600 794 518 
488 307 306 304 305 
489 207 204 203 205 
490 436 362 693 437 
491 632 680 625 615 
492 204 202 201 203 
493 394 370 493 408 
494 334 343 671 332 
495 544 546 670 543 
496 128 383 7 110 
497 164 166 167 165 
498 166 168 197 167 
499 203 206 209 205 
500 292 293 337 291 
501 330 346 668 244 
502 524 289 285 287 
503 651 662 262 676 
504 319 320 321 318 
505 341 403 443 406 
506 218 217 215 216 
507 260 332 671 331 
508 563 564 690 565 
509 238 223 222 221 
510 220 219 217 218 
511 263 339 676 262 
512 482 481 802 122 
513 156 685 35 36 
514 721 694 295 347 
515 277 279 355 278 
516 658 313 314 677 
517 416 417 568 371 
518 320 368 370 321 
519 548 550 670 546 
520 235 233 688 236 
521 317 316 716 487 
522 404 345 681 405 
523 115 114 380 129 
524 162 163 213 164 
525 69 70 727 123 
526 351 386 320 319 
527 474 387 454 725 
528 228 264 345 341 
529 393 693 651 676 
530 314 318 321 677 
531 132 509 673 525 
532 341 345 404 403 
533 450 358 424 426 
534 110 109 415 128 
535 214 652 728 376 
536 224 232 688 233 
537 107 134 439 6 
538 509 511 514 673 
539 379 377 777 474 
540 370 394 677 321 
541 272 274 681 265 
542 528 717 97 98 
543 278 355 424 358 
544 695 239 207 675 
545 187 663 718 643 
546 290 291 337 666 
547 172 689 168 169 
548 219 220 669 221 
549 207 205 209 675 
550 665 197 168 689 
551 525 673 794 148 
552 711 438 419 382 
553 384 407 454 387 
554 527 529 717 528 
555 443 444 722 406 
556 280 281 682 279 
557 221 222 686 219 
558 451 129 380 412 
559 112 127 692 113 
560 814 447 819 713 
561 441 170 166 678 
562 265 681 345 264 
563 112 382 419 127 
564 322 651 693 362 
565 425 355 279 682 
566 227 228 684 226 
567 493 370 368 679 
568 275 278 358 683 
569 88 554 708 87 
570 199 266 687 201 
571 166 164 213 678 
572 283 294 682 281 
573 107 384 387 134 
574 206 203 201 687 
575 368 371 568 679 
576 653 715 251 252 
577 679 568 780 138 
578 340 217 219 686 
579 272 475 814 276 
580 742 570 534 746 
581 406 684 228 341 
582 296 697 337 293 
583 220 226 684 669 
584 498 499 702 500 
585 419 453 692 127 
586 350 429 695 675 
587 285 691 294 283 
588 207 239 709 211 
589 324 365 726 366 
590 363 539 842 391 
591 50 51 701 121 
592 613 614 734 612 
593 18 19 763 139 
594 217 340 707 215 
595 167 502 730 165 
596 611 612 751 124 
597 433 432 765 477 
598 828 402 837 476 
599 59 640 712 58 
600 75 76 780 572 
601 231 567 826 273 
602 192 327 733 263 
603 300 325 704 298 
604 22 23 802 656 
605 357 160 162 730 
606 414 738 590 591 
607 434 435 711 135 
608 390 471 772 470 
609 51 52 806 701 
610 24 25 774 122 
611 464 831 299 297 
612 151 706 100 101 
613 627 628 835 623 
614 96 97 717 141 
615 82 83 760 152 
616 468 705 403 404 
617 212 211 709 230 
618 773 766 418 455 
619 298 704 697 296 
620 358 450 714 683 
621 394 408 710 409 
622 732 636 635 839 
623 275 683 714 274 
624 441 678 213 707 
625 214 215 707 213 
626 401 642 775 449 
627 253 251 715 254 
628 785 430 416 747 
629 18 579 818 17 
630 12 148 776 11 
631 427 415 478 793 
632 177 181 756 176 
633 524 516 513 719 
634 606 604 823 607 
635 450 729 405 714 
636 338 486 739 469 
637 744 306 791 566 
638 192 643 718 327 
639 41 145 768 40 
640 818 489 795 147 
641 446 483 737 698 
642 553 749 313 658 
643 421 420 800 422 
644 185 587 584 815 
645 602 457 591 154 
646 598 518 783 601 
647 437 701 806 456 
648 429 428 752 458 
649 366 738 414 745 
650 373 496 790 761 
651 397 398 741 396 
652 303 304 720 302 
653 588 585 772 471 
654 473 379 474 725 
655 274 714 405 681 
656 529 577 574 822 
657 300 302 720 325 
658 528 98 99 809 
659 173 171 759 174 
660 494 79 80 830 
661 555 556 308 820 
662 47 117 829 46 
663 664 452 816 667 
664 184 186 782 183 
665 406 722 669 684 
666 320 386 723 369 
667 251 249 778 252 
668 809 130 798 526 
669 401 448 724 400 
670 746 442 441 742 
671 441 442 759 170 
672 506 699 748 504 
673 598 158 810 599 
674 416 430 767 417 
675 104 1 9 810 
676 85 4 86 811 
677 479 825 44 45 
678 56 3 57 812 
679 37 2 38 813 
680 630 778 247 261 
681 641 840 645 155 
682 223 238 698 737 
683 630 261 833 631 
684 361 436 789 764 
685 633 156 813 700 
686 474 777 478 439 
687 221 669 722 238 
688 587 185 182 803 
689 514 515 783 518 
690 679 138 786 493 
691 571 727 70 71 
692 787 740 500 702 
693 416 723 480 747 
694 404 467 763 468 
695 106 841 384 107 
696 601 783 517 522 
697 173 174 804 175 
698 539 741 595 119 
699 483 485 775 753 
700 502 501 500 740 
701 160 118 781 161 
702 516 524 769 519 
703 507 147 795 508 
704 466 536 123 752 
705 521 526 798 520 
706 360 495 814 713 
707 292 488 731 347 
708 301 348 739 486 
709 43 628 784 42 
710 355 425 795 424 
711 690 325 720 565 
712 307 309 820 308 
713 529 822 141 717 
714 125 402 828 635 
715 128 395 799 383 
716 225 569 735 359 
717 686 570 742 340 
718 404 405 729 467 
719 537 466 385 824 
720 616 631 734 614 
721 164 165 730 162 
722 449 775 485 484 
723 339 263 733 342 
724 557 566 791 843 
725 230 352 805 267 
726 365 413 757 726 
727 343 391 824 671 
728 523 425 682 771 
729 438 711 435 721 
730 412 472 674 736 
731 661 258 801 649 
732 347 731 438 721 
733 571 136 504 748 
734 692 453 713 819 
735 245 668 833 261 
736 567 454 407 826 
737 437 456 789 436 
738 77 78 786 138 
739 520 519 769 521 
740 477 746 534 433 
741 422 594 124 751 
742 579 750 450 426 
743 224 223 737 232 
744 735 736 674 359 
745 824 391 842 537 
746 18 139 750 579 
747 304 306 744 720 
748 733 745 414 342 
749 340 742 441 707 
750 609 665 689 743 
751 410 447 814 475 
752 510 523 771 532 
753 492 610 756 773 
754 689 172 755 743 
755 268 328 747 480 
756 622 649 801 648 
757 483 753 232 737 
758 349 440 817 655 
759 692 819 447 381 
760 649 622 623 754 
761 313 749 315 311 
762 305 338 779 531 
763 385 466 752 428 
764 660 354 828 476 
765 462 479 757 413 
766 176 755 172 173 
767 494 786 78 79 
768 157 760 83 84 
769 417 767 146 572 
770 577 529 527 762 
771 607 823 327 718 
772 403 705 807 443 
773 390 470 765 432 
774 169 170 759 171 
775 563 565 720 744 
776 468 763 19 20 
777 329 378 777 377 
778 353 361 764 372 
779 105 696 841 106 
780 152 551 81 82 
781 145 41 42 784 
782 462 463 754 703 
783 731 761 419 438 
784 491 492 773 455 
785 700 39 40 768 
786 180 788 766 181 
787 353 732 839 354 
788 401 449 770 448 
789 81 551 836 131 
790 277 276 814 495 
791 153 774 25 26 
792 163 161 781 652 
793 598 599 776 600 
794 521 769 290 666 
795 764 646 840 758 
796 599 10 11 776 
797 398 402 125 596 
798 504 505 785 506 
799 468 137 807 705 
800 100 706 798 130 
801 248 247 778 249 
802 138 780 76 77 
803 740 787 159 357 
804 119 538 842 539 
805 87 708 811 86 
806 145 784 628 627 
807 633 700 768 626 
808 532 771 682 294 
809 513 512 796 719 
810 139 729 450 750 
811 764 789 142 646 
812 606 607 815 584 
813 186 188 792 782 
814 516 517 783 515 
815 236 688 775 642 
816 150 537 842 538 
817 344 655 817 375 
818 182 183 788 180 
819 408 494 830 710 
820 664 667 792 188 
821 58 712 812 57 
822 408 493 786 494 
823 399 728 652 781 
824 444 443 807 445 
825 232 753 775 688 
826 752 123 727 827 
827 352 506 785 805 
828 307 308 791 306 
829 100 130 809 99 
830 178 797 179 177 
831 839 635 828 354 
832 400 724 800 420 
833 122 802 23 24 
834 761 790 453 419 
835 105 787 702 696 
836 573 141 822 574 
837 426 424 795 489 
838 398 397 837 402 
839 549 552 836 551 
840 586 803 179 797 
841 142 806 52 53 
842 348 808 799 739 
843 517 520 798 522 
844 301 299 831 348 
845 445 807 137 656 
846 180 179 803 182 
847 518 794 673 514 
848 177 175 804 178 
849 254 715 801 258 
850 103 104 810 158 
851 84 85 811 157 
852 147 16 17 818 
853 240 832 816 452 
854 55 56 812 155 
855 36 37 813 156 
856 838 372 764 758 
857 648 801 715 653 
858 81 131 830 80 
859 639 758 840 641 
860 151 522 798 706 
861 836 710 830 131 
862 435 434 808 464 
863 268 267 805 328 
864 506 352 821 699 
865 230 709 821 352 
866 285 289 796 691 
867 364 832 837 397 
868 545 557 843 556 
869 603 605 823 604 
870 43 44 825 126 
871 758 639 638 838 
872 479 45 46 829 
873 311 315 820 309 
874 670 157 811 708 
875 353 372 838 732 
876 752 827 460 458 
877 142 645 840 646 
878 524 719 796 289 
879 240 476 837 832 
880 641 155 812 712 
881 423 833 668 421 
882 331 671 824 385 
883 407 384 841 696 
884 766 773 756 181 
885 593 800 724 120 
886 239 490 821 709 
887 364 375 816 832 
888 449 484 834 770 
889 469 739 799 395 
890 571 460 827 727 
891 462 703 835 126 
892 418 766 788 465 
893 174 765 470 804 
894 117 757 479 829 
895 122 774 834 484 
896 636 732 838 638 
897 774 153 770 834 
898 383 799 808 434 
899 440 792 667 817 
900 464 808 348 831 
901 556 843 791 308 
$EndElements
