$MeshFormat
4.1 0 8
$EndMeshFormat
$PhysicalNames
5
1 2 "bottom"
1 3 "right"
1 4 "top"
1 5 "left"
2 1 "domain"
$EndPhysicalNames
$Entities
4 4 1 0
1 -5000 0 0 0 
2 5000 0 0 0 
3 5000 10000 0 0 
4 -5000 10000 0 0 
1 -5000 0 0 5000 0 0 1 2 2 1 -2 
2 5000 0 0 5000 10000 0 1 3 2 2 -3 
3 -5000 10000 0 5000 10000 0 1 4 2 3 -4 
4 -5000 0 0 -5000 10000 0 1 5 2 4 -1 
1 -5000 0 0 5000 10000 0 1 1 4 1 2 3 4 
$EndEntities
$Nodes
9 121 1 121
0 1 0 1
1
-5000 0 0
0 2 0 1
2
5000 0 0
0 3 0 1
3
5000 10000 0
0 4 0 1
4
-5000 10000 0
1 1 0 9
5
6
7
8
9
10
11
12
13
-4000.000000003498 0 0
-3000.000000006322 0 0
-2000.000000006055 0 0
-1000.00000000547 0 0
-8.792085282038897e-09 0 0
999.9999999961647 0 0
2000.000000001299 0 0
3000.000000006431 0 0
4000.000000003962 0 0
1 2 0 9
14
15
16
17
18
19
20
21
22
5000 999.9999999994186 0
5000 1999.999999997767 0
5000 2999.999999997659 0
5000 3999.999999997709 0
5000 4999.999999993852 0
5000 5999.999999998279 0
5000 7000.000000002883 0
5000 8000.000000007489 0
5000 9000.000000004491 0
1 3 0 9
23
24
25
26
27
28
29
30
31
4000.000000003498 10000 0
3000.000000006322 10000 0
2000.000000006055 10000 0
1000.00000000547 10000 0
8.792085282038897e-09 10000 0
-999.9999999961647 10000 0
-2000.000000001299 10000 0
-3000.000000006431 10000 0
-4000.000000003962 10000 0
1 4 0 9
32
33
34
35
36
37
38
39
40
-5000 9000.000000002876 0
-5000 8000.000000005753 0
-5000 7000.000000008627 0
-5000 6000.000000011501 0
-5000 5000.000000014196 0
-5000 4000.000000008159 0
-5000 3000.000000001945 0
-5000 1999.999999995731 0
-5000 999.9999999971205 0
2 1 0 81
41
42
43
44
45
46
47
48
49
50
51
52
53
54
55
56
57
58
59
60
61
62
63
64
65
66
67
68
69
70
71
72
73
74
75
76
77
78
79
80
81
82
83
84
85
86
87
88
89
90
91
92
93
94
95
96
97
98
99
100
101
102
103
104
105
106
107
108
109
110
111
112
113
114
115
116
117
118
119
120
121
-4000.000000003544 999.9999999973503 0
-4000.00000000359 1999.999999995934 0
-4000.000000003638 3000.000000001517 0
-4000.000000003684 4000.000000007115 0
-4000.00000000373 5000.000000012161 0
-4000.000000003775 6000.000000010178 0
-4000.000000003823 7000.000000008053 0
-4000.000000003868 8000.000000005927 0
-4000.000000003915 9000.000000003036 0
-3000.000000006332 999.9999999975801 0
-3000.000000006344 1999.999999996138 0
-3000.000000006355 3000.000000001089 0
-3000.000000006366 4000.000000006068 0
-3000.000000006376 5000.000000010127 0
-3000.000000006387 6000.000000008858 0
-3000.000000006398 7000.000000007478 0
-3000.000000006409 8000.000000006102 0
-3000.00000000642 9000.0000000032 0
-2000.00000000558 999.9999999978099 0
-2000.000000005104 1999.999999996342 0
-2000.000000004629 3000.00000000066 0
-2000.000000004152 4000.000000005024 0
-2000.000000003677 5000.000000008094 0
-2000.000000003201 6000.000000007534 0
-2000.000000002726 7000.000000006906 0
-2000.00000000225 8000.000000006274 0
-2000.000000001774 9000.00000000336 0
-1000.000000004539 999.9999999980398 0
-1000.000000003609 1999.999999996545 0
-1000.000000002678 3000.00000000023 0
-1000.000000001747 4000.000000003979 0
-1000.000000000817 5000.00000000606 0
-999.9999999998869 6000.000000006213 0
-999.9999999989564 7000.00000000633 0
-999.9999999980255 8000.000000006448 0
-999.9999999970946 9000.000000003522 0
-7.033668225634161e-09 999.9999999982697 0
-5.275251169229055e-09 1999.999999996749 0
-3.516834112815906e-09 2999.999999999802 0
-1.75841705640262e-09 4000.000000002934 0
7.077357321003705e-21 5000.000000004023 0
1.758417056416378e-09 6000.000000004889 0
3.516834112825678e-09 7000.000000005755 0
5.275251169234981e-09 8000.000000006621 0
7.033668225637595e-09 9000.000000003683 0
999.999999997095 999.9999999984993 0
999.9999999980253 1999.999999996953 0
999.9999999989557 2999.999999999374 0
999.9999999998864 4000.000000001888 0
1000.000000000817 5000.000000001989 0
1000.000000001748 6000.000000003568 0
1000.000000002678 7000.000000005181 0
1000.000000003609 8000.000000006795 0
1000.000000004539 9000.000000003847 0
2000.000000001774 999.9999999987292 0
2000.000000002249 1999.999999997156 0
2000.000000002726 2999.999999998945 0
2000.000000003201 4000.000000000844 0
2000.000000003677 4999.999999999955 0
2000.000000004153 6000.000000002246 0
2000.000000004628 7000.000000004606 0
2000.000000005104 8000.000000006969 0
2000.00000000558 9000.000000004007 0
3000.000000006419 999.9999999989591 0
3000.000000006409 1999.99999999736 0
3000.000000006398 2999.999999998516 0
3000.000000006389 3999.999999999799 0
3000.000000006376 4999.999999997922 0
3000.000000006366 6000.000000000924 0
3000.000000006356 7000.000000004031 0
3000.000000006345 8000.000000007141 0
3000.000000006334 9000.000000004167 0
4000.000000003916 999.9999999991887 0
4000.000000003868 1999.999999997563 0
4000.000000003823 2999.999999998088 0
4000.000000003777 3999.999999998754 0
4000.000000003729 4999.999999995886 0
4000.000000003682 5999.999999999603 0
4000.000000003637 7000.000000003456 0
4000.000000003591 8000.000000007316 0
4000.000000003545 9000.000000004327 0
$EndNodes
$Elements
5 140 1 140
1 1 1 10
1 1 5 
2 5 6 
3 6 7 
4 7 8 
5 8 9 
6 9 10 
7 10 11 
8 11 12 
9 12 13 
10 13 2 
1 2 1 10
11 2 14 
12 14 15 
13 15 16 
14 16 17 
15 17 18 
16 18 19 
17 19 20 
18 20 21 
19 21 22 
20 22 3 
1 3 1 10
21 3 23 
22 23 24 
23 24 25 
24 25 26 
25 26 27 
26 27 28 
27 28 29 
28 29 30 
29 30 31 
30 31 4 
1 4 1 10
31 4 32 
32 32 33 
33 33 34 
34 34 35 
35 35 36 
36 36 37 
37 37 38 
38 38 39 
39 39 40 
40 40 1 
2 1 3 100
41 1 5 41 40 
42 40 41 42 39 
43 39 42 43 38 
44 38 43 44 37 
45 37 44 45 36 
46 36 45 46 35 
47 35 46 47 34 
48 34 47 48 33 
49 33 48 49 32 
50 32 49 31 4 
51 5 6 50 41 
52 41 50 51 42 
53 42 51 52 43 
54 43 52 53 44 
55 44 53 54 45 
56 45 54 55 46 
57 46 55 56 47 
58 47 56 57 48 
59 48 57 58 49 
60 49 58 30 31 
61 6 7 59 50 
62 50 59 60 51 
63 51 60 61 52 
64 52 61 62 53 
65 53 62 63 54 
66 54 63 64 55 
67 55 64 65 56 
68 56 65 66 57 
69 57 66 67 58 
70 58 67 29 30 
71 7 8 68 59 
72 59 68 69 60 
73 60 69 70 61 
74 61 70 71 62 
75 62 71 72 63 
76 63 72 73 64 
77 64 73 74 65 
78 65 74 75 66 
79 66 75 76 67 
80 67 76 28 29 
81 8 9 77 68 
82 68 77 78 69 
83 69 78 79 70 
84 70 79 80 71 
85 71 80 81 72 
86 72 81 82 73 
87 73 82 83 74 
88 74 83 84 75 
89 75 84 85 76 
90 76 85 27 28 
91 9 10 86 77 
92 77 86 87 78 
93 78 87 88 79 
94 79 88 89 80 
95 80 89 90 81 
96 81 90 91 82 
97 82 91 92 83 
98 83 92 93 84 
99 84 93 94 85 
100 85 94 26 27 
101 10 11 95 86 
102 86 95 96 87 
103 87 96 97 88 
104 88 97 98 89 
105 89 98 99 90 
106 90 99 100 91 
107 91 100 101 92 
108 92 101 102 93 
109 93 102 103 94 
110 94 103 25 26 
111 11 12 104 95 
112 95 104 105 96 
113 96 105 106 97 
114 97 106 107 98 
115 98 107 108 99 
116 99 108 109 100 
117 100 109 110 101 
118 101 110 111 102 
119 102 111 112 103 
120 103 112 24 25 
121 12 13 113 104 
122 104 113 114 105 
123 105 114 115 106 
124 106 115 116 107 
125 107 116 117 108 
126 108 117 118 109 
127 109 118 119 110 
128 110 119 120 111 
129 111 120 121 112 
130 112 121 23 24 
131 13 2 14 113 
132 113 14 15 114 
133 114 15 16 115 
134 115 16 17 116 
135 116 17 18 117 
136 117 18 19 118 
137 118 19 20 119 
138 119 20 21 120 
139 120 21 22 121 
140 121 22 3 23 
$EndElements
