$MeshFormat
2.2 0 8
$EndMeshFormat
$PhysicalNames
6
2 1 "panel1"
2 2 "panel2"
2 3 "panel3"
2 4 "panel4"
2 5 "panel5"
2 6 "panel6"
$EndPhysicalNames
$Nodes
602
1 3678298.5650071059 -3678298.5650071055 -3678298.5650071055
2 4007105.2408088949 -2911332.3716408247 -4007105.2408088939
3 4238286.0702980841 -2159514.6150546079 -4238286.0702980831
4 4390585.8487823065 -1426587.820270844 -4390585.8487823056
5 4476987.7805022327 -709085.20395463402 -4476987.7805022327
6 4504977.3029394951 0 -4504977.3029394941
7 4476987.7805022327 709085.20395463402 -4476987.7805022327
8 4390585.8487823065 1426587.820270844 -4390585.8487823056
9 4238286.0702980841 2159514.6150546079 -4238286.0702980831
10 4007105.2408088949 2911332.3716408247 -4007105.2408088939
11 3678298.5650071059 3678298.5650071055 -3678298.5650071055
12 4007105.2408088949 -4007105.2408088939 -2911332.3716408247
13 4443495.7586238952 -3228388.6416517035 -3228388.6416517035
14 4765264.17274768 -2428023.369578959 -3462167.0786814741
15 4984899.7651220998 -1619692.1174349585 -3621741.6772051398
16 5112448.1194013767 -809732.2340796151 -3714410.9809661293
17 5154247.2711627902 0 -3744779.8423553463
18 5112448.1194013767 809732.2340796151 -3714410.9809661293
19 4984899.7651220998 1619692.1174349585 -3621741.6772051398
20 4765264.17274768 2428023.369578959 -3462167.0786814741
21 4443495.7586238952 3228388.6416517035 -3228388.6416517035
22 4007105.2408088949 4007105.2408088939 -2911332.3716408247
23 4238286.0702980841 -4238286.0702980831 -2159514.6150546079
24 4765264.17274768 -3462167.0786814741 -2428023.369578959
25 5168868.7297930196 -2633670.1629254855 -2633670.1629254855
26 5452695.1289763385 -1771688.0449576394 -2778286.9365477511
27 5620907.4726077449 -890264.28416498145 -2863995.4065470551
28 5676602.5656040916 0 -2892373.473840653
29 5620907.4726077449 890264.28416498145 -2863995.4065470551
30 5452695.1289763385 1771688.0449576394 -2778286.9365477511
31 5168868.7297930196 2633670.1629254855 -2633670.1629254855
32 4765264.17274768 3462167.0786814741 -2428023.369578959
33 4238286.0702980841 4238286.0702980831 -2159514.6150546079
34 4390585.8487823065 -4390585.8487823056 -1426587.820270844
35 4984899.7651220998 -3621741.6772051398 -1619692.1174349585
36 5452695.1289763385 -2778286.9365477511 -1771688.0449576394
37 5789078.3044401519 -1880985.5641472023 -1880985.5641472023
38 5991587.2870602347 -948974.19911664189 -1946784.7212645544
39 6059181.0653164238 0 -1968747.2711627898
40 5991587.2870602347 948974.19911664189 -1946784.7212645544
41 5789078.3044401519 1880985.5641472023 -1880985.5641472023
42 5452695.1289763385 2778286.9365477511 -1771688.0449576394
43 4984899.7651220998 3621741.6772051398 -1619692.1174349585
44 4390585.8487823065 4390585.8487823056 -1426587.820270844
45 4476987.7805022327 -4476987.7805022327 -709085.20395463402
46 5112448.1194013767 -3714410.9809661293 -809732.2340796151
47 5620907.4726077449 -2863995.4065470551 -890264.28416498145
48 5991587.2870602347 -1946784.7212645544 -948974.19911664189
49 6216952.372612047 -984668.52206045692 -984668.52206045692
50 6292562.4179316228 0 -996643.97677131079
51 6216952.372612047 984668.52206045692 -984668.52206045692
52 5991587.2870602347 1946784.7212645544 -948974.19911664189
53 5620907.4726077449 2863995.4065470551 -890264.28416498145
54 5112448.1194013767 3714410.9809661293 -809732.2340796151
55 4476987.7805022327 4476987.7805022327 -709085.20395463402
56 4504977.3029394951 -4504977.3029394941 0
57 5154247.2711627902 -3744779.8423553463 0
58 5676602.5656040916 -2892373.473840653 0
59 6059181.0653164238 -1968747.2711627898 0
60 6292562.4179316228 -996643.97677131079 0
61 6371000 0 0
62 6292562.4179316228 996643.97677131079 0
63 6059181.0653164238 1968747.2711627898 0
64 5676602.5656040916 2892373.473840653 0
65 5154247.2711627902 3744779.8423553463 0
66 4504977.3029394951 4504977.3029394941 0
67 4476987.7805022327 -4476987.7805022327 709085.20395463402
68 5112448.1194013767 -3714410.9809661293 809732.2340796151
69 5620907.4726077449 -2863995.4065470551 890264.28416498145
70 5991587.2870602347 -1946784.7212645544 948974.19911664189
71 6216952.372612047 -984668.52206045692 984668.52206045692
72 6292562.4179316228 0 996643.97677131079
73 6216952.372612047 984668.52206045692 984668.52206045692
74 5991587.2870602347 1946784.7212645544 948974.19911664189
75 5620907.4726077449 2863995.4065470551 890264.28416498145
76 5112448.1194013767 3714410.9809661293 809732.2340796151
77 4476987.7805022327 4476987.7805022327 709085.20395463402
78 4390585.8487823065 -4390585.8487823056 1426587.820270844
79 4984899.7651220998 -3621741.6772051398 1619692.1174349585
80 5452695.1289763385 -2778286.9365477511 1771688.0449576394
81 5789078.3044401519 -1880985.5641472023 1880985.5641472023
82 5991587.2870602347 -948974.19911664189 1946784.7212645544
83 6059181.0653164238 0 1968747.2711627898
84 5991587.2870602347 948974.19911664189 1946784.7212645544
85 5789078.3044401519 1880985.5641472023 1880985.5641472023
86 5452695.1289763385 2778286.9365477511 1771688.0449576394
87 4984899.7651220998 3621741.6772051398 1619692.1174349585
88 4390585.8487823065 4390585.8487823056 1426587.820270844
89 4238286.0702980841 -4238286.0702980831 2159514.6150546079
90 4765264.17274768 -3462167.0786814741 2428023.369578959
91 5168868.7297930196 -2633670.1629254855 2633670.1629254855
92 5452695.1289763385 -1771688.0449576394 2778286.9365477511
93 5620907.4726077449 -890264.28416498145 2863995.4065470551
94 5676602.5656040916 0 2892373.473840653
95 5620907.4726077449 890264.28416498145 2863995.4065470551
96 5452695.1289763385 1771688.0449576394 2778286.9365477511
97 5168868.7297930196 2633670.1629254855 2633670.1629254855
98 4765264.17274768 3462167.0786814741 2428023.369578959
99 4238286.0702980841 4238286.0702980831 2159514.6150546079
100 4007105.2408088949 -4007105.2408088939 2911332.3716408247
101 4443495.7586238952 -3228388.6416517035 3228388.6416517035
102 4765264.17274768 -2428023.369578959 3462167.0786814741
103 4984899.7651220998 -1619692.1174349585 3621741.6772051398
104 5112448.1194013767 -809732.2340796151 3714410.9809661293
105 5154247.2711627902 0 3744779.8423553463
106 5112448.1194013767 809732.2340796151 3714410.9809661293
107 4984899.7651220998 1619692.1174349585 3621741.6772051398
108 4765264.17274768 2428023.369578959 3462167.0786814741
109 4443495.7586238952 3228388.6416517035 3228388.6416517035
110 4007105.2408088949 4007105.2408088939 2911332.3716408247
111 3678298.5650071059 -3678298.5650071055 3678298.5650071055
112 4007105.2408088949 -2911332.3716408247 4007105.2408088939
113 4238286.0702980841 -2159514.6150546079 4238286.0702980831
114 4390585.8487823065 -1426587.820270844 4390585.8487823056
115 4476987.7805022327 -709085.20395463402 4476987.7805022327
116 4504977.3029394951 0 4504977.3029394941
117 4476987.7805022327 709085.20395463402 4476987.7805022327
118 4390585.8487823065 1426587.820270844 4390585.8487823056
119 4238286.0702980841 2159514.6150546079 4238286.0702980831
120 4007105.2408088949 2911332.3716408247 4007105.2408088939
121 3678298.5650071059 3678298.5650071055 3678298.5650071055
122 2911332.3716408247 4007105.2408088949 -4007105.2408088939
123 2159514.6150546079 4238286.0702980841 -4238286.0702980831
124 1426587.820270844 4390585.8487823065 -4390585.8487823056
125 709085.20395463402 4476987.7805022327 -4476987.7805022327
126 -0 4504977.3029394951 -4504977.3029394941
127 -709085.20395463402 4476987.7805022327 -4476987.7805022327
128 -1426587.820270844 4390585.8487823065 -4390585.8487823056
129 -2159514.6150546079 4238286.0702980841 -4238286.0702980831
130 -2911332.3716408247 4007105.2408088949 -4007105.2408088939
131 -3678298.5650071055 3678298.5650071059 -3678298.5650071055
132 3228388.6416517035 4443495.7586238952 -3228388.6416517035
133 2428023.369578959 4765264.17274768 -3462167.0786814741
134 1619692.1174349585 4984899.7651220998 -3621741.6772051398
135 809732.2340796151 5112448.1194013767 -3714410.9809661293
136 -0 5154247.2711627902 -3744779.8423553463
137 -809732.2340796151 5112448.1194013767 -3714410.9809661293
138 -1619692.1174349585 4984899.7651220998 -3621741.6772051398
139 -2428023.369578959 4765264.17274768 -3462167.0786814741
140 -3228388.6416517035 4443495.7586238952 -3228388.6416517035
141 -4007105.2408088939 4007105.2408088949 -2911332.3716408247
142 3462167.0786814741 4765264.17274768 -2428023.369578959
143 2633670.1629254855 5168868.7297930196 -2633670.1629254855
144 1771688.0449576394 5452695.1289763385 -2778286.9365477511
145 890264.28416498145 5620907.4726077449 -2863995.4065470551
146 -0 5676602.5656040916 -2892373.473840653
147 -890264.28416498145 5620907.4726077449 -2863995.4065470551
148 -1771688.0449576394 5452695.1289763385 -2778286.9365477511
149 -2633670.1629254855 5168868.7297930196 -2633670.1629254855
150 -3462167.0786814741 4765264.17274768 -2428023.369578959
151 -4238286.0702980831 4238286.0702980841 -2159514.6150546079
152 3621741.6772051398 4984899.7651220998 -1619692.1174349585
153 2778286.9365477511 5452695.1289763385 -1771688.0449576394
154 1880985.5641472023 5789078.3044401519 -1880985.5641472023
155 948974.19911664189 5991587.2870602347 -1946784.7212645544
156 -0 6059181.0653164238 -1968747.2711627898
157 -948974.19911664189 5991587.2870602347 -1946784.7212645544
158 -1880985.5641472023 5789078.3044401519 -1880985.5641472023
159 -2778286.9365477511 5452695.1289763385 -1771688.0449576394
160 -3621741.6772051398 4984899.7651220998 -1619692.1174349585
161 -4390585.8487823056 4390585.8487823065 -1426587.820270844
162 3714410.9809661293 5112448.1194013767 -809732.2340796151
163 2863995.4065470551 5620907.4726077449 -890264.28416498145
164 1946784.7212645544 5991587.2870602347 -948974.19911664189
165 984668.52206045692 6216952.372612047 -984668.52206045692
166 -0 6292562.4179316228 -996643.97677131079
167 -984668.52206045692 6216952.372612047 -984668.52206045692
168 -1946784.7212645544 5991587.2870602347 -948974.19911664189
169 -2863995.4065470551 5620907.4726077449 -890264.28416498145
170 -3714410.9809661293 5112448.1194013767 -809732.2340796151
171 -4476987.7805022327 4476987.7805022327 -709085.20395463402
172 3744779.8423553463 5154247.2711627902 0
173 2892373.473840653 5676602.5656040916 0
174 1968747.2711627898 6059181.0653164238 0
175 996643.97677131079 6292562.4179316228 0
176 -0 6371000 0
177 -996643.97677131079 6292562.4179316228 0
178 -1968747.2711627898 6059181.0653164238 0
179 -2892373.473840653 5676602.5656040916 0
180 -3744779.8423553463 5154247.2711627902 0
181 -4504977.3029394941 4504977.3029394951 0
182 3714410.9809661293 5112448.1194013767 809732.2340796151
183 2863995.4065470551 5620907.4726077449 890264.28416498145
184 1946784.7212645544 5991587.2870602347 948974.19911664189
185 984668.52206045692 6216952.372612047 984668.52206045692
186 -0 6292562.4179316228 996643.97677131079
187 -984668.52206045692 6216952.372612047 984668.52206045692
188 -1946784.7212645544 5991587.2870602347 948974.19911664189
189 -2863995.4065470551 5620907.4726077449 890264.28416498145
190 -3714410.9809661293 5112448.1194013767 809732.2340796151
191 -4476987.7805022327 4476987.7805022327 709085.20395463402
192 3621741.6772051398 4984899.7651220998 1619692.1174349585
193 2778286.9365477511 5452695.1289763385 1771688.0449576394
194 1880985.5641472023 5789078.3044401519 1880985.5641472023
195 948974.19911664189 5991587.2870602347 1946784.7212645544
196 -0 6059181.0653164238 1968747.2711627898
197 -948974.19911664189 5991587.2870602347 1946784.7212645544
198 -1880985.5641472023 5789078.3044401519 1880985.5641472023
199 -2778286.9365477511 5452695.1289763385 1771688.0449576394
200 -3621741.6772051398 4984899.7651220998 1619692.1174349585
201 -4390585.8487823056 4390585.8487823065 1426587.820270844
202 3462167.0786814741 4765264.17274768 2428023.369578959
203 2633670.1629254855 5168868.7297930196 2633670.1629254855
204 1771688.0449576394 5452695.1289763385 2778286.9365477511
205 890264.28416498145 5620907.4726077449 2863995.4065470551
206 -0 5676602.5656040916 2892373.473840653
207 -890264.28416498145 5620907.4726077449 2863995.4065470551
208 -1771688.0449576394 5452695.1289763385 2778286.9365477511
209 -2633670.1629254855 5168868.7297930196 2633670.1629254855
210 -3462167.0786814741 4765264.17274768 2428023.369578959
211 -4238286.0702980831 4238286.0702980841 2159514.6150546079
212 3228388.6416517035 4443495.7586238952 3228388.6416517035
213 2428023.369578959 4765264.17274768 3462167.0786814741
214 1619692.1174349585 4984899.7651220998 3621741.6772051398
215 809732.2340796151 5112448.1194013767 3714410.9809661293
216 -0 5154247.2711627902 3744779.8423553463
217 -809732.2340796151 5112448.1194013767 3714410.9809661293
218 -1619692.1174349585 4984899.7651220998 3621741.6772051398
219 -2428023.369578959 4765264.17274768 3462167.0786814741
220 -3228388.6416517035 4443495.7586238952 3228388.6416517035
221 -4007105.2408088939 4007105.2408088949 2911332.3716408247
222 2911332.3716408247 4007105.2408088949 4007105.2408088939
223 2159514.6150546079 4238286.0702980841 4238286.0702980831
224 1426587.820270844 4390585.8487823065 4390585.8487823056
225 709085.20395463402 4476987.7805022327 4476987.7805022327
226 -0 4504977.3029394951 4504977.3029394941
227 -709085.20395463402 4476987.7805022327 4476987.7805022327
228 -1426587.820270844 4390585.8487823065 4390585.8487823056
229 -2159514.6150546079 4238286.0702980841 4238286.0702980831
230 -2911332.3716408247 4007105.2408088949 4007105.2408088939
231 -3678298.5650071055 3678298.5650071059 3678298.5650071055
232 -4007105.2408088949 2911332.3716408247 -4007105.2408088939
233 -4238286.0702980841 2159514.6150546079 -4238286.0702980831
234 -4390585.8487823065 1426587.820270844 -4390585.8487823056
235 -4476987.7805022327 709085.20395463402 -4476987.7805022327
236 -4504977.3029394951 -0 -4504977.3029394941
237 -4476987.7805022327 -709085.20395463402 -4476987.7805022327
238 -4390585.8487823065 -1426587.820270844 -4390585.8487823056
239 -4238286.0702980841 -2159514.6150546079 -4238286.0702980831
240 -4007105.2408088949 -2911332.3716408247 -4007105.2408088939
241 -3678298.5650071059 -3678298.5650071055 -3678298.5650071055
242 -4443495.7586238952 3228388.6416517035 -3228388.6416517035
243 -4765264.17274768 2428023.369578959 -3462167.0786814741
244 -4984899.7651220998 1619692.1174349585 -3621741.6772051398
245 -5112448.1194013767 809732.2340796151 -3714410.9809661293
246 -5154247.2711627902 -0 -3744779.8423553463
247 -5112448.1194013767 -809732.2340796151 -3714410.9809661293
248 -4984899.7651220998 -1619692.1174349585 -3621741.6772051398
249 -4765264.17274768 -2428023.369578959 -3462167.0786814741
250 -4443495.7586238952 -3228388.6416517035 -3228388.6416517035
251 -4007105.2408088949 -4007105.2408088939 -2911332.3716408247
252 -4765264.17274768 3462167.0786814741 -2428023.369578959
253 -5168868.7297930196 2633670.1629254855 -2633670.1629254855
254 -5452695.1289763385 1771688.0449576394 -2778286.9365477511
255 -5620907.4726077449 890264.28416498145 -2863995.4065470551
256 -5676602.5656040916 -0 -2892373.473840653
257 -5620907.4726077449 -890264.28416498145 -2863995.4065470551
258 -5452695.1289763385 -1771688.0449576394 -2778286.9365477511
259 -5168868.7297930196 -2633670.1629254855 -2633670.1629254855
260 -4765264.17274768 -3462167.0786814741 -2428023.369578959
261 -4238286.0702980841 -4238286.0702980831 -2159514.6150546079
262 -4984899.7651220998 3621741.6772051398 -1619692.1174349585
263 -5452695.1289763385 2778286.9365477511 -1771688.0449576394
264 -5789078.3044401519 1880985.5641472023 -1880985.5641472023
265 -5991587.2870602347 948974.19911664189 -1946784.7212645544
266 -6059181.0653164238 -0 -1968747.2711627898
267 -5991587.2870602347 -948974.19911664189 -1946784.7212645544
268 -5789078.3044401519 -1880985.5641472023 -1880985.5641472023
269 -5452695.1289763385 -2778286.9365477511 -1771688.0449576394
270 -4984899.7651220998 -3621741.6772051398 -1619692.1174349585
271 -4390585.8487823065 -4390585.8487823056 -1426587.820270844
272 -5112448.1194013767 3714410.9809661293 -809732.2340796151
273 -5620907.4726077449 2863995.4065470551 -890264.28416498145
274 -5991587.2870602347 1946784.7212645544 -948974.19911664189
275 -6216952.372612047 984668.52206045692 -984668.52206045692
276 -6292562.4179316228 -0 -996643.97677131079
277 -6216952.372612047 -984668.52206045692 -984668.52206045692
278 -5991587.2870602347 -1946784.7212645544 -948974.19911664189
279 -5620907.4726077449 -2863995.4065470551 -890264.28416498145
280 -5112448.1194013767 -3714410.9809661293 -809732.2340796151
281 -4476987.7805022327 -4476987.7805022327 -709085.20395463402
282 -5154247.2711627902 3744779.8423553463 0
283 -5676602.5656040916 2892373.473840653 0
284 -6059181.0653164238 1968747.2711627898 0
285 -6292562.4179316228 996643.97677131079 0
286 -6371000 -0 0
287 -6292562.4179316228 -996643.97677131079 0
288 -6059181.0653164238 -1968747.2711627898 0
289 -5676602.5656040916 -2892373.473840653 0
290 -5154247.2711627902 -3744779.8423553463 0
291 -4504977.3029394951 -4504977.3029394941 0
292 -5112448.1194013767 3714410.9809661293 809732.2340796151
293 -5620907.4726077449 2863995.4065470551 890264.28416498145
294 -5991587.2870602347 1946784.7212645544 948974.19911664189
295 -6216952.372612047 984668.52206045692 984668.52206045692
296 -6292562.4179316228 -0 996643.97677131079
297 -6216952.372612047 -984668.52206045692 984668.52206045692
298 -5991587.2870602347 -1946784.7212645544 948974.19911664189
299 -5620907.4726077449 -2863995.4065470551 890264.28416498145
300 -5112448.1194013767 -3714410.9809661293 809732.2340796151
301 -4476987.7805022327 -4476987.7805022327 709085.20395463402
302 -4984899.7651220998 3621741.6772051398 1619692.1174349585
303 -5452695.1289763385 2778286.9365477511 1771688.0449576394
304 -5789078.3044401519 1880985.5641472023 1880985.5641472023
305 -5991587.2870602347 948974.19911664189 1946784.7212645544
306 -6059181.0653164238 -0 1968747.2711627898
307 -5991587.2870602347 -948974.19911664189 1946784.7212645544
308 -5789078.3044401519 -1880985.5641472023 1880985.5641472023
309 -5452695.1289763385 -2778286.9365477511 1771688.0449576394
310 -4984899.7651220998 -3621741.6772051398 1619692.1174349585
311 -4390585.8487823065 -4390585.8487823056 1426587.820270844
312 -4765264.17274768 3462167.0786814741 2428023.369578959
313 -5168868.7297930196 2633670.1629254855 2633670.1629254855
314 -5452695.1289763385 1771688.0449576394 2778286.9365477511
315 -5620907.4726077449 890264.28416498145 2863995.4065470551
316 -5676602.5656040916 -0 2892373.473840653
317 -5620907.4726077449 -890264.28416498145 2863995.4065470551
318 -5452695.1289763385 -1771688.0449576394 2778286.9365477511
319 -5168868.7297930196 -2633670.1629254855 2633670.1629254855
320 -4765264.17274768 -3462167.0786814741 2428023.369578959
321 -4238286.0702980841 -4238286.0702980831 2159514.6150546079
322 -4443495.7586238952 3228388.6416517035 3228388.6416517035
323 -4765264.17274768 2428023.369578959 3462167.0786814741
324 -4984899.7651220998 1619692.1174349585 3621741.6772051398
325 -5112448.1194013767 809732.2340796151 3714410.9809661293
326 -5154247.2711627902 -0 3744779.8423553463
327 -5112448.1194013767 -809732.2340796151 3714410.9809661293
328 -4984899.7651220998 -1619692.1174349585 3621741.6772051398
329 -4765264.17274768 -2428023.369578959 3462167.0786814741
330 -4443495.7586238952 -3228388.6416517035 3228388.6416517035
331 -4007105.2408088949 -4007105.2408088939 2911332.3716408247
332 -4007105.2408088949 2911332.3716408247 4007105.2408088939
333 -4238286.0702980841 2159514.6150546079 4238286.0702980831
334 -4390585.8487823065 1426587.820270844 4390585.8487823056
335 -4476987.7805022327 709085.20395463402 4476987.7805022327
336 -4504977.3029394951 -0 4504977.3029394941
337 -4476987.7805022327 -709085.20395463402 4476987.7805022327
338 -4390585.8487823065 -1426587.820270844 4390585.8487823056
339 -4238286.0702980841 -2159514.6150546079 4238286.0702980831
340 -4007105.2408088949 -2911332.3716408247 4007105.2408088939
341 -3678298.5650071059 -3678298.5650071055 3678298.5650071055
342 -2911332.3716408247 -4007105.2408088949 -4007105.2408088939
343 -2159514.6150546079 -4238286.0702980841 -4238286.0702980831
344 -1426587.820270844 -4390585.8487823065 -4390585.8487823056
345 -709085.20395463402 -4476987.7805022327 -4476987.7805022327
346 0 -4504977.3029394951 -4504977.3029394941
347 709085.20395463402 -4476987.7805022327 -4476987.7805022327
348 1426587.820270844 -4390585.8487823065 -4390585.8487823056
349 2159514.6150546079 -4238286.0702980841 -4238286.0702980831
350 2911332.3716408247 -4007105.2408088949 -4007105.2408088939
351 -3228388.6416517035 -4443495.7586238952 -3228388.6416517035
352 -2428023.369578959 -4765264.17274768 -3462167.0786814741
353 -1619692.1174349585 -4984899.7651220998 -3621741.6772051398
354 -809732.2340796151 -5112448.1194013767 -3714410.9809661293
355 0 -5154247.2711627902 -3744779.8423553463
356 809732.2340796151 -5112448.1194013767 -3714410.9809661293
357 1619692.1174349585 -4984899.7651220998 -3621741.6772051398
358 2428023.369578959 -4765264.17274768 -3462167.0786814741
359 3228388.6416517035 -4443495.7586238952 -3228388.6416517035
360 -3462167.0786814741 -4765264.17274768 -2428023.369578959
361 -2633670.1629254855 -5168868.7297930196 -2633670.1629254855
362 -1771688.0449576394 -5452695.1289763385 -2778286.9365477511
363 -890264.28416498145 -5620907.4726077449 -2863995.4065470551
364 0 -5676602.5656040916 -2892373.473840653
365 890264.28416498145 -5620907.4726077449 -2863995.4065470551
366 1771688.0449576394 -5452695.1289763385 -2778286.9365477511
367 2633670.1629254855 -5168868.7297930196 -2633670.1629254855
368 3462167.0786814741 -4765264.17274768 -2428023.369578959
369 -3621741.6772051398 -4984899.7651220998 -1619692.1174349585
370 -2778286.9365477511 -5452695.1289763385 -1771688.0449576394
371 -1880985.5641472023 -5789078.3044401519 -1880985.5641472023
372 -948974.19911664189 -5991587.2870602347 -1946784.7212645544
373 0 -6059181.0653164238 -1968747.2711627898
374 948974.19911664189 -5991587.2870602347 -1946784.7212645544
375 1880985.5641472023 -5789078.3044401519 -1880985.5641472023
376 2778286.9365477511 -5452695.1289763385 -1771688.0449576394
377 3621741.6772051398 -4984899.7651220998 -1619692.1174349585
378 -3714410.9809661293 -5112448.1194013767 -809732.2340796151
379 -2863995.4065470551 -5620907.4726077449 -890264.28416498145
380 -1946784.7212645544 -5991587.2870602347 -948974.19911664189
381 -984668.52206045692 -6216952.372612047 -984668.52206045692
382 0 -6292562.4179316228 -996643.97677131079
383 984668.52206045692 -6216952.372612047 -984668.52206045692
384 1946784.7212645544 -5991587.2870602347 -948974.19911664189
385 2863995.4065470551 -5620907.4726077449 -890264.28416498145
386 3714410.9809661293 -5112448.1194013767 -809732.2340796151
387 -3744779.8423553463 -5154247.2711627902 0
388 -2892373.473840653 -5676602.5656040916 0
389 -1968747.2711627898 -6059181.0653164238 0
390 -996643.97677131079 -6292562.4179316228 0
391 0 -6371000 0
392 996643.97677131079 -6292562.4179316228 0
393 1968747.2711627898 -6059181.0653164238 0
394 2892373.473840653 -5676602.5656040916 0
395 3744779.8423553463 -5154247.2711627902 0
396 -3714410.9809661293 -5112448.1194013767 809732.2340796151
397 -2863995.4065470551 -5620907.4726077449 890264.28416498145
398 -1946784.7212645544 -5991587.2870602347 948974.19911664189
399 -984668.52206045692 -6216952.372612047 984668.52206045692
400 0 -6292562.4179316228 996643.97677131079
401 984668.52206045692 -6216952.372612047 984668.52206045692
402 1946784.7212645544 -5991587.2870602347 948974.19911664189
403 2863995.4065470551 -5620907.4726077449 890264.28416498145
404 3714410.9809661293 -5112448.1194013767 809732.2340796151
405 -3621741.6772051398 -4984899.7651220998 1619692.1174349585
406 -2778286.9365477511 -5452695.1289763385 1771688.0449576394
407 -1880985.5641472023 -5789078.3044401519 1880985.5641472023
408 -948974.19911664189 -5991587.2870602347 1946784.7212645544
409 0 -6059181.0653164238 1968747.2711627898
410 948974.19911664189 -5991587.2870602347 1946784.7212645544
411 1880985.5641472023 -5789078.3044401519 1880985.5641472023
412 2778286.9365477511 -5452695.1289763385 1771688.0449576394
413 3621741.6772051398 -4984899.7651220998 1619692.1174349585
414 -3462167.0786814741 -4765264.17274768 2428023.369578959
415 -2633670.1629254855 -5168868.7297930196 2633670.1629254855
416 -1771688.0449576394 -5452695.1289763385 2778286.9365477511
417 -890264.28416498145 -5620907.4726077449 2863995.4065470551
418 0 -5676602.5656040916 2892373.473840653
419 890264.28416498145 -5620907.4726077449 2863995.4065470551
420 1771688.0449576394 -5452695.1289763385 2778286.9365477511
421 2633670.1629254855 -5168868.7297930196 2633670.1629254855
422 3462167.0786814741 -4765264.17274768 2428023.369578959
423 -3228388.6416517035 -4443495.7586238952 3228388.6416517035
424 -2428023.369578959 -4765264.17274768 3462167.0786814741
425 -1619692.1174349585 -4984899.7651220998 3621741.6772051398
426 -809732.2340796151 -5112448.1194013767 3714410.9809661293
427 0 -5154247.2711627902 3744779.8423553463
428 809732.2340796151 -5112448.1194013767 3714410.9809661293
429 1619692.1174349585 -4984899.7651220998 3621741.6772051398
430 2428023.369578959 -4765264.17274768 3462167.0786814741
431 3228388.6416517035 -4443495.7586238952 3228388.6416517035
432 -2911332.3716408247 -4007105.2408088949 4007105.2408088939
433 -2159514.6150546079 -4238286.0702980841 4238286.0702980831
434 -1426587.820270844 -4390585.8487823065 4390585.8487823056
435 -709085.20395463402 -4476987.7805022327 4476987.7805022327
436 0 -4504977.3029394951 4504977.3029394941
437 709085.20395463402 -4476987.7805022327 4476987.7805022327
438 1426587.820270844 -4390585.8487823065 4390585.8487823056
439 2159514.6150546079 -4238286.0702980841 4238286.0702980831
440 2911332.3716408247 -4007105.2408088949 4007105.2408088939
441 3228388.6416517035 -3228388.6416517035 4443495.7586238952
442 3462167.0786814741 -2428023.369578959 4765264.17274768
443 3621741.6772051398 -1619692.1174349585 4984899.7651220998
444 3714410.9809661293 -809732.2340796151 5112448.1194013767
445 3744779.8423553463 0 5154247.2711627902
446 3714410.9809661293 809732.2340796151 5112448.1194013767
447 3621741.6772051398 1619692.1174349585 4984899.7651220998
448 3462167.0786814741 2428023.369578959 4765264.17274768
449 3228388.6416517035 3228388.6416517035 4443495.7586238952
450 2428023.369578959 -3462167.0786814741 4765264.17274768
451 2633670.1629254855 -2633670.1629254855 5168868.7297930196
452 2778286.9365477511 -1771688.0449576394 5452695.1289763385
453 2863995.4065470551 -890264.28416498145 5620907.4726077449
454 2892373.473840653 0 5676602.5656040916
455 2863995.4065470551 890264.28416498145 5620907.4726077449
456 2778286.9365477511 1771688.0449576394 5452695.1289763385
457 2633670.1629254855 2633670.1629254855 5168868.7297930196
458 2428023.369578959 3462167.0786814741 4765264.17274768
459 1619692.1174349585 -3621741.6772051398 4984899.7651220998
460 1771688.0449576394 -2778286.9365477511 5452695.1289763385
461 1880985.5641472023 -1880985.5641472023 5789078.3044401519
462 1946784.7212645544 -948974.19911664189 5991587.2870602347
463 1968747.2711627898 0 6059181.0653164238
464 1946784.7212645544 948974.19911664189 5991587.2870602347
465 1880985.5641472023 1880985.5641472023 5789078.3044401519
466 1771688.0449576394 2778286.9365477511 5452695.1289763385
467 1619692.1174349585 3621741.6772051398 4984899.7651220998
468 809732.2340796151 -3714410.9809661293 5112448.1194013767
469 890264.28416498145 -2863995.4065470551 5620907.4726077449
470 948974.19911664189 -1946784.7212645544 5991587.2870602347
471 984668.5220604568 -984668.5220604568 6216952.3726120461
472 996643.97677131079 0 6292562.4179316228
473 984668.5220604568 984668.5220604568 6216952.3726120461
474 948974.19911664189 1946784.7212645544 5991587.2870602347
475 890264.28416498145 2863995.4065470551 5620907.4726077449
476 809732.2340796151 3714410.9809661293 5112448.1194013767
477 -0 -3744779.8423553463 5154247.2711627902
478 -0 -2892373.473840653 5676602.5656040916
479 -0 -1968747.2711627898 6059181.0653164238
480 -0 -996643.97677131079 6292562.4179316228
481 -0 0 6371000
482 -0 996643.97677131079 6292562.4179316228
483 -0 1968747.2711627898 6059181.0653164238
484 -0 2892373.473840653 5676602.5656040916
485 -0 3744779.8423553463 5154247.2711627902
486 -809732.2340796151 -3714410.9809661293 5112448.1194013767
487 -890264.28416498145 -2863995.4065470551 5620907.4726077449
488 -948974.19911664189 -1946784.7212645544 5991587.2870602347
489 -984668.5220604568 -984668.5220604568 6216952.3726120461
490 -996643.97677131079 0 6292562.4179316228
491 -984668.5220604568 984668.5220604568 6216952.3726120461
492 -948974.19911664189 1946784.7212645544 5991587.2870602347
493 -890264.28416498145 2863995.4065470551 5620907.4726077449
494 -809732.2340796151 3714410.9809661293 5112448.1194013767
495 -1619692.1174349585 -3621741.6772051398 4984899.7651220998
496 -1771688.0449576394 -2778286.9365477511 5452695.1289763385
497 -1880985.5641472023 -1880985.5641472023 5789078.3044401519
498 -1946784.7212645544 -948974.19911664189 5991587.2870602347
499 -1968747.2711627898 0 6059181.0653164238
500 -1946784.7212645544 948974.19911664189 5991587.2870602347
501 -1880985.5641472023 1880985.5641472023 5789078.3044401519
502 -1771688.0449576394 2778286.9365477511 5452695.1289763385
503 -1619692.1174349585 3621741.6772051398 4984899.7651220998
504 -2428023.369578959 -3462167.0786814741 4765264.17274768
505 -2633670.1629254855 -2633670.1629254855 5168868.7297930196
506 -2778286.9365477511 -1771688.0449576394 5452695.1289763385
507 -2863995.4065470551 -890264.28416498145 5620907.4726077449
508 -2892373.473840653 0 5676602.5656040916
509 -2863995.4065470551 890264.28416498145 5620907.4726077449
510 -2778286.9365477511 1771688.0449576394 5452695.1289763385
511 -2633670.1629254855 2633670.1629254855 5168868.7297930196
512 -2428023.369578959 3462167.0786814741 4765264.17274768
513 -3228388.6416517035 -3228388.6416517035 4443495.7586238952
514 -3462167.0786814741 -2428023.369578959 4765264.17274768
515 -3621741.6772051398 -1619692.1174349585 4984899.7651220998
516 -3714410.9809661293 -809732.2340796151 5112448.1194013767
517 -3744779.8423553463 0 5154247.2711627902
518 -3714410.9809661293 809732.2340796151 5112448.1194013767
519 -3621741.6772051398 1619692.1174349585 4984899.7651220998
520 -3462167.0786814741 2428023.369578959 4765264.17274768
521 -3228388.6416517035 3228388.6416517035 4443495.7586238952
522 -3228388.6416517035 -3228388.6416517035 -4443495.7586238952
523 -3462167.0786814741 -2428023.369578959 -4765264.17274768
524 -3621741.6772051398 -1619692.1174349585 -4984899.7651220998
525 -3714410.9809661293 -809732.2340796151 -5112448.1194013767
526 -3744779.8423553463 0 -5154247.2711627902
527 -3714410.9809661293 809732.2340796151 -5112448.1194013767
528 -3621741.6772051398 1619692.1174349585 -4984899.7651220998
529 -3462167.0786814741 2428023.369578959 -4765264.17274768
530 -3228388.6416517035 3228388.6416517035 -4443495.7586238952
531 -2428023.369578959 -3462167.0786814741 -4765264.17274768
532 -2633670.1629254855 -2633670.1629254855 -5168868.7297930196
533 -2778286.9365477511 -1771688.0449576394 -5452695.1289763385
534 -2863995.4065470551 -890264.28416498145 -5620907.4726077449
535 -2892373.473840653 0 -5676602.5656040916
536 -2863995.4065470551 890264.28416498145 -5620907.4726077449
537 -2778286.9365477511 1771688.0449576394 -5452695.1289763385
538 -2633670.1629254855 2633670.1629254855 -5168868.7297930196
539 -2428023.369578959 3462167.0786814741 -4765264.17274768
540 -1619692.1174349585 -3621741.6772051398 -4984899.7651220998
541 -1771688.0449576394 -2778286.9365477511 -5452695.1289763385
542 -1880985.5641472023 -1880985.5641472023 -5789078.3044401519
543 -1946784.7212645544 -948974.19911664189 -5991587.2870602347
544 -1968747.2711627898 0 -6059181.0653164238
545 -1946784.7212645544 948974.19911664189 -5991587.2870602347
546 -1880985.5641472023 1880985.5641472023 -5789078.3044401519
547 -1771688.0449576394 2778286.9365477511 -5452695.1289763385
548 -1619692.1174349585 3621741.6772051398 -4984899.7651220998
549 -809732.2340796151 -3714410.9809661293 -5112448.1194013767
550 -890264.28416498145 -2863995.4065470551 -5620907.4726077449
551 -948974.19911664189 -1946784.7212645544 -5991587.2870602347
552 -984668.5220604568 -984668.5220604568 -6216952.3726120461
553 -996643.97677131079 0 -6292562.4179316228
554 -984668.5220604568 984668.5220604568 -6216952.3726120461
555 -948974.19911664189 1946784.7212645544 -5991587.2870602347
556 -890264.28416498145 2863995.4065470551 -5620907.4726077449
557 -809732.2340796151 3714410.9809661293 -5112448.1194013767
558 0 -3744779.8423553463 -5154247.2711627902
559 0 -2892373.473840653 -5676602.5656040916
560 0 -1968747.2711627898 -6059181.0653164238
561 0 -996643.97677131079 -6292562.4179316228
562 0 0 -6371000
563 0 996643.97677131079 -6292562.4179316228
564 0 1968747.2711627898 -6059181.0653164238
565 0 2892373.473840653 -5676602.5656040916
566 0 3744779.8423553463 -5154247.2711627902
567 809732.2340796151 -3714410.9809661293 -5112448.1194013767
568 890264.28416498145 -2863995.4065470551 -5620907.4726077449
569 948974.19911664189 -1946784.7212645544 -5991587.2870602347
570 984668.5220604568 -984668.5220604568 -6216952.3726120461
571 996643.97677131079 0 -6292562.4179316228
572 984668.5220604568 984668.5220604568 -6216952.3726120461
573 948974.19911664189 1946784.7212645544 -5991587.2870602347
574 890264.28416498145 2863995.4065470551 -5620907.4726077449
575 809732.2340796151 3714410.9809661293 -5112448.1194013767
576 1619692.1174349585 -3621741.6772051398 -4984899.7651220998
577 1771688.0449576394 -2778286.9365477511 -5452695.1289763385
578 1880985.5641472023 -1880985.5641472023 -5789078.3044401519
579 1946784.7212645544 -948974.19911664189 -5991587.2870602347
580 1968747.2711627898 0 -6059181.0653164238
581 1946784.7212645544 948974.19911664189 -5991587.2870602347
582 1880985.5641472023 1880985.5641472023 -5789078.3044401519
583 1771688.0449576394 2778286.9365477511 -5452695.1289763385
584 1619692.1174349585 3621741.6772051398 -4984899.7651220998
585 2428023.369578959 -3462167.0786814741 -4765264.17274768
586 2633670.1629254855 -2633670.1629254855 -5168868.7297930196
587 2778286.9365477511 -1771688.0449576394 -5452695.1289763385
588 2863995.4065470551 -890264.28416498145 -5620907.4726077449
589 2892373.473840653 0 -5676602.5656040916
590 2863995.4065470551 890264.28416498145 -5620907.4726077449
591 2778286.9365477511 1771688.0449576394 -5452695.1289763385
592 2633670.1629254855 2633670.1629254855 -5168868.7297930196
593 2428023.369578959 3462167.0786814741 -4765264.17274768
594 3228388.6416517035 -3228388.6416517035 -4443495.7586238952
595 3462167.0786814741 -2428023.369578959 -4765264.17274768
596 3621741.6772051398 -1619692.1174349585 -4984899.7651220998
597 3714410.9809661293 -809732.2340796151 -5112448.1194013767
598 3744779.8423553463 0 -5154247.2711627902
599 3714410.9809661293 809732.2340796151 -5112448.1194013767
600 3621741.6772051398 1619692.1174349585 -4984899.7651220998
601 3462167.0786814741 2428023.369578959 -4765264.17274768
602 3228388.6416517035 3228388.6416517035 -4443495.7586238952
$EndNodes
$Elements
600
1 3 2 1 1 1 2 13 12
2 3 2 1 1 2 3 14 13
3 3 2 1 1 3 4 15 14
4 3 2 1 1 4 5 16 15
5 3 2 1 1 5 6 17 16
6 3 2 1 1 6 7 18 17
7 3 2 1 1 7 8 19 18
8 3 2 1 1 8 9 20 19
9 3 2 1 1 9 10 21 20
10 3 2 1 1 10 11 22 21
11 3 2 1 1 12 13 24 23
12 3 2 1 1 13 14 25 24
13 3 2 1 1 14 15 26 25
14 3 2 1 1 15 16 27 26
15 3 2 1 1 16 17 28 27
16 3 2 1 1 17 18 29 28
17 3 2 1 1 18 19 30 29
18 3 2 1 1 19 20 31 30
19 3 2 1 1 20 21 32 31
20 3 2 1 1 21 22 33 32
21 3 2 1 1 23 24 35 34
22 3 2 1 1 24 25 36 35
23 3 2 1 1 25 26 37 36
24 3 2 1 1 26 27 38 37
25 3 2 1 1 27 28 39 38
26 3 2 1 1 28 29 40 39
27 3 2 1 1 29 30 41 40
28 3 2 1 1 30 31 42 41
29 3 2 1 1 31 32 43 42
30 3 2 1 1 32 33 44 43
31 3 2 1 1 34 35 46 45
32 3 2 1 1 35 36 47 46
33 3 2 1 1 36 37 48 47
34 3 2 1 1 37 38 49 48
35 3 2 1 1 38 39 50 49
36 3 2 1 1 39 40 51 50
37 3 2 1 1 40 41 52 51
38 3 2 1 1 41 42 53 52
39 3 2 1 1 42 43 54 53
40 3 2 1 1 43 44 55 54
41 3 2 1 1 45 46 57 56
42 3 2 1 1 46 47 58 57
43 3 2 1 1 47 48 59 58
44 3 2 1 1 48 49 60 59
45 3 2 1 1 49 50 61 60
46 3 2 1 1 50 51 62 61
47 3 2 1 1 51 52 63 62
48 3 2 1 1 52 53 64 63
49 3 2 1 1 53 54 65 64
50 3 2 1 1 54 55 66 65
51 3 2 1 1 56 57 68 67
52 3 2 1 1 57 58 69 68
53 3 2 1 1 58 59 70 69
54 3 2 1 1 59 60 71 70
55 3 2 1 1 60 61 72 71
56 3 2 1 1 61 62 73 72
57 3 2 1 1 62 63 74 73
58 3 2 1 1 63 64 75 74
59 3 2 1 1 64 65 76 75
60 3 2 1 1 65 66 77 76
61 3 2 1 1 67 68 79 78
62 3 2 1 1 68 69 80 79
63 3 2 1 1 69 70 81 80
64 3 2 1 1 70 71 82 81
65 3 2 1 1 71 72 83 82
66 3 2 1 1 72 73 84 83
67 3 2 1 1 73 74 85 84
68 3 2 1 1 74 75 86 85
69 3 2 1 1 75 76 87 86
70 3 2 1 1 76 77 88 87
71 3 2 1 1 78 79 90 89
72 3 2 1 1 79 80 91 90
73 3 2 1 1 80 81 92 91
74 3 2 1 1 81 82 93 92
75 3 2 1 1 82 83 94 93
76 3 2 1 1 83 84 95 94
77 3 2 1 1 84 85 96 95
78 3 2 1 1 85 86 97 96
79 3 2 1 1 86 87 98 97
80 3 2 1 1 87 88 99 98
81 3 2 1 1 89 90 101 100
82 3 2 1 1 90 91 102 101
83 3 2 1 1 91 92 103 102
84 3 2 1 1 92 93 104 103
85 3 2 1 1 93 94 105 104
86 3 2 1 1 94 95 106 105
87 3 2 1 1 95 96 107 106
88 3 2 1 1 96 97 108 107
89 3 2 1 1 97 98 109 108
90 3 2 1 1 98 99 110 109
91 3 2 1 1 100 101 112 111
92 3 2 1 1 101 102 113 112
93 3 2 1 1 102 103 114 113
94 3 2 1 1 103 104 115 114
95 3 2 1 1 104 105 116 115
96 3 2 1 1 105 106 117 116
97 3 2 1 1 106 107 118 117
98 3 2 1 1 107 108 119 118
99 3 2 1 1 108 109 120 119
100 3 2 1 1 109 110 121 120
101 3 2 2 2 11 122 132 22
102 3 2 2 2 122 123 133 132
103 3 2 2 2 123 124 134 133
104 3 2 2 2 124 125 135 134
105 3 2 2 2 125 126 136 135
106 3 2 2 2 126 127 137 136
107 3 2 2 2 127 128 138 137
108 3 2 2 2 128 129 139 138
109 3 2 2 2 129 130 140 139
110 3 2 2 2 130 131 141 140
111 3 2 2 2 22 132 142 33
112 3 2 2 2 132 133 143 142
113 3 2 2 2 133 134 144 143
114 3 2 2 2 134 135 145 144
115 3 2 2 2 135 136 146 145
116 3 2 2 2 136 137 147 146
117 3 2 2 2 137 138 148 147
118 3 2 2 2 138 139 149 148
119 3 2 2 2 139 140 150 149
120 3 2 2 2 140 141 151 150
121 3 2 2 2 33 142 152 44
122 3 2 2 2 142 143 153 152
123 3 2 2 2 143 144 154 153
124 3 2 2 2 144 145 155 154
125 3 2 2 2 145 146 156 155
126 3 2 2 2 146 147 157 156
127 3 2 2 2 147 148 158 157
128 3 2 2 2 148 149 159 158
129 3 2 2 2 149 150 160 159
130 3 2 2 2 150 151 161 160
131 3 2 2 2 44 152 162 55
132 3 2 2 2 152 153 163 162
133 3 2 2 2 153 154 164 163
134 3 2 2 2 154 155 165 164
135 3 2 2 2 155 156 166 165
136 3 2 2 2 156 157 167 166
137 3 2 2 2 157 158 168 167
138 3 2 2 2 158 159 169 168
139 3 2 2 2 159 160 170 169
140 3 2 2 2 160 161 171 170
141 3 2 2 2 55 162 172 66
142 3 2 2 2 162 163 173 172
143 3 2 2 2 163 164 174 173
144 3 2 2 2 164 165 175 174
145 3 2 2 2 165 166 176 175
146 3 2 2 2 166 167 177 176
147 3 2 2 2 167 168 178 177
148 3 2 2 2 168 169 179 178
149 3 2 2 2 169 170 180 179
150 3 2 2 2 170 171 181 180
151 3 2 2 2 66 172 182 77
152 3 2 2 2 172 173 183 182
153 3 2 2 2 173 174 184 183
154 3 2 2 2 174 175 185 184
155 3 2 2 2 175 176 186 185
156 3 2 2 2 176 177 187 186
157 3 2 2 2 177 178 188 187
158 3 2 2 2 178 179 189 188
159 3 2 2 2 179 180 190 189
160 3 2 2 2 180 181 191 190
161 3 2 2 2 77 182 192 88
162 3 2 2 2 182 183 193 192
163 3 2 2 2 183 184 194 193
164 3 2 2 2 184 185 195 194
165 3 2 2 2 185 186 196 195
166 3 2 2 2 186 187 197 196
167 3 2 2 2 187 188 198 197
168 3 2 2 2 188 189 199 198
169 3 2 2 2 189 190 200 199
170 3 2 2 2 190 191 201 200
171 3 2 2 2 88 192 202 99
172 3 2 2 2 192 193 203 202
173 3 2 2 2 193 194 204 203
174 3 2 2 2 194 195 205 204
175 3 2 2 2 195 196 206 205
176 3 2 2 2 196 197 207 206
177 3 2 2 2 197 198 208 207
178 3 2 2 2 198 199 209 208
179 3 2 2 2 199 200 210 209
180 3 2 2 2 200 201 211 210
181 3 2 2 2 99 202 212 110
182 3 2 2 2 202 203 213 212
183 3 2 2 2 203 204 214 213
184 3 2 2 2 204 205 215 214
185 3 2 2 2 205 206 216 215
186 3 2 2 2 206 207 217 216
187 3 2 2 2 207 208 218 217
188 3 2 2 2 208 209 219 218
189 3 2 2 2 209 210 220 219
190 3 2 2 2 210 211 221 220
191 3 2 2 2 110 212 222 121
192 3 2 2 2 212 213 223 222
193 3 2 2 2 213 214 224 223
194 3 2 2 2 214 215 225 224
195 3 2 2 2 215 216 226 225
196 3 2 2 2 216 217 227 226
197 3 2 2 2 217 218 228 227
198 3 2 2 2 218 219 229 228
199 3 2 2 2 219 220 230 229
200 3 2 2 2 220 221 231 230
201 3 2 3 3 131 232 242 141
202 3 2 3 3 232 233 243 242
203 3 2 3 3 233 234 244 243
204 3 2 3 3 234 235 245 244
205 3 2 3 3 235 236 246 245
206 3 2 3 3 236 237 247 246
207 3 2 3 3 237 238 248 247
208 3 2 3 3 238 239 249 248
209 3 2 3 3 239 240 250 249
210 3 2 3 3 240 241 251 250
211 3 2 3 3 141 242 252 151
212 3 2 3 3 242 243 253 252
213 3 2 3 3 243 244 254 253
214 3 2 3 3 244 245 255 254
215 3 2 3 3 245 246 256 255
216 3 2 3 3 246 247 257 256
217 3 2 3 3 247 248 258 257
218 3 2 3 3 248 249 259 258
219 3 2 3 3 249 250 260 259
220 3 2 3 3 250 251 261 260
221 3 2 3 3 151 252 262 161
222 3 2 3 3 252 253 263 262
223 3 2 3 3 253 254 264 263
224 3 2 3 3 254 255 265 264
225 3 2 3 3 255 256 266 265
226 3 2 3 3 256 257 267 266
227 3 2 3 3 257 258 268 267
228 3 2 3 3 258 259 269 268
229 3 2 3 3 259 260 270 269
230 3 2 3 3 260 261 271 270
231 3 2 3 3 161 262 272 171
232 3 2 3 3 262 263 273 272
233 3 2 3 3 263 264 274 273
234 3 2 3 3 264 265 275 274
235 3 2 3 3 265 266 276 275
236 3 2 3 3 266 267 277 276
237 3 2 3 3 267 268 278 277
238 3 2 3 3 268 269 279 278
239 3 2 3 3 269 270 280 279
240 3 2 3 3 270 271 281 280
241 3 2 3 3 171 272 282 181
242 3 2 3 3 272 273 283 282
243 3 2 3 3 273 274 284 283
244 3 2 3 3 274 275 285 284
245 3 2 3 3 275 276 286 285
246 3 2 3 3 276 277 287 286
247 3 2 3 3 277 278 288 287
248 3 2 3 3 278 279 289 288
249 3 2 3 3 279 280 290 289
250 3 2 3 3 280 281 291 290
251 3 2 3 3 181 282 292 191
252 3 2 3 3 282 283 293 292
253 3 2 3 3 283 284 294 293
254 3 2 3 3 284 285 295 294
255 3 2 3 3 285 286 296 295
256 3 2 3 3 286 287 297 296
257 3 2 3 3 287 288 298 297
258 3 2 3 3 288 289 299 298
259 3 2 3 3 289 290 300 299
260 3 2 3 3 290 291 301 300
261 3 2 3 3 191 292 302 201
262 3 2 3 3 292 293 303 302
263 3 2 3 3 293 294 304 303
264 3 2 3 3 294 295 305 304
265 3 2 3 3 295 296 306 305
266 3 2 3 3 296 297 307 306
267 3 2 3 3 297 298 308 307
268 3 2 3 3 298 299 309 308
269 3 2 3 3 299 300 310 309
270 3 2 3 3 300 301 311 310
271 3 2 3 3 201 302 312 211
272 3 2 3 3 302 303 313 312
273 3 2 3 3 303 304 314 313
274 3 2 3 3 304 305 315 314
275 3 2 3 3 305 306 316 315
276 3 2 3 3 306 307 317 316
277 3 2 3 3 307 308 318 317
278 3 2 3 3 308 309 319 318
279 3 2 3 3 309 310 320 319
280 3 2 3 3 310 311 321 320
281 3 2 3 3 211 312 322 221
282 3 2 3 3 312 313 323 322
283 3 2 3 3 313 314 324 323
284 3 2 3 3 314 315 325 324
285 3 2 3 3 315 316 326 325
286 3 2 3 3 316 317 327 326
287 3 2 3 3 317 318 328 327
288 3 2 3 3 318 319 329 328
289 3 2 3 3 319 320 330 329
290 3 2 3 3 320 321 331 330
291 3 2 3 3 221 322 332 231
292 3 2 3 3 322 323 333 332
293 3 2 3 3 323 324 334 333
294 3 2 3 3 324 325 335 334
295 3 2 3 3 325 326 336 335
296 3 2 3 3 326 327 337 336
297 3 2 3 3 327 328 338 337
298 3 2 3 3 328 329 339 338
299 3 2 3 3 329 330 340 339
300 3 2 3 3 330 331 341 340
301 3 2 4 4 241 342 351 251
302 3 2 4 4 342 343 352 351
303 3 2 4 4 343 344 353 352
304 3 2 4 4 344 345 354 353
305 3 2 4 4 345 346 355 354
306 3 2 4 4 346 347 356 355
307 3 2 4 4 347 348 357 356
308 3 2 4 4 348 349 358 357
309 3 2 4 4 349 350 359 358
310 3 2 4 4 350 1 12 359
311 3 2 4 4 251 351 360 261
312 3 2 4 4 351 352 361 360
313 3 2 4 4 352 353 362 361
314 3 2 4 4 353 354 363 362
315 3 2 4 4 354 355 364 363
316 3 2 4 4 355 356 365 364
317 3 2 4 4 356 357 366 365
318 3 2 4 4 357 358 367 366
319 3 2 4 4 358 359 368 367
320 3 2 4 4 359 12 23 368
321 3 2 4 4 261 360 369 271
322 3 2 4 4 360 361 370 369
323 3 2 4 4 361 362 371 370
324 3 2 4 4 362 363 372 371
325 3 2 4 4 363 364 373 372
326 3 2 4 4 364 365 374 373
327 3 2 4 4 365 366 375 374
328 3 2 4 4 366 367 376 375
329 3 2 4 4 367 368 377 376
330 3 2 4 4 368 23 34 377
331 3 2 4 4 271 369 378 281
332 3 2 4 4 369 370 379 378
333 3 2 4 4 370 371 380 379
334 3 2 4 4 371 372 381 380
335 3 2 4 4 372 373 382 381
336 3 2 4 4 373 374 383 382
337 3 2 4 4 374 375 384 383
338 3 2 4 4 375 376 385 384
339 3 2 4 4 376 377 386 385
340 3 2 4 4 377 34 45 386
341 3 2 4 4 281 378 387 291
342 3 2 4 4 378 379 388 387
343 3 2 4 4 379 380 389 388
344 3 2 4 4 380 381 390 389
345 3 2 4 4 381 382 391 390
346 3 2 4 4 382 383 392 391
347 3 2 4 4 383 384 393 392
348 3 2 4 4 384 385 394 393
349 3 2 4 4 385 386 395 394
350 3 2 4 4 386 45 56 395
351 3 2 4 4 291 387 396 301
352 3 2 4 4 387 388 397 396
353 3 2 4 4 388 389 398 397
354 3 2 4 4 389 390 399 398
355 3 2 4 4 390 391 400 399
356 3 2 4 4 391 392 401 400
357 3 2 4 4 392 393 402 401
358 3 2 4 4 393 394 403 402
359 3 2 4 4 394 395 404 403
360 3 2 4 4 395 56 67 404
361 3 2 4 4 301 396 405 311
362 3 2 4 4 396 397 406 405
363 3 2 4 4 397 398 407 406
364 3 2 4 4 398 399 408 407
365 3 2 4 4 399 400 409 408
366 3 2 4 4 400 401 410 409
367 3 2 4 4 401 402 411 410
368 3 2 4 4 402 403 412 411
369 3 2 4 4 403 404 413 412
370 3 2 4 4 404 67 78 413
371 3 2 4 4 311 405 414 321
372 3 2 4 4 405 406 415 414
373 3 2 4 4 406 407 416 415
374 3 2 4 4 407 408 417 416
375 3 2 4 4 408 409 418 417
376 3 2 4 4 409 410 419 418
377 3 2 4 4 410 411 420 419
378 3 2 4 4 411 412 421 420
379 3 2 4 4 412 413 422 421
380 3 2 4 4 413 78 89 422
381 3 2 4 4 321 414 423 331
382 3 2 4 4 414 415 424 423
383 3 2 4 4 415 416 425 424
384 3 2 4 4 416 417 426 425
385 3 2 4 4 417 418 427 426
386 3 2 4 4 418 419 428 427
387 3 2 4 4 419 420 429 428
388 3 2 4 4 420 421 430 429
389 3 2 4 4 421 422 431 430
390 3 2 4 4 422 89 100 431
391 3 2 4 4 331 423 432 341
392 3 2 4 4 423 424 433 432
393 3 2 4 4 424 425 434 433
394 3 2 4 4 425 426 435 434
395 3 2 4 4 426 427 436 435
396 3 2 4 4 427 428 437 436
397 3 2 4 4 428 429 438 437
398 3 2 4 4 429 430 439 438
399 3 2 4 4 430 431 440 439
400 3 2 4 4 431 100 111 440
401 3 2 5 5 111 112 441 440
402 3 2 5 5 112 113 442 441
403 3 2 5 5 113 114 443 442
404 3 2 5 5 114 115 444 443
405 3 2 5 5 115 116 445 444
406 3 2 5 5 116 117 446 445
407 3 2 5 5 117 118 447 446
408 3 2 5 5 118 119 448 447
409 3 2 5 5 119 120 449 448
410 3 2 5 5 120 121 222 449
411 3 2 5 5 440 441 450 439
412 3 2 5 5 441 442 451 450
413 3 2 5 5 442 443 452 451
414 3 2 5 5 443 444 453 452
415 3 2 5 5 444 445 454 453
416 3 2 5 5 445 446 455 454
417 3 2 5 5 446 447 456 455
418 3 2 5 5 447 448 457 456
419 3 2 5 5 448 449 458 457
420 3 2 5 5 449 222 223 458
421 3 2 5 5 439 450 459 438
422 3 2 5 5 450 451 460 459
423 3 2 5 5 451 452 461 460
424 3 2 5 5 452 453 462 461
425 3 2 5 5 453 454 463 462
426 3 2 5 5 454 455 464 463
427 3 2 5 5 455 456 465 464
428 3 2 5 5 456 457 466 465
429 3 2 5 5 457 458 467 466
430 3 2 5 5 458 223 224 467
431 3 2 5 5 438 459 468 437
432 3 2 5 5 459 460 469 468
433 3 2 5 5 460 461 470 469
434 3 2 5 5 461 462 471 470
435 3 2 5 5 462 463 472 471
436 3 2 5 5 463 464 473 472
437 3 2 5 5 464 465 474 473
438 3 2 5 5 465 466 475 474
439 3 2 5 5 466 467 476 475
440 3 2 5 5 467 224 225 476
441 3 2 5 5 437 468 477 436
442 3 2 5 5 468 469 478 477
443 3 2 5 5 469 470 479 478
444 3 2 5 5 470 471 480 479
445 3 2 5 5 471 472 481 480
446 3 2 5 5 472 473 482 481
447 3 2 5 5 473 474 483 482
448 3 2 5 5 474 475 484 483
449 3 2 5 5 475 476 485 484
450 3 2 5 5 476 225 226 485
451 3 2 5 5 436 477 486 435
452 3 2 5 5 477 478 487 486
453 3 2 5 5 478 479 488 487
454 3 2 5 5 479 480 489 488
455 3 2 5 5 480 481 490 489
456 3 2 5 5 481 482 491 490
457 3 2 5 5 482 483 492 491
458 3 2 5 5 483 484 493 492
459 3 2 5 5 484 485 494 493
460 3 2 5 5 485 226 227 494
461 3 2 5 5 435 486 495 434
462 3 2 5 5 486 487 496 495
463 3 2 5 5 487 488 497 496
464 3 2 5 5 488 489 498 497
465 3 2 5 5 489 490 499 498
466 3 2 5 5 490 491 500 499
467 3 2 5 5 491 492 501 500
468 3 2 5 5 492 493 502 501
469 3 2 5 5 493 494 503 502
470 3 2 5 5 494 227 228 503
471 3 2 5 5 434 495 504 433
472 3 2 5 5 495 496 505 504
473 3 2 5 5 496 497 506 505
474 3 2 5 5 497 498 507 506
475 3 2 5 5 498 499 508 507
476 3 2 5 5 499 500 509 508
477 3 2 5 5 500 501 510 509
478 3 2 5 5 501 502 511 510
479 3 2 5 5 502 503 512 511
480 3 2 5 5 503 228 229 512
481 3 2 5 5 433 504 513 432
482 3 2 5 5 504 505 514 513
483 3 2 5 5 505 506 515 514
484 3 2 5 5 506 507 516 515
485 3 2 5 5 507 508 517 516
486 3 2 5 5 508 509 518 517
487 3 2 5 5 509 510 519 518
488 3 2 5 5 510 511 520 519
489 3 2 5 5 511 512 521 520
490 3 2 5 5 512 229 230 521
491 3 2 5 5 432 513 340 341
492 3 2 5 5 513 514 339 340
493 3 2 5 5 514 515 338 339
494 3 2 5 5 515 516 337 338
495 3 2 5 5 516 517 336 337
496 3 2 5 5 517 518 335 336
497 3 2 5 5 518 519 334 335
498 3 2 5 5 519 520 333 334
499 3 2 5 5 520 521 332 333
500 3 2 5 5 521 230 231 332
501 3 2 6 6 241 240 522 342
502 3 2 6 6 240 239 523 522
503 3 2 6 6 239 238 524 523
504 3 2 6 6 238 237 525 524
505 3 2 6 6 237 236 526 525
506 3 2 6 6 236 235 527 526
507 3 2 6 6 235 234 528 527
508 3 2 6 6 234 233 529 528
509 3 2 6 6 233 232 530 529
510 3 2 6 6 232 131 130 530
511 3 2 6 6 342 522 531 343
512 3 2 6 6 522 523 532 531
513 3 2 6 6 523 524 533 532
514 3 2 6 6 524 525 534 533
515 3 2 6 6 525 526 535 534
516 3 2 6 6 526 527 536 535
517 3 2 6 6 527 528 537 536
518 3 2 6 6 528 529 538 537
519 3 2 6 6 529 530 539 538
520 3 2 6 6 530 130 129 539
521 3 2 6 6 343 531 540 344
522 3 2 6 6 531 532 541 540
523 3 2 6 6 532 533 542 541
524 3 2 6 6 533 534 543 542
525 3 2 6 6 534 535 544 543
526 3 2 6 6 535 536 545 544
527 3 2 6 6 536 537 546 545
528 3 2 6 6 537 538 547 546
529 3 2 6 6 538 539 548 547
530 3 2 6 6 539 129 128 548
531 3 2 6 6 344 540 549 345
532 3 2 6 6 540 541 550 549
533 3 2 6 6 541 542 551 550
534 3 2 6 6 542 543 552 551
535 3 2 6 6 543 544 553 552
536 3 2 6 6 544 545 554 553
537 3 2 6 6 545 546 555 554
538 3 2 6 6 546 547 556 555
539 3 2 6 6 547 548 557 556
540 3 2 6 6 548 128 127 557
541 3 2 6 6 345 549 558 346
542 3 2 6 6 549 550 559 558
543 3 2 6 6 550 551 560 559
544 3 2 6 6 551 552 561 560
545 3 2 6 6 552 553 562 561
546 3 2 6 6 553 554 563 562
547 3 2 6 6 554 555 564 563
548 3 2 6 6 555 556 565 564
549 3 2 6 6 556 557 566 565
550 3 2 6 6 557 127 126 566
551 3 2 6 6 346 558 567 347
552 3 2 6 6 558 559 568 567
553 3 2 6 6 559 560 569 568
554 3 2 6 6 560 561 570 569
555 3 2 6 6 561 562 571 570
556 3 2 6 6 562 563 572 571
557 3 2 6 6 563 564 573 572
558 3 2 6 6 564 565 574 573
559 3 2 6 6 565 566 575 574
560 3 2 6 6 566 126 125 575
561 3 2 6 6 347 567 576 348
562 3 2 6 6 567 568 577 576
563 3 2 6 6 568 569 578 577
564 3 2 6 6 569 570 579 578
565 3 2 6 6 570 571 580 579
566 3 2 6 6 571 572 581 580
567 3 2 6 6 572 573 582 581
568 3 2 6 6 573 574 583 582
569 3 2 6 6 574 575 584 583
570 3 2 6 6 575 125 124 584
571 3 2 6 6 348 576 585 349
572 3 2 6 6 576 577 586 585
573 3 2 6 6 577 578 587 586
574 3 2 6 6 578 579 588 587
575 3 2 6 6 579 580 589 588
576 3 2 6 6 580 581 590 589
577 3 2 6 6 581 582 591 590
578 3 2 6 6 582 583 592 591
579 3 2 6 6 583 584 593 592
580 3 2 6 6 584 124 123 593
581 3 2 6 6 349 585 594 350
582 3 2 6 6 585 586 595 594
583 3 2 6 6 586 587 596 595
584 3 2 6 6 587 588 597 596
585 3 2 6 6 588 589 598 597
586 3 2 6 6 589 590 599 598
587 3 2 6 6 590 591 600 599
588 3 2 6 6 591 592 601 600
589 3 2 6 6 592 593 602 601
590 3 2 6 6 593 123 122 602
591 3 2 6 6 350 594 2 1
592 3 2 6 6 594 595 3 2
593 3 2 6 6 595 596 4 3
594 3 2 6 6 596 597 5 4
595 3 2 6 6 597 598 6 5
596 3 2 6 6 598 599 7 6
597 3 2 6 6 599 600 8 7
598 3 2 6 6 600 601 9 8
599 3 2 6 6 601 602 10 9
600 3 2 6 6 602 122 11 10
$EndElements
