$MeshFormat
4.1 0 8
$EndMeshFormat
$PhysicalNames
3
1 2 "periodicx"
1 3 "periodicy"
2 1 "domain"
$EndPhysicalNames
$Entities
4 4 1 0
1 0 0 0 0 
2 1 0 0 0 
3 1 1 0 0 
4 0 1 0 0 
1 0 0 0 1 0 0 1 3 2 1 -2 
2 1 0 0 1 1 0 1 2 2 2 -3 
3 0 1 0 1 1 0 1 3 2 3 -4 
4 0 0 0 0 1 0 1 2 2 4 -1 
1 0 0 0 1 1 0 1 1 4 1 2 3 4 
$EndEntities
$Nodes
9 1089 1 1089
0 1 0 1
1
0 0 0
0 2 0 1
2
1 0 0
0 3 0 1
3
1 1 0
0 4 0 1
4
0 1 0
1 1 0 31
5
6
7
8
9
10
11
12
13
14
15
16
17
18
19
20
21
22
23
24
25
26
27
28
29
30
31
32
33
34
35
0.03124999999994044 0 0
0.06249999999987291 0 0
0.0937499999998237 0 0
0.1249999999997731 0 0
0.1562499999996846 0 0
0.1874999999995934 0 0
0.2187499999995021 0 0
0.2499999999994109 0 0
0.2812499999993197 0 0
0.3124999999992285 0 0
0.3437499999991373 0 0
0.3749999999990461 0 0
0.4062499999989549 0 0
0.4374999999988636 0 0
0.4687499999987724 0 0
0.4999999999986921 0 0
0.5312499999987637 0 0
0.562499999998846 0 0
0.5937499999989285 0 0
0.6249999999990109 0 0
0.6562499999990934 0 0
0.6874999999991758 0 0
0.7187499999992581 0 0
0.7499999999993406 0 0
0.781249999999423 0 0
0.8124999999995055 0 0
0.8437499999995879 0 0
0.8749999999996703 0 0
0.9062499999997528 0 0
0.9374999999998351 0 0
0.9687499999999176 0 0
1 2 0 31
36
37
38
39
40
41
42
43
44
45
46
47
48
49
50
51
52
53
54
55
56
57
58
59
60
61
62
63
64
65
66
1 0.03124999999994044 0
1 0.06249999999987291 0
1 0.0937499999998237 0
1 0.1249999999997731 0
1 0.1562499999996846 0
1 0.1874999999995934 0
1 0.2187499999995021 0
1 0.2499999999994109 0
1 0.2812499999993197 0
1 0.3124999999992285 0
1 0.3437499999991373 0
1 0.3749999999990461 0
1 0.4062499999989549 0
1 0.4374999999988636 0
1 0.4687499999987724 0
1 0.4999999999986921 0
1 0.5312499999987637 0
1 0.562499999998846 0
1 0.5937499999989285 0
1 0.6249999999990109 0
1 0.6562499999990934 0
1 0.6874999999991758 0
1 0.7187499999992581 0
1 0.7499999999993406 0
1 0.781249999999423 0
1 0.8124999999995055 0
1 0.8437499999995879 0
1 0.8749999999996703 0
1 0.9062499999997528 0
1 0.9374999999998351 0
1 0.9687499999999176 0
1 3 0 31
67
68
69
70
71
72
73
74
75
76
77
78
79
80
81
82
83
84
85
86
87
88
89
90
91
92
93
94
95
96
97
0.9687499999998699 1 0
0.9374999999997398 1 0
0.9062499999996096 1 0
0.8749999999995012 1 0
0.8437499999996964 1 0
0.8124999999999132 1 0
0.7812500000001301 1 0
0.7500000000003471 1 0
0.7187500000005638 1 0
0.6875000000007805 1 0
0.6562500000009973 1 0
0.625000000001214 1 0
0.5937500000014309 1 0
0.5625000000016476 1 0
0.5312500000018643 1 0
0.5000000000020595 1 0
0.468750000001951 1 0
0.437500000001821 1 0
0.4062500000016909 1 0
0.3750000000015609 1 0
0.3437500000014307 1 0
0.3125000000013007 1 0
0.2812500000011706 1 0
0.2500000000010405 1 0
0.2187500000009105 1 0
0.1875000000007804 1 0
0.1562500000006504 1 0
0.1250000000005203 1 0
0.09375000000039024 1 0
0.06250000000026013 1 0
0.03125000000013012 1 0
1 4 0 31
98
99
100
101
102
103
104
105
106
107
108
109
110
111
112
113
114
115
116
117
118
119
120
121
122
123
124
125
126
127
128
0 0.9687499999998699 0
0 0.9374999999997398 0
0 0.9062499999996096 0
0 0.8749999999995012 0
0 0.8437499999996964 0
0 0.8124999999999132 0
0 0.7812500000001301 0
0 0.7500000000003471 0
0 0.7187500000005638 0
0 0.6875000000007805 0
0 0.6562500000009973 0
0 0.625000000001214 0
0 0.5937500000014309 0
0 0.5625000000016476 0
0 0.5312500000018643 0
0 0.5000000000020595 0
0 0.468750000001951 0
0 0.437500000001821 0
0 0.4062500000016909 0
0 0.3750000000015609 0
0 0.3437500000014307 0
0 0.3125000000013007 0
0 0.2812500000011706 0
0 0.2500000000010405 0
0 0.2187500000009105 0
0 0.1875000000007804 0
0 0.1562500000006504 0
0 0.1250000000005203 0
0 0.09375000000039024 0
0 0.06250000000026013 0
0 0.03125000000013012 0
2 1 0 961
129
130
131
132
133
134
135
136
137
138
139
140
141
142
143
144
145
146
147
148
149
150
151
152
153
154
155
156
157
158
159
160
161
162
163
164
165
166
167
168
169
170
171
172
173
174
175
176
177
178
179
180
181
182
183
184
185
186
187
188
189
190
191
192
193
194
195
196
197
198
199
200
201
202
203
204
205
206
207
208
209
210
211
212
213
214
215
216
217
218
219
220
221
222
223
224
225
226
227
228
229
230
231
232
233
234
235
236
237
238
239
240
241
242
243
244
245
246
247
248
249
250
251
252
253
254
255
256
257
258
259
260
261
262
263
264
265
266
267
268
269
270
271
272
273
274
275
276
277
278
279
280
281
282
283
284
285
286
287
288
289
290
291
292
293
294
295
296
297
298
299
300
301
302
303
304
305
306
307
308
309
310
311
312
313
314
315
316
317
318
319
320
321
322
323
324
325
326
327
328
329
330
331
332
333
334
335
336
337
338
339
340
341
342
343
344
345
346
347
348
349
350
351
352
353
354
355
356
357
358
359
360
361
362
363
364
365
366
367
368
369
370
371
372
373
374
375
376
377
378
379
380
381
382
383
384
385
386
387
388
389
390
391
392
393
394
395
396
397
398
399
400
401
402
403
404
405
406
407
408
409
410
411
412
413
414
415
416
417
418
419
420
421
422
423
424
425
426
427
428
429
430
431
432
433
434
435
436
437
438
439
440
441
442
443
444
445
446
447
448
449
450
451
452
453
454
455
456
457
458
459
460
461
462
463
464
465
466
467
468
469
470
471
472
473
474
475
476
477
478
479
480
481
482
483
484
485
486
487
488
489
490
491
492
493
494
495
496
497
498
499
500
501
502
503
504
505
506
507
508
509
510
511
512
513
514
515
516
517
518
519
520
521
522
523
524
525
526
527
528
529
530
531
532
533
534
535
536
537
538
539
540
541
542
543
544
545
546
547
548
549
550
551
552
553
554
555
556
557
558
559
560
561
562
563
564
565
566
567
568
569
570
571
572
573
574
575
576
577
578
579
580
581
582
583
584
585
586
587
588
589
590
591
592
593
594
595
596
597
598
599
600
601
602
603
604
605
606
607
608
609
610
611
612
613
614
615
616
617
618
619
620
621
622
623
624
625
626
627
628
629
630
631
632
633
634
635
636
637
638
639
640
641
642
643
644
645
646
647
648
649
650
651
652
653
654
655
656
657
658
659
660
661
662
663
664
665
666
667
668
669
670
671
672
673
674
675
676
677
678
679
680
681
682
683
684
685
686
687
688
689
690
691
692
693
694
695
696
697
698
699
700
701
702
703
704
705
706
707
708
709
710
711
712
713
714
715
716
717
718
719
720
721
722
723
724
725
726
727
728
729
730
731
732
733
734
735
736
737
738
739
740
741
742
743
744
745
746
747
748
749
750
751
752
753
754
755
756
757
758
759
760
761
762
763
764
765
766
767
768
769
770
771
772
773
774
775
776
777
778
779
780
781
782
783
784
785
786
787
788
789
790
791
792
793
794
795
796
797
798
799
800
801
802
803
804
805
806
807
808
809
810
811
812
813
814
815
816
817
818
819
820
821
822
823
824
825
826
827
828
829
830
831
832
833
834
835
836
837
838
839
840
841
842
843
844
845
846
847
848
849
850
851
852
853
854
855
856
857
858
859
860
861
862
863
864
865
866
867
868
869
870
871
872
873
874
875
876
877
878
879
880
881
882
883
884
885
886
887
888
889
890
891
892
893
894
895
896
897
898
899
900
901
902
903
904
905
906
907
908
909
910
911
912
913
914
915
916
917
918
919
920
921
922
923
924
925
926
927
928
929
930
931
932
933
934
935
936
937
938
939
940
941
942
943
944
945
946
947
948
949
950
951
952
953
954
955
956
957
958
959
960
961
962
963
964
965
966
967
968
969
970
971
972
973
974
975
976
977
978
979
980
981
982
983
984
985
986
987
988
989
990
991
992
993
994
995
996
997
998
999
1000
1001
1002
1003
1004
1005
1006
1007
1008
1009
1010
1011
1012
1013
1014
1015
1016
1017
1018
1019
1020
1021
1022
1023
1024
1025
1026
1027
1028
1029
1030
1031
1032
1033
1034
1035
1036
1037
1038
1039
1040
1041
1042
1043
1044
1045
1046
1047
1048
1049
1050
1051
1052
1053
1054
1055
1056
1057
1058
1059
1060
1061
1062
1063
1064
1065
1066
1067
1068
1069
1070
1071
1072
1073
1074
1075
1076
1077
1078
1079
1080
1081
1082
1083
1084
1085
1086
1087
1088
1089
0.03124999999994637 0.03125000000012419 0
0.0312499999999523 0.06250000000024804 0
0.03124999999995822 0.09375000000037254 0
0.03124999999996415 0.1250000000004969 0
0.03124999999997008 0.1562500000006202 0
0.03124999999997601 0.1875000000007433 0
0.03124999999998193 0.2187500000008665 0
0.03124999999998786 0.2500000000009895 0
0.03124999999999378 0.2812500000011128 0
0.03124999999999971 0.3125000000012359 0
0.03125000000000565 0.3437500000013591 0
0.03125000000001156 0.3750000000014823 0
0.0312500000000175 0.4062500000016054 0
0.03125000000002343 0.4375000000017286 0
0.03125000000002935 0.4687500000018517 0
0.03125000000003528 0.5000000000019541 0
0.0312500000000412 0.5312500000017673 0
0.03125000000004713 0.56250000000156 0
0.03125000000005305 0.5937500000013527 0
0.03125000000005899 0.6250000000011451 0
0.03125000000006491 0.6562500000009378 0
0.03125000000007085 0.6875000000007305 0
0.03125000000007677 0.7187500000005231 0
0.0312500000000827 0.7500000000003156 0
0.03125000000008862 0.781250000000108 0
0.03125000000009455 0.8124999999999004 0
0.03125000000010048 0.8437499999996931 0
0.0312500000001064 0.8749999999995065 0
0.03125000000011234 0.906249999999614 0
0.03125000000011825 0.9374999999997427 0
0.03125000000012419 0.9687499999998713 0
0.06249999999988501 0.03125000000011827 0
0.06249999999989711 0.06250000000023594 0
0.06249999999990921 0.09375000000035483 0
0.06249999999992131 0.1250000000004735 0
0.06249999999993341 0.15625000000059 0
0.0624999999999455 0.1875000000007062 0
0.0624999999999576 0.2187500000008225 0
0.0624999999999697 0.2500000000009386 0
0.06249999999998181 0.2812500000010549 0
0.06249999999999391 0.3125000000011712 0
0.06250000000000601 0.3437500000012874 0
0.06250000000001811 0.3750000000014037 0
0.06250000000003021 0.4062500000015198 0
0.06250000000004231 0.4375000000016362 0
0.06250000000005441 0.4687500000017524 0
0.06250000000006652 0.5000000000018489 0
0.06250000000007862 0.5312500000016704 0
0.06250000000009072 0.5625000000014725 0
0.06250000000010282 0.5937500000012745 0
0.06250000000011492 0.6250000000010763 0
0.06250000000012702 0.6562500000008782 0
0.06250000000013912 0.6875000000006803 0
0.06250000000015123 0.7187500000004821 0
0.06250000000016333 0.7500000000002839 0
0.06250000000017543 0.7812500000000859 0
0.06250000000018753 0.8124999999998879 0
0.06250000000019963 0.8437499999996897 0
0.06250000000021173 0.8749999999995118 0
0.06250000000022383 0.9062499999996185 0
0.06250000000023594 0.9374999999997458 0
0.06250000000024801 0.9687499999998728 0
0.0937499999998414 0.03125000000011234 0
0.09374999999985914 0.06250000000022383 0
0.09374999999987682 0.09375000000033715 0
0.09374999999989453 0.1250000000004502 0
0.09374999999991224 0.1562500000005598 0
0.09374999999992992 0.187500000000669 0
0.09374999999994765 0.2187500000007785 0
0.09374999999996533 0.2500000000008877 0
0.09374999999998304 0.2812500000009971 0
0.09375000000000075 0.3125000000011065 0
0.09375000000001846 0.3437500000012159 0
0.09375000000003617 0.3750000000013252 0
0.09375000000005387 0.4062500000014343 0
0.09375000000007158 0.4375000000015437 0
0.09375000000008926 0.468750000001653 0
0.09375000000010697 0.5000000000017436 0
0.09375000000012468 0.5312500000015736 0
0.09375000000014239 0.562500000001385 0
0.09375000000016009 0.5937500000011962 0
0.0937500000001778 0.6250000000010075 0
0.09375000000019551 0.6562500000008187 0
0.09375000000021319 0.6875000000006302 0
0.0937500000002309 0.7187500000004413 0
0.09375000000024861 0.7500000000002527 0
0.09375000000026631 0.7812500000000639 0
0.09375000000028402 0.812499999999875 0
0.09375000000030173 0.8437499999996861 0
0.09375000000031944 0.8749999999995173 0
0.09375000000033712 0.9062499999996231 0
0.09375000000035486 0.9374999999997486 0
0.09375000000037254 0.9687499999998744 0
0.1249999999997965 0.0312500000001064 0
0.1249999999998198 0.06250000000021173 0
0.1249999999998432 0.09375000000031941 0
0.1249999999998665 0.1250000000004269 0
0.1249999999998899 0.1562500000005297 0
0.1249999999999132 0.187500000000632 0
0.1249999999999365 0.2187500000007344 0
0.1249999999999599 0.2500000000008368 0
0.1249999999999833 0.2812500000009392 0
0.1250000000000066 0.3125000000010417 0
0.1250000000000299 0.3437500000011441 0
0.1250000000000533 0.3750000000012466 0
0.1250000000000766 0.4062500000013488 0
0.1250000000001 0.4375000000014513 0
0.1250000000001233 0.4687500000015537 0
0.1250000000001467 0.5000000000016384 0
0.12500000000017 0.5312500000014768 0
0.1250000000001934 0.5625000000012975 0
0.1250000000002167 0.593750000001118 0
0.1250000000002401 0.6250000000009386 0
0.1250000000002634 0.6562500000007594 0
0.1250000000002867 0.68750000000058 0
0.1250000000003101 0.7187500000004007 0
0.1250000000003334 0.7500000000002214 0
0.1250000000003568 0.7812500000000417 0
0.1250000000003802 0.8124999999998621 0
0.1250000000004035 0.8437499999996829 0
0.1250000000004269 0.8749999999995223 0
0.1250000000004502 0.9062499999996273 0
0.1250000000004735 0.9374999999997518 0
0.1250000000004969 0.9687499999998758 0
0.1562499999997147 0.03125000000010049 0
0.156249999999745 0.06250000000019963 0
0.1562499999997752 0.09375000000030173 0
0.1562499999998053 0.1250000000004035 0
0.1562499999998355 0.1562500000004995 0
0.1562499999998657 0.1875000000005949 0
0.1562499999998959 0.2187500000006904 0
0.1562499999999261 0.2500000000007858 0
0.1562499999999563 0.2812500000008814 0
0.1562499999999864 0.312500000000977 0
0.1562500000000166 0.3437500000010724 0
0.1562500000000467 0.375000000001168 0
0.1562500000000769 0.4062500000012633 0
0.1562500000001071 0.4375000000013589 0
0.1562500000001373 0.4687500000014543 0
0.1562500000001675 0.5000000000015333 0
0.1562500000001976 0.5312500000013798 0
0.1562500000002278 0.5625000000012098 0
0.156250000000258 0.5937500000010398 0
0.1562500000002882 0.6250000000008697 0
0.1562500000003184 0.6562500000006997 0
0.1562500000003486 0.6875000000005298 0
0.1562500000003787 0.7187500000003598 0
0.1562500000004089 0.7500000000001898 0
0.1562500000004391 0.7812500000000195 0
0.1562500000004693 0.8124999999998495 0
0.1562500000004995 0.8437499999996794 0
0.1562500000005296 0.8749999999995275 0
0.1562500000005598 0.9062499999996322 0
0.15625000000059 0.9374999999997546 0
0.1562500000006202 0.9687499999998773 0
0.1874999999996305 0.03125000000009455 0
0.1874999999996675 0.06250000000018753 0
0.1874999999997047 0.09375000000028402 0
0.1874999999997417 0.1250000000003802 0
0.1874999999997788 0.1562500000004693 0
0.1874999999998159 0.1875000000005578 0
0.187499999999853 0.2187500000006465 0
0.1874999999998901 0.250000000000735 0
0.1874999999999272 0.2812500000008236 0
0.1874999999999643 0.3125000000009122 0
0.1875000000000014 0.3437500000010008 0
0.1875000000000385 0.3750000000010894 0
0.1875000000000756 0.4062500000011778 0
0.1875000000001127 0.4375000000012665 0
0.1875000000001498 0.468750000001355 0
0.1875000000001869 0.5000000000014281 0
0.187500000000224 0.531250000001283 0
0.187500000000261 0.5625000000011221 0
0.1875000000002981 0.5937500000009617 0
0.1875000000003352 0.6250000000008009 0
0.1875000000003723 0.6562500000006404 0
0.1875000000004095 0.6875000000004796 0
0.1875000000004466 0.718750000000319 0
0.1875000000004836 0.7500000000001583 0
0.1875000000005207 0.7812499999999976 0
0.1875000000005578 0.8124999999998368 0
0.1875000000005949 0.8437499999996763 0
0.187500000000632 0.8749999999995327 0
0.1875000000006691 0.9062499999996365 0
0.1875000000007062 0.9374999999997577 0
0.1875000000007433 0.9687499999998789 0
0.2187499999995462 0.03125000000008862 0
0.2187499999995901 0.06250000000017543 0
0.2187499999996342 0.09375000000026631 0
0.2187499999996781 0.1250000000003569 0
0.2187499999997222 0.1562500000004391 0
0.2187499999997662 0.1875000000005207 0
0.2187499999998102 0.2187500000006024 0
0.2187499999998542 0.250000000000684 0
0.2187499999998983 0.2812500000007657 0
0.2187499999999423 0.3125000000008474 0
0.2187499999999863 0.3437500000009291 0
0.2187500000000303 0.3750000000010107 0
0.2187500000000743 0.4062500000010923 0
0.2187500000001182 0.4375000000011741 0
0.2187500000001623 0.4687500000012557 0
0.2187500000002063 0.5000000000013228 0
0.2187500000002503 0.5312500000011859 0
0.2187500000002943 0.5625000000010346 0
0.2187500000003384 0.5937500000008835 0
0.2187500000003824 0.6250000000007321 0
0.2187500000004264 0.6562500000005809 0
0.2187500000004704 0.6875000000004294 0
0.2187500000005144 0.7187500000002781 0
0.2187500000005584 0.7500000000001268 0
0.2187500000006024 0.7812499999999756 0
0.2187500000006464 0.8124999999998239 0
0.2187500000006904 0.8437499999996725 0
0.2187500000007345 0.8749999999995379 0
0.2187500000007785 0.9062499999996411 0
0.2187500000008225 0.9374999999997606 0
0.2187500000008665 0.9687499999998802 0
0.2499999999994619 0.0312500000000827 0
0.2499999999995128 0.06250000000016333 0
0.2499999999995637 0.09375000000024861 0
0.2499999999996146 0.1250000000003334 0
0.2499999999996655 0.1562500000004089 0
0.2499999999997164 0.1875000000004836 0
0.2499999999997674 0.2187500000005584 0
0.2499999999998184 0.250000000000633 0
0.2499999999998692 0.2812500000007079 0
0.2499999999999202 0.3125000000007827 0
0.249999999999971 0.3437500000008574 0
0.250000000000022 0.3750000000009321 0
0.2500000000000729 0.4062500000010069 0
0.2500000000001239 0.4375000000010816 0
0.2500000000001747 0.4687500000011564 0
0.2500000000002257 0.5000000000012176 0
0.2500000000002767 0.5312500000010891 0
0.2500000000003275 0.5625000000009471 0
0.2500000000003785 0.5937500000008054 0
0.2500000000004294 0.6250000000006632 0
0.2500000000004803 0.6562500000005214 0
0.2500000000005312 0.6875000000003793 0
0.2500000000005822 0.7187500000002373 0
0.250000000000633 0.7500000000000955 0
0.250000000000684 0.7812499999999534 0
0.250000000000735 0.8124999999998113 0
0.2500000000007859 0.8437499999996692 0
0.2500000000008368 0.8749999999995434 0
0.2500000000008877 0.9062499999996456 0
0.2500000000009387 0.9374999999997635 0
0.2500000000009895 0.968749999999882 0
0.2812499999993776 0.03125000000007677 0
0.2812499999994355 0.06250000000015123 0
0.2812499999994933 0.0937500000002309 0
0.2812499999995511 0.1250000000003101 0
0.2812499999996089 0.1562500000003788 0
0.2812499999996668 0.1875000000004466 0
0.2812499999997246 0.2187500000005144 0
0.2812499999997824 0.2500000000005822 0
0.2812499999998402 0.28125000000065 0
0.2812499999998982 0.3125000000007179 0
0.2812499999999559 0.3437500000007857 0
0.2812500000000139 0.3750000000008535 0
0.2812500000000717 0.4062500000009214 0
0.2812500000001296 0.4375000000009892 0
0.2812500000001873 0.4687500000010569 0
0.2812500000002452 0.5000000000011126 0
0.281250000000303 0.5312500000009923 0
0.2812500000003608 0.5625000000008596 0
0.2812500000004187 0.593750000000727 0
0.2812500000004765 0.6250000000005944 0
0.2812500000005344 0.6562500000004619 0
0.2812500000005922 0.6875000000003291 0
0.28125000000065 0.7187500000001963 0
0.2812500000007079 0.7500000000000639 0
0.2812500000007657 0.7812499999999312 0
0.2812500000008236 0.8124999999997986 0
0.2812500000008814 0.8437499999996659 0
0.2812500000009392 0.8749999999995488 0
0.2812500000009971 0.9062499999996498 0
0.2812500000010549 0.9374999999997666 0
0.2812500000011128 0.9687499999998833 0
0.3124999999992932 0.03125000000007085 0
0.312499999999358 0.06250000000013912 0
0.3124999999994229 0.09375000000021319 0
0.3124999999994875 0.1250000000002868 0
0.3124999999995522 0.1562500000003486 0
0.3124999999996171 0.1875000000004095 0
0.3124999999996818 0.2187500000004704 0
0.3124999999997466 0.2500000000005312 0
0.3124999999998113 0.2812500000005922 0
0.3124999999998761 0.3125000000006531 0
0.3124999999999408 0.343750000000714 0
0.3125000000000056 0.3750000000007749 0
0.3125000000000704 0.4062500000008359 0
0.3125000000001351 0.4375000000008968 0
0.3125000000001998 0.4687500000009577 0
0.3125000000002647 0.5000000000010073 0
0.3125000000003293 0.5312500000008953 0
0.3125000000003941 0.5625000000007722 0
0.312500000000459 0.5937500000006488 0
0.3125000000005236 0.6250000000005256 0
0.3125000000005884 0.6562500000004023 0
0.3125000000006531 0.6875000000002789 0
0.3125000000007179 0.7187500000001558 0
0.3125000000007827 0.7500000000000326 0
0.3125000000008474 0.7812499999999092 0
0.3125000000009122 0.8124999999997857 0
0.312500000000977 0.8437499999996623 0
0.3125000000010417 0.874999999999554 0
0.3125000000011064 0.9062499999996543 0
0.3125000000011713 0.9374999999997697 0
0.312500000001236 0.9687499999998845 0
0.343749999999209 0.03125000000006492 0
0.3437499999992806 0.06250000000012702 0
0.3437499999993524 0.09375000000019548 0
0.343749999999424 0.1250000000002634 0
0.3437499999994956 0.1562500000003184 0
0.3437499999995672 0.1875000000003724 0
0.3437499999996391 0.2187500000004264 0
0.3437499999997107 0.2500000000004803 0
0.3437499999997823 0.2812500000005344 0
0.343749999999854 0.3125000000005884 0
0.3437499999999257 0.3437500000006424 0
0.3437499999999974 0.3750000000006963 0
0.3437500000000689 0.4062500000007504 0
0.3437500000001407 0.4375000000008045 0
0.3437500000002123 0.4687500000008583 0
0.3437500000002841 0.5000000000009021 0
0.3437500000003557 0.5312500000007985 0
0.3437500000004273 0.5625000000006847 0
0.343750000000499 0.5937500000005707 0
0.3437500000005708 0.6250000000004567 0
0.3437500000006424 0.6562500000003428 0
0.343750000000714 0.6875000000002287 0
0.3437500000007857 0.7187500000001149 0
0.3437500000008574 0.7500000000000011 0
0.3437500000009291 0.781249999999887 0
0.3437500000010006 0.8124999999997731 0
0.3437500000010724 0.8437499999996591 0
0.3437500000011441 0.8749999999995595 0
0.3437500000012158 0.9062499999996588 0
0.3437500000012874 0.9374999999997726 0
0.343750000001359 0.9687499999998864 0
0.3749999999991248 0.03125000000005899 0
0.3749999999992032 0.06250000000011492 0
0.3749999999992818 0.09375000000017777 0
0.3749999999993604 0.1250000000002401 0
0.374999999999439 0.1562500000002882 0
0.3749999999995177 0.1875000000003352 0
0.3749999999995962 0.2187500000003823 0
0.3749999999996749 0.2500000000004294 0
0.3749999999997533 0.2812500000004765 0
0.3749999999998319 0.3125000000005236 0
0.3749999999999105 0.3437500000005707 0
0.3749999999999891 0.3750000000006178 0
0.3750000000000677 0.4062500000006649 0
0.3750000000001463 0.4375000000007121 0
0.3750000000002249 0.468750000000759 0
0.3750000000003035 0.5000000000007968 0
0.375000000000382 0.5312500000007014 0
0.3750000000004607 0.562500000000597 0
0.3750000000005392 0.5937500000004925 0
0.3750000000006178 0.6250000000003879 0
0.3750000000006964 0.6562500000002833 0
0.3750000000007749 0.6875000000001787 0
0.3750000000008535 0.7187500000000743 0
0.3750000000009321 0.7499999999999696 0
0.3750000000010107 0.781249999999865 0
0.3750000000010894 0.8124999999997604 0
0.375000000001168 0.8437499999996557 0
0.3750000000012466 0.8749999999995647 0
0.3750000000013252 0.9062499999996633 0
0.3750000000014038 0.9374999999997755 0
0.3750000000014824 0.9687499999998879 0
0.4062499999990403 0.03125000000005305 0
0.4062499999991258 0.06250000000010282 0
0.4062499999992113 0.09375000000016007 0
0.4062499999992969 0.1250000000002167 0
0.4062499999993825 0.156250000000258 0
0.4062499999994679 0.1875000000002981 0
0.4062499999995535 0.2187500000003384 0
0.4062499999996388 0.2500000000003785 0
0.4062499999997244 0.2812500000004187 0
0.4062499999998098 0.3125000000004589 0
0.4062499999998954 0.343750000000499 0
0.4062499999999809 0.3750000000005392 0
0.4062500000000664 0.4062500000005794 0
0.4062500000001519 0.4375000000006196 0
0.4062500000002374 0.4687500000006598 0
0.4062500000003229 0.5000000000006916 0
0.4062500000004085 0.5312500000006046 0
0.4062500000004939 0.5625000000005095 0
0.4062500000005794 0.5937500000004143 0
0.4062500000006649 0.6250000000003191 0
0.4062500000007504 0.6562500000002238 0
0.4062500000008359 0.6875000000001286 0
0.4062500000009214 0.7187500000000334 0
0.4062500000010069 0.7499999999999383 0
0.4062500000010923 0.7812499999998428 0
0.4062500000011778 0.8124999999997475 0
0.4062500000012633 0.8437499999996522 0
0.4062500000013488 0.8749999999995701 0
0.4062500000014344 0.9062499999996677 0
0.4062500000015198 0.9374999999997786 0
0.4062500000016054 0.968749999999889 0
0.4374999999989561 0.03125000000004714 0
0.4374999999990484 0.06250000000009072 0
0.4374999999991409 0.09375000000014239 0
0.4374999999992332 0.1250000000001934 0
0.4374999999993257 0.1562500000002278 0
0.4374999999994182 0.187500000000261 0
0.4374999999995104 0.2187500000002943 0
0.4374999999996029 0.2500000000003275 0
0.4374999999996955 0.2812500000003608 0
0.4374999999997878 0.3125000000003941 0
0.4374999999998803 0.3437500000004273 0
0.4374999999999727 0.3750000000004607 0
0.4375000000000651 0.4062500000004939 0
0.4375000000001574 0.437500000000527 0
0.43750000000025 0.4687500000005603 0
0.4375000000003423 0.5000000000005863 0
0.4375000000004347 0.5312500000005078 0
0.4375000000005271 0.5625000000004217 0
0.4375000000006197 0.5937500000003362 0
0.4375000000007119 0.6250000000002502 0
0.4375000000008044 0.6562500000001643 0
0.4375000000008967 0.6875000000000784 0
0.4375000000009892 0.7187499999999925 0
0.4375000000010818 0.7499999999999067 0
0.4375000000011741 0.7812499999998208 0
0.4375000000012664 0.8124999999997349 0
0.4375000000013589 0.8437499999996489 0
0.4375000000014513 0.8749999999995752 0
0.4375000000015437 0.906249999999672 0
0.4375000000016362 0.9374999999997815 0
0.4375000000017286 0.9687499999998908 0
0.4687499999988717 0.0312500000000412 0
0.4687499999989711 0.06250000000007862 0
0.4687499999990704 0.09375000000012465 0
0.4687499999991697 0.12500000000017 0
0.4687499999992691 0.1562500000001976 0
0.4687499999993683 0.187500000000224 0
0.4687499999994678 0.2187500000002504 0
0.4687499999995672 0.2500000000002767 0
0.4687499999996664 0.281250000000303 0
0.4687499999997657 0.3125000000003293 0
0.4687499999998651 0.3437500000003556 0
0.4687499999999645 0.375000000000382 0
0.4687500000000638 0.4062500000004083 0
0.468750000000163 0.4375000000004347 0
0.4687500000002623 0.4687500000004611 0
0.4687500000003617 0.5000000000004811 0
0.468750000000461 0.5312500000004108 0
0.4687500000005604 0.5625000000003343 0
0.4687500000006598 0.5937500000002578 0
0.468750000000759 0.6250000000001812 0
0.4687500000008583 0.6562500000001048 0
0.4687500000009577 0.6875000000000282 0
0.4687500000010569 0.7187499999999517 0
0.4687500000011562 0.7499999999998752 0
0.4687500000012557 0.7812499999997986 0
0.4687500000013551 0.812499999999722 0
0.4687500000014544 0.8437499999996456 0
0.4687500000015537 0.8749999999995803 0
0.468750000001653 0.9062499999996767 0
0.4687500000017523 0.9374999999997844 0
0.4687500000018517 0.9687499999998923 0
0.4999999999987974 0.03125000000003528 0
0.4999999999989027 0.06250000000006652 0
0.4999999999990078 0.09375000000010697 0
0.499999999999113 0.1250000000001467 0
0.4999999999992182 0.1562500000001675 0
0.4999999999993235 0.1875000000001869 0
0.4999999999994288 0.2187500000002064 0
0.4999999999995338 0.2500000000002257 0
0.4999999999996393 0.2812500000002451 0
0.4999999999997443 0.3125000000002647 0
0.4999999999998496 0.343750000000284 0
0.4999999999999548 0.3750000000003034 0
0.5000000000000601 0.4062500000003229 0
0.5000000000001653 0.4375000000003423 0
0.5000000000002706 0.4687500000003618 0
0.5000000000003758 0.5000000000003758 0
0.5000000000004811 0.531250000000314 0
0.5000000000005863 0.5625000000002468 0
0.5000000000006916 0.5937500000001796 0
0.5000000000007968 0.6250000000001126 0
0.5000000000009018 0.6562500000000453 0
0.5000000000010073 0.6874999999999782 0
0.5000000000011123 0.7187499999999108 0
0.5000000000012176 0.7499999999998439 0
0.5000000000013228 0.7812499999997766 0
0.5000000000014281 0.8124999999997093 0
0.5000000000015333 0.843749999999642 0
0.5000000000016386 0.8749999999995856 0
0.5000000000017438 0.906249999999681 0
0.5000000000018491 0.9374999999997875 0
0.5000000000019541 0.9687499999998938 0
0.5312499999988605 0.03125000000002935 0
0.5312499999989575 0.06250000000005441 0
0.5312499999990543 0.09375000000008926 0
0.5312499999991513 0.1250000000001234 0
0.5312499999992482 0.1562500000001373 0
0.5312499999993452 0.1875000000001498 0
0.531249999999442 0.2187500000001623 0
0.5312499999995388 0.2500000000001747 0
0.5312499999996356 0.2812500000001873 0
0.5312499999997327 0.3125000000001998 0
0.5312499999998295 0.3437500000002124 0
0.5312499999999265 0.3750000000002249 0
0.5312500000000233 0.4062500000002374 0
0.5312500000001203 0.43750000000025 0
0.5312500000002169 0.4687500000002623 0
0.531250000000314 0.5000000000002706 0
0.5312500000004108 0.5312500000002169 0
0.5312500000005078 0.5625000000001593 0
0.5312500000006046 0.5937500000001015 0
0.5312500000007014 0.6250000000000437 0
0.5312500000007985 0.6562499999999858 0
0.5312500000008953 0.6874999999999281 0
0.5312500000009923 0.71874999999987 0
0.5312500000010891 0.7499999999998124 0
0.5312500000011859 0.7812499999997544 0
0.531250000001283 0.8124999999996965 0
0.5312500000013798 0.8437499999996388 0
0.5312500000014768 0.8749999999995909 0
0.5312500000015736 0.9062499999996855 0
0.5312500000016704 0.9374999999997904 0
0.5312500000017673 0.9687499999998953 0
0.5624999999989334 0.03125000000002343 0
0.5624999999990211 0.06250000000004231 0
0.5624999999991088 0.09375000000007155 0
0.5624999999991961 0.1250000000000999 0
0.5624999999992838 0.1562500000001071 0
0.5624999999993713 0.1875000000001127 0
0.562499999999459 0.2187500000001183 0
0.5624999999995465 0.2500000000001239 0
0.562499999999634 0.2812500000001295 0
0.5624999999997214 0.3125000000001351 0
0.5624999999998089 0.3437500000001407 0
0.5624999999998966 0.3750000000001463 0
0.5624999999999843 0.4062500000001519 0
0.5625000000000717 0.4375000000001575 0
0.5625000000001593 0.468750000000163 0
0.5625000000002468 0.5000000000001653 0
0.5625000000003343 0.5312500000001201 0
0.5625000000004218 0.5625000000000718 0
0.5625000000005095 0.5937500000000233 0
0.562500000000597 0.6249999999999749 0
0.5625000000006847 0.6562499999999265 0
0.5625000000007722 0.6874999999998779 0
0.5625000000008596 0.7187499999998294 0
0.5625000000009471 0.7499999999997808 0
0.5625000000010346 0.7812499999997324 0
0.5625000000011223 0.8124999999996838 0
0.5625000000012098 0.8437499999996353 0
0.5625000000012973 0.8749999999995962 0
0.562500000001385 0.9062499999996905 0
0.5625000000014725 0.9374999999997935 0
0.56250000000156 0.9687499999998966 0
0.5937499999990068 0.0312500000000175 0
0.593749999999085 0.06250000000003021 0
0.5937499999991629 0.09375000000005385 0
0.5937499999992413 0.1250000000000766 0
0.5937499999993194 0.1562500000000769 0
0.5937499999993976 0.1875000000000756 0
0.593749999999476 0.2187500000000742 0
0.5937499999995541 0.2500000000000729 0
0.5937499999996323 0.2812500000000716 0
0.5937499999997105 0.3125000000000704 0
0.5937499999997886 0.3437500000000691 0
0.593749999999867 0.3750000000000677 0
0.5937499999999449 0.4062500000000664 0
0.5937500000000233 0.4375000000000651 0
0.5937500000001015 0.4687500000000638 0
0.5937500000001799 0.5000000000000601 0
0.593750000000258 0.5312500000000233 0
0.593750000000336 0.5624999999999843 0
0.5937500000004143 0.5937499999999449 0
0.5937500000004925 0.6249999999999061 0
0.5937500000005707 0.6562499999998668 0
0.5937500000006488 0.6874999999998277 0
0.593750000000727 0.7187499999997887 0
0.5937500000008051 0.7499999999997495 0
0.5937500000008835 0.7812499999997102 0
0.5937500000009617 0.8124999999996712 0
0.5937500000010401 0.843749999999632 0
0.5937500000011182 0.8749999999996015 0
0.5937500000011964 0.9062499999996949 0
0.5937500000012745 0.9374999999997964 0
0.5937500000013527 0.9687499999998984 0
0.6249999999990796 0.03125000000001157 0
0.6249999999991487 0.06250000000001811 0
0.6249999999992176 0.09375000000003617 0
0.6249999999992861 0.1250000000000533 0
0.6249999999993552 0.1562500000000467 0
0.624999999999424 0.1875000000000385 0
0.6249999999994929 0.2187500000000303 0
0.6249999999995615 0.250000000000022 0
0.6249999999996305 0.2812500000000138 0
0.6249999999996996 0.3125000000000056 0
0.6249999999997682 0.3437499999999973 0
0.624999999999837 0.3749999999999891 0
0.6249999999999059 0.4062499999999809 0
0.6249999999999749 0.4374999999999726 0
0.6250000000000437 0.4687499999999643 0
0.6250000000001124 0.4999999999999548 0
0.6250000000001814 0.5312499999999265 0
0.6250000000002502 0.5624999999998964 0
0.6250000000003191 0.5937499999998668 0
0.6250000000003879 0.624999999999837 0
0.6250000000004567 0.6562499999998075 0
0.6250000000005256 0.6874999999997775 0
0.6250000000005944 0.7187499999997479 0
0.6250000000006632 0.749999999999718 0
0.6250000000007321 0.7812499999996882 0
0.6250000000008009 0.8124999999996583 0
0.6250000000008697 0.8437499999996286 0
0.6250000000009386 0.874999999999607 0
0.6250000000010074 0.9062499999996991 0
0.6250000000010763 0.9374999999997993 0
0.6250000000011451 0.9687499999998997 0
0.6562499999991532 0.03125000000000565 0
0.6562499999992122 0.06250000000000601 0
0.6562499999992717 0.09375000000001846 0
0.6562499999993312 0.1250000000000299 0
0.6562499999993909 0.1562500000000165 0
0.6562499999994504 0.1875000000000014 0
0.6562499999995099 0.2187499999999863 0
0.6562499999995692 0.2499999999999711 0
0.656249999999629 0.2812499999999559 0
0.6562499999996885 0.3124999999999408 0
0.656249999999748 0.3437499999999257 0
0.6562499999998073 0.3749999999999105 0
0.6562499999998668 0.4062499999998954 0
0.6562499999999263 0.4374999999998803 0
0.6562499999999858 0.4687499999998651 0
0.6562500000000453 0.4999999999998496 0
0.6562500000001048 0.5312499999998295 0
0.6562500000001643 0.5624999999998089 0
0.656250000000224 0.5937499999997886 0
0.6562500000002833 0.6249999999997682 0
0.6562500000003428 0.656249999999748 0
0.6562500000004023 0.6874999999997273 0
0.6562500000004619 0.718749999999707 0
0.6562500000005214 0.7499999999996867 0
0.6562500000005809 0.781249999999666 0
0.6562500000006404 0.8124999999996456 0
0.6562500000006997 0.8437499999996251 0
0.6562500000007594 0.8749999999996123 0
0.6562500000008187 0.9062499999997038 0
0.6562500000008782 0.9374999999998024 0
0.6562500000009377 0.9687499999999011 0
0.6874999999992257 0.03124999999999971 0
0.6874999999992761 0.06249999999999391 0
0.6874999999993261 0.09375000000000075 0
0.6874999999993765 0.1250000000000066 0
0.6874999999994267 0.1562499999999864 0
0.6874999999994766 0.1874999999999643 0
0.6874999999995268 0.2187499999999423 0
0.687499999999577 0.2499999999999202 0
0.6874999999996272 0.2812499999998982 0
0.6874999999996771 0.3124999999998761 0
0.6874999999997273 0.343749999999854 0
0.6874999999997775 0.3749999999998319 0
0.6874999999998277 0.4062499999998098 0
0.6874999999998779 0.4374999999997878 0
0.6874999999999281 0.4687499999997658 0
0.6874999999999782 0.4999999999997443 0
0.6875000000000282 0.5312499999997327 0
0.6875000000000784 0.5624999999997214 0
0.6875000000001286 0.5937499999997105 0
0.6875000000001787 0.6249999999996994 0
0.6875000000002289 0.6562499999996885 0
0.6875000000002791 0.6874999999996771 0
0.6875000000003291 0.7187499999996662 0
0.6875000000003793 0.7499999999996552 0
0.6875000000004294 0.7812499999996441 0
0.6875000000004796 0.812499999999633 0
0.6875000000005298 0.843749999999622 0
0.68750000000058 0.8749999999996176 0
0.6875000000006302 0.906249999999708 0
0.6875000000006803 0.9374999999998053 0
0.6875000000007303 0.9687499999999029 0
0.718749999999299 0.03124999999999378 0
0.7187499999993396 0.06249999999998181 0
0.7187499999993806 0.09374999999998304 0
0.7187499999994212 0.1249999999999833 0
0.7187499999994621 0.1562499999999562 0
0.718749999999503 0.1874999999999272 0
0.718749999999544 0.2187499999998983 0
0.7187499999995847 0.2499999999998692 0
0.7187499999996252 0.2812499999998402 0
0.7187499999996662 0.3124999999998113 0
0.7187499999997068 0.3437499999997823 0
0.7187499999997479 0.3749999999997533 0
0.7187499999997885 0.4062499999997243 0
0.7187499999998292 0.4374999999996954 0
0.71874999999987 0.4687499999996664 0
0.7187499999999111 0.4999999999996391 0
0.7187499999999517 0.5312499999996356 0
0.7187499999999926 0.562499999999634 0
0.7187500000000334 0.5937499999996323 0
0.7187500000000741 0.6249999999996305 0
0.7187500000001151 0.656249999999629 0
0.7187500000001558 0.6874999999996272 0
0.7187500000001965 0.7187499999996252 0
0.7187500000002373 0.7499999999996236 0
0.7187500000002781 0.7812499999996219 0
0.7187500000003189 0.8124999999996201 0
0.7187500000003598 0.8437499999996184 0
0.7187500000004008 0.8749999999996227 0
0.7187500000004413 0.9062499999997125 0
0.7187500000004822 0.9374999999998084 0
0.7187500000005228 0.9687499999999042 0
0.7499999999993722 0.03124999999998786 0
0.7499999999994033 0.0624999999999697 0
0.7499999999994349 0.09374999999996533 0
0.7499999999994664 0.1249999999999599 0
0.749999999999498 0.1562499999999261 0
0.7499999999995295 0.1874999999998901 0
0.7499999999995608 0.2187499999998542 0
0.7499999999995921 0.2499999999998184 0
0.7499999999996236 0.2812499999997825 0
0.7499999999996552 0.3124999999997466 0
0.7499999999996867 0.3437499999997107 0
0.7499999999997182 0.3749999999996748 0
0.7499999999997495 0.4062499999996388 0
0.7499999999997808 0.437499999999603 0
0.7499999999998124 0.4687499999995671 0
0.7499999999998439 0.4999999999995339 0
0.7499999999998754 0.5312499999995388 0
0.749999999999907 0.5624999999995465 0
0.749999999999938 0.5937499999995541 0
0.7499999999999696 0.6249999999995617 0
0.7500000000000011 0.6562499999995695 0
0.7500000000000326 0.6874999999995768 0
0.7500000000000639 0.7187499999995844 0
0.7500000000000955 0.7499999999995921 0
0.7500000000001268 0.7812499999995999 0
0.7500000000001583 0.8124999999996074 0
0.7500000000001898 0.843749999999615 0
0.7500000000002214 0.8749999999996279 0
0.7500000000002527 0.9062499999997169 0
0.750000000000284 0.9374999999998113 0
0.7500000000003155 0.9687499999999055 0
0.781249999999445 0.03124999999998193 0
0.7812499999994673 0.0624999999999576 0
0.7812499999994891 0.09374999999994763 0
0.7812499999995115 0.1249999999999365 0
0.7812499999995335 0.1562499999998959 0
0.7812499999995557 0.187499999999853 0
0.7812499999995777 0.2187499999998102 0
0.7812499999995997 0.2499999999997674 0
0.7812499999996221 0.2812499999997246 0
0.7812499999996438 0.3124999999996818 0
0.781249999999666 0.343749999999639 0
0.7812499999996882 0.3749999999995962 0
0.7812499999997105 0.4062499999995534 0
0.7812499999997324 0.4374999999995106 0
0.7812499999997544 0.4687499999994678 0
0.7812499999997766 0.4999999999994288 0
0.7812499999997986 0.531249999999442 0
0.7812499999998208 0.562499999999459 0
0.781249999999843 0.593749999999476 0
0.781249999999865 0.6249999999994929 0
0.7812499999998868 0.6562499999995099 0
0.781249999999909 0.6874999999995268 0
0.7812499999999312 0.7187499999995438 0
0.7812499999999534 0.7499999999995608 0
0.7812499999999756 0.7812499999995777 0
0.7812499999999976 0.8124999999995948 0
0.7812500000000195 0.8437499999996116 0
0.7812500000000417 0.8749999999996333 0
0.7812500000000639 0.9062499999997214 0
0.7812500000000857 0.9374999999998144 0
0.7812500000001079 0.9687499999999073 0
0.8124999999995183 0.03124999999997601 0
0.812499999999531 0.0624999999999455 0
0.8124999999995437 0.09374999999992992 0
0.8124999999995566 0.1249999999999132 0
0.8124999999995692 0.1562499999998657 0
0.8124999999995821 0.187499999999816 0
0.8124999999995948 0.2187499999997662 0
0.8124999999996072 0.2499999999997164 0
0.8124999999996201 0.2812499999996668 0
0.812499999999633 0.3124999999996171 0
0.8124999999996456 0.3437499999995673 0
0.8124999999996583 0.3749999999995177 0
0.8124999999996712 0.4062499999994679 0
0.812499999999684 0.4374999999994181 0
0.8124999999996967 0.4687499999993683 0
0.8124999999997093 0.4999999999993235 0
0.8124999999997222 0.531249999999345 0
0.8124999999997349 0.5624999999993715 0
0.8124999999997475 0.5937499999993978 0
0.8124999999997604 0.624999999999424 0
0.8124999999997731 0.6562499999994504 0
0.8124999999997857 0.6874999999994766 0
0.8124999999997986 0.7187499999995028 0
0.812499999999811 0.7499999999995295 0
0.8124999999998239 0.7812499999995555 0
0.8124999999998368 0.8124999999995819 0
0.8124999999998497 0.8437499999996083 0
0.8124999999998621 0.8749999999996384 0
0.812499999999875 0.9062499999997259 0
0.8124999999998879 0.9374999999998173 0
0.8124999999999003 0.9687499999999086 0
0.8437499999995912 0.03124999999997008 0
0.8437499999995947 0.06249999999993341 0
0.843749999999598 0.09374999999991221 0
0.8437499999996017 0.1249999999998899 0
0.843749999999605 0.1562499999998355 0
0.8437499999996083 0.1874999999997789 0
0.8437499999996114 0.2187499999997222 0
0.8437499999996148 0.2499999999996655 0
0.8437499999996182 0.2812499999996089 0
0.8437499999996219 0.3124999999995524 0
0.8437499999996251 0.3437499999994956 0
0.8437499999996286 0.3749999999994391 0
0.8437499999996322 0.4062499999993824 0
0.8437499999996354 0.4374999999993257 0
0.8437499999996387 0.4687499999992691 0
0.8437499999996422 0.4999999999992183 0
0.8437499999996455 0.5312499999992482 0
0.8437499999996491 0.5624999999992838 0
0.8437499999996522 0.5937499999993194 0
0.8437499999996557 0.6249999999993552 0
0.8437499999996593 0.6562499999993909 0
0.8437499999996624 0.6874999999994265 0
0.8437499999996657 0.7187499999994623 0
0.8437499999996694 0.749999999999498 0
0.8437499999996727 0.7812499999995335 0
0.8437499999996763 0.8124999999995692 0
0.8437499999996793 0.8437499999996049 0
0.8437499999996828 0.8749999999996437 0
0.8437499999996861 0.9062499999997303 0
0.8437499999996894 0.9374999999998201 0
0.843749999999693 0.9687499999999102 0
0.874999999999665 0.03124999999996415 0
0.8749999999996597 0.06249999999992131 0
0.8749999999996545 0.0937499999998945 0
0.8749999999996491 0.1249999999998665 0
0.8749999999996438 0.1562499999998053 0
0.8749999999996384 0.1874999999997418 0
0.8749999999996332 0.2187499999996782 0
0.874999999999628 0.2499999999996146 0
0.8749999999996227 0.2812499999995511 0
0.8749999999996173 0.3124999999994875 0
0.8749999999996121 0.343749999999424 0
0.8749999999996069 0.3749999999993605 0
0.8749999999996017 0.4062499999992969 0
0.8749999999995961 0.4374999999992332 0
0.874999999999591 0.4687499999991697 0
0.8749999999995856 0.499999999999113 0
0.8749999999995804 0.5312499999991511 0
0.8749999999995753 0.5624999999991961 0
0.8749999999995698 0.5937499999992413 0
0.8749999999995648 0.6249999999992863 0
0.8749999999995595 0.6562499999993314 0
0.8749999999995541 0.6874999999993765 0
0.8749999999995488 0.7187499999994216 0
0.8749999999995433 0.7499999999994664 0
0.874999999999538 0.7812499999995115 0
0.8749999999995327 0.8124999999995566 0
0.8749999999995274 0.8437499999996015 0
0.8749999999995223 0.8749999999996491 0
0.8749999999995172 0.9062499999997348 0
0.8749999999995118 0.9374999999998233 0
0.8749999999995065 0.9687499999999117 0
0.9062499999997483 0.03124999999995822 0
0.9062499999997438 0.06249999999990921 0
0.9062499999997392 0.09374999999987682 0
0.9062499999997348 0.1249999999998432 0
0.9062499999997303 0.1562499999997751 0
0.9062499999997258 0.1874999999997047 0
0.9062499999997214 0.2187499999996342 0
0.9062499999997171 0.2499999999995637 0
0.9062499999997125 0.2812499999994932 0
0.9062499999997078 0.3124999999994228 0
0.9062499999997035 0.3437499999993523 0
0.9062499999996992 0.3749999999992819 0
0.9062499999996946 0.4062499999992114 0
0.9062499999996898 0.4374999999991408 0
0.9062499999996858 0.4687499999990704 0
0.9062499999996813 0.4999999999990078 0
0.9062499999996766 0.5312499999990543 0
0.9062499999996723 0.5624999999991086 0
0.9062499999996678 0.5937499999991631 0
0.9062499999996632 0.6249999999992175 0
0.9062499999996589 0.6562499999992719 0
0.9062499999996543 0.6874999999993263 0
0.9062499999996498 0.7187499999993806 0
0.9062499999996454 0.7499999999994349 0
0.9062499999996411 0.7812499999994893 0
0.9062499999996366 0.8124999999995437 0
0.9062499999996322 0.843749999999598 0
0.9062499999996275 0.8749999999996544 0
0.9062499999996231 0.9062499999997392 0
0.9062499999996184 0.9374999999998261 0
0.9062499999996142 0.9687499999999132 0
0.9374999999998319 0.0312499999999523 0
0.9374999999998292 0.06249999999989712 0
0.9374999999998261 0.09374999999985911 0
0.9374999999998233 0.1249999999998198 0
0.9374999999998201 0.156249999999745 0
0.9374999999998173 0.1874999999996676 0
0.9374999999998144 0.2187499999995902 0
0.937499999999811 0.2499999999995128 0
0.9374999999998084 0.2812499999994355 0
0.9374999999998053 0.3124999999993581 0
0.9374999999998024 0.3437499999992807 0
0.9374999999997995 0.3749999999992033 0
0.9374999999997964 0.4062499999991259 0
0.9374999999997935 0.4374999999990485 0
0.9374999999997902 0.4687499999989711 0
0.9374999999997875 0.4999999999989025 0
0.9374999999997844 0.5312499999989575 0
0.9374999999997813 0.5624999999990211 0
0.9374999999997786 0.593749999999085 0
0.9374999999997755 0.6249999999991487 0
0.9374999999997726 0.6562499999992124 0
0.9374999999997697 0.6874999999992761 0
0.9374999999997666 0.7187499999993398 0
0.9374999999997635 0.7499999999994036 0
0.9374999999997609 0.7812499999994673 0
0.9374999999997577 0.8124999999995308 0
0.9374999999997546 0.8437499999995945 0
0.9374999999997515 0.8749999999996597 0
0.9374999999997486 0.9062499999997439 0
0.9374999999997458 0.9374999999998292 0
0.9374999999997427 0.9687499999999146 0
0.9687499999999162 0.03124999999994636 0
0.9687499999999147 0.06249999999988501 0
0.9687499999999131 0.0937499999998414 0
0.9687499999999115 0.1249999999997965 0
0.9687499999999102 0.1562499999997148 0
0.9687499999999086 0.1874999999996304 0
0.9687499999999071 0.2187499999995461 0
0.9687499999999057 0.2499999999994619 0
0.9687499999999042 0.2812499999993775 0
0.9687499999999027 0.3124999999992932 0
0.9687499999999011 0.343749999999209 0
0.9687499999998999 0.3749999999991247 0
0.9687499999998981 0.4062499999990404 0
0.9687499999998967 0.4374999999989561 0
0.9687499999998954 0.4687499999988718 0
0.968749999999894 0.4999999999987973 0
0.9687499999998922 0.5312499999988607 0
0.9687499999998909 0.5624999999989336 0
0.9687499999998891 0.5937499999990066 0
0.9687499999998878 0.6249999999990796 0
0.9687499999998864 0.6562499999991529 0
0.9687499999998846 0.687499999999226 0
0.9687499999998833 0.7187499999992989 0
0.968749999999882 0.7499999999993721 0
0.9687499999998802 0.7812499999994451 0
0.9687499999998789 0.8124999999995184 0
0.9687499999998775 0.8437499999995913 0
0.9687499999998758 0.874999999999665 0
0.9687499999998745 0.9062499999997481 0
0.9687499999998727 0.9374999999998321 0
0.9687499999998713 0.9687499999999162 0
$EndNodes
$Elements
5 1152 1 1152
1 1 1 32
1 1 5 
2 5 6 
3 6 7 
4 7 8 
5 8 9 
6 9 10 
7 10 11 
8 11 12 
9 12 13 
10 13 14 
11 14 15 
12 15 16 
13 16 17 
14 17 18 
15 18 19 
16 19 20 
17 20 21 
18 21 22 
19 22 23 
20 23 24 
21 24 25 
22 25 26 
23 26 27 
24 27 28 
25 28 29 
26 29 30 
27 30 31 
28 31 32 
29 32 33 
30 33 34 
31 34 35 
32 35 2 
1 2 1 32
33 2 36 
34 36 37 
35 37 38 
36 38 39 
37 39 40 
38 40 41 
39 41 42 
40 42 43 
41 43 44 
42 44 45 
43 45 46 
44 46 47 
45 47 48 
46 48 49 
47 49 50 
48 50 51 
49 51 52 
50 52 53 
51 53 54 
52 54 55 
53 55 56 
54 56 57 
55 57 58 
56 58 59 
57 59 60 
58 60 61 
59 61 62 
60 62 63 
61 63 64 
62 64 65 
63 65 66 
64 66 3 
1 3 1 32
65 3 67 
66 67 68 
67 68 69 
68 69 70 
69 70 71 
70 71 72 
71 72 73 
72 73 74 
73 74 75 
74 75 76 
75 76 77 
76 77 78 
77 78 79 
78 79 80 
79 80 81 
80 81 82 
81 82 83 
82 83 84 
83 84 85 
84 85 86 
85 86 87 
86 87 88 
87 88 89 
88 89 90 
89 90 91 
90 91 92 
91 92 93 
92 93 94 
93 94 95 
94 95 96 
95 96 97 
96 97 4 
1 4 1 32
97 4 98 
98 98 99 
99 99 100 
100 100 101 
101 101 102 
102 102 103 
103 103 104 
104 104 105 
105 105 106 
106 106 107 
107 107 108 
108 108 109 
109 109 110 
110 110 111 
111 111 112 
112 112 113 
113 113 114 
114 114 115 
115 115 116 
116 116 117 
117 117 118 
118 118 119 
119 119 120 
120 120 121 
121 121 122 
122 122 123 
123 123 124 
124 124 125 
125 125 126 
126 126 127 
127 127 128 
128 128 1 
2 1 3 1024
129 1 5 129 128 
130 128 129 130 127 
131 127 130 131 126 
132 126 131 132 125 
133 125 132 133 124 
134 124 133 134 123 
135 123 134 135 122 
136 122 135 136 121 
137 121 136 137 120 
138 120 137 138 119 
139 119 138 139 118 
140 118 139 140 117 
141 117 140 141 116 
142 116 141 142 115 
143 115 142 143 114 
144 114 143 144 113 
145 113 144 145 112 
146 112 145 146 111 
147 111 146 147 110 
148 110 147 148 109 
149 109 148 149 108 
150 108 149 150 107 
151 107 150 151 106 
152 106 151 152 105 
153 105 152 153 104 
154 104 153 154 103 
155 103 154 155 102 
156 102 155 156 101 
157 101 156 157 100 
158 100 157 158 99 
159 99 158 159 98 
160 98 159 97 4 
161 5 6 160 129 
162 129 160 161 130 
163 130 161 162 131 
164 131 162 163 132 
165 132 163 164 133 
166 133 164 165 134 
167 134 165 166 135 
168 135 166 167 136 
169 136 167 168 137 
170 137 168 169 138 
171 138 169 170 139 
172 139 170 171 140 
173 140 171 172 141 
174 141 172 173 142 
175 142 173 174 143 
176 143 174 175 144 
177 144 175 176 145 
178 145 176 177 146 
179 146 177 178 147 
180 147 178 179 148 
181 148 179 180 149 
182 149 180 181 150 
183 150 181 182 151 
184 151 182 183 152 
185 152 183 184 153 
186 153 184 185 154 
187 154 185 186 155 
188 155 186 187 156 
189 156 187 188 157 
190 157 188 189 158 
191 158 189 190 159 
192 159 190 96 97 
193 6 7 191 160 
194 160 191 192 161 
195 161 192 193 162 
196 162 193 194 163 
197 163 194 195 164 
198 164 195 196 165 
199 165 196 197 166 
200 166 197 198 167 
201 167 198 199 168 
202 168 199 200 169 
203 169 200 201 170 
204 170 201 202 171 
205 171 202 203 172 
206 172 203 204 173 
207 173 204 205 174 
208 174 205 206 175 
209 175 206 207 176 
210 176 207 208 177 
211 177 208 209 178 
212 178 209 210 179 
213 179 210 211 180 
214 180 211 212 181 
215 181 212 213 182 
216 182 213 214 183 
217 183 214 215 184 
218 184 215 216 185 
219 185 216 217 186 
220 186 217 218 187 
221 187 218 219 188 
222 188 219 220 189 
223 189 220 221 190 
224 190 221 95 96 
225 7 8 222 191 
226 191 222 223 192 
227 192 223 224 193 
228 193 224 225 194 
229 194 225 226 195 
230 195 226 227 196 
231 196 227 228 197 
232 197 228 229 198 
233 198 229 230 199 
234 199 230 231 200 
235 200 231 232 201 
236 201 232 233 202 
237 202 233 234 203 
238 203 234 235 204 
239 204 235 236 205 
240 205 236 237 206 
241 206 237 238 207 
242 207 238 239 208 
243 208 239 240 209 
244 209 240 241 210 
245 210 241 242 211 
246 211 242 243 212 
247 212 243 244 213 
248 213 244 245 214 
249 214 245 246 215 
250 215 246 247 216 
251 216 247 248 217 
252 217 248 249 218 
253 218 249 250 219 
254 219 250 251 220 
255 220 251 252 221 
256 221 252 94 95 
257 8 9 253 222 
258 222 253 254 223 
259 223 254 255 224 
260 224 255 256 225 
261 225 256 257 226 
262 226 257 258 227 
263 227 258 259 228 
264 228 259 260 229 
265 229 260 261 230 
266 230 261 262 231 
267 231 262 263 232 
268 232 263 264 233 
269 233 264 265 234 
270 234 265 266 235 
271 235 266 267 236 
272 236 267 268 237 
273 237 268 269 238 
274 238 269 270 239 
275 239 270 271 240 
276 240 271 272 241 
277 241 272 273 242 
278 242 273 274 243 
279 243 274 275 244 
280 244 275 276 245 
281 245 276 277 246 
282 246 277 278 247 
283 247 278 279 248 
284 248 279 280 249 
285 249 280 281 250 
286 250 281 282 251 
287 251 282 283 252 
288 252 283 93 94 
289 9 10 284 253 
290 253 284 285 254 
291 254 285 286 255 
292 255 286 287 256 
293 256 287 288 257 
294 257 288 289 258 
295 258 289 290 259 
296 259 290 291 260 
297 260 291 292 261 
298 261 292 293 262 
299 262 293 294 263 
300 263 294 295 264 
301 264 295 296 265 
302 265 296 297 266 
303 266 297 298 267 
304 267 298 299 268 
305 268 299 300 269 
306 269 300 301 270 
307 270 301 302 271 
308 271 302 303 272 
309 272 303 304 273 
310 273 304 305 274 
311 274 305 306 275 
312 275 306 307 276 
313 276 307 308 277 
314 277 308 309 278 
315 278 309 310 279 
316 279 310 311 280 
317 280 311 312 281 
318 281 312 313 282 
319 282 313 314 283 
320 283 314 92 93 
321 10 11 315 284 
322 284 315 316 285 
323 285 316 317 286 
324 286 317 318 287 
325 287 318 319 288 
326 288 319 320 289 
327 289 320 321 290 
328 290 321 322 291 
329 291 322 323 292 
330 292 323 324 293 
331 293 324 325 294 
332 294 325 326 295 
333 295 326 327 296 
334 296 327 328 297 
335 297 328 329 298 
336 298 329 330 299 
337 299 330 331 300 
338 300 331 332 301 
339 301 332 333 302 
340 302 333 334 303 
341 303 334 335 304 
342 304 335 336 305 
343 305 336 337 306 
344 306 337 338 307 
345 307 338 339 308 
346 308 339 340 309 
347 309 340 341 310 
348 310 341 342 311 
349 311 342 343 312 
350 312 343 344 313 
351 313 344 345 314 
352 314 345 91 92 
353 11 12 346 315 
354 315 346 347 316 
355 316 347 348 317 
356 317 348 349 318 
357 318 349 350 319 
358 319 350 351 320 
359 320 351 352 321 
360 321 352 353 322 
361 322 353 354 323 
362 323 354 355 324 
363 324 355 356 325 
364 325 356 357 326 
365 326 357 358 327 
366 327 358 359 328 
367 328 359 360 329 
368 329 360 361 330 
369 330 361 362 331 
370 331 362 363 332 
371 332 363 364 333 
372 333 364 365 334 
373 334 365 366 335 
374 335 366 367 336 
375 336 367 368 337 
376 337 368 369 338 
377 338 369 370 339 
378 339 370 371 340 
379 340 371 372 341 
380 341 372 373 342 
381 342 373 374 343 
382 343 374 375 344 
383 344 375 376 345 
384 345 376 90 91 
385 12 13 377 346 
386 346 377 378 347 
387 347 378 379 348 
388 348 379 380 349 
389 349 380 381 350 
390 350 381 382 351 
391 351 382 383 352 
392 352 383 384 353 
393 353 384 385 354 
394 354 385 386 355 
395 355 386 387 356 
396 356 387 388 357 
397 357 388 389 358 
398 358 389 390 359 
399 359 390 391 360 
400 360 391 392 361 
401 361 392 393 362 
402 362 393 394 363 
403 363 394 395 364 
404 364 395 396 365 
405 365 396 397 366 
406 366 397 398 367 
407 367 398 399 368 
408 368 399 400 369 
409 369 400 401 370 
410 370 401 402 371 
411 371 402 403 372 
412 372 403 404 373 
413 373 404 405 374 
414 374 405 406 375 
415 375 406 407 376 
416 376 407 89 90 
417 13 14 408 377 
418 377 408 409 378 
419 378 409 410 379 
420 379 410 411 380 
421 380 411 412 381 
422 381 412 413 382 
423 382 413 414 383 
424 383 414 415 384 
425 384 415 416 385 
426 385 416 417 386 
427 386 417 418 387 
428 387 418 419 388 
429 388 419 420 389 
430 389 420 421 390 
431 390 421 422 391 
432 391 422 423 392 
433 392 423 424 393 
434 393 424 425 394 
435 394 425 426 395 
436 395 426 427 396 
437 396 427 428 397 
438 397 428 429 398 
439 398 429 430 399 
440 399 430 431 400 
441 400 431 432 401 
442 401 432 433 402 
443 402 433 434 403 
444 403 434 435 404 
445 404 435 436 405 
446 405 436 437 406 
447 406 437 438 407 
448 407 438 88 89 
449 14 15 439 408 
450 408 439 440 409 
451 409 440 441 410 
452 410 441 442 411 
453 411 442 443 412 
454 412 443 444 413 
455 413 444 445 414 
456 414 445 446 415 
457 415 446 447 416 
458 416 447 448 417 
459 417 448 449 418 
460 418 449 450 419 
461 419 450 451 420 
462 420 451 452 421 
463 421 452 453 422 
464 422 453 454 423 
465 423 454 455 424 
466 424 455 456 425 
467 425 456 457 426 
468 426 457 458 427 
469 427 458 459 428 
470 428 459 460 429 
471 429 460 461 430 
472 430 461 462 431 
473 431 462 463 432 
474 432 463 464 433 
475 433 464 465 434 
476 434 465 466 435 
477 435 466 467 436 
478 436 467 468 437 
479 437 468 469 438 
480 438 469 87 88 
481 15 16 470 439 
482 439 470 471 440 
483 440 471 472 441 
484 441 472 473 442 
485 442 473 474 443 
486 443 474 475 444 
487 444 475 476 445 
488 445 476 477 446 
489 446 477 478 447 
490 447 478 479 448 
491 448 479 480 449 
492 449 480 481 450 
493 450 481 482 451 
494 451 482 483 452 
495 452 483 484 453 
496 453 484 485 454 
497 454 485 486 455 
498 455 486 487 456 
499 456 487 488 457 
500 457 488 489 458 
501 458 489 490 459 
502 459 490 491 460 
503 460 491 492 461 
504 461 492 493 462 
505 462 493 494 463 
506 463 494 495 464 
507 464 495 496 465 
508 465 496 497 466 
509 466 497 498 467 
510 467 498 499 468 
511 468 499 500 469 
512 469 500 86 87 
513 16 17 501 470 
514 470 501 502 471 
515 471 502 503 472 
516 472 503 504 473 
517 473 504 505 474 
518 474 505 506 475 
519 475 506 507 476 
520 476 507 508 477 
521 477 508 509 478 
522 478 509 510 479 
523 479 510 511 480 
524 480 511 512 481 
525 481 512 513 482 
526 482 513 514 483 
527 483 514 515 484 
528 484 515 516 485 
529 485 516 517 486 
530 486 517 518 487 
531 487 518 519 488 
532 488 519 520 489 
533 489 520 521 490 
534 490 521 522 491 
535 491 522 523 492 
536 492 523 524 493 
537 493 524 525 494 
538 494 525 526 495 
539 495 526 527 496 
540 496 527 528 497 
541 497 528 529 498 
542 498 529 530 499 
543 499 530 531 500 
544 500 531 85 86 
545 17 18 532 501 
546 501 532 533 502 
547 502 533 534 503 
548 503 534 535 504 
549 504 535 536 505 
550 505 536 537 506 
551 506 537 538 507 
552 507 538 539 508 
553 508 539 540 509 
554 509 540 541 510 
555 510 541 542 511 
556 511 542 543 512 
557 512 543 544 513 
558 513 544 545 514 
559 514 545 546 515 
560 515 546 547 516 
561 516 547 548 517 
562 517 548 549 518 
563 518 549 550 519 
564 519 550 551 520 
565 520 551 552 521 
566 521 552 553 522 
567 522 553 554 523 
568 523 554 555 524 
569 524 555 556 525 
570 525 556 557 526 
571 526 557 558 527 
572 527 558 559 528 
573 528 559 560 529 
574 529 560 561 530 
575 530 561 562 531 
576 531 562 84 85 
577 18 19 563 532 
578 532 563 564 533 
579 533 564 565 534 
580 534 565 566 535 
581 535 566 567 536 
582 536 567 568 537 
583 537 568 569 538 
584 538 569 570 539 
585 539 570 571 540 
586 540 571 572 541 
587 541 572 573 542 
588 542 573 574 543 
589 543 574 575 544 
590 544 575 576 545 
591 545 576 577 546 
592 546 577 578 547 
593 547 578 579 548 
594 548 579 580 549 
595 549 580 581 550 
596 550 581 582 551 
597 551 582 583 552 
598 552 583 584 553 
599 553 584 585 554 
600 554 585 586 555 
601 555 586 587 556 
602 556 587 588 557 
603 557 588 589 558 
604 558 589 590 559 
605 559 590 591 560 
606 560 591 592 561 
607 561 592 593 562 
608 562 593 83 84 
609 19 20 594 563 
610 563 594 595 564 
611 564 595 596 565 
612 565 596 597 566 
613 566 597 598 567 
614 567 598 599 568 
615 568 599 600 569 
616 569 600 601 570 
617 570 601 602 571 
618 571 602 603 572 
619 572 603 604 573 
620 573 604 605 574 
621 574 605 606 575 
622 575 606 607 576 
623 576 607 608 577 
624 577 608 609 578 
625 578 609 610 579 
626 579 610 611 580 
627 580 611 612 581 
628 581 612 613 582 
629 582 613 614 583 
630 583 614 615 584 
631 584 615 616 585 
632 585 616 617 586 
633 586 617 618 587 
634 587 618 619 588 
635 588 619 620 589 
636 589 620 621 590 
637 590 621 622 591 
638 591 622 623 592 
639 592 623 624 593 
640 593 624 82 83 
641 20 21 625 594 
642 594 625 626 595 
643 595 626 627 596 
644 596 627 628 597 
645 597 628 629 598 
646 598 629 630 599 
647 599 630 631 600 
648 600 631 632 601 
649 601 632 633 602 
650 602 633 634 603 
651 603 634 635 604 
652 604 635 636 605 
653 605 636 637 606 
654 606 637 638 607 
655 607 638 639 608 
656 608 639 640 609 
657 609 640 641 610 
658 610 641 642 611 
659 611 642 643 612 
660 612 643 644 613 
661 613 644 645 614 
662 614 645 646 615 
663 615 646 647 616 
664 616 647 648 617 
665 617 648 649 618 
666 618 649 650 619 
667 619 650 651 620 
668 620 651 652 621 
669 621 652 653 622 
670 622 653 654 623 
671 623 654 655 624 
672 624 655 81 82 
673 21 22 656 625 
674 625 656 657 626 
675 626 657 658 627 
676 627 658 659 628 
677 628 659 660 629 
678 629 660 661 630 
679 630 661 662 631 
680 631 662 663 632 
681 632 663 664 633 
682 633 664 665 634 
683 634 665 666 635 
684 635 666 667 636 
685 636 667 668 637 
686 637 668 669 638 
687 638 669 670 639 
688 639 670 671 640 
689 640 671 672 641 
690 641 672 673 642 
691 642 673 674 643 
692 643 674 675 644 
693 644 675 676 645 
694 645 676 677 646 
695 646 677 678 647 
696 647 678 679 648 
697 648 679 680 649 
698 649 680 681 650 
699 650 681 682 651 
700 651 682 683 652 
701 652 683 684 653 
702 653 684 685 654 
703 654 685 686 655 
704 655 686 80 81 
705 22 23 687 656 
706 656 687 688 657 
707 657 688 689 658 
708 658 689 690 659 
709 659 690 691 660 
710 660 691 692 661 
711 661 692 693 662 
712 662 693 694 663 
713 663 694 695 664 
714 664 695 696 665 
715 665 696 697 666 
716 666 697 698 667 
717 667 698 699 668 
718 668 699 700 669 
719 669 700 701 670 
720 670 701 702 671 
721 671 702 703 672 
722 672 703 704 673 
723 673 704 705 674 
724 674 705 706 675 
725 675 706 707 676 
726 676 707 708 677 
727 677 708 709 678 
728 678 709 710 679 
729 679 710 711 680 
730 680 711 712 681 
731 681 712 713 682 
732 682 713 714 683 
733 683 714 715 684 
734 684 715 716 685 
735 685 716 717 686 
736 686 717 79 80 
737 23 24 718 687 
738 687 718 719 688 
739 688 719 720 689 
740 689 720 721 690 
741 690 721 722 691 
742 691 722 723 692 
743 692 723 724 693 
744 693 724 725 694 
745 694 725 726 695 
746 695 726 727 696 
747 696 727 728 697 
748 697 728 729 698 
749 698 729 730 699 
750 699 730 731 700 
751 700 731 732 701 
752 701 732 733 702 
753 702 733 734 703 
754 703 734 735 704 
755 704 735 736 705 
756 705 736 737 706 
757 706 737 738 707 
758 707 738 739 708 
759 708 739 740 709 
760 709 740 741 710 
761 710 741 742 711 
762 711 742 743 712 
763 712 743 744 713 
764 713 744 745 714 
765 714 745 746 715 
766 715 746 747 716 
767 716 747 748 717 
768 717 748 78 79 
769 24 25 749 718 
770 718 749 750 719 
771 719 750 751 720 
772 720 751 752 721 
773 721 752 753 722 
774 722 753 754 723 
775 723 754 755 724 
776 724 755 756 725 
777 725 756 757 726 
778 726 757 758 727 
779 727 758 759 728 
780 728 759 760 729 
781 729 760 761 730 
782 730 761 762 731 
783 731 762 763 732 
784 732 763 764 733 
785 733 764 765 734 
786 734 765 766 735 
787 735 766 767 736 
788 736 767 768 737 
789 737 768 769 738 
790 738 769 770 739 
791 739 770 771 740 
792 740 771 772 741 
793 741 772 773 742 
794 742 773 774 743 
795 743 774 775 744 
796 744 775 776 745 
797 745 776 777 746 
798 746 777 778 747 
799 747 778 779 748 
800 748 779 77 78 
801 25 26 780 749 
802 749 780 781 750 
803 750 781 782 751 
804 751 782 783 752 
805 752 783 784 753 
806 753 784 785 754 
807 754 785 786 755 
808 755 786 787 756 
809 756 787 788 757 
810 757 788 789 758 
811 758 789 790 759 
812 759 790 791 760 
813 760 791 792 761 
814 761 792 793 762 
815 762 793 794 763 
816 763 794 795 764 
817 764 795 796 765 
818 765 796 797 766 
819 766 797 798 767 
820 767 798 799 768 
821 768 799 800 769 
822 769 800 801 770 
823 770 801 802 771 
824 771 802 803 772 
825 772 803 804 773 
826 773 804 805 774 
827 774 805 806 775 
828 775 806 807 776 
829 776 807 808 777 
830 777 808 809 778 
831 778 809 810 779 
832 779 810 76 77 
833 26 27 811 780 
834 780 811 812 781 
835 781 812 813 782 
836 782 813 814 783 
837 783 814 815 784 
838 784 815 816 785 
839 785 816 817 786 
840 786 817 818 787 
841 787 818 819 788 
842 788 819 820 789 
843 789 820 821 790 
844 790 821 822 791 
845 791 822 823 792 
846 792 823 824 793 
847 793 824 825 794 
848 794 825 826 795 
849 795 826 827 796 
850 796 827 828 797 
851 797 828 829 798 
852 798 829 830 799 
853 799 830 831 800 
854 800 831 832 801 
855 801 832 833 802 
856 802 833 834 803 
857 803 834 835 804 
858 804 835 836 805 
859 805 836 837 806 
860 806 837 838 807 
861 807 838 839 808 
862 808 839 840 809 
863 809 840 841 810 
864 810 841 75 76 
865 27 28 842 811 
866 811 842 843 812 
867 812 843 844 813 
868 813 844 845 814 
869 814 845 846 815 
870 815 846 847 816 
871 816 847 848 817 
872 817 848 849 818 
873 818 849 850 819 
874 819 850 851 820 
875 820 851 852 821 
876 821 852 853 822 
877 822 853 854 823 
878 823 854 855 824 
879 824 855 856 825 
880 825 856 857 826 
881 826 857 858 827 
882 827 858 859 828 
883 828 859 860 829 
884 829 860 861 830 
885 830 861 862 831 
886 831 862 863 832 
887 832 863 864 833 
888 833 864 865 834 
889 834 865 866 835 
890 835 866 867 836 
891 836 867 868 837 
892 837 868 869 838 
893 838 869 870 839 
894 839 870 871 840 
895 840 871 872 841 
896 841 872 74 75 
897 28 29 873 842 
898 842 873 874 843 
899 843 874 875 844 
900 844 875 876 845 
901 845 876 877 846 
902 846 877 878 847 
903 847 878 879 848 
904 848 879 880 849 
905 849 880 881 850 
906 850 881 882 851 
907 851 882 883 852 
908 852 883 884 853 
909 853 884 885 854 
910 854 885 886 855 
911 855 886 887 856 
912 856 887 888 857 
913 857 888 889 858 
914 858 889 890 859 
915 859 890 891 860 
916 860 891 892 861 
917 861 892 893 862 
918 862 893 894 863 
919 863 894 895 864 
920 864 895 896 865 
921 865 896 897 866 
922 866 897 898 867 
923 867 898 899 868 
924 868 899 900 869 
925 869 900 901 870 
926 870 901 902 871 
927 871 902 903 872 
928 872 903 73 74 
929 29 30 904 873 
930 873 904 905 874 
931 874 905 906 875 
932 875 906 907 876 
933 876 907 908 877 
934 877 908 909 878 
935 878 909 910 879 
936 879 910 911 880 
937 880 911 912 881 
938 881 912 913 882 
939 882 913 914 883 
940 883 914 915 884 
941 884 915 916 885 
942 885 916 917 886 
943 886 917 918 887 
944 887 918 919 888 
945 888 919 920 889 
946 889 920 921 890 
947 890 921 922 891 
948 891 922 923 892 
949 892 923 924 893 
950 893 924 925 894 
951 894 925 926 895 
952 895 926 927 896 
953 896 927 928 897 
954 897 928 929 898 
955 898 929 930 899 
956 899 930 931 900 
957 900 931 932 901 
958 901 932 933 902 
959 902 933 934 903 
960 903 934 72 73 
961 30 31 935 904 
962 904 935 936 905 
963 905 936 937 906 
964 906 937 938 907 
965 907 938 939 908 
966 908 939 940 909 
967 909 940 941 910 
968 910 941 942 911 
969 911 942 943 912 
970 912 943 944 913 
971 913 944 945 914 
972 914 945 946 915 
973 915 946 947 916 
974 916 947 948 917 
975 917 948 949 918 
976 918 949 950 919 
977 919 950 951 920 
978 920 951 952 921 
979 921 952 953 922 
980 922 953 954 923 
981 923 954 955 924 
982 924 955 956 925 
983 925 956 957 926 
984 926 957 958 927 
985 927 958 959 928 
986 928 959 960 929 
987 929 960 961 930 
988 930 961 962 931 
989 931 962 963 932 
990 932 963 964 933 
991 933 964 965 934 
992 934 965 71 72 
993 31 32 966 935 
994 935 966 967 936 
995 936 967 968 937 
996 937 968 969 938 
997 938 969 970 939 
998 939 970 971 940 
999 940 971 972 941 
1000 941 972 973 942 
1001 942 973 974 943 
1002 943 974 975 944 
1003 944 975 976 945 
1004 945 976 977 946 
1005 946 977 978 947 
1006 947 978 979 948 
1007 948 979 980 949 
1008 949 980 981 950 
1009 950 981 982 951 
1010 951 982 983 952 
1011 952 983 984 953 
1012 953 984 985 954 
1013 954 985 986 955 
1014 955 986 987 956 
1015 956 987 988 957 
1016 957 988 989 958 
1017 958 989 990 959 
1018 959 990 991 960 
1019 960 991 992 961 
1020 961 992 993 962 
1021 962 993 994 963 
1022 963 994 995 964 
1023 964 995 996 965 
1024 965 996 70 71 
1025 32 33 997 966 
1026 966 997 998 967 
1027 967 998 999 968 
1028 968 999 1000 969 
1029 969 1000 1001 970 
1030 970 1001 1002 971 
1031 971 1002 1003 972 
1032 972 1003 1004 973 
1033 973 1004 1005 974 
1034 974 1005 1006 975 
1035 975 1006 1007 976 
1036 976 1007 1008 977 
1037 977 1008 1009 978 
1038 978 1009 1010 979 
1039 979 1010 1011 980 
1040 980 1011 1012 981 
1041 981 1012 1013 982 
1042 982 1013 1014 983 
1043 983 1014 1015 984 
1044 984 1015 1016 985 
1045 985 1016 1017 986 
1046 986 1017 1018 987 
1047 987 1018 1019 988 
1048 988 1019 1020 989 
1049 989 1020 1021 990 
1050 990 1021 1022 991 
1051 991 1022 1023 992 
1052 992 1023 1024 993 
1053 993 1024 1025 994 
1054 994 1025 1026 995 
1055 995 1026 1027 996 
1056 996 1027 69 70 
1057 33 34 1028 997 
1058 997 1028 1029 998 
1059 998 1029 1030 999 
1060 999 1030 1031 1000 
1061 1000 1031 1032 1001 
1062 1001 1032 1033 1002 
1063 1002 1033 1034 1003 
1064 1003 1034 1035 1004 
1065 1004 1035 1036 1005 
1066 1005 1036 1037 1006 
1067 1006 1037 1038 1007 
1068 1007 1038 1039 1008 
1069 1008 1039 1040 1009 
1070 1009 1040 1041 1010 
1071 1010 1041 1042 1011 
1072 1011 1042 1043 1012 
1073 1012 1043 1044 1013 
1074 1013 1044 1045 1014 
1075 1014 1045 1046 1015 
1076 1015 1046 1047 1016 
1077 1016 1047 1048 1017 
1078 1017 1048 1049 1018 
1079 1018 1049 1050 1019 
1080 1019 1050 1051 1020 
1081 1020 1051 1052 1021 
1082 1021 1052 1053 1022 
1083 1022 1053 1054 1023 
1084 1023 1054 1055 1024 
1085 1024 1055 1056 1025 
1086 1025 1056 1057 1026 
1087 1026 1057 1058 1027 
1088 1027 1058 68 69 
1089 34 35 1059 1028 
1090 1028 1059 1060 1029 
1091 1029 1060 1061 1030 
1092 1030 1061 1062 1031 
1093 1031 1062 1063 1032 
1094 1032 1063 1064 1033 
1095 1033 1064 1065 1034 
1096 1034 1065 1066 1035 
1097 1035 1066 1067 1036 
1098 1036 1067 1068 1037 
1099 1037 1068 1069 1038 
1100 1038 1069 1070 1039 
1101 1039 1070 1071 1040 
1102 1040 1071 1072 1041 
1103 1041 1072 1073 1042 
1104 1042 1073 1074 1043 
1105 1043 1074 1075 1044 
1106 1044 1075 1076 1045 
1107 1045 1076 1077 1046 
1108 1046 1077 1078 1047 
1109 1047 1078 1079 1048 
1110 1048 1079 1080 1049 
1111 1049 1080 1081 1050 
1112 1050 1081 1082 1051 
1113 1051 1082 1083 1052 
1114 1052 1083 1084 1053 
1115 1053 1084 1085 1054 
1116 1054 1085 1086 1055 
1117 1055 1086 1087 1056 
1118 1056 1087 1088 1057 
1119 1057 1088 1089 1058 
1120 1058 1089 67 68 
1121 35 2 36 1059 
1122 1059 36 37 1060 
1123 1060 37 38 1061 
1124 1061 38 39 1062 
1125 1062 39 40 1063 
1126 1063 40 41 1064 
1127 1064 41 42 1065 
1128 1065 42 43 1066 
1129 1066 43 44 1067 
1130 1067 44 45 1068 
1131 1068 45 46 1069 
1132 1069 46 47 1070 
1133 1070 47 48 1071 
1134 1071 48 49 1072 
1135 1072 49 50 1073 
1136 1073 50 51 1074 
1137 1074 51 52 1075 
1138 1075 52 53 1076 
1139 1076 53 54 1077 
1140 1077 54 55 1078 
1141 1078 55 56 1079 
1142 1079 56 57 1080 
1143 1080 57 58 1081 
1144 1081 58 59 1082 
1145 1082 59 60 1083 
1146 1083 60 61 1084 
1147 1084 61 62 1085 
1148 1085 62 63 1086 
1149 1086 63 64 1087 
1150 1087 64 65 1088 
1151 1088 65 66 1089 
1152 1089 66 3 67 
$EndElements
