$MeshFormat
4.1 0 8
$EndMeshFormat
$PhysicalNames
3
1 2 "periodicx"
1 3 "periodicy"
2 1 "domain"
$EndPhysicalNames
$Entities
4 4 1 0
1 -5 -5 0 0 
2 5 -5 0 0 
3 5 5 0 0 
4 -5 5 0 0 
1 -5 -5 0 5 -5 0 1 3 2 1 -2 
2 5 -5 0 5 5 0 1 2 2 2 -3 
3 -5 5 0 5 5 0 1 3 2 3 -4 
4 -5 -5 0 -5 5 0 1 2 2 4 -1 
1 -5 -5 0 5 5 0 1 1 4 1 2 3 4 
$EndEntities
$Nodes
9 289 1 289
0 1 0 1
1
-5 -5 0
0 2 0 1
2
5 -5 0
0 3 0 1
3
5 5 0
0 4 0 1
4
-5 5 0
1 1 0 15
5
6
7
8
9
10
11
12
13
14
15
16
17
18
19
-4.374999999999228 -5 0
-3.749999999998543 -5 0
-3.12500000000046 -5 0
-2.500000000002463 -5 0
-1.875000000004467 -5 0
-1.25000000000647 -5 0
-0.6250000000069127 -5 0
-6.140865593806666e-12 -5 0
0.6249999999946265 -5 0
1.249999999995395 -5 0
1.874999999996162 -5 0
2.499999999996929 -5 0
3.124999999997698 -5 0
3.749999999998465 -5 0
4.374999999999233 -5 0
1 2 0 15
20
21
22
23
24
25
26
27
28
29
30
31
32
33
34
5 -4.374999999999228 0
5 -3.749999999998543 0
5 -3.12500000000046 0
5 -2.500000000002463 0
5 -1.875000000004467 0
5 -1.25000000000647 0
5 -0.6250000000069127 0
5 -6.140865593806666e-12 0
5 0.6249999999946265 0
5 1.249999999995395 0
5 1.874999999996162 0
5 2.499999999996929 0
5 3.124999999997698 0
5 3.749999999998465 0
5 4.374999999999233 0
1 3 0 15
35
36
37
38
39
40
41
42
43
44
45
46
47
48
49
4.374999999999228 5 0
3.749999999998543 5 0
3.12500000000046 5 0
2.500000000002463 5 0
1.875000000004467 5 0
1.25000000000647 5 0
0.6250000000069127 5 0
6.140865593806666e-12 5 0
-0.6249999999946265 5 0
-1.249999999995395 5 0
-1.874999999996162 5 0
-2.499999999996929 5 0
-3.124999999997698 5 0
-3.749999999998465 5 0
-4.374999999999233 5 0
1 4 0 15
50
51
52
53
54
55
56
57
58
59
60
61
62
63
64
-5 4.374999999999228 0
-5 3.749999999998543 0
-5 3.12500000000046 0
-5 2.500000000002463 0
-5 1.875000000004467 0
-5 1.25000000000647 0
-5 0.6250000000069127 0
-5 6.140865593806666e-12 0
-5 -0.6249999999946265 0
-5 -1.249999999995395 0
-5 -1.874999999996162 0
-5 -2.499999999996929 0
-5 -3.124999999997698 0
-5 -3.749999999998465 0
-5 -4.374999999999233 0
2 1 0 225
65
66
67
68
69
70
71
72
73
74
75
76
77
78
79
80
81
82
83
84
85
86
87
88
89
90
91
92
93
94
95
96
97
98
99
100
101
102
103
104
105
106
107
108
109
110
111
112
113
114
115
116
117
118
119
120
121
122
123
124
125
126
127
128
129
130
131
132
133
134
135
136
137
138
139
140
141
142
143
144
145
146
147
148
149
150
151
152
153
154
155
156
157
158
159
160
161
162
163
164
165
166
167
168
169
170
171
172
173
174
175
176
177
178
179
180
181
182
183
184
185
186
187
188
189
190
191
192
193
194
195
196
197
198
199
200
201
202
203
204
205
206
207
208
209
210
211
212
213
214
215
216
217
218
219
220
221
222
223
224
225
226
227
228
229
230
231
232
233
234
235
236
237
238
239
240
241
242
243
244
245
246
247
248
249
250
251
252
253
254
255
256
257
258
259
260
261
262
263
264
265
266
267
268
269
270
271
272
273
274
275
276
277
278
279
280
281
282
283
284
285
286
287
288
289
-4.374999999999229 -4.374999999999233 0
-4.374999999999228 -3.749999999998472 0
-4.374999999999229 -3.12499999999787 0
-4.37499999999923 -2.499999999997274 0
-4.374999999999232 -1.874999999996681 0
-4.37499999999923 -1.249999999996088 0
-4.374999999999231 -0.6249999999953939 0
-4.374999999999231 5.373035349975908e-12 0
-4.374999999999231 0.6250000000061444 0
-4.374999999999232 1.250000000005779 0
-4.374999999999231 1.875000000003948 0
-4.374999999999231 2.500000000002117 0
-4.374999999999231 3.125000000000288 0
-4.374999999999233 3.749999999998538 0
-4.374999999999233 4.374999999999227 0
-3.749999999998539 -4.374999999999232 0
-3.749999999998534 -3.749999999998475 0
-3.749999999998528 -3.124999999998042 0
-3.749999999998524 -2.499999999997621 0
-3.749999999998519 -1.874999999997201 0
-3.749999999998514 -1.24999999999678 0
-3.74999999999851 -0.6249999999961622 0
-3.749999999998504 4.605649195354999e-12 0
-3.7499999999985 0.6250000000053768 0
-3.749999999998495 1.250000000005086 0
-3.749999999998491 1.875000000003429 0
-3.749999999998486 2.500000000001772 0
-3.74999999999848 3.125000000000114 0
-3.749999999998475 3.749999999998533 0
-3.749999999998471 4.374999999999228 0
-3.125000000000287 -4.374999999999232 0
-3.125000000000113 -3.74999999999848 0
-3.124999999999941 -3.124999999998215 0
-3.12499999999977 -2.499999999997967 0
-3.124999999999597 -1.874999999997719 0
-3.124999999999424 -1.249999999997471 0
-3.124999999999251 -0.6249999999969298 0
-3.124999999999079 3.837818951524241e-12 0
-3.124999999998906 0.6250000000046092 0
-3.124999999998733 1.250000000004394 0
-3.124999999998561 1.87500000000291 0
-3.124999999998388 2.500000000001425 0
-3.124999999998216 3.124999999999942 0
-3.124999999998044 3.749999999998528 0
-3.12499999999787 4.374999999999229 0
-2.500000000002118 -4.374999999999229 0
-2.500000000001772 -3.749999999998486 0
-2.500000000001426 -3.124999999998387 0
-2.50000000000108 -2.499999999998313 0
-2.500000000000734 -1.874999999998239 0
-2.500000000000389 -1.249999999998164 0
-2.500000000000042 -0.6249999999976976 0
-2.499999999999696 3.070432796903333e-12 0
-2.499999999999351 0.6250000000038409 0
-2.499999999999005 1.250000000003702 0
-2.499999999998658 1.875000000002391 0
-2.499999999998313 2.50000000000108 0
-2.499999999997966 3.124999999999769 0
-2.499999999997621 3.749999999998523 0
-2.499999999997276 4.374999999999229 0
-1.875000000003948 -4.374999999999231 0
-1.875000000003429 -3.749999999998488 0
-1.87500000000291 -3.12499999999856 0
-1.875000000002391 -2.499999999998658 0
-1.875000000001872 -1.874999999998758 0
-1.875000000001353 -1.249999999998856 0
-1.875000000000833 -0.6249999999984663 0
-1.875000000000314 2.303046642282425e-12 0
-1.874999999999796 0.6250000000030733 0
-1.874999999999277 1.250000000003009 0
-1.874999999998758 1.875000000001872 0
-1.874999999998239 2.500000000000734 0
-1.87499999999772 3.124999999999597 0
-1.874999999997201 3.749999999998518 0
-1.874999999996682 4.374999999999231 0
-1.250000000005779 -4.374999999999231 0
-1.250000000005087 -3.749999999998495 0
-1.250000000004393 -3.124999999998732 0
-1.250000000003702 -2.499999999999004 0
-1.250000000003009 -1.874999999999276 0
-1.250000000002317 -1.249999999999548 0
-1.250000000001624 -0.6249999999992339 0
-1.250000000000933 1.535216398451666e-12 0
-1.250000000000241 0.6250000000023053 0
-1.249999999999548 1.250000000002317 0
-1.249999999998856 1.875000000001353 0
-1.249999999998164 2.500000000000388 0
-1.249999999997471 3.124999999999425 0
-1.24999999999678 3.749999999998514 0
-1.249999999996087 4.374999999999232 0
-0.6250000000061446 -4.374999999999229 0
-0.6250000000053768 -3.749999999998499 0
-0.6250000000046092 -3.124999999998906 0
-0.6250000000038408 -2.49999999999935 0
-0.6250000000030734 -1.874999999999795 0
-0.6250000000023053 -1.250000000000241 0
-0.6250000000015373 -0.6250000000000016 0
-0.6250000000007696 7.678302438307583e-13 0
-0.6250000000000017 0.6250000000015374 0
-0.6249999999992339 1.250000000001625 0
-0.6249999999984661 1.875000000000834 0
-0.6249999999976976 2.500000000000043 0
-0.6249999999969302 3.124999999999251 0
-0.624999999996162 3.749999999998509 0
-0.6249999999953939 4.374999999999231 0
-5.373257394579888e-12 -4.37499999999923 0
-4.605649195353162e-12 -3.749999999998504 0
-3.838040996128034e-12 -3.124999999999079 0
-3.07043279690296e-12 -2.499999999999695 0
-2.302824597677886e-12 -1.875000000000314 0
-1.535216398452812e-12 -1.250000000000933 0
-7.676081992267784e-13 -0.6250000000007696 0
0 0 0
7.676081992267784e-13 0.6250000000007696 0
1.535216398452812e-12 1.250000000000933 0
2.302824597677886e-12 1.875000000000314 0
3.07043279690296e-12 2.499999999999695 0
3.838040996128035e-12 3.124999999999079 0
4.605649195353162e-12 3.749999999998504 0
5.373257394579888e-12 4.374999999999231 0
0.6249999999953941 -4.374999999999229 0
0.6249999999961624 -3.74999999999851 0
0.6249999999969305 -3.124999999999251 0
0.6249999999976977 -2.500000000000042 0
0.624999999998466 -1.875000000000834 0
0.6249999999992339 -1.250000000001624 0
0.6250000000000017 -0.6250000000015373 0
0.6250000000007696 -7.678302438307583e-13 0
0.6250000000015372 0.6250000000000018 0
0.6250000000023053 1.25000000000024 0
0.6250000000030735 1.874999999999795 0
0.6250000000038409 2.499999999999351 0
0.625000000004609 3.124999999998906 0
0.6250000000053768 3.749999999998499 0
0.6250000000061444 4.374999999999231 0
1.249999999996087 -4.374999999999231 0
1.249999999996779 -3.749999999998514 0
1.249999999997471 -3.124999999999422 0
1.249999999998164 -2.500000000000388 0
1.249999999998856 -1.875000000001353 0
1.249999999999548 -1.250000000002317 0
1.25000000000024 -0.6250000000023053 0
1.250000000000933 -1.535216398451666e-12 0
1.250000000001625 0.6249999999992339 0
1.250000000002317 1.249999999999548 0
1.250000000003009 1.874999999999276 0
1.250000000003702 2.499999999999004 0
1.250000000004394 3.124999999998734 0
1.250000000005086 3.749999999998494 0
1.250000000005779 4.374999999999232 0
1.874999999996682 -4.374999999999229 0
1.8749999999972 -3.749999999998519 0
1.87499999999772 -3.124999999999597 0
1.874999999998239 -2.500000000000734 0
1.874999999998758 -1.875000000001872 0
1.874999999999277 -1.250000000003009 0
1.874999999999796 -0.6250000000030732 0
1.875000000000314 -2.303046642282425e-12 0
1.875000000000833 0.6249999999984659 0
1.875000000001353 1.249999999998856 0
1.875000000001872 1.874999999998758 0
1.875000000002391 2.499999999998658 0
1.87500000000291 3.124999999998561 0
1.875000000003429 3.749999999998489 0
1.875000000003948 4.374999999999231 0
2.499999999997276 -4.374999999999229 0
2.499999999997621 -3.749999999998525 0
2.499999999997966 -3.124999999999768 0
2.499999999998313 -2.50000000000108 0
2.499999999998658 -1.87500000000239 0
2.499999999999004 -1.250000000003701 0
2.49999999999935 -0.6250000000038413 0
2.499999999999696 -3.070543819205795e-12 0
2.500000000000043 0.6249999999976978 0
2.500000000000388 1.249999999998164 0
2.500000000000734 1.874999999998239 0
2.50000000000108 2.499999999998313 0
2.500000000001425 3.124999999998389 0
2.500000000001771 3.749999999998484 0
2.500000000002118 4.374999999999231 0
3.124999999997871 -4.37499999999923 0
3.124999999998043 -3.749999999998528 0
3.124999999998216 -3.124999999999942 0
3.124999999998388 -2.500000000001426 0
3.12499999999856 -1.87500000000291 0
3.124999999998734 -1.250000000004394 0
3.124999999998907 -0.6250000000046088 0
3.124999999999079 -3.837874462675472e-12 0
3.124999999999251 0.6249999999969301 0
3.124999999999425 1.249999999997472 0
3.124999999999597 1.87499999999772 0
3.124999999999769 2.499999999997966 0
3.124999999999941 3.124999999998216 0
3.125000000000114 3.749999999998479 0
3.125000000000287 4.374999999999231 0
3.749999999998469 -4.37499999999923 0
3.749999999998475 -3.749999999998534 0
3.749999999998479 -3.125000000000114 0
3.749999999998484 -2.500000000001771 0
3.749999999998489 -1.875000000003428 0
3.749999999998495 -1.250000000005086 0
3.749999999998498 -0.625000000005377 0
3.749999999998504 -4.605593684203768e-12 0
3.749999999998509 0.624999999996162 0
3.749999999998513 1.24999999999678 0
3.749999999998519 1.874999999997201 0
3.749999999998522 2.499999999997621 0
3.749999999998529 3.124999999998043 0
3.749999999998532 3.749999999998475 0
3.749999999998537 4.374999999999233 0
4.374999999999231 -4.374999999999227 0
4.374999999999232 -3.749999999998539 0
4.374999999999231 -3.125000000000286 0
4.374999999999231 -2.500000000002117 0
4.374999999999231 -1.875000000003948 0
4.374999999999232 -1.250000000005779 0
4.374999999999231 -0.6250000000061449 0
4.374999999999232 -5.373090861127139e-12 0
4.374999999999232 0.6249999999953941 0
4.374999999999231 1.249999999996087 0
4.37499999999923 1.874999999996682 0
4.374999999999229 2.499999999997275 0
4.374999999999229 3.12499999999787 0
4.374999999999229 3.74999999999847 0
4.374999999999227 4.374999999999233 0
$EndNodes
$Elements
5 320 1 320
1 1 1 16
1 1 5 
2 5 6 
3 6 7 
4 7 8 
5 8 9 
6 9 10 
7 10 11 
8 11 12 
9 12 13 
10 13 14 
11 14 15 
12 15 16 
13 16 17 
14 17 18 
15 18 19 
16 19 2 
1 2 1 16
17 2 20 
18 20 21 
19 21 22 
20 22 23 
21 23 24 
22 24 25 
23 25 26 
24 26 27 
25 27 28 
26 28 29 
27 29 30 
28 30 31 
29 31 32 
30 32 33 
31 33 34 
32 34 3 
1 3 1 16
33 3 35 
34 35 36 
35 36 37 
36 37 38 
37 38 39 
38 39 40 
39 40 41 
40 41 42 
41 42 43 
42 43 44 
43 44 45 
44 45 46 
45 46 47 
46 47 48 
47 48 49 
48 49 4 
1 4 1 16
49 4 50 
50 50 51 
51 51 52 
52 52 53 
53 53 54 
54 54 55 
55 55 56 
56 56 57 
57 57 58 
58 58 59 
59 59 60 
60 60 61 
61 61 62 
62 62 63 
63 63 64 
64 64 1 
2 1 3 256
65 1 5 65 64 
66 64 65 66 63 
67 63 66 67 62 
68 62 67 68 61 
69 61 68 69 60 
70 60 69 70 59 
71 59 70 71 58 
72 58 71 72 57 
73 57 72 73 56 
74 56 73 74 55 
75 55 74 75 54 
76 54 75 76 53 
77 53 76 77 52 
78 52 77 78 51 
79 51 78 79 50 
80 50 79 49 4 
81 5 6 80 65 
82 65 80 81 66 
83 66 81 82 67 
84 67 82 83 68 
85 68 83 84 69 
86 69 84 85 70 
87 70 85 86 71 
88 71 86 87 72 
89 72 87 88 73 
90 73 88 89 74 
91 74 89 90 75 
92 75 90 91 76 
93 76 91 92 77 
94 77 92 93 78 
95 78 93 94 79 
96 79 94 48 49 
97 6 7 95 80 
98 80 95 96 81 
99 81 96 97 82 
100 82 97 98 83 
101 83 98 99 84 
102 84 99 100 85 
103 85 100 101 86 
104 86 101 102 87 
105 87 102 103 88 
106 88 103 104 89 
107 89 104 105 90 
108 90 105 106 91 
109 91 106 107 92 
110 92 107 108 93 
111 93 108 109 94 
112 94 109 47 48 
113 7 8 110 95 
114 95 110 111 96 
115 96 111 112 97 
116 97 112 113 98 
117 98 113 114 99 
118 99 114 115 100 
119 100 115 116 101 
120 101 116 117 102 
121 102 117 118 103 
122 103 118 119 104 
123 104 119 120 105 
124 105 120 121 106 
125 106 121 122 107 
126 107 122 123 108 
127 108 123 124 109 
128 109 124 46 47 
129 8 9 125 110 
130 110 125 126 111 
131 111 126 127 112 
132 112 127 128 113 
133 113 128 129 114 
134 114 129 130 115 
135 115 130 131 116 
136 116 131 132 117 
137 117 132 133 118 
138 118 133 134 119 
139 119 134 135 120 
140 120 135 136 121 
141 121 136 137 122 
142 122 137 138 123 
143 123 138 139 124 
144 124 139 45 46 
145 9 10 140 125 
146 125 140 141 126 
147 126 141 142 127 
148 127 142 143 128 
149 128 143 144 129 
150 129 144 145 130 
151 130 145 146 131 
152 131 146 147 132 
153 132 147 148 133 
154 133 148 149 134 
155 134 149 150 135 
156 135 150 151 136 
157 136 151 152 137 
158 137 152 153 138 
159 138 153 154 139 
160 139 154 44 45 
161 10 11 155 140 
162 140 155 156 141 
163 141 156 157 142 
164 142 157 158 143 
165 143 158 159 144 
166 144 159 160 145 
167 145 160 161 146 
168 146 161 162 147 
169 147 162 163 148 
170 148 163 164 149 
171 149 164 165 150 
172 150 165 166 151 
173 151 166 167 152 
174 152 167 168 153 
175 153 168 169 154 
176 154 169 43 44 
177 11 12 170 155 
178 155 170 171 156 
179 156 171 172 157 
180 157 172 173 158 
181 158 173 174 159 
182 159 174 175 160 
183 160 175 176 161 
184 161 176 177 162 
185 162 177 178 163 
186 163 178 179 164 
187 164 179 180 165 
188 165 180 181 166 
189 166 181 182 167 
190 167 182 183 168 
191 168 183 184 169 
192 169 184 42 43 
193 12 13 185 170 
194 170 185 186 171 
195 171 186 187 172 
196 172 187 188 173 
197 173 188 189 174 
198 174 189 190 175 
199 175 190 191 176 
200 176 191 192 177 
201 177 192 193 178 
202 178 193 194 179 
203 179 194 195 180 
204 180 195 196 181 
205 181 196 197 182 
206 182 197 198 183 
207 183 198 199 184 
208 184 199 41 42 
209 13 14 200 185 
210 185 200 201 186 
211 186 201 202 187 
212 187 202 203 188 
213 188 203 204 189 
214 189 204 205 190 
215 190 205 206 191 
216 191 206 207 192 
217 192 207 208 193 
218 193 208 209 194 
219 194 209 210 195 
220 195 210 211 196 
221 196 211 212 197 
222 197 212 213 198 
223 198 213 214 199 
224 199 214 40 41 
225 14 15 215 200 
226 200 215 216 201 
227 201 216 217 202 
228 202 217 218 203 
229 203 218 219 204 
230 204 219 220 205 
231 205 220 221 206 
232 206 221 222 207 
233 207 222 223 208 
234 208 223 224 209 
235 209 224 225 210 
236 210 225 226 211 
237 211 226 227 212 
238 212 227 228 213 
239 213 228 229 214 
240 214 229 39 40 
241 15 16 230 215 
242 215 230 231 216 
243 216 231 232 217 
244 217 232 233 218 
245 218 233 234 219 
246 219 234 235 220 
247 220 235 236 221 
248 221 236 237 222 
249 222 237 238 223 
250 223 238 239 224 
251 224 239 240 225 
252 225 240 241 226 
253 226 241 242 227 
254 227 242 243 228 
255 228 243 244 229 
256 229 244 38 39 
257 16 17 245 230 
258 230 245 246 231 
259 231 246 247 232 
260 232 247 248 233 
261 233 248 249 234 
262 234 249 250 235 
263 235 250 251 236 
264 236 251 252 237 
265 237 252 253 238 
266 238 253 254 239 
267 239 254 255 240 
268 240 255 256 241 
269 241 256 257 242 
270 242 257 258 243 
271 243 258 259 244 
272 244 259 37 38 
273 17 18 260 245 
274 245 260 261 246 
275 246 261 262 247 
276 247 262 263 248 
277 248 263 264 249 
278 249 264 265 250 
279 250 265 266 251 
280 251 266 267 252 
281 252 267 268 253 
282 253 268 269 254 
283 254 269 270 255 
284 255 270 271 256 
285 256 271 272 257 
286 257 272 273 258 
287 258 273 274 259 
288 259 274 36 37 
289 18 19 275 260 
290 260 275 276 261 
291 261 276 277 262 
292 262 277 278 263 
293 263 278 279 264 
294 264 279 280 265 
295 265 280 281 266 
296 266 281 282 267 
297 267 282 283 268 
298 268 283 284 269 
299 269 284 285 270 
300 270 285 286 271 
301 271 286 287 272 
302 272 287 288 273 
303 273 288 289 274 
304 274 289 35 36 
305 19 2 20 275 
306 275 20 21 276 
307 276 21 22 277 
308 277 22 23 278 
309 278 23 24 279 
310 279 24 25 280 
311 280 25 26 281 
312 281 26 27 282 
313 282 27 28 283 
314 283 28 29 284 
315 284 29 30 285 
316 285 30 31 286 
317 286 31 32 287 
318 287 32 33 288 
319 288 33 34 289 
320 289 34 3 35 
$EndElements
