$MeshFormat
4.1 0 8
$EndMeshFormat
$PhysicalNames
3
1 2 "periodicx"
1 3 "periodicy"
2 1 "domain"
$EndPhysicalNames
$Entities
4 4 1 0
1 -10 -10 0 0 
2 10 -10 0 0 
3 10 10 0 0 
4 -10 10 0 0 
1 -10 -10 0 10 -10 0 1 3 2 1 -2 
2 10 -10 0 10 10 0 1 2 2 2 -3 
3 -10 10 0 10 10 0 1 3 2 3 -4 
4 -10 -10 0 -10 10 0 1 2 2 4 -1 
1 -10 -10 0 10 10 0 1 1 4 1 2 3 4 
$EndEntities
$Nodes
9 81 1 81
0 1 0 1
1
-10 -10 0
0 2 0 1
2
10 -10 0
0 3 0 1
3
10 10 0
0 4 0 1
4
-10 10 0
1 1 0 7
5
6
7
8
9
10
11
-7.499999999997086 -10 0
-5.000000000004926 -10 0
-2.500000000012941 -10 0
-1.228173118761333e-11 -10 0
2.49999999999079 -10 0
4.999999999993857 -10 0
7.49999999999693 -10 0
1 2 0 7
12
13
14
15
16
17
18
10 -7.499999999997086 0
10 -5.000000000004926 0
10 -2.500000000012941 0
10 -1.228173118761333e-11 0
10 2.49999999999079 0
10 4.999999999993857 0
10 7.49999999999693 0
1 3 0 7
19
20
21
22
23
24
25
7.499999999997086 10 0
5.000000000004926 10 0
2.500000000012941 10 0
1.228173118761333e-11 10 0
-2.49999999999079 10 0
-4.999999999993857 10 0
-7.49999999999693 10 0
1 4 0 7
26
27
28
29
30
31
32
-10 7.499999999997086 0
-10 5.000000000004926 0
-10 2.500000000012941 0
-10 1.228173118761333e-11 0
-10 -2.49999999999079 0
-10 -4.999999999993857 0
-10 -7.49999999999693 0
2 1 0 49
33
34
35
36
37
38
39
40
41
42
43
44
45
46
47
48
49
50
51
52
53
54
55
56
57
58
59
60
61
62
63
64
65
66
67
68
69
70
71
72
73
74
75
76
77
78
79
80
81
-7.499999999997067 -7.499999999996951 0
-7.499999999997048 -4.999999999995243 0
-7.499999999997028 -2.499999999993559 0
-7.499999999997009 9.211298390709999e-12 0
-7.499999999996989 2.500000000010172 0
-7.499999999996971 5.000000000003544 0
-7.49999999999695 7.499999999997065 0
-5.000000000003544 -7.499999999996971 0
-5.000000000002159 -4.999999999996626 0
-5.000000000000777 -2.499999999996329 0
-4.999999999999392 6.140865593806666e-12 0
-4.99999999999801 2.500000000007404 0
-4.999999999996626 5.000000000002159 0
-4.999999999995242 7.499999999997047 0
-2.500000000010173 -7.499999999996989 0
-2.500000000007404 -4.999999999998009 0
-2.500000000004635 -2.499999999999095 0
-2.500000000001865 3.070432796903333e-12 0
-2.499999999999096 2.500000000004635 0
-2.499999999996328 5.000000000000775 0
-2.499999999993559 7.499999999997028 0
-9.211298390706323e-12 -7.499999999997009 0
-6.140865593805919e-12 -4.999999999999391 0
-3.070432796905624e-12 -2.500000000001865 0
0 0 0
3.070432796905624e-12 2.500000000001865 0
6.140865593805919e-12 4.999999999999391 0
9.211298390706325e-12 7.499999999997009 0
2.499999999993559 -7.499999999997028 0
2.499999999996328 -5.000000000000776 0
2.499999999999096 -2.500000000004635 0
2.500000000001865 -3.070432796903333e-12 0
2.500000000004634 2.499999999999096 0
2.500000000007403 4.999999999998008 0
2.500000000010171 7.499999999996987 0
4.999999999995243 -7.499999999997049 0
4.999999999996626 -5.000000000002159 0
4.999999999998008 -2.500000000007403 0
4.999999999999392 -6.141087638411591e-12 0
5.000000000000776 2.499999999996328 0
5.000000000002159 4.999999999996626 0
5.000000000003543 7.499999999996969 0
7.499999999996951 -7.499999999997067 0
7.499999999996969 -5.000000000003543 0
7.499999999996989 -2.500000000010171 0
7.499999999997009 -9.211187368407536e-12 0
7.499999999997026 2.499999999993559 0
7.499999999997044 4.999999999995242 0
7.499999999997065 7.499999999996949 0
$EndNodes
$Elements
5 96 1 96
1 1 1 8
1 1 5 
2 5 6 
3 6 7 
4 7 8 
5 8 9 
6 9 10 
7 10 11 
8 11 2 
1 2 1 8
9 2 12 
10 12 13 
11 13 14 
12 14 15 
13 15 16 
14 16 17 
15 17 18 
16 18 3 
1 3 1 8
17 3 19 
18 19 20 
19 20 21 
20 21 22 
21 22 23 
22 23 24 
23 24 25 
24 25 4 
1 4 1 8
25 4 26 
26 26 27 
27 27 28 
28 28 29 
29 29 30 
30 30 31 
31 31 32 
32 32 1 
2 1 3 64
33 1 5 33 32 
34 32 33 34 31 
35 31 34 35 30 
36 30 35 36 29 
37 29 36 37 28 
38 28 37 38 27 
39 27 38 39 26 
40 26 39 25 4 
41 5 6 40 33 
42 33 40 41 34 
43 34 41 42 35 
44 35 42 43 36 
45 36 43 44 37 
46 37 44 45 38 
47 38 45 46 39 
48 39 46 24 25 
49 6 7 47 40 
50 40 47 48 41 
51 41 48 49 42 
52 42 49 50 43 
53 43 50 51 44 
54 44 51 52 45 
55 45 52 53 46 
56 46 53 23 24 
57 7 8 54 47 
58 47 54 55 48 
59 48 55 56 49 
60 49 56 57 50 
61 50 57 58 51 
62 51 58 59 52 
63 52 59 60 53 
64 53 60 22 23 
65 8 9 61 54 
66 54 61 62 55 
67 55 62 63 56 
68 56 63 64 57 
69 57 64 65 58 
70 58 65 66 59 
71 59 66 67 60 
72 60 67 21 22 
73 9 10 68 61 
74 61 68 69 62 
75 62 69 70 63 
76 63 70 71 64 
77 64 71 72 65 
78 65 72 73 66 
79 66 73 74 67 
80 67 74 20 21 
81 10 11 75 68 
82 68 75 76 69 
83 69 76 77 70 
84 70 77 78 71 
85 71 78 79 72 
86 72 79 80 73 
87 73 80 81 74 
88 74 81 19 20 
89 11 2 12 75 
90 75 12 13 76 
91 76 13 14 77 
92 77 14 15 78 
93 78 15 16 79 
94 79 16 17 80 
95 80 17 18 81 
96 81 18 3 19 
$EndElements
