$MeshFormat
4.1 0 8
$EndMeshFormat
$PhysicalNames
7
2 1 "front"
2 2 "back"
2 4 "top"
2 5 "bottom"
2 6 "left"
2 7 "right"
3 3 "internal"
$EndPhysicalNames
$Entities
8 12 6 1
1 -5000 0 0 0 
2 5000 0 0 0 
3 5000 0 10000 0 
4 -5000 0 10000 0 
5 -5000 1000 10000 0 
6 -5000 1000 0 0 
10 5000 1000 0 0 
14 5000 1000 10000 0 
1 -5000 0 0 5000 0 0 0 2 1 -2 
2 5000 0 0 5000 0 10000 0 2 2 -3 
3 -5000 0 10000 5000 0 10000 0 2 3 -4 
4 -5000 0 0 -5000 0 10000 0 2 4 -1 
14 -5000 1000 0 -5000 1000 10000 0 2 5 -6 
15 -5000 1000 0 5000 1000 0 0 2 6 -10 
16 5000 1000 0 5000 1000 10000 0 2 10 -14 
17 -5000 1000 10000 5000 1000 10000 0 2 14 -5 
19 -5000 0 10000 -5000 1000 10000 0 2 4 -5 
20 -5000 0 0 -5000 1000 0 0 2 1 -6 
24 5000 0 0 5000 1000 0 0 2 2 -10 
28 5000 0 10000 5000 1000 10000 0 2 3 -14 
12 -5000 0 0 5000 0 10000 1 1 4 4 1 2 3 
21 -5000 0 0 -5000 1000 10000 1 6 4 4 20 -14 -19 
25 -5000 0 0 5000 1000 0 1 5 4 1 24 -15 -20 
29 5000 0 0 5000 1000 10000 1 7 4 2 28 -16 -24 
33 -5000 0 10000 5000 1000 10000 1 4 4 3 19 -17 -28 
34 -5000 1000 0 5000 1000 10000 1 2 4 14 15 16 17 
1 -5000 0 0 5000 1000 10000 1 3 6 -12 34 21 25 29 33 
$EndEntities
$Nodes
23 242 1 242
0 1 0 1
1
-5000 0 0
0 2 0 1
2
5000 0 0
0 3 0 1
3
5000 0 10000
0 4 0 1
4
-5000 0 10000
0 5 0 1
5
-5000 1000 10000
0 6 0 1
6
-5000 1000 0
0 10 0 1
7
5000 1000 0
0 14 0 1
8
5000 1000 10000
1 1 0 9
9
10
11
12
13
14
15
16
17
-4000.000000003498 0 0
-3000.000000006322 0 0
-2000.000000006055 0 0
-1000.00000000547 0 0
-8.792085282038897e-09 0 0
999.9999999961647 0 0
2000.000000001299 0 0
3000.000000006431 0 0
4000.000000003962 0 0
1 2 0 9
18
19
20
21
22
23
24
25
26
5000 0 999.9999999994186
5000 0 1999.999999997767
5000 0 2999.999999997659
5000 0 3999.999999997709
5000 0 4999.999999993852
5000 0 5999.999999998279
5000 0 7000.000000002883
5000 0 8000.000000007489
5000 0 9000.000000004491
1 3 0 9
27
28
29
30
31
32
33
34
35
4000.000000003498 0 10000
3000.000000006322 0 10000
2000.000000006055 0 10000
1000.00000000547 0 10000
8.792085282038897e-09 0 10000
-999.9999999961647 0 10000
-2000.000000001299 0 10000
-3000.000000006431 0 10000
-4000.000000003962 0 10000
1 4 0 9
36
37
38
39
40
41
42
43
44
-5000 0 9000.000000002876
-5000 0 8000.000000005753
-5000 0 7000.000000008627
-5000 0 6000.000000011501
-5000 0 5000.000000014196
-5000 0 4000.000000008159
-5000 0 3000.000000001945
-5000 0 1999.999999995731
-5000 0 999.9999999971205
1 14 0 9
45
46
47
48
49
50
51
52
53
-5000 1000 9000.000000002876
-5000 1000 8000.000000005753
-5000 1000 7000.000000008627
-5000 1000 6000.000000011501
-5000 1000 5000.000000014196
-5000 1000 4000.000000008159
-5000 1000 3000.000000001945
-5000 1000 1999.999999995731
-5000 1000 999.9999999971205
1 15 0 9
54
55
56
57
58
59
60
61
62
-4000.000000003498 1000 0
-3000.000000006322 1000 0
-2000.000000006055 1000 0
-1000.00000000547 1000 0
-8.792085282038897e-09 1000 0
999.9999999961647 1000 0
2000.000000001299 1000 0
3000.000000006431 1000 0
4000.000000003962 1000 0
1 16 0 9
63
64
65
66
67
68
69
70
71
5000 1000 999.9999999994186
5000 1000 1999.999999997767
5000 1000 2999.999999997659
5000 1000 3999.999999997709
5000 1000 4999.999999993852
5000 1000 5999.999999998279
5000 1000 7000.000000002883
5000 1000 8000.000000007489
5000 1000 9000.000000004491
1 17 0 9
72
73
74
75
76
77
78
79
80
4000.000000003498 1000 10000
3000.000000006322 1000 10000
2000.000000006055 1000 10000
1000.00000000547 1000 10000
8.792085282038897e-09 1000 10000
-999.9999999961647 1000 10000
-2000.000000001299 1000 10000
-3000.000000006431 1000 10000
-4000.000000003962 1000 10000
2 12 0 81
81
82
83
84
85
86
87
88
89
90
91
92
93
94
95
96
97
98
99
100
101
102
103
104
105
106
107
108
109
110
111
112
113
114
115
116
117
118
119
120
121
122
123
124
125
126
127
128
129
130
131
132
133
134
135
136
137
138
139
140
141
142
143
144
145
146
147
148
149
150
151
152
153
154
155
156
157
158
159
160
161
-4000.000000003915 0 9000.000000003036
-3000.00000000642 0 9000.000000003196
-2000.000000001775 0 9000.00000000336
-999.9999999970946 0 9000.000000003522
7.033577276160941e-09 0 9000.000000003683
1000.000000004539 0 9000.000000003844
2000.00000000558 0 9000.000000004007
3000.000000006334 0 9000.000000004167
4000.000000003545 0 9000.000000004331
-4000.000000003869 0 8000.000000005925
-3000.00000000641 0 8000.0000000061
-2000.00000000225 0 8000.000000006274
-999.9999999980259 0 8000.000000006448
5.275069270282984e-09 0 8000.000000006621
1000.000000003609 0 8000.000000006797
2000.000000005104 0 8000.000000006969
3000.000000006344 0 8000.000000007141
4000.00000000359 0 8000.000000007316
-4000.00000000382 0 7000.000000008052
-3000.000000006398 0 7000.000000007477
-2000.000000002726 0 7000.000000006905
-999.9999999989559 0 7000.000000006329
3.517016011755913e-09 0 7000.000000005754
1000.000000002678 0 7000.00000000518
2000.000000004628 0 7000.000000004605
3000.000000006355 0 7000.000000004034
4000.000000003637 0 7000.000000003456
-4000.000000003776 0 6000.000000010178
-3000.000000006387 0 6000.000000008857
-2000.000000003201 0 6000.000000007534
-999.999999999887 0 6000.000000006213
1.7587353795534e-09 0 6000.00000000489
1000.000000001748 0 6000.000000003568
2000.000000004153 0 6000.000000002246
3000.000000006366 0 6000.000000000924
4000.000000003683 0 5999.999999999603
-4000.000000003731 0 5000.000000012163
-3000.000000006376 0 5000.000000010127
-2000.000000003677 0 5000.000000008092
-1000.000000000817 0 5000.000000006058
0 0 5000.000000004025
1000.000000000817 0 5000.000000001989
2000.000000003677 0 4999.999999999955
3000.000000006376 0 4999.999999997922
4000.00000000373 0 4999.999999995886
-4000.000000003683 0 4000.000000007114
-3000.000000006366 0 4000.000000006069
-2000.000000004153 0 4000.000000005024
-1000.000000001747 0 4000.000000003979
-1.758394319040235e-09 0 4000.000000002934
999.9999999998868 0 4000.000000001889
2000.000000003201 0 4000.000000000844
3000.000000006387 0 3999.999999999799
4000.000000003776 0 3999.999999998754
-4000.000000003636 0 3000.000000001516
-3000.000000006354 0 3000.000000001089
-2000.000000004628 0 3000.000000000659
-1000.000000002678 0 3000.000000000231
-3.517016011755913e-09 0 2999.999999999802
999.9999999989554 0 2999.999999999373
2000.000000002726 0 2999.999999998945
3000.000000006398 0 2999.999999998517
4000.000000003823 0 2999.999999998087
-4000.00000000359 0 1999.999999995935
-3000.000000006343 0 1999.999999996138
-2000.000000005104 0 1999.999999996342
-1000.000000003608 0 1999.999999996545
-5.274955583445262e-09 0 1999.999999996749
999.9999999980259 0 1999.999999996952
2000.00000000225 0 1999.999999997156
3000.000000006409 0 1999.99999999736
4000.000000003869 0 1999.999999997563
-4000.000000003545 0 999.9999999973502
-3000.000000006333 0 999.9999999975799
-2000.000000005579 0 999.9999999978102
-1000.000000004539 0 999.9999999980399
-7.03354885445151e-09 0 999.9999999982698
999.9999999970946 0 999.9999999984991
2000.000000001774 0 999.9999999987291
3000.00000000642 0 999.9999999989592
4000.000000003916 0 999.9999999991887
2 21 0 0
2 25 0 0
2 29 0 0
2 33 0 0
2 34 0 81
162
163
164
165
166
167
168
169
170
171
172
173
174
175
176
177
178
179
180
181
182
183
184
185
186
187
188
189
190
191
192
193
194
195
196
197
198
199
200
201
202
203
204
205
206
207
208
209
210
211
212
213
214
215
216
217
218
219
220
221
222
223
224
225
226
227
228
229
230
231
232
233
234
235
236
237
238
239
240
241
242
-4000.000000003915 1000 9000.000000003036
-3000.00000000642 1000 9000.000000003196
-2000.000000001775 1000 9000.00000000336
-999.9999999970946 1000 9000.000000003522
7.033577276160941e-09 1000 9000.000000003683
1000.000000004539 1000 9000.000000003844
2000.00000000558 1000 9000.000000004007
3000.000000006334 1000 9000.000000004167
4000.000000003545 1000 9000.000000004331
-4000.000000003869 1000 8000.000000005925
-3000.00000000641 1000 8000.0000000061
-2000.00000000225 1000 8000.000000006274
-999.9999999980259 1000 8000.000000006448
5.275069270282984e-09 1000 8000.000000006621
1000.000000003609 1000 8000.000000006797
2000.000000005104 1000 8000.000000006969
3000.000000006344 1000 8000.000000007141
4000.00000000359 1000 8000.000000007316
-4000.00000000382 1000 7000.000000008052
-3000.000000006398 1000 7000.000000007477
-2000.000000002726 1000 7000.000000006905
-999.9999999989559 1000 7000.000000006329
3.517016011755913e-09 1000 7000.000000005754
1000.000000002678 1000 7000.00000000518
2000.000000004628 1000 7000.000000004605
3000.000000006355 1000 7000.000000004034
4000.000000003637 1000 7000.000000003456
-4000.000000003776 1000 6000.000000010178
-3000.000000006387 1000 6000.000000008857
-2000.000000003201 1000 6000.000000007534
-999.999999999887 1000 6000.000000006213
1.7587353795534e-09 1000 6000.00000000489
1000.000000001748 1000 6000.000000003568
2000.000000004153 1000 6000.000000002246
3000.000000006366 1000 6000.000000000924
4000.000000003683 1000 5999.999999999603
-4000.000000003731 1000 5000.000000012163
-3000.000000006376 1000 5000.000000010127
-2000.000000003677 1000 5000.000000008092
-1000.000000000817 1000 5000.000000006058
0 1000 5000.000000004025
1000.000000000817 1000 5000.000000001989
2000.000000003677 1000 4999.999999999955
3000.000000006376 1000 4999.999999997922
4000.00000000373 1000 4999.999999995886
-4000.000000003683 1000 4000.000000007114
-3000.000000006366 1000 4000.000000006069
-2000.000000004153 1000 4000.000000005024
-1000.000000001747 1000 4000.000000003979
-1.758394319040235e-09 1000 4000.000000002934
999.9999999998868 1000 4000.000000001889
2000.000000003201 1000 4000.000000000844
3000.000000006387 1000 3999.999999999799
4000.000000003776 1000 3999.999999998754
-4000.000000003636 1000 3000.000000001516
-3000.000000006354 1000 3000.000000001089
-2000.000000004628 1000 3000.000000000659
-1000.000000002678 1000 3000.000000000231
-3.517016011755913e-09 1000 2999.999999999802
999.9999999989554 1000 2999.999999999373
2000.000000002726 1000 2999.999999998945
3000.000000006398 1000 2999.999999998517
4000.000000003823 1000 2999.999999998087
-4000.00000000359 1000 1999.999999995935
-3000.000000006343 1000 1999.999999996138
-2000.000000005104 1000 1999.999999996342
-1000.000000003608 1000 1999.999999996545
-5.274955583445262e-09 1000 1999.999999996749
999.9999999980259 1000 1999.999999996952
2000.00000000225 1000 1999.999999997156
3000.000000006409 1000 1999.99999999736
4000.000000003869 1000 1999.999999997563
-4000.000000003545 1000 999.9999999973502
-3000.000000006333 1000 999.9999999975799
-2000.000000005579 1000 999.9999999978102
-1000.000000004539 1000 999.9999999980399
-7.03354885445151e-09 1000 999.9999999982698
999.9999999970946 1000 999.9999999984991
2000.000000001774 1000 999.9999999987291
3000.00000000642 1000 999.9999999989592
4000.000000003916 1000 999.9999999991887
3 1 0 0
$EndNodes
$Elements
7 340 1 340
2 12 3 100
1 4 36 81 35 
2 35 81 82 34 
3 34 82 83 33 
4 33 83 84 32 
5 32 84 85 31 
6 31 85 86 30 
7 30 86 87 29 
8 29 87 88 28 
9 28 88 89 27 
10 27 89 26 3 
11 36 37 90 81 
12 81 90 91 82 
13 82 91 92 83 
14 83 92 93 84 
15 84 93 94 85 
16 85 94 95 86 
17 86 95 96 87 
18 87 96 97 88 
19 88 97 98 89 
20 89 98 25 26 
21 37 38 99 90 
22 90 99 100 91 
23 91 100 101 92 
24 92 101 102 93 
25 93 102 103 94 
26 94 103 104 95 
27 95 104 105 96 
28 96 105 106 97 
29 97 106 107 98 
30 98 107 24 25 
31 38 39 108 99 
32 99 108 109 100 
33 100 109 110 101 
34 101 110 111 102 
35 102 111 112 103 
36 103 112 113 104 
37 104 113 114 105 
38 105 114 115 106 
39 106 115 116 107 
40 107 116 23 24 
41 39 40 117 108 
42 108 117 118 109 
43 109 118 119 110 
44 110 119 120 111 
45 111 120 121 112 
46 112 121 122 113 
47 113 122 123 114 
48 114 123 124 115 
49 115 124 125 116 
50 116 125 22 23 
51 40 41 126 117 
52 117 126 127 118 
53 118 127 128 119 
54 119 128 129 120 
55 120 129 130 121 
56 121 130 131 122 
57 122 131 132 123 
58 123 132 133 124 
59 124 133 134 125 
60 125 134 21 22 
61 41 42 135 126 
62 126 135 136 127 
63 127 136 137 128 
64 128 137 138 129 
65 129 138 139 130 
66 130 139 140 131 
67 131 140 141 132 
68 132 141 142 133 
69 133 142 143 134 
70 134 143 20 21 
71 42 43 144 135 
72 135 144 145 136 
73 136 145 146 137 
74 137 146 147 138 
75 138 147 148 139 
76 139 148 149 140 
77 140 149 150 141 
78 141 150 151 142 
79 142 151 152 143 
80 143 152 19 20 
81 43 44 153 144 
82 144 153 154 145 
83 145 154 155 146 
84 146 155 156 147 
85 147 156 157 148 
86 148 157 158 149 
87 149 158 159 150 
88 150 159 160 151 
89 151 160 161 152 
90 152 161 18 19 
91 44 1 9 153 
92 153 9 10 154 
93 154 10 11 155 
94 155 11 12 156 
95 156 12 13 157 
96 157 13 14 158 
97 158 14 15 159 
98 159 15 16 160 
99 160 16 17 161 
100 161 17 2 18 
2 21 3 10
101 4 36 45 5 
102 36 37 46 45 
103 37 38 47 46 
104 38 39 48 47 
105 39 40 49 48 
106 40 41 50 49 
107 41 42 51 50 
108 42 43 52 51 
109 43 44 53 52 
110 44 1 6 53 
2 25 3 10
111 1 9 54 6 
112 9 10 55 54 
113 10 11 56 55 
114 11 12 57 56 
115 12 13 58 57 
116 13 14 59 58 
117 14 15 60 59 
118 15 16 61 60 
119 16 17 62 61 
120 17 2 7 62 
2 29 3 10
121 2 18 63 7 
122 18 19 64 63 
123 19 20 65 64 
124 20 21 66 65 
125 21 22 67 66 
126 22 23 68 67 
127 23 24 69 68 
128 24 25 70 69 
129 25 26 71 70 
130 26 3 8 71 
2 33 3 10
131 3 27 72 8 
132 27 28 73 72 
133 28 29 74 73 
134 29 30 75 74 
135 30 31 76 75 
136 31 32 77 76 
137 32 33 78 77 
138 33 34 79 78 
139 34 35 80 79 
140 35 4 5 80 
2 34 3 100
141 5 45 162 80 
142 80 162 163 79 
143 79 163 164 78 
144 78 164 165 77 
145 77 165 166 76 
146 76 166 167 75 
147 75 167 168 74 
148 74 168 169 73 
149 73 169 170 72 
150 72 170 71 8 
151 45 46 171 162 
152 162 171 172 163 
153 163 172 173 164 
154 164 173 174 165 
155 165 174 175 166 
156 166 175 176 167 
157 167 176 177 168 
158 168 177 178 169 
159 169 178 179 170 
160 170 179 70 71 
161 46 47 180 171 
162 171 180 181 172 
163 172 181 182 173 
164 173 182 183 174 
165 174 183 184 175 
166 175 184 185 176 
167 176 185 186 177 
168 177 186 187 178 
169 178 187 188 179 
170 179 188 69 70 
171 47 48 189 180 
172 180 189 190 181 
173 181 190 191 182 
174 182 191 192 183 
175 183 192 193 184 
176 184 193 194 185 
177 185 194 195 186 
178 186 195 196 187 
179 187 196 197 188 
180 188 197 68 69 
181 48 49 198 189 
182 189 198 199 190 
183 190 199 200 191 
184 191 200 201 192 
185 192 201 202 193 
186 193 202 203 194 
187 194 203 204 195 
188 195 204 205 196 
189 196 205 206 197 
190 197 206 67 68 
191 49 50 207 198 
192 198 207 208 199 
193 199 208 209 200 
194 200 209 210 201 
195 201 210 211 202 
196 202 211 212 203 
197 203 212 213 204 
198 204 213 214 205 
199 205 214 215 206 
200 206 215 66 67 
201 50 51 216 207 
202 207 216 217 208 
203 208 217 218 209 
204 209 218 219 210 
205 210 219 220 211 
206 211 220 221 212 
207 212 221 222 213 
208 213 222 223 214 
209 214 223 224 215 
210 215 224 65 66 
211 51 52 225 216 
212 216 225 226 217 
213 217 226 227 218 
214 218 227 228 219 
215 219 228 229 220 
216 220 229 230 221 
217 221 230 231 222 
218 222 231 232 223 
219 223 232 233 224 
220 224 233 64 65 
221 52 53 234 225 
222 225 234 235 226 
223 226 235 236 227 
224 227 236 237 228 
225 228 237 238 229 
226 229 238 239 230 
227 230 239 240 231 
228 231 240 241 232 
229 232 241 242 233 
230 233 242 63 64 
231 53 6 54 234 
232 234 54 55 235 
233 235 55 56 236 
234 236 56 57 237 
235 237 57 58 238 
236 238 58 59 239 
237 239 59 60 240 
238 240 60 61 241 
239 241 61 62 242 
240 242 62 7 63 
3 1 5 100
241 81 36 4 35 162 45 5 80 
242 82 81 35 34 163 162 80 79 
243 83 82 34 33 164 163 79 78 
244 84 83 33 32 165 164 78 77 
245 85 84 32 31 166 165 77 76 
246 86 85 31 30 167 166 76 75 
247 87 86 30 29 168 167 75 74 
248 88 87 29 28 169 168 74 73 
249 89 88 28 27 170 169 73 72 
250 26 89 27 3 71 170 72 8 
251 90 37 36 81 171 46 45 162 
252 91 90 81 82 172 171 162 163 
253 92 91 82 83 173 172 163 164 
254 93 92 83 84 174 173 164 165 
255 94 93 84 85 175 174 165 166 
256 95 94 85 86 176 175 166 167 
257 96 95 86 87 177 176 167 168 
258 97 96 87 88 178 177 168 169 
259 98 97 88 89 179 178 169 170 
260 25 98 89 26 70 179 170 71 
261 99 38 37 90 180 47 46 171 
262 100 99 90 91 181 180 171 172 
263 101 100 91 92 182 181 172 173 
264 102 101 92 93 183 182 173 174 
265 103 102 93 94 184 183 174 175 
266 104 103 94 95 185 184 175 176 
267 105 104 95 96 186 185 176 177 
268 106 105 96 97 187 186 177 178 
269 107 106 97 98 188 187 178 179 
270 24 107 98 25 69 188 179 70 
271 108 39 38 99 189 48 47 180 
272 109 108 99 100 190 189 180 181 
273 110 109 100 101 191 190 181 182 
274 111 110 101 102 192 191 182 183 
275 112 111 102 103 193 192 183 184 
276 113 112 103 104 194 193 184 185 
277 114 113 104 105 195 194 185 186 
278 115 114 105 106 196 195 186 187 
279 116 115 106 107 197 196 187 188 
280 23 116 107 24 68 197 188 69 
281 117 40 39 108 198 49 48 189 
282 118 117 108 109 199 198 189 190 
283 119 118 109 110 200 199 190 191 
284 120 119 110 111 201 200 191 192 
285 121 120 111 112 202 201 192 193 
286 122 121 112 113 203 202 193 194 
287 123 122 113 114 204 203 194 195 
288 124 123 114 115 205 204 195 196 
289 125 124 115 116 206 205 196 197 
290 22 125 116 23 67 206 197 68 
291 126 41 40 117 207 50 49 198 
292 127 126 117 118 208 207 198 199 
293 128 127 118 119 209 208 199 200 
294 129 128 119 120 210 209 200 201 
295 130 129 120 121 211 210 201 202 
296 131 130 121 122 212 211 202 203 
297 132 131 122 123 213 212 203 204 
298 133 132 123 124 214 213 204 205 
299 134 133 124 125 215 214 205 206 
300 21 134 125 22 66 215 206 67 
301 135 42 41 126 216 51 50 207 
302 136 135 126 127 217 216 207 208 
303 137 136 127 128 218 217 208 209 
304 138 137 128 129 219 218 209 210 
305 139 138 129 130 220 219 210 211 
306 140 139 130 131 221 220 211 212 
307 141 140 131 132 222 221 212 213 
308 142 141 132 133 223 222 213 214 
309 143 142 133 134 224 223 214 215 
310 20 143 134 21 65 224 215 66 
311 144 43 42 135 225 52 51 216 
312 145 144 135 136 226 225 216 217 
313 146 145 136 137 227 226 217 218 
314 147 146 137 138 228 227 218 219 
315 148 147 138 139 229 228 219 220 
316 149 148 139 140 230 229 220 221 
317 150 149 140 141 231 230 221 222 
318 151 150 141 142 232 231 222 223 
319 152 151 142 143 233 232 223 224 
320 19 152 143 20 64 233 224 65 
321 153 44 43 144 234 53 52 225 
322 154 153 144 145 235 234 225 226 
323 155 154 145 146 236 235 226 227 
324 156 155 146 147 237 236 227 228 
325 157 156 147 148 238 237 228 229 
326 158 157 148 149 239 238 229 230 
327 159 158 149 150 240 239 230 231 
328 160 159 150 151 241 240 231 232 
329 161 160 151 152 242 241 232 233 
330 18 161 152 19 63 242 233 64 
331 9 1 44 153 54 6 53 234 
332 10 9 153 154 55 54 234 235 
333 11 10 154 155 56 55 235 236 
334 12 11 155 156 57 56 236 237 
335 13 12 156 157 58 57 237 238 
336 14 13 157 158 59 58 238 239 
337 15 14 158 159 60 59 239 240 
338 16 15 159 160 61 60 240 241 
339 17 16 160 161 62 61 241 242 
340 2 17 161 18 7 62 242 63 
$EndElements
