$MeshFormat
4.1 0 8
$EndMeshFormat
$PhysicalNames
7
2 1 "front"
2 2 "back"
2 4 "top"
2 5 "bottom"
2 6 "left"
2 7 "right"
3 3 "internal"
$EndPhysicalNames
$Entities
8 12 6 1
1 0 0 0 0 
2 1000 0 0 0 
3 1000 0 1000 0 
4 0 0 1000 0 
5 0 1000 1000 0 
6 0 1000 0 0 
10 1000 1000 0 0 
14 1000 1000 1000 0 
1 0 0 0 1000 0 0 0 2 1 -2 
2 1000 0 0 1000 0 1000 0 2 2 -3 
3 0 0 1000 1000 0 1000 0 2 3 -4 
4 0 0 0 0 0 1000 0 2 4 -1 
14 0 1000 0 0 1000 1000 0 2 5 -6 
15 0 1000 0 1000 1000 0 0 2 6 -10 
16 1000 1000 0 1000 1000 1000 0 2 10 -14 
17 0 1000 1000 1000 1000 1000 0 2 14 -5 
19 0 0 1000 0 1000 1000 0 2 4 -5 
20 0 0 0 0 1000 0 0 2 1 -6 
24 1000 0 0 1000 1000 0 0 2 2 -10 
28 1000 0 1000 1000 1000 1000 0 2 3 -14 
12 0 0 0 1000 0 1000 1 1 4 4 1 2 3 
21 0 0 0 0 1000 1000 1 6 4 4 20 -14 -19 
25 0 0 0 1000 1000 0 1 5 4 1 24 -15 -20 
29 1000 0 0 1000 1000 1000 1 7 4 2 28 -16 -24 
33 0 0 1000 1000 1000 1000 1 4 4 3 19 -17 -28 
34 0 1000 0 1000 1000 1000 1 2 4 14 15 16 17 
1 0 0 0 1000 1000 1000 1 3 6 -12 34 21 25 29 33 
$EndEntities
$Nodes
23 450 1 450
0 1 0 1
1
0 0 0
0 2 0 1
2
1000 0 0
0 3 0 1
3
1000 0 1000
0 4 0 1
4
0 0 1000
0 5 0 1
5
0 1000 1000
0 6 0 1
6
0 1000 0
0 10 0 1
7
1000 1000 0
0 14 0 1
8
1000 1000 1000
1 1 0 7
9
10
11
12
13
14
15
124.9999999999718 0 0
249.999999999671 0 0
374.999999999706 0 0
499.9999999997633 0 0
624.9999999998641 0 0
749.9999999999093 0 0
874.9999999999546 0 0
1 2 0 23
16
17
18
19
20
21
22
23
24
25
26
27
28
29
30
31
32
33
34
35
36
37
38
1000 0 41.66666666664288
1000 0 83.33333333329254
1000 0 124.9999999999718
1000 0 166.6666666665438
1000 0 208.3333333331074
1000 0 249.999999999671
1000 0 291.6666666663419
1000 0 333.333333333024
1000 0 374.9999999997061
1000 0 416.6666666663882
1000 0 458.3333333330702
1000 0 499.9999999997633
1000 0 541.6666666665005
1000 0 583.3333333331824
1000 0 624.9999999998641
1000 0 666.6666666665459
1000 0 708.3333333332276
1000 0 749.9999999999094
1000 0 791.6666666665911
1000 0 833.333333333273
1000 0 874.9999999999548
1000 0 916.6666666666364
1000 0 958.3333333333183
1 3 0 7
39
40
41
42
43
44
45
875.0000000000082 0 1000
750.0000000000166 0 1000
625.0000000000249 0 1000
500.0000000000221 0 1000
374.9999999999749 0 1000
249.9999999999834 0 1000
124.9999999999917 0 1000
1 4 0 23
46
47
48
49
50
51
52
53
54
55
56
57
58
59
60
61
62
63
64
65
66
67
68
0 0 958.3333333333361
0 0 916.6666666666721
0 0 875.0000000000082
0 0 833.3333333333443
0 0 791.6666666666804
0 0 750.0000000000166
0 0 708.3333333333526
0 0 666.6666666666888
0 0 625.0000000000249
0 0 583.333333333361
0 0 541.6666666666971
0 0 500.0000000000221
0 0 458.3333333333027
0 0 416.6666666666388
0 0 374.9999999999749
0 0 333.3333333333111
0 0 291.6666666666471
0 0 249.9999999999833
0 0 208.3333333333194
0 0 166.6666666666554
0 0 124.9999999999916
0 0 83.33333333332769
0 0 41.66666666666379
1 14 0 23
69
70
71
72
73
74
75
76
77
78
79
80
81
82
83
84
85
86
87
88
89
90
91
0 1000 958.3333333333361
0 1000 916.6666666666721
0 1000 875.0000000000082
0 1000 833.3333333333443
0 1000 791.6666666666804
0 1000 750.0000000000166
0 1000 708.3333333333526
0 1000 666.6666666666888
0 1000 625.0000000000249
0 1000 583.333333333361
0 1000 541.6666666666971
0 1000 500.0000000000221
0 1000 458.3333333333027
0 1000 416.6666666666388
0 1000 374.9999999999749
0 1000 333.3333333333111
0 1000 291.6666666666471
0 1000 249.9999999999833
0 1000 208.3333333333194
0 1000 166.6666666666554
0 1000 124.9999999999916
0 1000 83.33333333332769
0 1000 41.66666666666379
1 15 0 7
92
93
94
95
96
97
98
124.9999999999718 1000 0
249.999999999671 1000 0
374.999999999706 1000 0
499.9999999997633 1000 0
624.9999999998641 1000 0
749.9999999999093 1000 0
874.9999999999546 1000 0
1 16 0 23
99
100
101
102
103
104
105
106
107
108
109
110
111
112
113
114
115
116
117
118
119
120
121
1000 1000 41.66666666664288
1000 1000 83.33333333329254
1000 1000 124.9999999999718
1000 1000 166.6666666665438
1000 1000 208.3333333331074
1000 1000 249.999999999671
1000 1000 291.6666666663419
1000 1000 333.333333333024
1000 1000 374.9999999997061
1000 1000 416.6666666663882
1000 1000 458.3333333330702
1000 1000 499.9999999997633
1000 1000 541.6666666665005
1000 1000 583.3333333331824
1000 1000 624.9999999998641
1000 1000 666.6666666665459
1000 1000 708.3333333332276
1000 1000 749.9999999999094
1000 1000 791.6666666665911
1000 1000 833.333333333273
1000 1000 874.9999999999548
1000 1000 916.6666666666364
1000 1000 958.3333333333183
1 17 0 7
122
123
124
125
126
127
128
875.0000000000082 1000 1000
750.0000000000166 1000 1000
625.0000000000249 1000 1000
500.0000000000221 1000 1000
374.9999999999749 1000 1000
249.9999999999834 1000 1000
124.9999999999917 1000 1000
2 12 0 161
129
130
131
132
133
134
135
136
137
138
139
140
141
142
143
144
145
146
147
148
149
150
151
152
153
154
155
156
157
158
159
160
161
162
163
164
165
166
167
168
169
170
171
172
173
174
175
176
177
178
179
180
181
182
183
184
185
186
187
188
189
190
191
192
193
194
195
196
197
198
199
200
201
202
203
204
205
206
207
208
209
210
211
212
213
214
215
216
217
218
219
220
221
222
223
224
225
226
227
228
229
230
231
232
233
234
235
236
237
238
239
240
241
242
243
244
245
246
247
248
249
250
251
252
253
254
255
256
257
258
259
260
261
262
263
264
265
266
267
268
269
270
271
272
273
274
275
276
277
278
279
280
281
282
283
284
285
286
287
288
289
124.9999999999909 0 958.3333333333337
249.9999999999704 0 958.3333333333316
374.9999999999636 0 958.3333333333295
500.0000000000113 0 958.3333333333271
625.0000000000182 0 958.3333333333247
750.0000000000122 0 958.3333333333228
875.0000000000059 0 958.3333333333204
124.99999999999 0 916.6666666666675
249.9999999999574 0 916.6666666666632
374.9999999999524 0 916.6666666666589
500.0000000000006 0 916.6666666666542
625.0000000000115 0 916.6666666666497
750.0000000000075 0 916.6666666666456
875.0000000000039 0 916.666666666641
124.9999999999892 0 875.0000000000016
249.9999999999444 0 874.9999999999948
374.9999999999413 0 874.9999999999881
499.9999999999897 0 874.9999999999814
625.0000000000048 0 874.9999999999749
750.000000000003 0 874.9999999999679
875.0000000000014 0 874.9999999999615
124.9999999999884 0 833.3333333333353
249.9999999999313 0 833.3333333333264
374.9999999999301 0 833.3333333333176
499.999999999979 0 833.3333333333087
624.9999999999982 0 833.3333333332996
749.9999999999987 0 833.3333333332909
874.9999999999993 0 833.3333333332819
124.9999999999876 0 791.6666666666689
249.9999999999183 0 791.6666666666581
374.9999999999188 0 791.666666666647
499.9999999999681 0 791.6666666666358
624.9999999999914 0 791.6666666666247
749.9999999999943 0 791.6666666666134
874.999999999997 0 791.6666666666021
124.9999999999867 0 750.0000000000033
249.9999999999053 0 749.9999999999897
374.9999999999076 0 749.9999999999764
499.9999999999575 0 749.9999999999632
624.9999999999848 0 749.9999999999498
749.9999999999898 0 749.9999999999362
874.9999999999948 0 749.9999999999228
124.9999999999859 0 708.3333333333371
249.9999999998923 0 708.3333333333213
374.9999999998964 0 708.3333333333057
499.9999999999467 0 708.3333333332901
624.9999999999779 0 708.3333333332745
749.9999999999852 0 708.333333333259
874.9999999999925 0 708.3333333332433
124.9999999999851 0 666.6666666666708
249.9999999998793 0 666.6666666666531
374.9999999998852 0 666.6666666666351
499.9999999999359 0 666.6666666666174
624.9999999999714 0 666.6666666665994
749.9999999999807 0 666.6666666665816
874.9999999999905 0 666.6666666665636
124.9999999999843 0 625.0000000000047
249.9999999998662 0 624.999999999985
374.9999999998739 0 624.9999999999646
499.9999999999251 0 624.9999999999445
624.9999999999646 0 624.9999999999245
749.9999999999764 0 624.9999999999045
874.9999999999882 0 624.9999999998844
124.9999999999834 0 583.3333333333386
249.9999999998532 0 583.3333333333164
374.9999999998628 0 583.333333333294
499.9999999999143 0 583.3333333332716
624.9999999999579 0 583.3333333332492
749.9999999999718 0 583.333333333227
874.9999999999859 0 583.3333333332047
124.9999999999826 0 541.6666666666723
249.9999999998402 0 541.666666666648
374.9999999998517 0 541.6666666666234
499.9999999999035 0 541.6666666665986
624.9999999999513 0 541.6666666665742
749.9999999999675 0 541.6666666665496
874.9999999999836 0 541.666666666525
124.9999999999818 0 499.9999999999897
249.9999999998272 0 499.9999999999575
374.9999999998404 0 499.9999999999251
499.9999999998927 0 499.9999999998927
624.9999999999445 0 499.9999999998603
749.9999999999629 0 499.999999999828
874.9999999999814 0 499.9999999997956
124.9999999999809 0 458.3333333332736
249.9999999998142 0 458.3333333332445
374.9999999998292 0 458.3333333332155
499.9999999998818 0 458.3333333331865
624.9999999999377 0 458.3333333331574
749.9999999999584 0 458.3333333331283
874.9999999999791 0 458.3333333330993
124.9999999999801 0 416.6666666666075
249.9999999998012 0 416.6666666665762
374.999999999818 0 416.6666666665449
499.9999999998712 0 416.6666666665135
624.9999999999311 0 416.6666666664821
749.9999999999541 0 416.6666666664507
874.9999999999768 0 416.6666666664195
124.9999999999793 0 374.9999999999413
249.9999999997881 0 374.9999999999077
374.9999999998068 0 374.999999999874
499.9999999998604 0 374.9999999998405
624.9999999999245 0 374.9999999998068
749.9999999999495 0 374.9999999997732
874.9999999999748 0 374.9999999997397
124.9999999999784 0 333.3333333332752
249.9999999997752 0 333.3333333332394
374.9999999997956 0 333.3333333332034
499.9999999998496 0 333.3333333331676
624.9999999999177 0 333.3333333331317
749.9999999999452 0 333.3333333330958
874.9999999999725 0 333.3333333330598
124.9999999999776 0 291.6666666666089
249.9999999997621 0 291.6666666665708
374.9999999997844 0 291.6666666665326
499.9999999998388 0 291.6666666664945
624.9999999999111 0 291.6666666664564
749.9999999999408 0 291.6666666664183
874.9999999999702 0 291.6666666663801
124.9999999999768 0 249.9999999999443
249.9999999997491 0 249.9999999999052
374.9999999997733 0 249.9999999998662
499.9999999998281 0 249.9999999998271
624.9999999999043 0 249.9999999997881
749.9999999999361 0 249.9999999997491
874.9999999999679 0 249.99999999971
124.999999999976 0 208.3333333332929
249.9999999997361 0 208.3333333332664
374.9999999997621 0 208.3333333332399
499.9999999998171 0 208.3333333332134
624.9999999998977 0 208.3333333331869
749.9999999999316 0 208.3333333331604
874.9999999999659 0 208.3333333331339
124.9999999999751 0 166.6666666666415
249.9999999997231 0 166.6666666666275
374.9999999997507 0 166.6666666666135
499.9999999998065 0 166.6666666665996
624.9999999998909 0 166.6666666665857
749.999999999927 0 166.6666666665717
874.9999999999636 0 166.6666666665577
124.9999999999743 0 124.9999999999891
249.99999999971 0 124.9999999999867
374.9999999997396 0 124.9999999999841
499.9999999997956 0 124.9999999999817
624.9999999998843 0 124.9999999999792
749.9999999999228 0 124.9999999999768
874.9999999999613 0 124.9999999999743
124.9999999999735 0 83.33333333332327
249.999999999697 0 83.33333333331889
374.9999999997284 0 83.33333333331451
499.9999999997848 0 83.33333333331011
624.9999999998777 0 83.33333333330573
749.9999999999185 0 83.33333333330133
874.9999999999591 0 83.33333333329695
124.9999999999726 0 41.66666666666118
249.999999999684 0 41.66666666665855
374.9999999997172 0 41.66666666665593
499.999999999774 0 41.66666666665334
624.9999999998709 0 41.66666666665071
749.9999999999139 0 41.6666666666481
874.9999999999568 0 41.66666666664549
2 21 0 0
2 25 0 0
2 29 0 0
2 33 0 0
2 34 0 161
290
291
292
293
294
295
296
297
298
299
300
301
302
303
304
305
306
307
308
309
310
311
312
313
314
315
316
317
318
319
320
321
322
323
324
325
326
327
328
329
330
331
332
333
334
335
336
337
338
339
340
341
342
343
344
345
346
347
348
349
350
351
352
353
354
355
356
357
358
359
360
361
362
363
364
365
366
367
368
369
370
371
372
373
374
375
376
377
378
379
380
381
382
383
384
385
386
387
388
389
390
391
392
393
394
395
396
397
398
399
400
401
402
403
404
405
406
407
408
409
410
411
412
413
414
415
416
417
418
419
420
421
422
423
424
425
426
427
428
429
430
431
432
433
434
435
436
437
438
439
440
441
442
443
444
445
446
447
448
449
450
124.9999999999909 1000 958.3333333333337
249.9999999999704 1000 958.3333333333316
374.9999999999636 1000 958.3333333333295
500.0000000000113 1000 958.3333333333271
625.0000000000182 1000 958.3333333333247
750.0000000000122 1000 958.3333333333228
875.0000000000059 1000 958.3333333333204
124.99999999999 1000 916.6666666666675
249.9999999999574 1000 916.6666666666632
374.9999999999524 1000 916.6666666666589
500.0000000000006 1000 916.6666666666542
625.0000000000115 1000 916.6666666666497
750.0000000000075 1000 916.6666666666456
875.0000000000039 1000 916.666666666641
124.9999999999892 1000 875.0000000000016
249.9999999999444 1000 874.9999999999948
374.9999999999413 1000 874.9999999999881
499.9999999999897 1000 874.9999999999814
625.0000000000048 1000 874.9999999999749
750.000000000003 1000 874.9999999999679
875.0000000000014 1000 874.9999999999615
124.9999999999884 1000 833.3333333333353
249.9999999999313 1000 833.3333333333264
374.9999999999301 1000 833.3333333333176
499.999999999979 1000 833.3333333333087
624.9999999999982 1000 833.3333333332996
749.9999999999987 1000 833.3333333332909
874.9999999999993 1000 833.3333333332819
124.9999999999876 1000 791.6666666666689
249.9999999999183 1000 791.6666666666581
374.9999999999188 1000 791.666666666647
499.9999999999681 1000 791.6666666666358
624.9999999999914 1000 791.6666666666247
749.9999999999943 1000 791.6666666666134
874.999999999997 1000 791.6666666666021
124.9999999999867 1000 750.0000000000033
249.9999999999053 1000 749.9999999999897
374.9999999999076 1000 749.9999999999764
499.9999999999575 1000 749.9999999999632
624.9999999999848 1000 749.9999999999498
749.9999999999898 1000 749.9999999999362
874.9999999999948 1000 749.9999999999228
124.9999999999859 1000 708.3333333333371
249.9999999998923 1000 708.3333333333213
374.9999999998964 1000 708.3333333333057
499.9999999999467 1000 708.3333333332901
624.9999999999779 1000 708.3333333332745
749.9999999999852 1000 708.333333333259
874.9999999999925 1000 708.3333333332433
124.9999999999851 1000 666.6666666666708
249.9999999998793 1000 666.6666666666531
374.9999999998852 1000 666.6666666666351
499.9999999999359 1000 666.6666666666174
624.9999999999714 1000 666.6666666665994
749.9999999999807 1000 666.6666666665816
874.9999999999905 1000 666.6666666665636
124.9999999999843 1000 625.0000000000047
249.9999999998662 1000 624.999999999985
374.9999999998739 1000 624.9999999999646
499.9999999999251 1000 624.9999999999445
624.9999999999646 1000 624.9999999999245
749.9999999999764 1000 624.9999999999045
874.9999999999882 1000 624.9999999998844
124.9999999999834 1000 583.3333333333386
249.9999999998532 1000 583.3333333333164
374.9999999998628 1000 583.333333333294
499.9999999999143 1000 583.3333333332716
624.9999999999579 1000 583.3333333332492
749.9999999999718 1000 583.333333333227
874.9999999999859 1000 583.3333333332047
124.9999999999826 1000 541.6666666666723
249.9999999998402 1000 541.666666666648
374.9999999998517 1000 541.6666666666234
499.9999999999035 1000 541.6666666665986
624.9999999999513 1000 541.6666666665742
749.9999999999675 1000 541.6666666665496
874.9999999999836 1000 541.666666666525
124.9999999999818 1000 499.9999999999897
249.9999999998272 1000 499.9999999999575
374.9999999998404 1000 499.9999999999251
499.9999999998927 1000 499.9999999998927
624.9999999999445 1000 499.9999999998603
749.9999999999629 1000 499.999999999828
874.9999999999814 1000 499.9999999997956
124.9999999999809 1000 458.3333333332736
249.9999999998142 1000 458.3333333332445
374.9999999998292 1000 458.3333333332155
499.9999999998818 1000 458.3333333331865
624.9999999999377 1000 458.3333333331574
749.9999999999584 1000 458.3333333331283
874.9999999999791 1000 458.3333333330993
124.9999999999801 1000 416.6666666666075
249.9999999998012 1000 416.6666666665762
374.999999999818 1000 416.6666666665449
499.9999999998712 1000 416.6666666665135
624.9999999999311 1000 416.6666666664821
749.9999999999541 1000 416.6666666664507
874.9999999999768 1000 416.6666666664195
124.9999999999793 1000 374.9999999999413
249.9999999997881 1000 374.9999999999077
374.9999999998068 1000 374.999999999874
499.9999999998604 1000 374.9999999998405
624.9999999999245 1000 374.9999999998068
749.9999999999495 1000 374.9999999997732
874.9999999999748 1000 374.9999999997397
124.9999999999784 1000 333.3333333332752
249.9999999997752 1000 333.3333333332394
374.9999999997956 1000 333.3333333332034
499.9999999998496 1000 333.3333333331676
624.9999999999177 1000 333.3333333331317
749.9999999999452 1000 333.3333333330958
874.9999999999725 1000 333.3333333330598
124.9999999999776 1000 291.6666666666089
249.9999999997621 1000 291.6666666665708
374.9999999997844 1000 291.6666666665326
499.9999999998388 1000 291.6666666664945
624.9999999999111 1000 291.6666666664564
749.9999999999408 1000 291.6666666664183
874.9999999999702 1000 291.6666666663801
124.9999999999768 1000 249.9999999999443
249.9999999997491 1000 249.9999999999052
374.9999999997733 1000 249.9999999998662
499.9999999998281 1000 249.9999999998271
624.9999999999043 1000 249.9999999997881
749.9999999999361 1000 249.9999999997491
874.9999999999679 1000 249.99999999971
124.999999999976 1000 208.3333333332929
249.9999999997361 1000 208.3333333332664
374.9999999997621 1000 208.3333333332399
499.9999999998171 1000 208.3333333332134
624.9999999998977 1000 208.3333333331869
749.9999999999316 1000 208.3333333331604
874.9999999999659 1000 208.3333333331339
124.9999999999751 1000 166.6666666666415
249.9999999997231 1000 166.6666666666275
374.9999999997507 1000 166.6666666666135
499.9999999998065 1000 166.6666666665996
624.9999999998909 1000 166.6666666665857
749.999999999927 1000 166.6666666665717
874.9999999999636 1000 166.6666666665577
124.9999999999743 1000 124.9999999999891
249.99999999971 1000 124.9999999999867
374.9999999997396 1000 124.9999999999841
499.9999999997956 1000 124.9999999999817
624.9999999998843 1000 124.9999999999792
749.9999999999228 1000 124.9999999999768
874.9999999999613 1000 124.9999999999743
124.9999999999735 1000 83.33333333332327
249.999999999697 1000 83.33333333331889
374.9999999997284 1000 83.33333333331451
499.9999999997848 1000 83.33333333331011
624.9999999998777 1000 83.33333333330573
749.9999999999185 1000 83.33333333330133
874.9999999999591 1000 83.33333333329695
124.9999999999726 1000 41.66666666666118
249.999999999684 1000 41.66666666665855
374.9999999997172 1000 41.66666666665593
499.999999999774 1000 41.66666666665334
624.9999999998709 1000 41.66666666665071
749.9999999999139 1000 41.6666666666481
874.9999999999568 1000 41.66666666664549
3 1 0 0
$EndNodes
$Elements
7 640 1 640
2 12 3 192
1 4 46 129 45 
2 45 129 130 44 
3 44 130 131 43 
4 43 131 132 42 
5 42 132 133 41 
6 41 133 134 40 
7 40 134 135 39 
8 39 135 38 3 
9 46 47 136 129 
10 129 136 137 130 
11 130 137 138 131 
12 131 138 139 132 
13 132 139 140 133 
14 133 140 141 134 
15 134 141 142 135 
16 135 142 37 38 
17 47 48 143 136 
18 136 143 144 137 
19 137 144 145 138 
20 138 145 146 139 
21 139 146 147 140 
22 140 147 148 141 
23 141 148 149 142 
24 142 149 36 37 
25 48 49 150 143 
26 143 150 151 144 
27 144 151 152 145 
28 145 152 153 146 
29 146 153 154 147 
30 147 154 155 148 
31 148 155 156 149 
32 149 156 35 36 
33 49 50 157 150 
34 150 157 158 151 
35 151 158 159 152 
36 152 159 160 153 
37 153 160 161 154 
38 154 161 162 155 
39 155 162 163 156 
40 156 163 34 35 
41 50 51 164 157 
42 157 164 165 158 
43 158 165 166 159 
44 159 166 167 160 
45 160 167 168 161 
46 161 168 169 162 
47 162 169 170 163 
48 163 170 33 34 
49 51 52 171 164 
50 164 171 172 165 
51 165 172 173 166 
52 166 173 174 167 
53 167 174 175 168 
54 168 175 176 169 
55 169 176 177 170 
56 170 177 32 33 
57 52 53 178 171 
58 171 178 179 172 
59 172 179 180 173 
60 173 180 181 174 
61 174 181 182 175 
62 175 182 183 176 
63 176 183 184 177 
64 177 184 31 32 
65 53 54 185 178 
66 178 185 186 179 
67 179 186 187 180 
68 180 187 188 181 
69 181 188 189 182 
70 182 189 190 183 
71 183 190 191 184 
72 184 191 30 31 
73 54 55 192 185 
74 185 192 193 186 
75 186 193 194 187 
76 187 194 195 188 
77 188 195 196 189 
78 189 196 197 190 
79 190 197 198 191 
80 191 198 29 30 
81 55 56 199 192 
82 192 199 200 193 
83 193 200 201 194 
84 194 201 202 195 
85 195 202 203 196 
86 196 203 204 197 
87 197 204 205 198 
88 198 205 28 29 
89 56 57 206 199 
90 199 206 207 200 
91 200 207 208 201 
92 201 208 209 202 
93 202 209 210 203 
94 203 210 211 204 
95 204 211 212 205 
96 205 212 27 28 
97 57 58 213 206 
98 206 213 214 207 
99 207 214 215 208 
100 208 215 216 209 
101 209 216 217 210 
102 210 217 218 211 
103 211 218 219 212 
104 212 219 26 27 
105 58 59 220 213 
106 213 220 221 214 
107 214 221 222 215 
108 215 222 223 216 
109 216 223 224 217 
110 217 224 225 218 
111 218 225 226 219 
112 219 226 25 26 
113 59 60 227 220 
114 220 227 228 221 
115 221 228 229 222 
116 222 229 230 223 
117 223 230 231 224 
118 224 231 232 225 
119 225 232 233 226 
120 226 233 24 25 
121 60 61 234 227 
122 227 234 235 228 
123 228 235 236 229 
124 229 236 237 230 
125 230 237 238 231 
126 231 238 239 232 
127 232 239 240 233 
128 233 240 23 24 
129 61 62 241 234 
130 234 241 242 235 
131 235 242 243 236 
132 236 243 244 237 
133 237 244 245 238 
134 238 245 246 239 
135 239 246 247 240 
136 240 247 22 23 
137 62 63 248 241 
138 241 248 249 242 
139 242 249 250 243 
140 243 250 251 244 
141 244 251 252 245 
142 245 252 253 246 
143 246 253 254 247 
144 247 254 21 22 
145 63 64 255 248 
146 248 255 256 249 
147 249 256 257 250 
148 250 257 258 251 
149 251 258 259 252 
150 252 259 260 253 
151 253 260 261 254 
152 254 261 20 21 
153 64 65 262 255 
154 255 262 263 256 
155 256 263 264 257 
156 257 264 265 258 
157 258 265 266 259 
158 259 266 267 260 
159 260 267 268 261 
160 261 268 19 20 
161 65 66 269 262 
162 262 269 270 263 
163 263 270 271 264 
164 264 271 272 265 
165 265 272 273 266 
166 266 273 274 267 
167 267 274 275 268 
168 268 275 18 19 
169 66 67 276 269 
170 269 276 277 270 
171 270 277 278 271 
172 271 278 279 272 
173 272 279 280 273 
174 273 280 281 274 
175 274 281 282 275 
176 275 282 17 18 
177 67 68 283 276 
178 276 283 284 277 
179 277 284 285 278 
180 278 285 286 279 
181 279 286 287 280 
182 280 287 288 281 
183 281 288 289 282 
184 282 289 16 17 
185 68 1 9 283 
186 283 9 10 284 
187 284 10 11 285 
188 285 11 12 286 
189 286 12 13 287 
190 287 13 14 288 
191 288 14 15 289 
192 289 15 2 16 
2 21 3 24
193 4 46 69 5 
194 46 47 70 69 
195 47 48 71 70 
196 48 49 72 71 
197 49 50 73 72 
198 50 51 74 73 
199 51 52 75 74 
200 52 53 76 75 
201 53 54 77 76 
202 54 55 78 77 
203 55 56 79 78 
204 56 57 80 79 
205 57 58 81 80 
206 58 59 82 81 
207 59 60 83 82 
208 60 61 84 83 
209 61 62 85 84 
210 62 63 86 85 
211 63 64 87 86 
212 64 65 88 87 
213 65 66 89 88 
214 66 67 90 89 
215 67 68 91 90 
216 68 1 6 91 
2 25 3 8
217 1 9 92 6 
218 9 10 93 92 
219 10 11 94 93 
220 11 12 95 94 
221 12 13 96 95 
222 13 14 97 96 
223 14 15 98 97 
224 15 2 7 98 
2 29 3 24
225 2 16 99 7 
226 16 17 100 99 
227 17 18 101 100 
228 18 19 102 101 
229 19 20 103 102 
230 20 21 104 103 
231 21 22 105 104 
232 22 23 106 105 
233 23 24 107 106 
234 24 25 108 107 
235 25 26 109 108 
236 26 27 110 109 
237 27 28 111 110 
238 28 29 112 111 
239 29 30 113 112 
240 30 31 114 113 
241 31 32 115 114 
242 32 33 116 115 
243 33 34 117 116 
244 34 35 118 117 
245 35 36 119 118 
246 36 37 120 119 
247 37 38 121 120 
248 38 3 8 121 
2 33 3 8
249 3 39 122 8 
250 39 40 123 122 
251 40 41 124 123 
252 41 42 125 124 
253 42 43 126 125 
254 43 44 127 126 
255 44 45 128 127 
256 45 4 5 128 
2 34 3 192
257 5 69 290 128 
258 128 290 291 127 
259 127 291 292 126 
260 126 292 293 125 
261 125 293 294 124 
262 124 294 295 123 
263 123 295 296 122 
264 122 296 121 8 
265 69 70 297 290 
266 290 297 298 291 
267 291 298 299 292 
268 292 299 300 293 
269 293 300 301 294 
270 294 301 302 295 
271 295 302 303 296 
272 296 303 120 121 
273 70 71 304 297 
274 297 304 305 298 
275 298 305 306 299 
276 299 306 307 300 
277 300 307 308 301 
278 301 308 309 302 
279 302 309 310 303 
280 303 310 119 120 
281 71 72 311 304 
282 304 311 312 305 
283 305 312 313 306 
284 306 313 314 307 
285 307 314 315 308 
286 308 315 316 309 
287 309 316 317 310 
288 310 317 118 119 
289 72 73 318 311 
290 311 318 319 312 
291 312 319 320 313 
292 313 320 321 314 
293 314 321 322 315 
294 315 322 323 316 
295 316 323 324 317 
296 317 324 117 118 
297 73 74 325 318 
298 318 325 326 319 
299 319 326 327 320 
300 320 327 328 321 
301 321 328 329 322 
302 322 329 330 323 
303 323 330 331 324 
304 324 331 116 117 
305 74 75 332 325 
306 325 332 333 326 
307 326 333 334 327 
308 327 334 335 328 
309 328 335 336 329 
310 329 336 337 330 
311 330 337 338 331 
312 331 338 115 116 
313 75 76 339 332 
314 332 339 340 333 
315 333 340 341 334 
316 334 341 342 335 
317 335 342 343 336 
318 336 343 344 337 
319 337 344 345 338 
320 338 345 114 115 
321 76 77 346 339 
322 339 346 347 340 
323 340 347 348 341 
324 341 348 349 342 
325 342 349 350 343 
326 343 350 351 344 
327 344 351 352 345 
328 345 352 113 114 
329 77 78 353 346 
330 346 353 354 347 
331 347 354 355 348 
332 348 355 356 349 
333 349 356 357 350 
334 350 357 358 351 
335 351 358 359 352 
336 352 359 112 113 
337 78 79 360 353 
338 353 360 361 354 
339 354 361 362 355 
340 355 362 363 356 
341 356 363 364 357 
342 357 364 365 358 
343 358 365 366 359 
344 359 366 111 112 
345 79 80 367 360 
346 360 367 368 361 
347 361 368 369 362 
348 362 369 370 363 
349 363 370 371 364 
350 364 371 372 365 
351 365 372 373 366 
352 366 373 110 111 
353 80 81 374 367 
354 367 374 375 368 
355 368 375 376 369 
356 369 376 377 370 
357 370 377 378 371 
358 371 378 379 372 
359 372 379 380 373 
360 373 380 109 110 
361 81 82 381 374 
362 374 381 382 375 
363 375 382 383 376 
364 376 383 384 377 
365 377 384 385 378 
366 378 385 386 379 
367 379 386 387 380 
368 380 387 108 109 
369 82 83 388 381 
370 381 388 389 382 
371 382 389 390 383 
372 383 390 391 384 
373 384 391 392 385 
374 385 392 393 386 
375 386 393 394 387 
376 387 394 107 108 
377 83 84 395 388 
378 388 395 396 389 
379 389 396 397 390 
380 390 397 398 391 
381 391 398 399 392 
382 392 399 400 393 
383 393 400 401 394 
384 394 401 106 107 
385 84 85 402 395 
386 395 402 403 396 
387 396 403 404 397 
388 397 404 405 398 
389 398 405 406 399 
390 399 406 407 400 
391 400 407 408 401 
392 401 408 105 106 
393 85 86 409 402 
394 402 409 410 403 
395 403 410 411 404 
396 404 411 412 405 
397 405 412 413 406 
398 406 413 414 407 
399 407 414 415 408 
400 408 415 104 105 
401 86 87 416 409 
402 409 416 417 410 
403 410 417 418 411 
404 411 418 419 412 
405 412 419 420 413 
406 413 420 421 414 
407 414 421 422 415 
408 415 422 103 104 
409 87 88 423 416 
410 416 423 424 417 
411 417 424 425 418 
412 418 425 426 419 
413 419 426 427 420 
414 420 427 428 421 
415 421 428 429 422 
416 422 429 102 103 
417 88 89 430 423 
418 423 430 431 424 
419 424 431 432 425 
420 425 432 433 426 
421 426 433 434 427 
422 427 434 435 428 
423 428 435 436 429 
424 429 436 101 102 
425 89 90 437 430 
426 430 437 438 431 
427 431 438 439 432 
428 432 439 440 433 
429 433 440 441 434 
430 434 441 442 435 
431 435 442 443 436 
432 436 443 100 101 
433 90 91 444 437 
434 437 444 445 438 
435 438 445 446 439 
436 439 446 447 440 
437 440 447 448 441 
438 441 448 449 442 
439 442 449 450 443 
440 443 450 99 100 
441 91 6 92 444 
442 444 92 93 445 
443 445 93 94 446 
444 446 94 95 447 
445 447 95 96 448 
446 448 96 97 449 
447 449 97 98 450 
448 450 98 7 99 
3 1 5 192
449 129 46 4 45 290 69 5 128 
450 130 129 45 44 291 290 128 127 
451 131 130 44 43 292 291 127 126 
452 132 131 43 42 293 292 126 125 
453 133 132 42 41 294 293 125 124 
454 134 133 41 40 295 294 124 123 
455 135 134 40 39 296 295 123 122 
456 38 135 39 3 121 296 122 8 
457 136 47 46 129 297 70 69 290 
458 137 136 129 130 298 297 290 291 
459 138 137 130 131 299 298 291 292 
460 139 138 131 132 300 299 292 293 
461 140 139 132 133 301 300 293 294 
462 141 140 133 134 302 301 294 295 
463 142 141 134 135 303 302 295 296 
464 37 142 135 38 120 303 296 121 
465 143 48 47 136 304 71 70 297 
466 144 143 136 137 305 304 297 298 
467 145 144 137 138 306 305 298 299 
468 146 145 138 139 307 306 299 300 
469 147 146 139 140 308 307 300 301 
470 148 147 140 141 309 308 301 302 
471 149 148 141 142 310 309 302 303 
472 36 149 142 37 119 310 303 120 
473 150 49 48 143 311 72 71 304 
474 151 150 143 144 312 311 304 305 
475 152 151 144 145 313 312 305 306 
476 153 152 145 146 314 313 306 307 
477 154 153 146 147 315 314 307 308 
478 155 154 147 148 316 315 308 309 
479 156 155 148 149 317 316 309 310 
480 35 156 149 36 118 317 310 119 
481 157 50 49 150 318 73 72 311 
482 158 157 150 151 319 318 311 312 
483 159 158 151 152 320 319 312 313 
484 160 159 152 153 321 320 313 314 
485 161 160 153 154 322 321 314 315 
486 162 161 154 155 323 322 315 316 
487 163 162 155 156 324 323 316 317 
488 34 163 156 35 117 324 317 118 
489 164 51 50 157 325 74 73 318 
490 165 164 157 158 326 325 318 319 
491 166 165 158 159 327 326 319 320 
492 167 166 159 160 328 327 320 321 
493 168 167 160 161 329 328 321 322 
494 169 168 161 162 330 329 322 323 
495 170 169 162 163 331 330 323 324 
496 33 170 163 34 116 331 324 117 
497 171 52 51 164 332 75 74 325 
498 172 171 164 165 333 332 325 326 
499 173 172 165 166 334 333 326 327 
500 174 173 166 167 335 334 327 328 
501 175 174 167 168 336 335 328 329 
502 176 175 168 169 337 336 329 330 
503 177 176 169 170 338 337 330 331 
504 32 177 170 33 115 338 331 116 
505 178 53 52 171 339 76 75 332 
506 179 178 171 172 340 339 332 333 
507 180 179 172 173 341 340 333 334 
508 181 180 173 174 342 341 334 335 
509 182 181 174 175 343 342 335 336 
510 183 182 175 176 344 343 336 337 
511 184 183 176 177 345 344 337 338 
512 31 184 177 32 114 345 338 115 
513 185 54 53 178 346 77 76 339 
514 186 185 178 179 347 346 339 340 
515 187 186 179 180 348 347 340 341 
516 188 187 180 181 349 348 341 342 
517 189 188 181 182 350 349 342 343 
518 190 189 182 183 351 350 343 344 
519 191 190 183 184 352 351 344 345 
520 30 191 184 31 113 352 345 114 
521 192 55 54 185 353 78 77 346 
522 193 192 185 186 354 353 346 347 
523 194 193 186 187 355 354 347 348 
524 195 194 187 188 356 355 348 349 
525 196 195 188 189 357 356 349 350 
526 197 196 189 190 358 357 350 351 
527 198 197 190 191 359 358 351 352 
528 29 198 191 30 112 359 352 113 
529 199 56 55 192 360 79 78 353 
530 200 199 192 193 361 360 353 354 
531 201 200 193 194 362 361 354 355 
532 202 201 194 195 363 362 355 356 
533 203 202 195 196 364 363 356 357 
534 204 203 196 197 365 364 357 358 
535 205 204 197 198 366 365 358 359 
536 28 205 198 29 111 366 359 112 
537 206 57 56 199 367 80 79 360 
538 207 206 199 200 368 367 360 361 
539 208 207 200 201 369 368 361 362 
540 209 208 201 202 370 369 362 363 
541 210 209 202 203 371 370 363 364 
542 211 210 203 204 372 371 364 365 
543 212 211 204 205 373 372 365 366 
544 27 212 205 28 110 373 366 111 
545 213 58 57 206 374 81 80 367 
546 214 213 206 207 375 374 367 368 
547 215 214 207 208 376 375 368 369 
548 216 215 208 209 377 376 369 370 
549 217 216 209 210 378 377 370 371 
550 218 217 210 211 379 378 371 372 
551 219 218 211 212 380 379 372 373 
552 26 219 212 27 109 380 373 110 
553 220 59 58 213 381 82 81 374 
554 221 220 213 214 382 381 374 375 
555 222 221 214 215 383 382 375 376 
556 223 222 215 216 384 383 376 377 
557 224 223 216 217 385 384 377 378 
558 225 224 217 218 386 385 378 379 
559 226 225 218 219 387 386 379 380 
560 25 226 219 26 108 387 380 109 
561 227 60 59 220 388 83 82 381 
562 228 227 220 221 389 388 381 382 
563 229 228 221 222 390 389 382 383 
564 230 229 222 223 391 390 383 384 
565 231 230 223 224 392 391 384 385 
566 232 231 224 225 393 392 385 386 
567 233 232 225 226 394 393 386 387 
568 24 233 226 25 107 394 387 108 
569 234 61 60 227 395 84 83 388 
570 235 234 227 228 396 395 388 389 
571 236 235 228 229 397 396 389 390 
572 237 236 229 230 398 397 390 391 
573 238 237 230 231 399 398 391 392 
574 239 238 231 232 400 399 392 393 
575 240 239 232 233 401 400 393 394 
576 23 240 233 24 106 401 394 107 
577 241 62 61 234 402 85 84 395 
578 242 241 234 235 403 402 395 396 
579 243 242 235 236 404 403 396 397 
580 244 243 236 237 405 404 397 398 
581 245 244 237 238 406 405 398 399 
582 246 245 238 239 407 406 399 400 
583 247 246 239 240 408 407 400 401 
584 22 247 240 23 105 408 401 106 
585 248 63 62 241 409 86 85 402 
586 249 248 241 242 410 409 402 403 
587 250 249 242 243 411 410 403 404 
588 251 250 243 244 412 411 404 405 
589 252 251 244 245 413 412 405 406 
590 253 252 245 246 414 413 406 407 
591 254 253 246 247 415 414 407 408 
592 21 254 247 22 104 415 408 105 
593 255 64 63 248 416 87 86 409 
594 256 255 248 249 417 416 409 410 
595 257 256 249 250 418 417 410 411 
596 258 257 250 251 419 418 411 412 
597 259 258 251 252 420 419 412 413 
598 260 259 252 253 421 420 413 414 
599 261 260 253 254 422 421 414 415 
600 20 261 254 21 103 422 415 104 
601 262 65 64 255 423 88 87 416 
602 263 262 255 256 424 423 416 417 
603 264 263 256 257 425 424 417 418 
604 265 264 257 258 426 425 418 419 
605 266 265 258 259 427 426 419 420 
606 267 266 259 260 428 427 420 421 
607 268 267 260 261 429 428 421 422 
608 19 268 261 20 102 429 422 103 
609 269 66 65 262 430 89 88 423 
610 270 269 262 263 431 430 423 424 
611 271 270 263 264 432 431 424 425 
612 272 271 264 265 433 432 425 426 
613 273 272 265 266 434 433 426 427 
614 274 273 266 267 435 434 427 428 
615 275 274 267 268 436 435 428 429 
616 18 275 268 19 101 436 429 102 
617 276 67 66 269 437 90 89 430 
618 277 276 269 270 438 437 430 431 
619 278 277 270 271 439 438 431 432 
620 279 278 271 272 440 439 432 433 
621 280 279 272 273 441 440 433 434 
622 281 280 273 274 442 441 434 435 
623 282 281 274 275 443 442 435 436 
624 17 282 275 18 100 443 436 101 
625 283 68 67 276 444 91 90 437 
626 284 283 276 277 445 444 437 438 
627 285 284 277 278 446 445 438 439 
628 286 285 278 279 447 446 439 440 
629 287 286 279 280 448 447 440 441 
630 288 287 280 281 449 448 441 442 
631 289 288 281 282 450 449 442 443 
632 16 289 282 17 99 450 443 100 
633 9 1 68 283 92 6 91 444 
634 10 9 283 284 93 92 444 445 
635 11 10 284 285 94 93 445 446 
636 12 11 285 286 95 94 446 447 
637 13 12 286 287 96 95 447 448 
638 14 13 287 288 97 96 448 449 
639 15 14 288 289 98 97 449 450 
640 2 15 289 16 7 98 450 99 
$EndElements
